<svg width="330" height="597" viewBox="0 0 330 597" fill="none" xmlns="http://www.w3.org/2000/svg">
<g opacity="0.5">
<path opacity="0.2" d="M133.595 21.1003C139.166 21.1003 143.682 16.5635 143.682 10.967C143.682 5.37048 139.166 0.833618 133.595 0.833618C128.025 0.833618 123.509 5.37048 123.509 10.967C123.509 16.5635 128.025 21.1003 133.595 21.1003Z" fill="#27AE60"/>
<path opacity="0.2" d="M105.064 422.556C101.021 418.724 94.6229 418.91 90.7727 422.971C86.9225 427.033 87.0785 433.432 91.1211 437.264C95.1638 441.097 101.562 440.911 105.413 436.849C109.263 432.788 109.107 426.388 105.064 422.556Z" fill="#27AE60"/>
<path opacity="0.2" d="M255.307 249.407C251.161 253.127 250.83 259.52 254.568 263.685C258.305 267.851 264.696 268.212 268.842 264.491C272.989 260.771 273.32 254.379 269.582 250.213C265.845 246.048 259.454 245.687 255.307 249.407Z" fill="#27AE60"/>
<path opacity="0.2" d="M269.406 497.274C272.115 492.407 270.348 486.255 265.458 483.533C260.569 480.81 254.408 482.549 251.698 487.416C248.989 492.283 250.756 498.435 255.646 501.158C260.535 503.88 266.696 502.141 269.406 497.274Z" fill="#27AE60"/>
<path opacity="0.2" d="M272.075 100.217C275.983 100.217 279.151 97.0344 279.151 93.1085C279.151 89.1826 275.983 86 272.075 86C268.168 86 265 89.1826 265 93.1085C265 97.0344 268.168 100.217 272.075 100.217Z" fill="#27AE60"/>
<path opacity="0.2" d="M23.9157 275.868C21.0797 273.179 16.5913 273.31 13.8904 276.159C11.1895 279.008 11.2989 283.497 14.1348 286.185C16.9707 288.874 21.4592 288.743 24.1601 285.894C26.861 283.045 26.7516 278.556 23.9157 275.868Z" fill="#27AE60"/>
<path opacity="0.2" d="M8.37281 114.038C11.9292 115.657 16.1309 114.073 17.7576 110.5C19.3842 106.927 17.8198 102.718 14.2633 101.099C10.7069 99.4799 6.50521 101.064 4.87859 104.637C3.25196 108.21 4.81638 112.419 8.37281 114.038Z" fill="#27AE60"/>
<path opacity="0.2" d="M49.2662 205.725C46.3577 208.335 46.1254 212.819 48.7473 215.741C51.3692 218.663 55.8524 218.917 58.7609 216.307C61.6693 213.697 61.9016 209.213 59.2798 206.291C56.6579 203.369 52.1747 203.116 49.2662 205.725Z" fill="#27AE60"/>
<path opacity="0.2" d="M39.0754 43.3455C42.983 43.3455 46.1508 40.1629 46.1508 36.237C46.1508 32.3111 42.983 29.1285 39.0754 29.1285C35.1678 29.1285 32 32.3111 32 36.237C32 40.1629 35.1678 43.3455 39.0754 43.3455Z" fill="#27AE60"/>
<path opacity="0.2" d="M188.965 471.439C186.129 468.751 181.64 468.881 178.94 471.73C176.239 474.579 176.348 479.068 179.184 481.757C182.02 484.445 186.508 484.315 189.209 481.466C191.91 478.616 191.801 474.127 188.965 471.439Z" fill="#27AE60"/>
<path opacity="0.2" d="M310.803 169.725C307.894 172.335 307.662 176.819 310.284 179.741C312.906 182.663 317.389 182.917 320.298 180.307C323.206 177.697 323.438 173.213 320.817 170.291C318.195 167.369 313.711 167.116 310.803 169.725Z" fill="#27AE60"/>
<path opacity="0.2" d="M242.863 590.679C244.764 587.265 243.524 582.949 240.094 581.039C236.664 579.13 232.343 580.349 230.442 583.763C228.541 587.177 229.781 591.493 233.211 593.403C236.641 595.313 240.962 594.093 242.863 590.679Z" fill="#27AE60"/>
<path opacity="0.2" d="M248.276 20.2667C253.846 20.2667 258.362 15.7298 258.362 10.1333C258.362 4.53685 253.846 0 248.276 0C242.705 0 238.19 4.53685 238.19 10.1333C238.19 15.7298 242.705 20.2667 248.276 20.2667Z" fill="#27AE60"/>
<path opacity="0.2" d="M21.2628 344.264C17.2201 340.432 10.8216 340.617 6.97141 344.679C3.12118 348.741 3.27719 355.14 7.31986 358.972C11.3625 362.805 17.761 362.619 21.6112 358.557C25.4615 354.496 25.3055 348.096 21.2628 344.264Z" fill="#27AE60"/>
<path opacity="0.2" d="M170.507 326.616C166.361 330.336 166.03 336.728 169.767 340.894C173.505 345.059 179.896 345.42 184.042 341.7C188.188 337.98 188.519 331.587 184.782 327.422C181.044 323.256 174.653 322.895 170.507 326.616Z" fill="#27AE60"/>
<path opacity="0.2" d="M324.462 396.671C327.172 391.804 325.405 385.652 320.515 382.929C315.625 380.207 309.464 381.945 306.755 386.812C304.045 391.679 305.812 397.832 310.702 400.554C315.592 403.276 321.752 401.538 324.462 396.671Z" fill="#27AE60"/>
</g>
</svg>
