<svg width="347" height="183" viewBox="0 0 347 183" fill="none" xmlns="http://www.w3.org/2000/svg">
<path opacity="0.5" d="M86.1355 86.4427C86.1355 86.4427 88.0867 80.975 92.754 81.5828C92.754 81.5828 99.5295 72.4695 106.754 80.3672C106.754 80.3672 114.433 78.4103 120.121 82.0619C123.913 84.4966 125.166 87.0505 125.166 87.0505L86.1355 86.4427Z" fill="#F8FCFF"/>
<path opacity="0.5" d="M57.8805 67.3474C57.8805 67.3474 60.2445 60.7224 65.8981 61.4589C65.8981 61.4589 74.1061 50.4174 82.859 59.9871C82.859 59.9871 92.1639 57.6155 99.0536 62.0405C103.648 64.9901 105.165 68.0839 105.165 68.0839L57.8805 67.3474Z" fill="#F8FCFF"/>
<path opacity="0.5" d="M137.095 61.6639C137.095 61.6639 140.234 55.8625 147.74 56.5072C147.74 56.5072 158.637 46.8386 170.257 55.2177C170.257 55.2177 182.609 53.1417 191.756 57.0149C197.855 59.5974 199.87 62.3074 199.87 62.3074L137.095 61.6639Z" fill="#F8FCFF"/>
<path d="M326.654 166.911C326.431 167.866 326.178 168.847 325.899 169.829C325.645 170.812 325.31 171.85 324.947 172.888C324.778 173.393 324.582 173.899 324.415 174.403C323.826 176.004 323.155 177.658 322.342 179.37C322.088 179.932 321.837 180.52 321.556 181.083C321.486 181.258 321.404 181.434 321.32 181.61C321.27 181.715 321.215 181.818 321.164 181.923H287.852L278.103 181.897H190.807L178.472 181.883H178.434L165.438 181.867H98.1006L70.0289 181.84H19.2642C19.2642 181.84 19.2475 181.793 19.2118 181.703C19.2023 181.675 19.1916 181.644 19.1785 181.608C19.1369 181.499 19.0821 181.352 19.0119 181.164L18.9846 181.109C18.9846 181.109 18.9846 181.109 18.9846 181.082C18.9846 181.082 18.9572 181.052 18.9572 181.025C18.8454 180.8 18.7609 180.547 18.6491 180.239C18.592 180.097 18.5372 179.929 18.4528 179.761C18.4528 179.734 18.4528 179.734 18.4528 179.704C18.4254 179.677 18.4254 179.677 18.4254 179.677C18.0399 178.676 17.564 177.371 17.0132 175.795C16.9644 175.652 16.9132 175.508 16.8609 175.363C16.4481 174.172 15.9948 172.838 15.5117 171.37C14.3636 167.807 13.0454 163.457 11.7581 158.546C11.2537 156.609 10.7492 154.589 10.2721 152.483C9.99137 151.268 9.70941 150.002 9.43934 148.725C9.36081 148.35 9.28467 147.975 9.20734 147.601C8.71241 145.208 8.24603 142.742 7.82606 140.223C7.27283 136.914 6.79694 133.513 6.43526 130.061C6.25561 128.366 6.10451 126.658 5.98316 124.942C5.97959 124.898 5.97602 124.852 5.97364 124.807C5.96888 124.761 5.9665 124.716 5.96294 124.669C5.79756 122.251 5.69287 119.816 5.66193 117.384C5.63695 115.426 5.65836 113.467 5.73451 111.513C5.78923 110.194 5.87371 108.875 5.95818 107.556C6.18185 104.749 6.51735 101.943 6.99443 99.2206C7.30258 97.3686 7.694 95.5155 8.14253 93.7195C9.2347 89.3136 10.7207 85.1044 12.6802 81.1192C13.3809 79.7439 14.109 78.3972 14.9216 77.078C16.7419 74.0748 18.5908 71.2682 20.4694 68.6309H20.4967C21.4771 67.2282 22.4574 65.9089 23.4377 64.6445C27.1069 59.8751 30.8331 55.7767 34.5891 52.2408C80.6734 9.05185 133.512 50.7261 166.208 21.7368C198.173 -6.5791 257.988 -6.99978 284.741 19.1269C285.246 19.6322 285.778 20.1375 286.282 20.6988C290.614 25.3037 293.956 30.6821 296.007 36.8243C297.588 41.5544 298.404 46.7361 298.316 52.3671C298.307 52.9582 298.289 53.5565 298.259 54.1583C298.135 56.7265 297.828 59.3841 297.321 62.1299C296.988 63.9485 296.568 65.8052 296.058 67.7037C294.825 72.2502 293.09 76.9933 290.792 82.0166C290.567 82.4933 290.343 82.97 290.119 83.4479C282.807 98.7701 288.83 107.947 298.048 116.338C303.734 121.53 310.6 126.413 316.314 132.25C317.07 133.035 317.799 133.821 318.527 134.636C318.807 134.96 319.081 135.284 319.352 135.613C320.116 136.537 320.85 137.479 321.553 138.452C321.909 138.956 322.252 139.467 322.583 139.988C323.561 141.523 324.431 143.132 325.166 144.831C325.676 146.016 326.121 147.244 326.493 148.52C326.965 150.143 327.316 151.845 327.524 153.635C327.993 157.594 327.769 161.983 326.654 166.911Z" fill="#DCEAFF"/>
<path d="M240.302 181.868H139.036L96.8205 181.841H20.4753C20.4753 181.841 20.4313 181.765 20.3444 181.611C20.2826 181.501 20.2005 181.355 20.0934 181.166L20.0518 181.112C20.0518 181.112 20.0518 181.112 20.0518 181.084C20.0518 181.084 20.0101 181.054 20.0101 181.027C19.8412 180.803 19.7163 180.549 19.5473 180.242C19.4616 180.1 19.3784 179.932 19.2511 179.764C19.2511 179.736 19.2511 179.736 19.2511 179.706C19.2094 179.679 19.2094 179.679 19.2094 179.679C18.6312 178.678 17.9138 177.373 17.0858 175.798C17.0108 175.655 16.9358 175.51 16.8585 175.365C16.4457 174.174 15.9924 172.841 15.5094 171.373C14.3613 167.809 13.043 163.459 11.7557 158.548C11.2513 156.612 10.7469 154.592 10.2698 152.486C9.98899 151.27 9.70703 150.005 9.43696 148.727C9.35843 148.353 9.28229 147.977 9.20496 147.603C8.71003 145.21 8.24365 142.744 7.82368 140.225C6.99919 135.292 6.34722 130.154 5.98078 124.945C38.7722 126.637 101.982 131.093 149.528 141.73C216.618 156.739 233.197 159.163 261.618 161.855C277.524 163.362 259.376 173.357 240.302 181.868Z" fill="#FFCF83"/>
<path d="M182.864 116.301L180.487 162.879H182.864L183.935 116.301H182.864Z" fill="#ADC8FE"/>
<path d="M183.054 112.084L183.658 114.952L194.475 102.093L183.054 112.084Z" fill="#ADC8FE"/>
<path d="M186.94 115.527L184.023 115.309L193.338 129.299L186.94 115.527Z" fill="#ADC8FE"/>
<path d="M180.974 117.814L182.668 115.424L165.899 116.185L180.974 117.814Z" fill="#ADC8FE"/>
<path d="M183.837 116.519C184.504 116.242 184.821 115.476 184.545 114.807C184.268 114.139 183.503 113.822 182.836 114.099C182.169 114.375 181.852 115.142 182.129 115.81C182.405 116.478 183.17 116.796 183.837 116.519Z" fill="#ADC8FE"/>
<path d="M175.787 156.3C175.787 156.3 89.0004 132.463 61.6413 130.062C34.2822 127.66 60.4908 133.272 60.4908 133.272C60.4908 133.272 134.762 152.844 152.137 160.914C169.513 168.984 175.787 156.3 175.787 156.3Z" fill="#F7C274"/>
<path d="M149.32 175.321C149.32 175.321 74.281 139.256 49.7761 132.486C25.2711 125.716 48.1961 135.179 48.1961 135.179C48.1961 135.179 112.552 165.298 127.028 175.484C141.504 185.67 149.32 175.321 149.32 175.321Z" fill="#F7C274"/>
<path d="M121.989 125.022L120.044 163.147H121.989L122.865 125.022H121.989Z" fill="#ADC8FE"/>
<path d="M122.144 121.569L122.638 123.917L131.492 113.392L122.144 121.569Z" fill="#ADC8FE"/>
<path d="M125.325 124.389L122.938 124.21L130.561 135.661L125.325 124.389Z" fill="#ADC8FE"/>
<path d="M120.441 126.26L121.829 124.303L108.102 124.927L120.441 126.26Z" fill="#ADC8FE"/>
<path d="M121.3 124.21C121.3 123.618 121.78 123.138 122.371 123.138C122.963 123.138 123.442 123.618 123.442 124.21C123.442 124.803 122.963 125.283 122.371 125.283C121.78 125.283 121.3 124.801 121.3 124.21Z" fill="#ADC8FE"/>
<path d="M327.527 153.636C327.348 155.96 327.06 158.377 326.654 160.894C326.645 160.951 326.637 161.006 326.625 161.064C326.408 162.35 326.167 163.668 325.898 164.986C325.644 166.364 325.309 167.819 324.946 169.275C324.777 169.982 324.581 170.691 324.414 171.398C323.825 173.642 323.154 175.96 322.34 178.361C322.087 179.148 321.836 179.973 321.555 180.762C321.485 181.008 321.403 181.256 321.318 181.501H19.1785C19.1369 181.347 19.0821 181.141 19.012 180.879L18.9846 180.8C18.9846 180.8 18.9846 180.8 18.9846 180.762C18.9846 180.762 18.9572 180.721 18.9572 180.682C18.8454 180.369 18.7609 180.013 18.6491 179.583C18.592 179.385 18.5372 179.148 18.4528 178.913C18.4528 178.875 18.4528 178.875 18.4528 178.833C18.4254 178.795 18.4254 178.795 18.4254 178.795C18.0399 177.391 17.564 175.563 17.0132 173.354C16.5587 171.535 16.0543 169.461 15.5118 167.15C14.3637 162.156 13.0454 156.059 11.7581 149.174C11.2537 146.459 10.7493 143.628 10.2722 140.677C9.99139 138.974 9.70942 137.199 9.43935 135.408C37.1352 145.947 108.36 169.629 159.226 156.385C168.366 154.006 178.452 151.876 189.034 149.971C191.398 149.545 193.79 149.13 196.199 148.727C223.637 144.128 253.635 140.941 278.771 138.744H278.777C279.067 138.719 279.355 138.694 279.646 138.669C279.929 138.644 280.212 138.62 280.495 138.595C280.839 138.566 281.182 138.535 281.524 138.505C282.236 138.446 282.942 138.384 283.647 138.325C283.738 138.318 283.829 138.31 283.922 138.303C284.462 138.256 284.998 138.212 285.534 138.168C287.509 138.002 289.447 137.844 291.344 137.691C291.77 137.658 292.197 137.623 292.619 137.59C293.087 137.552 293.554 137.515 294.015 137.478C294.64 137.429 295.259 137.382 295.874 137.333C296.254 137.304 296.632 137.274 297.007 137.246C297.68 137.193 298.346 137.143 299.005 137.092C299.33 137.067 299.652 137.043 299.975 137.018C300.417 136.985 300.857 136.953 301.295 136.918C301.331 136.914 301.365 136.912 301.402 136.911C302.119 136.857 302.826 136.804 303.527 136.751C303.75 136.734 303.973 136.719 304.195 136.702C304.207 136.701 304.216 136.701 304.223 136.699C304.234 136.697 304.24 136.697 304.24 136.697C309.909 136.277 315 135.92 319.357 135.618C320.12 136.541 320.854 137.484 321.558 138.457C321.913 138.961 322.257 139.472 322.588 139.993C323.566 141.528 324.436 143.137 325.171 144.836C325.681 146.021 326.126 147.249 326.497 148.524C326.966 150.144 327.318 151.846 327.527 153.636Z" fill="#82B378"/>
<path d="M196.198 148.725C189.018 152.768 173.538 163.119 164.026 181.499C163.958 181.626 163.893 181.755 163.826 181.884L156.595 181.499L154.333 181.378C154.551 180.765 164.638 165.447 189.034 149.969C191.398 149.543 193.789 149.127 196.198 148.725Z" fill="#6E9E63"/>
<path d="M169.499 181.405C169.729 180.759 181.459 162.885 210.44 146.711L212.721 148.497C212.721 148.497 190.429 158.31 178.47 181.885L169.499 181.405Z" fill="#6E9E63"/>
<path d="M190.45 181.405C190.68 180.759 202.411 162.885 231.391 146.711L233.672 148.497C233.672 148.497 211.381 158.31 199.421 181.885L190.45 181.405Z" fill="#6E9E63"/>
<path d="M304.237 136.695C304.237 136.695 263.632 140.833 238.275 167L222.277 162.407C222.718 161.761 240.088 148.205 278.77 138.743H278.776C288.048 137.933 296.66 137.258 304.237 136.695Z" fill="#6E9E63"/>
<path d="M325.168 144.832C306.929 149.244 277.728 159.353 255.894 181.499H241.914L231.642 178.521C232.294 177.511 260.134 154.179 322.587 139.989C323.563 141.524 324.433 143.134 325.168 144.832Z" fill="#6E9E63"/>
<path d="M179.513 181.082L179.721 181.028C179.638 180.655 179.43 173.157 181.778 168.784L181.589 168.682C179.208 173.113 179.433 180.774 179.513 181.082Z" fill="#6E9E63"/>
<path d="M182.18 164.768C182.18 164.768 182.919 166.321 182.469 167.017C182.02 167.713 181.648 165.727 182.18 164.768Z" fill="#FFCF83"/>
<path d="M182.642 171.321C182.642 171.321 181.903 169.767 182.353 169.071C182.803 168.375 183.175 170.362 182.642 171.321Z" fill="#FFCF83"/>
<path d="M180.7 165.242C180.7 165.242 182.071 166.28 181.991 167.106C181.911 167.931 180.668 166.339 180.7 165.242Z" fill="#FFCF83"/>
<path d="M184.122 170.847C184.122 170.847 182.751 169.809 182.831 168.983C182.912 168.158 184.154 169.749 184.122 170.847Z" fill="#FFCF83"/>
<path d="M179.618 166.359C179.618 166.359 181.309 166.66 181.612 167.433C181.914 168.205 180.085 167.352 179.618 166.359Z" fill="#FFCF83"/>
<path d="M185.206 169.798C185.206 169.798 183.514 169.497 183.212 168.725C182.908 167.952 184.737 168.806 185.206 169.798Z" fill="#FFCF83"/>
<path d="M179.267 169.083C179.267 169.083 180.622 168.025 181.397 168.316C182.173 168.605 180.316 169.397 179.267 169.083Z" fill="#FFCF83"/>
<path d="M185.683 167.769C185.683 167.769 184.167 168.578 183.452 168.158C182.738 167.739 184.703 167.279 185.683 167.769Z" fill="#FFCF83"/>
<path d="M180.014 170.265C180.014 170.265 180.856 168.765 181.683 168.734C182.511 168.702 181.104 170.149 180.014 170.265Z" fill="#FFCF83"/>
<path d="M185.098 166.115C185.098 166.115 184.255 167.615 183.427 167.646C182.601 167.678 184.009 166.23 185.098 166.115Z" fill="#FFCF83"/>
<path d="M181.123 171.15C181.123 171.15 181.233 169.432 181.965 169.045C182.697 168.657 182.054 170.572 181.123 171.15Z" fill="#FFCF83"/>
<path d="M183.91 165.203C183.91 165.203 183.799 166.92 183.068 167.308C182.336 167.695 182.979 165.78 183.91 165.203Z" fill="#FFCF83"/>
<path d="M179.18 167.975C179.18 167.975 180.785 167.361 181.441 167.866C182.098 168.371 180.091 168.583 179.18 167.975Z" fill="#FFCF83"/>
<path d="M183.607 168.079C183.607 167.417 183.071 166.881 182.411 166.881C181.751 166.881 181.215 167.417 181.215 168.079C181.215 168.74 181.751 169.276 182.411 169.276C183.071 169.276 183.607 168.74 183.607 168.079Z" fill="#365DA4"/>
<path d="M179.925 174.177C179.925 174.177 180.964 173.116 182.4 173.045C183.835 172.973 184.277 173.045 184.277 173.045C184.277 173.045 183.394 173.979 182.341 174.177C181.288 174.373 179.925 174.177 179.925 174.177Z" fill="#6E9E63"/>
<path d="M180.14 173.147C179.958 172.989 179.822 171.697 178.71 171.373C177.597 171.05 176.809 170.986 176.809 170.986C176.809 170.986 177.772 172.666 178.474 172.917C179.176 173.17 180.14 173.147 180.14 173.147Z" fill="#6E9E63"/>
<path d="M173.891 181.082L174.137 181.019C174.038 180.58 173.793 171.755 176.556 166.609L176.333 166.489C173.535 171.704 173.797 180.719 173.891 181.082Z" fill="#6E9E63"/>
<path d="M177.031 161.883C177.031 161.883 177.901 163.711 177.371 164.53C176.842 165.348 176.405 163.011 177.031 161.883Z" fill="#FFCF83"/>
<path d="M177.574 169.596C177.574 169.596 176.704 167.768 177.233 166.949C177.764 166.129 178.201 168.466 177.574 169.596Z" fill="#FFCF83"/>
<path d="M175.289 162.44C175.289 162.44 176.903 163.662 176.809 164.633C176.715 165.606 175.252 163.732 175.289 162.44Z" fill="#FFCF83"/>
<path d="M179.317 169.037C179.317 169.037 177.704 167.815 177.797 166.844C177.891 165.873 179.354 167.746 179.317 169.037Z" fill="#FFCF83"/>
<path d="M174.014 163.756C174.014 163.756 176.004 164.111 176.361 165.019C176.718 165.927 174.566 164.923 174.014 163.756Z" fill="#FFCF83"/>
<path d="M180.591 167.802C180.591 167.802 178.6 167.447 178.243 166.539C177.888 165.631 180.04 166.635 180.591 167.802Z" fill="#FFCF83"/>
<path d="M173.602 166.961C173.602 166.961 175.197 165.715 176.109 166.057C177.022 166.399 174.837 167.33 173.602 166.961Z" fill="#FFCF83"/>
<path d="M181.154 165.415C181.154 165.415 179.369 166.367 178.529 165.874C177.688 165.38 180 164.838 181.154 165.415Z" fill="#FFCF83"/>
<path d="M174.482 168.353C174.482 168.353 175.473 166.588 176.447 166.55C177.42 166.513 175.764 168.216 174.482 168.353Z" fill="#FFCF83"/>
<path d="M180.465 163.468C180.465 163.468 179.474 165.233 178.499 165.271C177.526 165.308 179.182 163.605 180.465 163.468Z" fill="#FFCF83"/>
<path d="M175.787 169.393C175.787 169.393 175.916 167.372 176.778 166.915C177.639 166.459 176.882 168.714 175.787 169.393Z" fill="#FFCF83"/>
<path d="M179.067 162.394C179.067 162.394 178.937 164.415 178.076 164.872C177.214 165.328 177.97 163.073 179.067 162.394Z" fill="#FFCF83"/>
<path d="M173.5 165.657C173.5 165.657 175.389 164.935 176.161 165.528C176.934 166.123 174.573 166.373 173.5 165.657Z" fill="#FFCF83"/>
<path d="M178.71 165.78C178.71 165.001 178.079 164.37 177.302 164.37C176.525 164.37 175.895 165.001 175.895 165.78C175.895 166.558 176.525 167.189 177.302 167.189C178.08 167.188 178.71 166.558 178.71 165.78Z" fill="#365DA4"/>
<path d="M173.982 176.514C173.982 176.514 175.206 175.266 176.894 175.181C178.584 175.097 179.102 175.181 179.102 175.181C179.102 175.181 178.064 176.281 176.824 176.514C175.587 176.747 173.982 176.514 173.982 176.514Z" fill="#6E9E63"/>
<path d="M174.235 175.303C174.022 175.117 173.86 173.595 172.552 173.215C171.243 172.835 170.314 172.761 170.314 172.761C170.314 172.761 171.448 174.737 172.275 175.034C173.101 175.33 174.235 175.303 174.235 175.303Z" fill="#6E9E63"/>
<path d="M180.673 181.082L180.82 181.044C180.761 180.78 180.615 175.485 182.273 172.397L182.139 172.325C180.459 175.455 180.617 180.865 180.673 181.082Z" fill="#6E9E63"/>
<path d="M182.557 169.562C182.557 169.562 183.08 170.659 182.761 171.151C182.443 171.642 182.18 170.239 182.557 169.562Z" fill="#FFCF83"/>
<path d="M182.882 174.19C182.882 174.19 182.36 173.093 182.679 172.601C182.996 172.11 183.258 173.513 182.882 174.19Z" fill="#FFCF83"/>
<path d="M181.512 169.897C181.512 169.897 182.479 170.63 182.423 171.213C182.367 171.796 181.489 170.672 181.512 169.897Z" fill="#FFCF83"/>
<path d="M183.928 173.855C183.928 173.855 182.961 173.122 183.017 172.539C183.073 171.957 183.951 173.08 183.928 173.855Z" fill="#FFCF83"/>
<path d="M180.747 170.686C180.747 170.686 181.941 170.899 182.155 171.444C182.368 171.989 181.077 171.387 180.747 170.686Z" fill="#FFCF83"/>
<path d="M184.693 173.114C184.693 173.114 183.498 172.9 183.284 172.356C183.07 171.811 184.362 172.414 184.693 173.114Z" fill="#FFCF83"/>
<path d="M180.499 172.61C180.499 172.61 181.456 171.862 182.003 172.067C182.552 172.272 181.24 172.831 180.499 172.61Z" fill="#FFCF83"/>
<path d="M185.03 171.681C185.03 171.681 183.959 172.253 183.455 171.957C182.951 171.661 184.337 171.336 185.03 171.681Z" fill="#FFCF83"/>
<path d="M181.026 173.444C181.026 173.444 181.621 172.384 182.205 172.362C182.789 172.34 181.796 173.362 181.026 173.444Z" fill="#FFCF83"/>
<path d="M184.617 170.513C184.617 170.513 184.022 171.573 183.438 171.595C182.854 171.617 183.847 170.596 184.617 170.513Z" fill="#FFCF83"/>
<path d="M181.809 174.068C181.809 174.068 181.888 172.856 182.404 172.582C182.922 172.308 182.468 173.661 181.809 174.068Z" fill="#FFCF83"/>
<path d="M183.778 169.869C183.778 169.869 183.7 171.081 183.183 171.355C182.666 171.629 183.12 170.276 183.778 169.869Z" fill="#FFCF83"/>
<path d="M180.437 171.827C180.437 171.827 181.571 171.393 182.034 171.75C182.498 172.107 181.082 172.256 180.437 171.827Z" fill="#FFCF83"/>
<path d="M183.564 171.901C183.564 171.433 183.186 171.054 182.719 171.054C182.253 171.054 181.875 171.433 181.875 171.901C181.875 172.368 182.253 172.747 182.719 172.747C183.186 172.745 183.564 172.368 183.564 171.901Z" fill="#365DA4"/>
<path d="M180.728 178.341C180.728 178.341 181.462 177.592 182.475 177.541C183.489 177.49 183.799 177.541 183.799 177.541C183.799 177.541 183.176 178.201 182.433 178.341C181.69 178.48 180.728 178.341 180.728 178.341Z" fill="#6E9E63"/>
<path d="M180.879 177.615C180.75 177.503 180.654 176.59 179.869 176.362C179.083 176.135 178.525 176.09 178.525 176.09C178.525 176.09 179.206 177.275 179.702 177.453C180.198 177.63 180.879 177.615 180.879 177.615Z" fill="#6E9E63"/>
<path d="M188.851 181.082L189.096 181.019C188.997 180.58 188.752 171.755 191.517 166.609L191.294 166.489C188.493 171.704 188.757 180.719 188.851 181.082Z" fill="#6E9E63"/>
<path d="M191.991 161.883C191.991 161.883 192.861 163.711 192.331 164.53C191.8 165.348 191.364 163.011 191.991 161.883Z" fill="#FFCF83"/>
<path d="M192.533 169.596C192.533 169.596 191.664 167.768 192.193 166.949C192.723 166.129 193.16 168.466 192.533 169.596Z" fill="#FFCF83"/>
<path d="M190.249 162.44C190.249 162.44 191.861 163.662 191.768 164.633C191.673 165.606 190.211 163.732 190.249 162.44Z" fill="#FFCF83"/>
<path d="M194.275 169.037C194.275 169.037 192.663 167.815 192.756 166.844C192.851 165.873 194.313 167.746 194.275 169.037Z" fill="#FFCF83"/>
<path d="M188.974 163.756C188.974 163.756 190.964 164.111 191.321 165.019C191.677 165.927 189.526 164.923 188.974 163.756Z" fill="#FFCF83"/>
<path d="M195.551 167.802C195.551 167.802 193.56 167.447 193.203 166.539C192.848 165.631 194.999 166.635 195.551 167.802Z" fill="#FFCF83"/>
<path d="M188.561 166.961C188.561 166.961 190.155 165.715 191.068 166.057C191.981 166.399 189.797 167.33 188.561 166.961Z" fill="#FFCF83"/>
<path d="M196.112 165.415C196.112 165.415 194.327 166.367 193.488 165.874C192.648 165.38 194.958 164.838 196.112 165.415Z" fill="#FFCF83"/>
<path d="M189.44 168.353C189.44 168.353 190.431 166.588 191.405 166.55C192.379 166.513 190.723 168.216 189.44 168.353Z" fill="#FFCF83"/>
<path d="M195.423 163.468C195.423 163.468 194.432 165.233 193.458 165.271C192.485 165.308 194.142 163.605 195.423 163.468Z" fill="#FFCF83"/>
<path d="M190.745 169.393C190.745 169.393 190.875 167.372 191.736 166.915C192.599 166.459 191.842 168.714 190.745 169.393Z" fill="#FFCF83"/>
<path d="M194.027 162.394C194.027 162.394 193.896 164.415 193.035 164.872C192.173 165.328 192.93 163.073 194.027 162.394Z" fill="#FFCF83"/>
<path d="M188.459 165.657C188.459 165.657 190.348 164.935 191.12 165.528C191.893 166.123 189.532 166.373 188.459 165.657Z" fill="#FFCF83"/>
<path d="M192.262 167.189C193.039 167.189 193.669 166.558 193.669 165.78C193.669 165.001 193.039 164.37 192.262 164.37C191.485 164.37 190.855 165.001 190.855 165.78C190.855 166.558 191.485 167.189 192.262 167.189Z" fill="#365DA4"/>
<path d="M189.335 172.955C189.335 172.955 190.56 171.707 192.248 171.623C193.936 171.538 194.456 171.623 194.456 171.623C194.456 171.623 193.417 172.723 192.178 172.955C190.94 173.188 189.335 172.955 189.335 172.955Z" fill="#6E9E63"/>
<path d="M189.589 171.744C189.376 171.558 189.214 170.037 187.905 169.656C186.597 169.276 185.667 169.202 185.667 169.202C185.667 169.202 186.801 171.178 187.628 171.475C188.455 171.771 189.589 171.744 189.589 171.744Z" fill="#6E9E63"/>
<path d="M184.321 181.082L184.566 181.014C184.467 180.539 184.222 170.991 186.986 165.425L186.762 165.295C183.964 170.936 184.227 180.69 184.321 181.082Z" fill="#6E9E63"/>
<path d="M187.46 160.31C187.46 160.31 188.33 162.288 187.801 163.173C187.271 164.06 186.835 161.531 187.46 160.31Z" fill="#FFCF83"/>
<path d="M188.003 168.654C188.003 168.654 187.133 166.676 187.663 165.79C188.193 164.904 188.63 167.433 188.003 168.654Z" fill="#FFCF83"/>
<path d="M185.719 160.914C185.719 160.914 187.331 162.235 187.238 163.287C187.144 164.338 185.682 162.31 185.719 160.914Z" fill="#FFCF83"/>
<path d="M189.746 168.05C189.746 168.05 188.134 166.728 188.227 165.677C188.321 164.626 189.783 166.653 189.746 168.05Z" fill="#FFCF83"/>
<path d="M184.443 162.337C184.443 162.337 186.434 162.722 186.79 163.704C187.147 164.686 184.995 163.6 184.443 162.337Z" fill="#FFCF83"/>
<path d="M191.02 166.715C191.02 166.715 189.03 166.33 188.673 165.348C188.317 164.365 190.469 165.452 191.02 166.715Z" fill="#FFCF83"/>
<path d="M184.031 165.805C184.031 165.805 185.626 164.458 186.538 164.827C187.451 165.197 185.266 166.204 184.031 165.805Z" fill="#FFCF83"/>
<path d="M191.583 164.131C191.583 164.131 189.798 165.162 188.958 164.627C188.117 164.095 190.429 163.508 191.583 164.131Z" fill="#FFCF83"/>
<path d="M184.911 167.31C184.911 167.31 185.902 165.401 186.876 165.36C187.849 165.319 186.193 167.162 184.911 167.31Z" fill="#FFCF83"/>
<path d="M190.894 162.026C190.894 162.026 189.903 163.935 188.928 163.975C187.955 164.016 189.611 162.172 190.894 162.026Z" fill="#FFCF83"/>
<path d="M186.216 168.435C186.216 168.435 186.346 166.248 187.207 165.755C188.068 165.261 187.312 167.701 186.216 168.435Z" fill="#FFCF83"/>
<path d="M189.496 160.864C189.496 160.864 189.365 163.051 188.505 163.544C187.644 164.037 188.399 161.599 189.496 160.864Z" fill="#FFCF83"/>
<path d="M183.929 164.394C183.929 164.394 185.819 163.612 186.591 164.255C187.363 164.898 185.002 165.168 183.929 164.394Z" fill="#FFCF83"/>
<path d="M189.139 164.526C189.139 163.683 188.509 163.001 187.732 163.001C186.955 163.001 186.324 163.683 186.324 164.526C186.324 165.369 186.955 166.051 187.732 166.051C188.51 166.051 189.139 165.369 189.139 164.526Z" fill="#365DA4"/>
<path d="M184.411 176.14C184.411 176.14 185.635 174.789 187.324 174.699C189.013 174.607 189.532 174.699 189.532 174.699C189.532 174.699 188.493 175.888 187.253 176.14C186.016 176.391 184.411 176.14 184.411 176.14Z" fill="#6E9E63"/>
<path d="M184.664 174.83C184.452 174.628 184.29 172.983 182.981 172.57C181.672 172.158 180.743 172.079 180.743 172.079C180.743 172.079 181.877 174.217 182.704 174.538C183.531 174.858 184.664 174.83 184.664 174.83Z" fill="#6E9E63"/>
<path d="M190.216 181.082L190.389 181.038C190.32 180.728 190.147 174.496 192.099 170.863L191.942 170.778C189.964 174.46 190.149 180.826 190.216 181.082Z" fill="#6E9E63"/>
<path d="M192.433 167.524C192.433 167.524 193.047 168.815 192.674 169.393C192.299 169.972 191.991 168.322 192.433 167.524Z" fill="#FFCF83"/>
<path d="M192.816 172.971C192.816 172.971 192.203 171.68 192.576 171.102C192.951 170.523 193.259 172.173 192.816 172.971Z" fill="#FFCF83"/>
<path d="M191.203 167.919C191.203 167.919 192.342 168.782 192.275 169.467C192.21 170.153 191.177 168.831 191.203 167.919Z" fill="#FFCF83"/>
<path d="M194.047 172.576C194.047 172.576 192.908 171.713 192.975 171.028C193.04 170.342 194.073 171.665 194.047 172.576Z" fill="#FFCF83"/>
<path d="M190.303 168.847C190.303 168.847 191.708 169.099 191.96 169.74C192.212 170.381 190.693 169.672 190.303 168.847Z" fill="#FFCF83"/>
<path d="M194.947 171.705C194.947 171.705 193.542 171.454 193.29 170.812C193.038 170.171 194.557 170.88 194.947 171.705Z" fill="#FFCF83"/>
<path d="M190.012 171.11C190.012 171.11 191.138 170.231 191.783 170.473C192.426 170.715 190.884 171.371 190.012 171.11Z" fill="#FFCF83"/>
<path d="M195.343 170.019C195.343 170.019 194.084 170.691 193.49 170.343C192.896 169.995 194.528 169.612 195.343 170.019Z" fill="#FFCF83"/>
<path d="M190.632 172.094C190.632 172.094 191.332 170.847 192.019 170.821C192.707 170.795 191.538 171.997 190.632 172.094Z" fill="#FFCF83"/>
<path d="M194.857 168.645C194.857 168.645 194.157 169.891 193.47 169.917C192.782 169.944 193.952 168.741 194.857 168.645Z" fill="#FFCF83"/>
<path d="M191.554 172.828C191.554 172.828 191.646 171.401 192.254 171.078C192.863 170.756 192.329 172.349 191.554 172.828Z" fill="#FFCF83"/>
<path d="M193.871 167.887C193.871 167.887 193.779 169.313 193.171 169.636C192.562 169.958 193.096 168.366 193.871 167.887Z" fill="#FFCF83"/>
<path d="M189.94 170.19C189.94 170.19 191.273 169.68 191.82 170.1C192.364 170.519 190.698 170.696 189.94 170.19Z" fill="#FFCF83"/>
<path d="M193.618 170.276C193.618 169.727 193.173 169.281 192.625 169.281C192.077 169.281 191.632 169.727 191.632 170.276C191.632 170.825 192.077 171.271 192.625 171.271C193.173 171.271 193.618 170.825 193.618 170.276Z" fill="#365DA4"/>
<path d="M190.28 177.857C190.28 177.857 191.145 176.976 192.337 176.917C193.529 176.857 193.896 176.917 193.896 176.917C193.896 176.917 193.162 177.692 192.287 177.857C191.413 178.021 190.28 177.857 190.28 177.857Z" fill="#6E9E63"/>
<path d="M190.458 177.001C190.307 176.87 190.194 175.795 189.27 175.527C188.345 175.259 187.69 175.206 187.69 175.206C187.69 175.206 188.491 176.602 189.075 176.811C189.658 177.02 190.458 177.001 190.458 177.001Z" fill="#6E9E63"/>
<path d="M196.552 181.082L196.677 181.05C196.627 180.827 196.502 176.34 197.907 173.724L197.794 173.663C196.37 176.315 196.505 180.898 196.552 181.082Z" fill="#6E9E63"/>
<path d="M198.149 171.321C198.149 171.321 198.591 172.251 198.321 172.667C198.053 173.083 197.83 171.895 198.149 171.321Z" fill="#FFCF83"/>
<path d="M198.425 175.242C198.425 175.242 197.982 174.313 198.252 173.897C198.521 173.48 198.744 174.668 198.425 175.242Z" fill="#FFCF83"/>
<path d="M197.264 171.605C197.264 171.605 198.083 172.226 198.036 172.72C197.987 173.214 197.245 172.262 197.264 171.605Z" fill="#FFCF83"/>
<path d="M199.31 174.958C199.31 174.958 198.49 174.338 198.538 173.844C198.586 173.35 199.329 174.302 199.31 174.958Z" fill="#FFCF83"/>
<path d="M196.615 172.273C196.615 172.273 197.628 172.455 197.809 172.916C197.989 173.377 196.895 172.867 196.615 172.273Z" fill="#FFCF83"/>
<path d="M199.958 174.33C199.958 174.33 198.947 174.149 198.765 173.688C198.584 173.227 199.678 173.737 199.958 174.33Z" fill="#FFCF83"/>
<path d="M196.406 173.903C196.406 173.903 197.216 173.27 197.68 173.444C198.144 173.618 197.033 174.091 196.406 173.903Z" fill="#FFCF83"/>
<path d="M200.244 173.117C200.244 173.117 199.337 173.601 198.909 173.351C198.482 173.099 199.657 172.824 200.244 173.117Z" fill="#FFCF83"/>
<path d="M196.852 174.61C196.852 174.61 197.356 173.713 197.851 173.694C198.346 173.675 197.504 174.541 196.852 174.61Z" fill="#FFCF83"/>
<path d="M199.894 172.127C199.894 172.127 199.39 173.024 198.895 173.043C198.4 173.062 199.242 172.196 199.894 172.127Z" fill="#FFCF83"/>
<path d="M197.516 175.14C197.516 175.14 197.583 174.112 198.02 173.88C198.458 173.648 198.073 174.794 197.516 175.14Z" fill="#FFCF83"/>
<path d="M199.184 171.581C199.184 171.581 199.117 172.608 198.68 172.841C198.242 173.073 198.626 171.927 199.184 171.581Z" fill="#FFCF83"/>
<path d="M196.354 173.24C196.354 173.24 197.314 172.873 197.706 173.174C198.099 173.477 196.898 173.603 196.354 173.24Z" fill="#FFCF83"/>
<path d="M198.287 174.018C198.682 174.018 199.002 173.698 199.002 173.302C199.002 172.906 198.682 172.586 198.287 172.586C197.892 172.586 197.572 172.906 197.572 173.302C197.572 173.698 197.892 174.018 198.287 174.018Z" fill="#365DA4"/>
<path d="M196.799 176.95C196.799 176.95 197.421 176.316 198.28 176.273C199.139 176.23 199.402 176.273 199.402 176.273C199.402 176.273 198.873 176.832 198.244 176.95C197.615 177.068 196.799 176.95 196.799 176.95Z" fill="#6E9E63"/>
<path d="M196.928 176.335C196.82 176.24 196.738 175.467 196.073 175.273C195.408 175.08 194.935 175.042 194.935 175.042C194.935 175.042 195.512 176.047 195.932 176.197C196.352 176.347 196.928 176.335 196.928 176.335Z" fill="#6E9E63"/>
<path d="M193.19 181.082L193.336 181.044C193.277 180.781 193.131 175.502 194.784 172.423L194.651 172.351C192.976 175.471 193.133 180.865 193.19 181.082Z" fill="#6E9E63"/>
<path d="M195.069 169.596C195.069 169.596 195.59 170.69 195.272 171.179C194.954 171.669 194.693 170.27 195.069 169.596Z" fill="#FFCF83"/>
<path d="M195.392 174.209C195.392 174.209 194.871 173.115 195.189 172.625C195.507 172.135 195.768 173.534 195.392 174.209Z" fill="#FFCF83"/>
<path d="M194.025 169.929C194.025 169.929 194.99 170.66 194.934 171.241C194.878 171.822 194.004 170.702 194.025 169.929Z" fill="#FFCF83"/>
<path d="M196.435 173.875C196.435 173.875 195.47 173.145 195.526 172.563C195.583 171.983 196.457 173.103 196.435 173.875Z" fill="#FFCF83"/>
<path d="M193.263 170.716C193.263 170.716 194.454 170.928 194.667 171.472C194.881 172.015 193.593 171.414 193.263 170.716Z" fill="#FFCF83"/>
<path d="M197.198 173.136C197.198 173.136 196.007 172.924 195.794 172.381C195.58 171.837 196.868 172.438 197.198 173.136Z" fill="#FFCF83"/>
<path d="M193.016 172.633C193.016 172.633 193.971 171.889 194.517 172.092C195.063 172.297 193.755 172.855 193.016 172.633Z" fill="#FFCF83"/>
<path d="M197.534 171.709C197.534 171.709 196.467 172.278 195.963 171.983C195.461 171.687 196.844 171.363 197.534 171.709Z" fill="#FFCF83"/>
<path d="M193.542 173.466C193.542 173.466 194.136 172.411 194.718 172.388C195.301 172.365 194.31 173.384 193.542 173.466Z" fill="#FFCF83"/>
<path d="M197.122 170.543C197.122 170.543 196.529 171.599 195.947 171.622C195.364 171.644 196.355 170.625 197.122 170.543Z" fill="#FFCF83"/>
<path d="M194.323 174.089C194.323 174.089 194.401 172.879 194.916 172.606C195.432 172.333 194.98 173.682 194.323 174.089Z" fill="#FFCF83"/>
<path d="M196.286 169.901C196.286 169.901 196.207 171.11 195.692 171.383C195.177 171.656 195.629 170.307 196.286 169.901Z" fill="#FFCF83"/>
<path d="M192.955 171.853C192.955 171.853 194.085 171.42 194.546 171.777C195.009 172.132 193.597 172.282 192.955 171.853Z" fill="#FFCF83"/>
<path d="M196.073 171.927C196.073 171.461 195.696 171.083 195.23 171.083C194.765 171.083 194.388 171.461 194.388 171.927C194.388 172.393 194.765 172.77 195.23 172.77C195.696 172.77 196.073 172.393 196.073 171.927Z" fill="#365DA4"/>
<path d="M193.244 178.349C193.244 178.349 193.976 177.603 194.987 177.552C195.997 177.502 196.307 177.552 196.307 177.552C196.307 177.552 195.686 178.21 194.944 178.349C194.204 178.489 193.244 178.349 193.244 178.349Z" fill="#6E9E63"/>
<path d="M193.395 177.625C193.267 177.512 193.171 176.603 192.388 176.376C191.605 176.148 191.05 176.104 191.05 176.104C191.05 176.104 191.729 177.286 192.223 177.464C192.717 177.641 193.395 177.625 193.395 177.625Z" fill="#6E9E63"/>
<path d="M197.247 181.082L197.335 181.059C197.299 180.902 197.211 177.734 198.204 175.887L198.124 175.844C197.119 177.715 197.213 180.952 197.247 181.082Z" fill="#6E9E63"/>
<path d="M198.374 174.19C198.374 174.19 198.687 174.847 198.496 175.14C198.306 175.434 198.149 174.595 198.374 174.19Z" fill="#FFCF83"/>
<path d="M198.569 176.958C198.569 176.958 198.256 176.302 198.446 176.008C198.637 175.714 198.794 176.553 198.569 176.958Z" fill="#FFCF83"/>
<path d="M197.748 174.39C197.748 174.39 198.327 174.829 198.293 175.178C198.26 175.526 197.735 174.854 197.748 174.39Z" fill="#FFCF83"/>
<path d="M199.193 176.758C199.193 176.758 198.614 176.32 198.649 175.97C198.683 175.622 199.208 176.295 199.193 176.758Z" fill="#FFCF83"/>
<path d="M197.291 174.862C197.291 174.862 198.006 174.99 198.133 175.316C198.261 175.641 197.489 175.282 197.291 174.862Z" fill="#FFCF83"/>
<path d="M199.652 176.315C199.652 176.315 198.936 176.187 198.809 175.861C198.681 175.535 199.454 175.895 199.652 176.315Z" fill="#FFCF83"/>
<path d="M197.142 176.012C197.142 176.012 197.715 175.565 198.042 175.688C198.369 175.811 197.586 176.146 197.142 176.012Z" fill="#FFCF83"/>
<path d="M199.854 175.458C199.854 175.458 199.214 175.8 198.912 175.622C198.609 175.445 199.44 175.251 199.854 175.458Z" fill="#FFCF83"/>
<path d="M197.459 176.513C197.459 176.513 197.815 175.879 198.164 175.865C198.513 175.851 197.919 176.464 197.459 176.513Z" fill="#FFCF83"/>
<path d="M199.606 174.758C199.606 174.758 199.251 175.392 198.901 175.405C198.551 175.42 199.146 174.807 199.606 174.758Z" fill="#FFCF83"/>
<path d="M197.926 176.886C197.926 176.886 197.973 176.16 198.282 175.997C198.591 175.832 198.32 176.642 197.926 176.886Z" fill="#FFCF83"/>
<path d="M199.104 174.373C199.104 174.373 199.058 175.099 198.749 175.262C198.439 175.427 198.71 174.618 199.104 174.373Z" fill="#FFCF83"/>
<path d="M197.107 175.545C197.107 175.545 197.785 175.285 198.062 175.498C198.339 175.712 197.491 175.801 197.107 175.545Z" fill="#FFCF83"/>
<path d="M198.977 175.589C198.977 175.309 198.751 175.082 198.471 175.082C198.193 175.082 197.966 175.309 197.966 175.589C197.966 175.868 198.192 176.095 198.471 176.095C198.751 176.094 198.977 175.868 198.977 175.589Z" fill="#365DA4"/>
<path d="M197.279 179.442C197.279 179.442 197.718 178.994 198.325 178.964C198.932 178.934 199.117 178.964 199.117 178.964C199.117 178.964 198.744 179.358 198.3 179.442C197.855 179.525 197.279 179.442 197.279 179.442Z" fill="#6E9E63"/>
<path d="M197.37 179.008C197.293 178.941 197.235 178.396 196.765 178.258C196.295 178.121 195.962 178.095 195.962 178.095C195.962 178.095 196.369 178.804 196.666 178.91C196.963 179.018 197.37 179.008 197.37 179.008Z" fill="#6E9E63"/>
<path d="M202.139 181.082L202.286 181.044C202.227 180.781 202.08 175.502 203.734 172.423L203.6 172.351C201.925 175.471 202.083 180.865 202.139 181.082Z" fill="#6E9E63"/>
<path d="M204.018 169.596C204.018 169.596 204.539 170.69 204.221 171.179C203.905 171.669 203.643 170.27 204.018 169.596Z" fill="#FFCF83"/>
<path d="M204.343 174.209C204.343 174.209 203.822 173.115 204.139 172.625C204.456 172.135 204.717 173.534 204.343 174.209Z" fill="#FFCF83"/>
<path d="M202.976 169.929C202.976 169.929 203.94 170.66 203.885 171.241C203.829 171.822 202.953 170.702 202.976 169.929Z" fill="#FFCF83"/>
<path d="M205.385 173.875C205.385 173.875 204.42 173.145 204.476 172.563C204.533 171.983 205.407 173.103 205.385 173.875Z" fill="#FFCF83"/>
<path d="M202.213 170.716C202.213 170.716 203.404 170.928 203.617 171.472C203.83 172.015 202.543 171.414 202.213 170.716Z" fill="#FFCF83"/>
<path d="M206.148 173.136C206.148 173.136 204.957 172.924 204.744 172.381C204.531 171.837 205.818 172.438 206.148 173.136Z" fill="#FFCF83"/>
<path d="M201.967 172.633C201.967 172.633 202.921 171.889 203.467 172.092C204.012 172.297 202.706 172.855 201.967 172.633Z" fill="#FFCF83"/>
<path d="M206.484 171.709C206.484 171.709 205.417 172.278 204.914 171.983C204.41 171.687 205.794 171.363 206.484 171.709Z" fill="#FFCF83"/>
<path d="M202.493 173.466C202.493 173.466 203.086 172.411 203.668 172.388C204.25 172.365 203.259 173.384 202.493 173.466Z" fill="#FFCF83"/>
<path d="M206.073 170.543C206.073 170.543 205.479 171.599 204.897 171.622C204.314 171.644 205.305 170.625 206.073 170.543Z" fill="#FFCF83"/>
<path d="M203.273 174.089C203.273 174.089 203.352 172.879 203.867 172.606C204.382 172.333 203.929 173.682 203.273 174.089Z" fill="#FFCF83"/>
<path d="M205.236 169.901C205.236 169.901 205.158 171.11 204.642 171.383C204.127 171.656 204.579 170.307 205.236 169.901Z" fill="#FFCF83"/>
<path d="M201.905 171.853C201.905 171.853 203.035 171.42 203.497 171.777C203.96 172.132 202.547 172.282 201.905 171.853Z" fill="#FFCF83"/>
<path d="M205.022 171.927C205.022 171.461 204.645 171.083 204.18 171.083C203.714 171.083 203.337 171.461 203.337 171.927C203.337 172.393 203.714 172.77 204.18 172.77C204.646 172.769 205.022 172.393 205.022 171.927Z" fill="#365DA4"/>
<path d="M202.43 176.219C202.43 176.219 203.162 175.473 204.173 175.422C205.183 175.371 205.493 175.422 205.493 175.422C205.493 175.422 204.872 176.08 204.131 176.219C203.39 176.359 202.43 176.219 202.43 176.219Z" fill="#6E9E63"/>
<path d="M202.581 175.495C202.453 175.383 202.357 174.473 201.574 174.246C200.791 174.018 200.236 173.974 200.236 173.974C200.236 173.974 200.914 175.156 201.409 175.334C201.903 175.511 202.581 175.495 202.581 175.495Z" fill="#6E9E63"/>
<path d="M199.429 181.082L199.575 181.041C199.516 180.758 199.37 175.046 201.023 171.715L200.89 171.637C199.215 175.011 199.373 180.847 199.429 181.082Z" fill="#6E9E63"/>
<path d="M201.308 168.654C201.308 168.654 201.829 169.838 201.511 170.368C201.195 170.898 200.933 169.385 201.308 168.654Z" fill="#FFCF83"/>
<path d="M201.632 173.646C201.632 173.646 201.111 172.463 201.429 171.933C201.747 171.402 202.007 172.916 201.632 173.646Z" fill="#FFCF83"/>
<path d="M200.265 169.015C200.265 169.015 201.23 169.805 201.174 170.435C201.118 171.064 200.243 169.851 200.265 169.015Z" fill="#FFCF83"/>
<path d="M202.675 173.285C202.675 173.285 201.71 172.495 201.766 171.866C201.823 171.237 202.697 172.45 202.675 173.285Z" fill="#FFCF83"/>
<path d="M199.503 169.866C199.503 169.866 200.694 170.096 200.907 170.684C201.12 171.272 199.832 170.623 199.503 169.866Z" fill="#FFCF83"/>
<path d="M203.437 172.486C203.437 172.486 202.246 172.256 202.033 171.668C201.82 171.081 203.108 171.73 203.437 172.486Z" fill="#FFCF83"/>
<path d="M199.257 171.941C199.257 171.941 200.211 171.135 200.757 171.356C201.302 171.578 199.995 172.181 199.257 171.941Z" fill="#FFCF83"/>
<path d="M203.774 170.941C203.774 170.941 202.707 171.557 202.204 171.238C201.7 170.918 203.084 170.567 203.774 170.941Z" fill="#FFCF83"/>
<path d="M199.782 172.842C199.782 172.842 200.376 171.699 200.958 171.675C201.54 171.651 200.549 172.754 199.782 172.842Z" fill="#FFCF83"/>
<path d="M203.362 169.68C203.362 169.68 202.769 170.823 202.187 170.847C201.604 170.872 202.595 169.768 203.362 169.68Z" fill="#FFCF83"/>
<path d="M200.563 173.515C200.563 173.515 200.641 172.207 201.157 171.911C201.672 171.617 201.218 173.076 200.563 173.515Z" fill="#FFCF83"/>
<path d="M202.526 168.985C202.526 168.985 202.447 170.294 201.932 170.59C201.417 170.884 201.869 169.425 202.526 168.985Z" fill="#FFCF83"/>
<path d="M199.195 171.097C199.195 171.097 200.325 170.63 200.787 171.014C201.249 171.399 199.837 171.561 199.195 171.097Z" fill="#FFCF83"/>
<path d="M202.312 171.176C202.312 170.672 201.935 170.263 201.469 170.263C201.004 170.263 200.627 170.672 200.627 171.176C200.627 171.68 201.004 172.089 201.469 172.089C201.935 172.089 202.312 171.68 202.312 171.176Z" fill="#365DA4"/>
<path d="M199.484 178.125C199.484 178.125 200.217 177.317 201.227 177.262C202.237 177.207 202.547 177.262 202.547 177.262C202.547 177.262 201.925 177.974 201.184 178.125C200.443 178.276 199.484 178.125 199.484 178.125Z" fill="#6E9E63"/>
<path d="M199.635 177.342C199.508 177.222 199.411 176.237 198.628 175.991C197.846 175.744 197.29 175.697 197.29 175.697C197.29 175.697 197.968 176.976 198.463 177.168C198.957 177.359 199.635 177.342 199.635 177.342Z" fill="#6E9E63"/>
<path d="M202.957 181.082L203.06 181.055C203.018 180.871 202.915 177.142 204.082 174.968L203.988 174.917C202.805 177.12 202.916 180.929 202.957 181.082Z" fill="#6E9E63"/>
<path d="M204.283 172.971C204.283 172.971 204.651 173.743 204.427 174.089C204.202 174.435 204.018 173.447 204.283 172.971Z" fill="#FFCF83"/>
<path d="M204.512 176.229C204.512 176.229 204.144 175.457 204.368 175.111C204.593 174.764 204.777 175.752 204.512 176.229Z" fill="#FFCF83"/>
<path d="M203.547 173.207C203.547 173.207 204.229 173.723 204.188 174.133C204.149 174.544 203.531 173.752 203.547 173.207Z" fill="#FFCF83"/>
<path d="M205.248 175.993C205.248 175.993 204.566 175.477 204.607 175.067C204.646 174.656 205.264 175.448 205.248 175.993Z" fill="#FFCF83"/>
<path d="M203.008 173.762C203.008 173.762 203.849 173.912 203.999 174.296C204.15 174.68 203.241 174.255 203.008 173.762Z" fill="#FFCF83"/>
<path d="M205.787 175.472C205.787 175.472 204.946 175.322 204.796 174.938C204.645 174.555 205.554 174.979 205.787 175.472Z" fill="#FFCF83"/>
<path d="M202.834 175.116C202.834 175.116 203.507 174.59 203.893 174.735C204.278 174.879 203.356 175.272 202.834 175.116Z" fill="#FFCF83"/>
<path d="M206.024 174.463C206.024 174.463 205.27 174.866 204.915 174.657C204.56 174.449 205.537 174.22 206.024 174.463Z" fill="#FFCF83"/>
<path d="M203.205 175.705C203.205 175.705 203.624 174.959 204.036 174.943C204.447 174.926 203.748 175.646 203.205 175.705Z" fill="#FFCF83"/>
<path d="M205.734 173.64C205.734 173.64 205.315 174.386 204.903 174.402C204.491 174.417 205.192 173.698 205.734 173.64Z" fill="#FFCF83"/>
<path d="M203.757 176.143C203.757 176.143 203.812 175.29 204.176 175.097C204.54 174.904 204.22 175.857 203.757 176.143Z" fill="#FFCF83"/>
<path d="M205.142 173.186C205.142 173.186 205.087 174.041 204.723 174.233C204.361 174.426 204.679 173.474 205.142 173.186Z" fill="#FFCF83"/>
<path d="M202.791 174.565C202.791 174.565 203.59 174.26 203.916 174.512C204.242 174.762 203.245 174.868 202.791 174.565Z" fill="#FFCF83"/>
<path d="M204.992 174.616C204.992 174.288 204.726 174.021 204.397 174.021C204.069 174.021 203.803 174.288 203.803 174.616C203.803 174.945 204.069 175.212 204.397 175.212C204.726 175.212 204.992 174.945 204.992 174.616Z" fill="#365DA4"/>
<path d="M202.995 179.152C202.995 179.152 203.512 178.626 204.225 178.59C204.939 178.554 205.158 178.59 205.158 178.59C205.158 178.59 204.719 179.055 204.195 179.152C203.673 179.25 202.995 179.152 202.995 179.152Z" fill="#6E9E63"/>
<path d="M203.102 178.641C203.011 178.562 202.944 177.92 202.39 177.759C201.837 177.598 201.444 177.567 201.444 177.567C201.444 177.567 201.924 178.403 202.273 178.528C202.622 178.652 203.102 178.641 203.102 178.641Z" fill="#6E9E63"/>
<path d="M31.7337 124.809V181.704H19.2047C19.1987 181.687 19.1928 181.667 19.1844 181.647C19.1797 181.635 19.1749 181.622 19.1702 181.61C19.1285 181.5 19.0738 181.353 19.0036 181.165L18.9762 181.11C18.9762 181.11 18.9762 181.11 18.9762 181.083C18.9762 181.083 18.9489 181.053 18.9489 181.026C18.837 180.802 18.7526 180.548 18.6407 180.24C18.5836 180.099 18.5289 179.93 18.4444 179.762C18.4444 179.735 18.4444 179.735 18.4444 179.705C18.4171 179.678 18.4171 179.678 18.4171 179.678C18.0316 178.677 17.5557 177.372 17.0048 175.796C16.9561 175.653 16.9049 175.509 16.8526 175.364C16.4397 174.173 15.9864 172.84 15.5034 171.371C15.2809 170.681 15.0525 169.962 14.8181 169.213C13.8461 166.101 12.7872 162.507 11.7498 158.547C11.2454 156.61 10.7409 154.59 10.2638 152.485C9.98304 151.269 9.70108 150.003 9.43101 148.726C9.35249 148.352 9.27634 147.976 9.19901 147.602C8.70408 145.209 8.23771 142.743 7.81773 140.224C7.26451 136.916 6.78861 133.514 6.42693 130.062C6.24728 128.367 6.09619 126.659 5.97483 124.943C5.97127 124.899 5.9677 124.853 5.96532 124.809H31.7337Z" fill="#FFF3E9"/>
<path d="M21.4354 101.173L34.7093 128.544H75.0353L54.0115 101.273L21.4354 101.173Z" fill="#ED9F4A"/>
<path d="M73.4434 128.544L72.2454 126.99L52.4196 101.273L19.8448 101.173L31.7338 125.689V181.7H72.2454V128.544H73.4434Z" fill="#F9DDBF"/>
<path d="M52.058 114.859H52.9051C55.7818 114.859 58.1137 117.195 58.1137 120.077V133.337H47.0171V119.908C47.0171 117.118 49.274 114.859 52.058 114.859Z" fill="#EFCDAF"/>
<path d="M54.1186 101.173L54.0282 101.294L53.2429 102.342L34.281 127.662L32.4833 130.063H6.42456C6.24491 128.368 6.09381 126.661 5.97246 124.945C5.96889 124.9 5.96532 124.854 5.96294 124.81C5.95818 124.763 5.9558 124.718 5.95223 124.672C5.78686 122.254 5.68216 119.819 5.65123 117.386L18.1434 101.18H23.4389L41.9369 101.176L54.1186 101.173Z" fill="#ED9F4A"/>
<path d="M56.8157 136.189L66.2658 155.675H94.9752L80.0072 136.26L56.8157 136.189Z" fill="#ED9F4A"/>
<path d="M94.1151 155.675L79.147 136.26L55.9556 136.189L65.4056 155.675H65.4675V181.647L94.1151 181.703V155.675Z" fill="#F9DDBF"/>
<path d="M65.4687 155.675H41.21V181.647H65.4687V155.675Z" fill="#FFF3E9"/>
<path d="M38.5438 156.829H64.6037L80.0072 136.26L72.2454 136.262L54.3958 136.266L38.5438 156.829Z" fill="#ED9F4A"/>
<path d="M73.9729 160.001V181.703H86.0415V160.2C86.0415 158.409 85.2765 156.796 84.0559 155.674C82.9649 154.668 81.5086 154.055 79.9085 154.055C78.3332 154.055 76.8996 154.67 75.8396 155.674C74.6891 156.758 73.9729 158.296 73.9729 160.001Z" fill="#EFCDAF"/>
<path d="M81.3623 147.078C81.3623 146.328 80.7556 145.721 80.0084 145.721C79.26 145.721 78.6545 146.329 78.6545 147.078C78.6545 147.827 79.2612 148.434 80.0084 148.434C80.7556 148.434 81.3623 147.827 81.3623 147.078Z" fill="#EFCDAF"/>
<path d="M38.5438 156.829H43.4895L72.2454 136.262L54.3958 136.266L38.5438 156.829Z" fill="#E58638"/>
<path d="M34.0002 120.367H10.1829L22.7465 104.933H46.5638L34.0002 120.367Z" fill="#2B478B"/>
<path d="M43.3194 108.997H19.5033L19.6508 108.815H43.4681L43.3194 108.997Z" fill="#AEC3FF"/>
<path d="M28.3454 104.93L15.7818 120.366H15.5998L28.1646 104.93H28.3454Z" fill="#AEC3FF"/>
<path d="M34.6558 104.93L22.091 120.366H21.9101L34.4749 104.93H34.6558Z" fill="#AEC3FF"/>
<path d="M40.7282 104.93L28.1634 120.366H27.9825L40.5461 104.93H40.7282Z" fill="#AEC3FF"/>
<path d="M40.2082 112.739H16.391L16.5385 112.557H40.3558L40.2082 112.739Z" fill="#AEC3FF"/>
<path d="M36.921 116.776H13.1049L13.2525 116.595H37.0697L36.921 116.776Z" fill="#AEC3FF"/>
<path d="M24.3812 109.662L24.2444 108.918L25.5912 108.175L25.728 108.918L24.3812 109.662Z" fill="#AEC3FF"/>
<path d="M30.6237 109.662L30.4857 108.918L31.8337 108.175L31.9705 108.918L30.6237 109.662Z" fill="#AEC3FF"/>
<path d="M36.7866 109.662L36.6485 108.918L37.9965 108.175L38.1333 108.918L36.7866 109.662Z" fill="#AEC3FF"/>
<path d="M21.345 113.392L21.2082 112.648L22.555 111.904L22.6918 112.648L21.345 113.392Z" fill="#AEC3FF"/>
<path d="M27.5875 113.392L27.4495 112.648L28.7975 111.904L28.9343 112.648L27.5875 113.392Z" fill="#AEC3FF"/>
<path d="M33.7492 113.392L33.6124 112.648L34.9603 111.904L35.0972 112.648L33.7492 113.392Z" fill="#AEC3FF"/>
<path d="M18.0578 117.429L17.921 116.686L19.2689 115.942L19.4058 116.686L18.0578 117.429Z" fill="#AEC3FF"/>
<path d="M24.3003 117.429L24.1635 116.686L25.5115 115.942L25.6483 116.686L24.3003 117.429Z" fill="#AEC3FF"/>
<path d="M30.4631 117.429L30.3263 116.686L31.6731 115.942L31.8111 116.686L30.4631 117.429Z" fill="#AEC3FF"/>
<path d="M298.317 52.3695C298.308 52.9606 298.29 53.5588 298.26 54.1607C298.136 56.7289 297.829 59.3865 297.323 62.1323L260.061 61.6425C260.061 61.6425 263.433 53.6685 271.5 54.5551C271.5 54.5551 283.209 41.2636 295.694 52.783C295.695 52.783 296.683 52.5709 298.317 52.3695Z" fill="#F8FCFF"/>
<path d="M177.133 27.0639C177.133 27.0639 178.88 22.8535 183.056 23.3206C183.056 23.3206 189.119 16.3024 195.585 22.3851C195.585 22.3851 202.458 20.8775 207.548 23.6901C210.941 25.5647 212.062 27.5311 212.062 27.5311L177.133 27.0639Z" fill="#F8FCFF"/>
<path d="M36.6545 88.2136C36.6545 88.2136 38.52 83.7148 42.9827 84.2141C42.9827 84.2141 49.4608 76.7156 56.3684 83.2142C56.3684 83.2142 63.7114 81.6042 69.1497 84.6086C72.776 86.6119 73.9729 88.713 73.9729 88.713L36.6545 88.2136Z" fill="#F8FCFF"/>
<path d="M26.9308 74.4502C26.9308 74.4502 28.3585 71.0072 31.773 71.3898C31.773 71.3898 36.7306 65.6515 42.0166 70.6247C42.0166 70.6247 47.6357 69.3924 51.7974 71.6913C54.5719 73.2239 55.488 74.8327 55.488 74.8327L26.9308 74.4502Z" fill="#F8FCFF"/>
<path d="M327.566 161.338C327.392 163.116 327.092 164.972 326.653 166.911C326.644 166.95 326.635 166.99 326.623 167.032C316.774 170.606 306.622 175.348 297.582 181.611H273.14C276.683 179.327 293.949 169.752 327.566 161.338Z" fill="#6E9E63"/>
<path d="M273.277 156.128C273.277 156.128 292.033 154.481 297.131 156.128C302.229 157.775 304.779 165.435 304.051 171.029C303.323 176.623 301.622 181.365 298.345 181.244C295.067 181.122 271.881 181.244 271.881 181.244L273.277 156.128Z" fill="#EDBD77"/>
<path d="M277.107 155.839C277.107 155.839 281.077 155.099 283.778 154.825C283.778 154.825 281.653 155.261 281.39 155.484C281.39 155.484 287.156 154.613 289.26 154.825C291.365 155.038 294.247 155.395 294.247 155.395L297.454 155.18C297.454 155.18 294.783 155.504 294.924 155.545C295.066 155.585 297.534 155.889 298.323 156.396C298.323 156.396 300.772 157.166 301.298 157.632C301.298 157.632 299.335 156.639 298.566 156.7C298.566 156.7 303.013 159.79 303.025 162.734C303.037 165.677 283.898 158.3 283.898 158.3L277.107 155.839Z" fill="#EDBD77"/>
<path d="M275.96 155.98C275.96 155.98 268.494 155.412 263.76 161.43C259.026 167.449 262.85 181.387 269.04 181.439C275.232 181.493 282.857 180.54 284.507 172.444C286.156 164.348 282.696 156.184 275.96 155.98Z" fill="#FFCF83"/>
<path d="M260.673 167.988C260.673 167.988 263.344 164.907 263.627 164.056L264.032 164.907L260.673 167.988Z" fill="#FFCF83"/>
<path d="M262.6 163.428C262.6 163.428 262.938 161.22 263.91 160.41C263.91 160.41 263.027 161.89 263.256 163.126C263.483 164.359 262.6 163.428 262.6 163.428Z" fill="#FFCF83"/>
<path d="M263.91 179.055C263.959 179.173 262.474 175.011 262.96 174.221L263.243 174.223C263.242 174.223 263.434 177.899 263.91 179.055Z" fill="#FFCF83"/>
<path d="M262.716 173.643C262.716 173.643 261.603 173.278 260.975 173.643C260.975 173.643 262.007 173.353 262.634 173.967C263.263 174.581 262.716 173.643 262.716 173.643Z" fill="#FFCF83"/>
<path d="M273.006 181.228C271.289 181.228 269.224 180.936 267.459 179.855C265.552 178.686 264.308 176.802 263.758 174.254C262.822 169.916 263.282 166.358 265.124 163.676C266.846 161.17 269.754 159.537 273.534 158.956C276.085 158.563 278.294 159.39 279.922 161.344C282.274 164.168 282.95 168.941 281.565 172.949C280.587 175.781 277.974 177.53 274.577 177.628C274.48 177.63 274.383 177.633 274.287 177.633C270.865 177.633 267.78 175.881 266.72 173.306C265.64 170.68 265.697 168.112 266.879 166.074C268.078 164.005 270.344 162.659 273.258 162.284C275.896 161.943 277.319 163.175 278.048 164.266C279.454 166.372 279.451 169.794 278.508 171.445C277.601 173.036 275.087 174.265 272.903 174.189C271.328 174.131 270.125 173.402 269.517 172.133C268.735 170.5 268.787 168.814 269.658 167.507C270.36 166.454 271.494 165.812 272.545 165.869C273.754 165.935 274.268 166.945 274.343 167.791C274.408 168.536 274.155 169.365 273.544 169.508C272.407 169.773 272.005 169.152 271.989 169.125C271.989 169.125 271.375 168.111 272.138 167.965C273.013 167.799 272.783 168.478 272.783 168.478C272.795 168.497 272.567 169.415 273.473 169.202C273.847 169.115 274.092 168.506 274.033 167.818C273.966 167.062 273.536 166.235 272.53 166.18C271.584 166.127 270.561 166.716 269.918 167.679C269.109 168.893 269.067 170.466 269.799 171.997C270.512 173.483 271.887 173.84 272.915 173.876C274.993 173.948 277.382 172.791 278.238 171.29C279.032 169.9 279.245 166.621 277.79 164.44C276.815 162.98 275.262 162.342 273.298 162.594C270.484 162.956 268.299 164.248 267.15 166.231C266.018 168.183 265.968 170.653 267.011 173.186C268.052 175.717 271.162 177.415 274.569 177.316C277.831 177.222 280.337 175.551 281.271 172.847C282.621 168.937 281.968 164.29 279.683 161.544C278.599 160.243 276.662 158.793 273.583 159.264C269.89 159.833 267.055 161.419 265.382 163.853C263.59 166.46 263.146 169.937 264.064 174.188C264.594 176.648 265.792 178.466 267.623 179.589C271.323 181.856 277.159 180.484 277.21 180.47L276.55 180.828C276.52 180.835 274.999 181.228 273.006 181.228Z" fill="#EDBD77"/>
<path d="M302.292 147.403C302.292 147.403 327.512 145.189 334.369 147.403C341.224 149.617 344.653 159.919 343.672 167.44C342.693 174.961 340.408 181.338 336.001 181.175C331.594 181.011 300.416 181.175 300.416 181.175L302.292 147.403Z" fill="#EDBD77"/>
<path d="M307.443 147.016C307.443 147.016 312.78 146.019 316.412 145.652C316.412 145.652 313.555 146.239 313.202 146.538C313.202 146.538 320.956 145.366 323.785 145.652C326.614 145.938 330.491 146.419 330.491 146.419L334.803 146.129C334.803 146.129 331.212 146.565 331.403 146.62C331.593 146.675 334.912 147.084 335.974 147.764C335.974 147.764 339.266 148.8 339.972 149.427C339.972 149.427 337.333 148.091 336.3 148.173C336.3 148.173 342.28 152.328 342.296 156.286C342.311 160.245 316.575 150.325 316.575 150.325L307.443 147.016Z" fill="#EDBD77"/>
<path d="M305.898 147.204C305.898 147.204 295.859 146.439 289.494 154.533C283.128 162.626 288.27 181.368 296.595 181.439C304.919 181.511 315.172 180.23 317.391 169.343C319.61 158.456 314.958 147.478 305.898 147.204Z" fill="#FFCF83"/>
<path d="M285.343 163.352C285.343 163.352 288.934 159.21 289.315 158.066L289.858 159.21L285.343 163.352Z" fill="#FFCF83"/>
<path d="M287.936 157.219C287.936 157.219 288.391 154.25 289.696 153.159C289.696 153.159 288.509 155.151 288.816 156.811C289.122 158.472 287.936 157.219 287.936 157.219Z" fill="#FFCF83"/>
<path d="M289.696 178.231C289.762 178.391 287.764 172.794 288.418 171.731L288.797 171.735C288.797 171.735 289.056 176.678 289.696 178.231Z" fill="#FFCF83"/>
<path d="M288.092 170.955C288.092 170.955 286.595 170.464 285.751 170.955C285.751 170.955 287.137 170.567 287.982 171.392C288.827 172.216 288.092 170.955 288.092 170.955Z" fill="#FFCF83"/>
<path d="M301.927 181.154C299.619 181.154 296.841 180.762 294.469 179.308C291.905 177.737 290.229 175.203 289.491 171.777C288.232 165.944 288.851 161.159 291.328 157.553C293.644 154.183 297.554 151.988 302.636 151.206C306.066 150.678 309.037 151.789 311.225 154.418C314.387 158.216 315.295 164.633 313.434 170.022C312.119 173.83 308.606 176.182 304.039 176.315C303.908 176.318 303.778 176.321 303.649 176.321C299.047 176.321 294.899 173.965 293.475 170.501C292.024 166.971 292.099 163.518 293.687 160.778C295.3 157.995 298.346 156.186 302.265 155.682C305.811 155.224 307.726 156.88 308.706 158.347C310.598 161.178 310.593 165.779 309.325 168C308.104 170.139 304.723 171.791 301.788 171.688C299.67 171.612 298.053 170.63 297.235 168.924C296.183 166.728 296.252 164.46 297.424 162.703C298.367 161.287 299.893 160.424 301.307 160.5C302.932 160.588 303.625 161.948 303.723 163.085C303.812 164.087 303.47 165.202 302.649 165.394C301.122 165.75 300.58 164.916 300.558 164.88C300.558 164.88 299.733 163.515 300.759 163.32C301.934 163.096 301.625 164.009 301.625 164.009C301.641 164.034 301.334 165.27 302.553 164.984C303.055 164.866 303.386 164.048 303.305 163.122C303.215 162.107 302.638 160.995 301.283 160.921C300.012 160.848 298.635 161.643 297.772 162.937C296.685 164.569 296.627 166.684 297.613 168.742C298.571 170.741 300.42 171.219 301.802 171.269C304.596 171.364 307.808 169.809 308.96 167.791C310.027 165.922 310.313 161.512 308.356 158.58C307.045 156.618 304.957 155.758 302.318 156.099C298.533 156.587 295.596 158.323 294.05 160.99C292.528 163.614 292.461 166.936 293.863 170.342C295.262 173.744 299.445 176.028 304.027 175.895C308.413 175.769 311.783 173.522 313.038 169.886C314.853 164.63 313.975 158.38 310.902 154.689C309.446 152.94 306.841 150.989 302.7 151.624C297.736 152.388 293.922 154.521 291.674 157.794C289.265 161.3 288.669 165.975 289.901 171.69C290.615 174.999 292.226 177.442 294.687 178.952C299.662 182.002 307.509 180.156 307.578 180.138L306.691 180.618C306.653 180.625 304.606 181.154 301.927 181.154Z" fill="#EDBD77"/>
<path d="M119.724 157.187C119.724 157.187 115.396 173.917 115.784 175.239C116.171 176.56 118.345 181.053 118.345 181.053H116.254C116.254 181.053 115.408 180.638 115.442 179.602C115.477 178.565 112.544 174.521 112.544 174.521C112.544 174.521 113.694 168.099 112.544 165.569C107.59 154.674 115.888 154.778 119.724 157.187Z" fill="#CCA283"/>
<path d="M141.955 162.977C141.955 162.977 140.713 171.964 140.644 172.517C140.575 173.07 139.989 173.761 140.023 174.659C140.058 175.558 140.368 178.599 141.334 179.36C142.3 180.12 142.404 181.053 142.404 181.053H139.782C139.782 181.053 139.333 180.155 139.402 179.532C139.471 178.91 138.678 178.254 138.643 176.975C138.609 175.696 138.643 173.312 138.298 172.481C137.953 171.651 138.057 165.948 136.918 164.669C135.779 163.391 141.955 162.977 141.955 162.977Z" fill="#CCA283"/>
<path d="M113.424 159.971C113.396 160.386 113.382 160.771 113.382 161.157C113.453 170.886 123.066 167.971 123.407 167.714C123.779 167.457 124.448 167.485 124.448 167.485C129.255 169.4 135.987 167.642 137.384 167.07C138.782 166.498 142.505 167.913 144.23 167.784C144.929 167.727 145.514 166.999 145.956 166.085C146.583 164.785 146.94 163.113 146.998 162.527C147.026 162.199 147.469 160.941 148.067 159.399C148.31 158.798 148.581 158.142 148.865 157.471C148.922 157.356 148.965 157.228 149.022 157.113C148.88 156.956 148.751 156.784 148.623 156.613C147.867 155.613 147.339 154.441 146.755 153.27C146.155 152.041 145.514 150.784 144.559 149.655C143.146 149.212 141.464 150.013 140.764 149.97C139.952 149.941 139.152 149.798 138.425 149.684C138.126 149.627 137.856 149.584 137.599 149.541C136.172 149.326 127.53 150.441 121.425 150.612C120.17 150.655 119.029 150.641 118.074 150.584C118.003 150.584 117.931 150.569 117.86 150.569C115.307 150.426 113.951 150.584 113.239 150.813C112.455 151.056 112.44 151.356 112.44 151.356C110.002 153.743 113.424 159.971 113.424 159.971Z" fill="#EFCDAF"/>
<path d="M145.099 162.977C145.099 162.977 143.857 171.964 143.788 172.517C143.719 173.07 143.132 173.761 143.167 174.659C143.201 175.558 143.512 178.599 144.478 179.36C145.444 180.12 145.547 181.053 145.547 181.053H142.925C142.925 181.053 142.477 180.155 142.546 179.532C142.615 178.91 141.821 178.254 141.786 176.975C141.752 175.696 141.786 173.312 141.441 172.481C141.096 171.651 141.2 165.948 140.061 164.669C138.922 163.391 145.099 162.977 145.099 162.977Z" fill="#EFCDAF"/>
<path d="M122.424 160.929C122.424 160.929 118.93 173.916 119.318 175.239C119.706 176.56 121.88 181.053 121.88 181.053H119.788C119.788 181.053 118.942 180.638 118.977 179.602C119.011 178.565 116.079 174.521 116.079 174.521C116.079 174.521 115.842 167.191 114.117 165.012C112.391 162.835 118.588 158.52 122.424 160.929Z" fill="#EFCDAF"/>
<path d="M158.012 164.253C158.154 164.444 158.277 164.578 158.277 164.578C158.298 164.57 158.565 164.623 158.898 164.609C159.166 164.599 159.479 164.545 159.735 164.382C159.905 164.272 160.05 164.117 160.144 163.893C160.144 163.893 160.025 163.587 159.404 163.506C158.946 163.446 158.496 163.128 158.113 163.088H158.112C157.974 163.074 157.844 163.096 157.727 163.179C157.439 163.382 157.754 163.908 158.012 164.253Z" fill="#EFCDAF"/>
<path d="M158.672 165.465C158.69 165.457 158.908 165.499 159.193 165.497C159.652 165.496 160.286 165.385 160.541 164.78C160.541 164.78 160.422 164.474 159.801 164.393C159.78 164.39 159.757 164.387 159.736 164.382C159.336 164.31 158.942 164.059 158.599 163.989C158.426 163.954 158.267 163.965 158.124 164.065C158.056 164.113 158.022 164.177 158.012 164.254C157.955 164.682 158.672 165.465 158.672 165.465Z" fill="#EFCDAF"/>
<path d="M144.446 152.343C144.617 156.8 145.444 165.329 145.958 166.087C147.213 166.144 148.225 166.259 149.052 166.43C151.62 166.958 152.332 167.93 152.575 168.387C153.032 169.301 155.171 171.388 155.542 171.46C155.928 171.531 156.155 172.031 156.555 172.846C156.94 173.645 157.71 173.717 158.351 173.76C158.994 173.788 159.521 173.017 159.535 172.831C159.549 172.631 159.207 172.032 159.264 171.231C159.307 170.431 158.793 168.045 159.221 167.402C159.492 166.987 159.335 166.102 159.192 165.501C159.107 165.143 159.021 164.901 159.021 164.901C158.992 164.816 158.95 164.716 158.892 164.615C158.807 164.43 158.707 164.215 158.593 163.987C158.464 163.716 158.293 163.415 158.107 163.088C157.337 161.716 156.182 159.931 154.67 158.058C153.158 156.172 151.304 154.229 149.108 152.516C147.724 151.43 146.198 150.444 144.559 149.658C144.417 149.714 144.388 150.785 144.446 152.343Z" fill="#EFCDAF"/>
<path d="M142.453 160.772C142.362 160.542 142.409 156.631 139.591 155.827C136.773 155.024 135.231 156.26 131.714 154.838C128.197 153.417 124.496 152.243 124.125 153.787C123.755 155.332 124.433 159.659 124.125 161.636C123.817 163.613 130.493 164.314 133.232 163.098C135.971 161.884 143.444 163.306 142.453 160.772Z" fill="#2B478B"/>
<path d="M112.438 151.363C112.438 151.363 110.613 152.923 110.305 155.705C109.997 158.486 110.861 170.705 110.861 170.705L111.565 170.666L112.32 157.147L112.438 151.363Z" fill="#2B478B"/>
<path d="M111.683 172.259C111.683 172.259 110.161 170.618 111.107 170.248C112.053 169.877 111.683 170.989 111.683 171.421C111.683 171.854 111.683 172.259 111.683 172.259Z" fill="#2B478B"/>
<path d="M113.239 150.814C115.007 151.685 116.961 152.486 118.117 152.514C120.641 152.557 126.774 151.1 129.27 150.943C131.767 150.785 141.878 153.128 144.26 152.371C144.317 152.343 144.374 152.343 144.445 152.343C144.974 152.3 145.772 152.672 146.756 153.271C147.312 153.629 147.925 154.057 148.567 154.543C152.718 157.685 158.108 163.086 158.108 163.086C157.339 161.715 156.183 159.929 154.671 158.057C153.159 156.171 151.306 154.228 149.109 152.514C147.726 151.429 146.199 150.443 144.56 149.657C143.148 149.213 141.465 150.014 140.766 149.971C139.953 149.943 139.154 149.8 138.427 149.685C138.127 149.628 137.857 149.585 137.6 149.542C136.173 149.328 127.531 150.442 121.427 150.614C120.171 150.656 119.03 150.642 118.075 150.585C118.004 150.585 117.932 150.571 117.861 150.571C115.307 150.428 113.953 150.585 113.239 150.814Z" fill="#FFE7D7"/>
<path d="M121.428 150.614C122.532 151.516 124.65 151.876 127.642 151.317C131.282 150.637 132.146 152.244 135.169 152.368C137.837 152.476 138.342 150.218 138.424 149.684C138.13 149.635 137.852 149.587 137.594 149.548C136.176 149.332 127.525 150.438 121.428 150.614Z" fill="#2B478B"/>
<path d="M148.624 156.614C148.681 156.9 148.767 157.185 148.867 157.471C148.995 157.786 149.152 158.085 149.338 158.399C150.95 160.971 149.423 164.056 149.052 166.428C151.62 166.956 152.332 167.927 152.575 168.385C153.032 169.299 155.171 171.386 155.542 171.457C155.928 171.529 156.155 172.028 156.555 172.843C156.94 173.643 157.71 173.714 158.351 173.757C158.994 173.786 159.521 173.015 159.535 172.829C159.549 172.629 159.207 172.029 159.264 171.228C159.306 170.429 158.792 168.043 159.221 167.399C159.492 166.985 159.335 166.099 159.192 165.499C159.649 165.499 160.29 165.384 160.547 164.785C160.547 164.785 160.419 164.47 159.806 164.384H159.735C159.906 164.27 160.049 164.112 160.149 163.885C160.149 163.885 160.02 163.585 159.408 163.499C158.951 163.442 158.495 163.127 158.11 163.084C157.34 161.712 156.185 159.927 154.672 158.055C153.16 156.168 151.307 154.226 149.11 152.512C148.882 153.083 148.668 153.784 148.568 154.54C148.481 155.199 148.481 155.914 148.624 156.614Z" fill="#2B478B"/>
<path d="M113.421 159.969C113.393 160.383 113.383 160.778 113.385 161.153C116.517 163.48 122.01 162.306 122.422 159.506C122.897 156.283 118.571 155.826 118.889 153.17C119.019 152.087 118.509 151.218 117.86 150.571C112.488 150.251 112.438 151.362 112.438 151.362C110.005 153.748 113.421 159.969 113.421 159.969Z" fill="#2B478B"/>
<path opacity="0.6" d="M196.251 120.764H85.5787C81.6609 120.764 78.4843 117.582 78.4843 113.657V44.6982C78.4843 40.7738 81.6609 37.5919 85.5787 37.5919H196.253C200.17 37.5919 203.347 40.7738 203.347 44.6982V113.659C203.346 117.582 200.17 120.764 196.251 120.764Z" fill="#F8FCFF"/>
<path d="M124.191 64.6719C124.191 74.6122 116.15 82.6673 106.227 82.6673C96.3029 82.6673 88.2615 74.6122 88.2615 64.6719C88.2615 54.7315 96.3029 46.6765 106.227 46.6765C107.354 46.6765 108.46 46.7802 109.53 46.9816C107.288 55.1677 104.312 66.009 104.112 66.6847C104.482 66.1008 115.409 61.1944 122.87 57.8885C123.723 59.9812 124.191 62.2717 124.191 64.6719Z" fill="#7FA4F4"/>
<path d="M123.868 55.9245C117.279 58.8323 106.365 63.7066 106.016 64.2583C106.205 63.616 109.225 52.6221 111.247 45.2548C116.846 46.7933 121.449 50.7463 123.868 55.9245Z" fill="#F99746"/>
<path d="M167.488 43.0393C167.488 42.2134 168.157 41.5436 168.981 41.5436C169.806 41.5436 170.474 42.2134 170.474 43.0393C170.474 43.8652 169.806 44.5349 168.981 44.5349C168.157 44.5349 167.488 43.8652 167.488 43.0393Z" fill="#AEC3FF"/>
<path d="M175.237 43.0393C175.237 42.2134 175.906 41.5436 176.73 41.5436C177.555 41.5436 178.223 42.2134 178.223 43.0393C178.223 43.8652 177.555 44.5349 176.73 44.5349C175.906 44.5349 175.237 43.8652 175.237 43.0393Z" fill="#AEC3FF"/>
<path d="M185.782 44.0978C186.365 43.5137 186.365 42.5667 185.782 41.9827C185.198 41.3986 184.253 41.3986 183.67 41.9827C183.087 42.5667 183.087 43.5137 183.67 44.0978C184.253 44.6819 185.198 44.6819 185.782 44.0978Z" fill="#F99746"/>
<path d="M121.174 114.569H86.4127V103.488H121.176V114.569H121.174ZM86.8386 114.143H120.748V103.917H86.8386V114.143Z" fill="#AEC3FF"/>
<path d="M102.378 106.466H88.9314V107.345H102.378V106.466Z" fill="#AEC3FF"/>
<path d="M113.335 106.466H103.793V107.345H113.335V106.466Z" fill="#AEC3FF"/>
<path d="M96.3517 108.975H88.9314V109.853H96.3517V108.975Z" fill="#AEC3FF"/>
<path d="M107.149 108.975H97.6069V109.853H107.149V108.975Z" fill="#AEC3FF"/>
<path d="M117.678 108.975H108.136V109.853H117.678V108.975Z" fill="#AEC3FF"/>
<path d="M164.814 108.975H147.603V103.49H164.814V108.975ZM147.815 108.763H164.603V103.7H147.815V108.763Z" fill="#AEC3FF"/>
<path d="M155.506 104.964H148.85V105.399H155.506V104.964Z" fill="#AEC3FF"/>
<path d="M160.932 104.964H156.208V105.399H160.932V104.964Z" fill="#AEC3FF"/>
<path d="M152.524 106.206H148.85V106.64H152.524V106.206Z" fill="#AEC3FF"/>
<path d="M157.869 106.206H153.146V106.64H157.869V106.206Z" fill="#AEC3FF"/>
<path d="M163.081 106.206H158.358V106.64H163.081V106.206Z" fill="#AEC3FF"/>
<path d="M185.335 108.975H168.125V103.49H185.335V108.975ZM168.337 108.763H185.125V103.7H168.337V108.763V108.763Z" fill="#AEC3FF"/>
<path d="M176.029 104.964H169.372V105.399H176.029V104.964Z" fill="#AEC3FF"/>
<path d="M181.453 104.964H176.73V105.399H181.453V104.964Z" fill="#AEC3FF"/>
<path d="M173.046 106.206H169.372V106.64H173.046V106.206Z" fill="#AEC3FF"/>
<path d="M178.391 106.206H173.668V106.64H178.391V106.206Z" fill="#AEC3FF"/>
<path d="M183.603 106.206H178.88V106.64H183.603V106.206Z" fill="#AEC3FF"/>
<path d="M164.814 84.5765H147.603V79.0909H164.814V84.5765ZM147.815 84.3644H164.603V79.3018H147.815V84.3644Z" fill="#AEC3FF"/>
<path d="M155.506 80.5651H148.85V81.0001H155.506V80.5651Z" fill="#AEC3FF"/>
<path d="M160.932 80.5651H156.208V81.0001H160.932V80.5651Z" fill="#AEC3FF"/>
<path d="M152.524 81.8057H148.85V82.2407H152.524V81.8057Z" fill="#AEC3FF"/>
<path d="M157.869 81.8057H153.146V82.2407H157.869V81.8057Z" fill="#AEC3FF"/>
<path d="M163.081 81.8057H158.358V82.2407H163.081V81.8057Z" fill="#AEC3FF"/>
<path d="M185.335 84.5765H168.125V79.0909H185.335V84.5765ZM168.337 84.3644H185.125V79.3018H168.337V84.3644V84.3644Z" fill="#AEC3FF"/>
<path d="M176.029 80.5651H169.372V81.0001H176.029V80.5651Z" fill="#AEC3FF"/>
<path d="M181.453 80.5651H176.73V81.0001H181.453V80.5651Z" fill="#AEC3FF"/>
<path d="M173.046 81.8057H169.372V82.2407H173.046V81.8057Z" fill="#AEC3FF"/>
<path d="M178.391 81.8057H173.668V82.2407H178.391V81.8057Z" fill="#AEC3FF"/>
<path d="M183.603 81.8057H178.88V82.2407H183.603V81.8057Z" fill="#AEC3FF"/>
<path d="M164.814 63.3371H147.603V57.8516H164.814V63.3371ZM147.815 63.1262H164.603V58.0637H147.815V63.1262Z" fill="#AEC3FF"/>
<path d="M155.506 59.3257H148.85V59.7607H155.506V59.3257Z" fill="#AEC3FF"/>
<path d="M160.932 59.3257H156.208V59.7607H160.932V59.3257Z" fill="#AEC3FF"/>
<path d="M152.524 60.5675H148.85V61.0025H152.524V60.5675Z" fill="#AEC3FF"/>
<path d="M157.869 60.5675H153.146V61.0025H157.869V60.5675Z" fill="#AEC3FF"/>
<path d="M163.081 60.5675H158.358V61.0025H163.081V60.5675Z" fill="#AEC3FF"/>
<path d="M185.335 63.3371H168.125V57.8516H185.335V63.3371ZM168.337 63.1262H185.125V58.0637H168.337V63.1262V63.1262Z" fill="#AEC3FF"/>
<path d="M176.029 59.3257H169.372V59.7607H176.029V59.3257Z" fill="#AEC3FF"/>
<path d="M181.453 59.3257H176.73V59.7607H181.453V59.3257Z" fill="#AEC3FF"/>
<path d="M173.046 60.5675H169.372V61.0025H173.046V60.5675Z" fill="#AEC3FF"/>
<path d="M178.391 60.5675H173.668V61.0025H178.391V60.5675Z" fill="#AEC3FF"/>
<path d="M183.603 60.5675H178.88V61.0025H183.603V60.5675Z" fill="#AEC3FF"/>
<path d="M136.266 54.4253C136.266 53.348 137.138 52.4744 138.214 52.4744C139.289 52.4744 140.16 53.348 140.16 54.4253C140.16 55.5027 139.288 56.375 138.214 56.375C137.139 56.375 136.266 55.5015 136.266 54.4253Z" fill="#F99746"/>
<path d="M138.35 51.5735H138.161C137.99 51.5735 137.85 51.4328 137.85 51.2612V47.6216C137.85 47.45 137.99 47.3094 138.161 47.3094H138.35C138.522 47.3094 138.662 47.45 138.662 47.6216V51.2612C138.662 51.4316 138.522 51.5735 138.35 51.5735Z" fill="#F99746"/>
<path d="M138.35 61.6687H138.161C137.99 61.6687 137.85 61.5281 137.85 61.3565V57.7169C137.85 57.5453 137.99 57.4047 138.161 57.4047H138.35C138.522 57.4047 138.662 57.5453 138.662 57.7169V61.3565C138.662 61.5269 138.522 61.6687 138.35 61.6687Z" fill="#F99746"/>
<path d="M140.55 56.2833L140.662 56.1295C140.763 55.9901 140.96 55.9603 141.099 56.0616L144.034 58.2068C144.173 58.308 144.203 58.5047 144.102 58.6441L143.99 58.7979C143.889 58.9373 143.692 58.9671 143.553 58.8658L140.618 56.7206C140.48 56.6181 140.449 56.4215 140.55 56.2833Z" fill="#F99746"/>
<path d="M132.409 50.3329L132.521 50.1791C132.622 50.0397 132.818 50.0099 132.957 50.1112L135.893 52.2564C136.032 52.3577 136.061 52.5543 135.96 52.6937L135.848 52.8475C135.747 52.9869 135.551 53.0167 135.412 52.9154L132.477 50.7703C132.339 50.6678 132.308 50.4711 132.409 50.3329Z" fill="#F99746"/>
<path d="M135.979 56.3595L136.105 56.5013C136.22 56.63 136.209 56.8279 136.081 56.9435L133.371 59.3687C133.243 59.4831 133.045 59.4723 132.93 59.3436L132.804 59.2018C132.69 59.0731 132.7 58.8753 132.829 58.7609L135.538 56.3357C135.666 56.2201 135.865 56.232 135.979 56.3595Z" fill="#F99746"/>
<path d="M143.494 49.6321L143.62 49.7739C143.734 49.9026 143.723 50.1004 143.595 50.216L140.886 52.6413C140.757 52.7557 140.56 52.7449 140.444 52.6162L140.318 52.4744C140.204 52.3457 140.215 52.1479 140.343 52.0323L143.052 49.6071C143.181 49.4926 143.379 49.5046 143.494 49.6321Z" fill="#F99746"/>
<path d="M135.261 54.2966L135.258 54.4861C135.256 54.6577 135.114 54.7971 134.943 54.7948L131.31 54.7542C131.138 54.7519 130.999 54.61 131.001 54.4384L131.004 54.2489C131.006 54.0773 131.148 53.9379 131.319 53.9403L134.953 53.9808C135.124 53.9832 135.262 54.125 135.261 54.2966Z" fill="#F99746"/>
<path d="M145.338 54.411L145.335 54.6005C145.333 54.7721 145.191 54.9116 145.02 54.9092L141.387 54.8687C141.215 54.8663 141.076 54.7245 141.079 54.5529L141.081 54.3634C141.083 54.1918 141.225 54.0523 141.396 54.0547L145.03 54.0952C145.201 54.0964 145.34 54.2394 145.338 54.411Z" fill="#F99746"/>
<path d="M186.404 55.6755H147.603V52.5233H186.404V55.6755ZM147.972 55.3072H186.036V52.8928H147.972V55.3072Z" fill="#AEC3FF"/>
<path d="M177.906 52.708H147.787V55.4907H177.906V52.708Z" fill="#AEC3FF"/>
<path d="M135.564 76.2748C135.564 73.728 139.464 68.9265 139.464 68.9265C139.464 68.9265 143.363 73.728 143.363 76.2748C143.363 78.8215 141.618 80.8868 139.463 80.8868C137.308 80.8868 135.564 78.8215 135.564 76.2748Z" fill="#AEC3FF"/>
<path d="M186.404 76.4821H147.603V73.33H186.404V76.4821ZM147.972 76.1127H186.036V73.6982H147.972V76.1127Z" fill="#F99746"/>
<path d="M166.193 73.5146H147.787V76.2974H166.193V73.5146Z" fill="#F99746"/>
<path d="M141.126 101.39V91.1931H138.929V101.39C138.203 101.782 137.709 102.55 137.709 103.435C137.709 104.717 138.747 105.756 140.027 105.756C141.307 105.756 142.344 104.717 142.344 103.435C142.346 102.55 141.853 101.782 141.126 101.39Z" fill="#AEC3FF"/>
<path d="M186.404 100.051H147.603V96.8991H186.404V100.051ZM147.972 99.6818H186.036V97.2674H147.972V99.6818Z" fill="#AEC3FF"/>
<path d="M173.041 97.0839H147.787V99.8666H173.041V97.0839Z" fill="#AEC3FF"/>
<path d="M138.524 103.425C138.524 102.593 139.198 101.919 140.028 101.919C140.858 101.919 141.532 102.593 141.532 103.425C141.532 104.257 140.858 104.931 140.028 104.931C139.198 104.93 138.524 104.257 138.524 103.425Z" fill="#F99746"/>
<path d="M140.443 98.0301H139.547V102.748H140.443V98.0301Z" fill="#F99746"/>
<path d="M90.2507 95.0579H86.6256V100.107H90.2507V95.0579Z" fill="#AEC3FF"/>
<path d="M96.4612 91.7103H92.8361V100.106H96.4612V91.7103Z" fill="#AEC3FF"/>
<path d="M102.672 88.9681H99.0464V100.106H102.672V88.9681Z" fill="#F99746"/>
<path d="M108.882 91.1943H105.257V100.107H108.882V91.1943Z" fill="#AEC3FF"/>
<path d="M115.092 86.4499H111.467V100.106H115.092V86.4499Z" fill="#AEC3FF"/>
<path d="M121.303 84.014H117.678V100.106H121.303V84.014Z" fill="#F99746"/>
<path d="M105.257 72.6268H97.6069V73.33H105.257V72.6268Z" fill="white"/>
<path d="M109.329 74.2369H97.6069V74.94H109.329V74.2369Z" fill="white"/>
<path d="M118.835 51.3672H111.185V52.0704H118.835V51.3672Z" fill="white"/>
<path d="M115.974 52.9774H111.185V53.6805H115.974V52.9774Z" fill="white"/>
<path d="M260.882 67.0578C260.882 67.0578 275.39 83.5742 280.452 93.7684C280.452 93.7684 274.366 107.042 254.636 117.825C254.636 117.825 253.759 117.633 252.421 116.675C250.333 115.182 252.647 114.088 253.104 113.791C258.109 110.543 266.855 96.5535 267.108 95.3391C267.362 94.1248 256.146 83.2381 252.739 79.2124C249.33 75.1879 255.584 64.9841 260.882 67.0578Z" fill="#FFB27D"/>
<path d="M222.974 66.5894C222.974 66.5894 203.986 84.6967 199.596 84.2177C195.204 83.7374 178.031 79.583 178.031 79.583L176.598 82.8781C176.598 82.8781 193.833 93.0127 202.108 92.8673C210.384 92.7219 221.218 84.8242 221.218 84.8242L222.974 66.5894Z" fill="#FFB27D"/>
<path d="M236.756 42.7688C236.756 42.7688 236.85 44.8055 235.631 45.2035C234.412 45.6016 236.888 49.9955 236.693 52.9642C236.499 55.9316 235.188 57.1234 235.188 57.1234C235.188 57.1234 235.817 55.4907 235.465 54.4813C235.465 54.4813 235.521 56.5811 233.991 57.6406C232.461 58.7001 232.871 59.6153 232.871 59.6153C232.871 59.6153 229.412 58.5773 229.315 55.9793C229.315 55.9793 229.166 57.1544 229.287 57.6406C229.287 57.6406 226.299 55.3942 226.158 52.8057C226.015 50.2172 228.509 48.0327 229.645 47.9934C230.781 47.9541 233.315 45.7196 233.247 44.8758C233.179 44.032 236.756 42.7688 236.756 42.7688Z" fill="#2C3A64"/>
<path d="M255.605 46.9525C257.618 43.8905 252.89 37.2131 245.045 32.0379C237.199 26.8628 229.207 25.1496 227.194 28.2115C225.181 31.2734 229.91 37.9509 237.755 43.1261C245.601 48.3012 253.592 50.0144 255.605 46.9525Z" fill="#E2AF64"/>
<path d="M244.726 137.328C242.55 148.878 239.748 164.593 237.586 176.886C237.33 178.337 237.083 179.74 236.847 181.082C236.794 181.392 236.74 181.7 236.687 182.003H215.076C215.045 181.694 215.017 181.387 214.99 181.082C214.024 170.612 214.154 161.359 214.758 153.671C214.99 150.692 215.295 147.945 215.634 145.453C217.056 130.74 217.534 124.505 217.678 122.443L217.709 121.989C217.71 121.962 217.713 121.935 217.714 121.913L217.719 121.844C217.722 121.802 217.725 121.765 217.726 121.733L217.731 121.642C217.732 121.611 217.734 121.598 217.734 121.598L225.101 123.793L228.705 124.867L229.554 127.57L231.253 132.976L243.587 136.962L244.726 137.328Z" fill="#233862"/>
<path d="M258.9 140.237C258.528 146.239 257.914 167.4 257.229 181.082C257.213 181.394 257.198 181.7 257.182 182.003H234.777C234.708 181.698 234.639 181.39 234.57 181.082C232.192 170.368 230.244 158.337 228.849 148.573C228.604 148.584 226.046 131.134 219.635 123.442C219.577 123.373 219.57 123.318 219.605 123.276C219.922 122.867 223.99 123.574 223.99 123.574C224.335 123.666 224.705 123.738 225.099 123.792C228.175 124.215 232.642 123.533 237.073 122.499C237.073 122.499 237.073 122.499 237.075 122.499C238.273 122.219 239.465 121.914 240.63 121.597C243.911 120.704 246.949 119.725 249.116 118.987C249.654 118.805 250.137 118.635 250.558 118.488C250.898 118.367 251.198 118.26 251.449 118.169C251.45 118.169 251.45 118.169 251.45 118.169C252.055 117.951 252.391 117.824 252.391 117.824C252.391 117.824 252.544 117.957 252.802 118.234C253.662 119.153 255.699 121.643 257.201 125.99C258.414 129.487 259.277 134.188 258.9 140.237Z" fill="#2B478B"/>
<path d="M231.614 28.5691L245.716 50.0015C245.716 50.0015 247.328 46.8374 249.118 47.9719C251.912 49.7405 257.914 43.6876 256.662 35.1428C256.58 34.5838 256.481 34.0535 256.373 33.5482C253.56 29.4879 250.435 24.9664 248.193 21.788C241.717 17.8708 231.614 28.5691 231.614 28.5691Z" fill="#2C3A64"/>
<path d="M225.415 71.8653C227.389 73.6767 229.952 75.2975 233.273 76.5572C245.726 81.2848 252.132 71.0704 254.997 63.8508C253.38 62.6066 251.761 62.1609 250.823 61.9166C250.091 61.7271 249.325 61.5578 248.636 61.4208C248.274 61.3481 247.95 61.1395 247.745 60.8309C246.558 59.0349 245.356 54.486 245.788 48.0899L245.161 48.1698L234.651 49.5677C234.651 49.5677 234.677 52.8569 234.49 55.9376C234.41 57.2604 234.287 58.5451 234.107 59.5176C233.935 60.4471 233.17 61.1491 232.23 61.2408C232.23 61.2408 232.229 61.2444 232.224 61.2492C232.057 61.4553 228.46 65.897 225.415 71.8653Z" fill="#FFB27D"/>
<path d="M234.65 49.57C234.65 49.57 234.678 52.8569 234.489 55.9399C240.308 56.1461 243.716 51.0347 245.16 48.1721L234.65 49.57Z" fill="#ED985F"/>
<path d="M232.525 52.3647C232.525 52.3647 246.253 53.4682 246.808 44.8936C247.362 36.319 249.507 30.6868 240.765 29.6202C232.023 28.5536 230.108 31.7141 229.227 34.5314C228.348 37.3487 228.969 51.857 232.525 52.3647Z" fill="#FFB27D"/>
<path d="M229.939 29.7894C232.226 27.3452 233.796 28.0137 234.646 28.8468C242.421 25.1893 246.872 31.614 246.872 31.614C247.4 37.8254 251.606 41.6318 251.606 41.6318C251.606 41.6318 249.003 43.0226 243.323 41.1658C241.588 40.5986 240.093 39.2424 238.851 37.6347C240.939 41.7081 243.939 44.7375 243.939 44.7375C237.245 41.1039 235.085 31.3172 234.874 30.284C233.986 30.9847 232.229 32.5185 231.622 34.094C230.799 36.2344 230.204 40.7094 228.906 40.4734C228.908 40.4734 226.507 33.4552 229.939 29.7894Z" fill="#2C3A64"/>
<path d="M256.955 39.3627C256.955 39.3627 263.339 26.6337 254.417 21.601C245.495 16.5694 238.965 18.5453 234.057 24.6995L256.955 39.3627Z" fill="#EDBD77"/>
<path d="M257.319 86.7395C257.808 87.2496 258.114 87.5368 258.114 87.5368C268.513 86.2402 269.001 75.543 269.001 75.543C269.001 75.543 260.861 64.7911 253.262 62.4255C251.412 61.8499 248.638 61.4208 248.638 61.4208C246.259 63.3956 243.521 66.2903 240.945 68.644C237.975 71.3576 232.863 72.2788 230.972 67.4666C230.215 65.5383 232.036 61.5376 232.223 61.2492C232.228 61.2421 232.229 61.2397 232.229 61.2397C232.034 61.2528 231.843 61.2671 231.658 61.279C230.726 61.3541 229.887 61.4673 229.125 61.5448C225.416 61.9178 220.293 64.3799 209.943 77.5035C209.943 77.5035 215.536 84.4227 221.218 84.8256C220.989 95.7873 222.165 113.642 222.165 113.642C219.683 118.532 256.557 129.857 258.148 125.192C260.535 121.544 258.153 114.56 256.09 109.205C255.584 107.898 255.473 106.506 255.023 105.494C254.735 104.846 254.505 104.177 254.336 103.495C253.908 101.785 253.862 99.9905 254.217 98.2458C255.085 94.0092 256.27 90.0502 257.319 86.7395Z" fill="#F99746"/>
<path d="M257.652 37.7336C257.383 37.4571 257.107 37.1795 256.823 36.8994L256.822 36.8982C254.069 34.2025 250.559 31.4484 246.531 28.9314C243.289 26.9066 240.06 25.2513 237.029 24.0095H237.028C236.429 23.7616 235.837 23.5328 235.254 23.3194C228.307 20.7739 222.709 20.5808 221.014 23.3016C219.226 26.1713 222.252 31.5151 228.178 36.9352L228.179 36.9363C228.174 36.8887 228.168 36.8422 228.163 36.7969C228.159 36.7504 228.156 36.7028 228.152 36.6551C228.147 36.6015 228.142 36.5455 228.137 36.4906C228.134 36.4513 228.131 36.4108 228.128 36.3691C228.124 36.3011 228.121 36.2344 228.116 36.1653C228.111 36.0795 228.106 35.9937 228.104 35.9055C228.104 35.896 228.103 35.8852 228.103 35.8745C228.099 35.8113 228.098 35.747 228.097 35.6826V35.623C228.096 35.5813 228.096 35.5396 228.096 35.4967C228.094 35.3466 228.096 35.1928 228.099 35.0403C228.099 34.9866 228.1 34.9306 228.104 34.877C228.105 34.846 228.108 34.815 228.108 34.7852C228.111 34.734 228.112 34.6839 228.117 34.6351C228.122 34.5409 228.128 34.4492 228.136 34.3574C228.143 34.2656 228.153 34.1727 228.162 34.0797C228.162 34.075 228.163 34.069 228.163 34.0642C228.167 34.0309 228.171 33.9963 228.174 33.9641C228.178 33.9427 228.179 33.9212 228.181 33.901C228.191 33.8366 228.198 33.7723 228.207 33.7079C228.222 33.6018 228.238 33.497 228.259 33.3933C228.262 33.3766 228.265 33.3575 228.268 33.3408C228.29 33.2169 228.315 33.093 228.343 32.9702C228.355 32.9082 228.37 32.8475 228.386 32.7879C228.387 32.7807 228.39 32.7724 228.391 32.7652C227.758 31.4293 227.642 30.2733 228.159 29.4438C228.757 28.4821 230.118 28.0936 231.966 28.2151C231.967 28.2151 231.967 28.2151 231.969 28.2151C232.019 28.2187 232.071 28.2223 232.123 28.2271H232.124C232.807 28.2795 233.552 28.3987 234.348 28.5846H234.349C234.536 28.6275 234.725 28.674 234.918 28.724C235.617 28.9087 236.351 29.1376 237.111 29.4117H237.121C239.395 30.234 241.894 31.4543 244.409 33.0262C245.454 33.6793 246.443 34.3574 247.367 35.0474H247.368C247.46 35.1165 247.553 35.1857 247.643 35.2548C251.916 38.5023 254.74 41.9905 255.063 44.4003C255.149 45.0414 255.06 45.6063 254.769 46.0699C254.747 46.1068 254.722 46.1426 254.694 46.1772C254.691 46.1831 254.689 46.1879 254.685 46.1926C254.497 46.4524 254.246 46.6646 253.941 46.8338C253.94 46.835 253.94 46.835 253.938 46.835C253.896 46.86 253.855 46.8815 253.812 46.9005C253.811 46.8994 253.811 46.9005 253.811 46.9005C253.498 47.0543 253.131 47.1651 252.722 47.2318C252.721 47.2318 252.721 47.2318 252.721 47.2318C252.721 47.2318 252.721 47.2318 252.72 47.2318C252.68 47.264 252.64 47.295 252.599 47.326C252.571 47.3486 252.54 47.3725 252.509 47.3939C252.479 47.4154 252.451 47.4368 252.42 47.4583C252.41 47.4642 252.402 47.4702 252.392 47.4785C252.34 47.5119 252.29 47.5477 252.239 47.581C252.159 47.6335 252.078 47.6823 251.999 47.73C251.959 47.7526 251.919 47.7765 251.88 47.7979C251.839 47.8194 251.8 47.8408 251.759 47.8611C251.706 47.8885 251.654 47.9147 251.6 47.9397C251.58 47.9505 251.561 47.96 251.541 47.9672C251.52 47.9767 251.501 47.9838 251.481 47.9934C251.48 47.9934 251.48 47.9946 251.477 47.9946C251.473 47.9958 251.468 47.9993 251.463 48.0005C251.438 48.0113 251.414 48.0208 251.389 48.0315C251.353 48.0458 251.317 48.0613 251.28 48.0732C251.234 48.0899 251.19 48.1066 251.146 48.1209C251.103 48.1352 251.06 48.1483 251.018 48.159C251.015 48.1602 251.011 48.1626 251.006 48.1638C250.971 48.1733 250.937 48.1817 250.902 48.19C250.89 48.1948 250.877 48.1972 250.864 48.2007C250.831 48.2079 250.799 48.2162 250.766 48.2222C250.726 48.2293 250.686 48.2377 250.645 48.2436C250.62 48.2484 250.596 48.2508 250.571 48.2544C250.541 48.2591 250.513 48.2615 250.484 48.2651C250.446 48.2699 250.409 48.2722 250.371 48.2746C250.356 48.2758 250.34 48.2758 250.325 48.2758H250.307C250.297 48.277 250.287 48.277 250.277 48.277H250.266C250.252 48.2782 250.24 48.2782 250.227 48.2782C250.127 48.2782 250.027 48.2722 249.931 48.2603C249.834 48.2484 249.739 48.2282 249.648 48.2031C249.601 48.1888 249.556 48.1757 249.511 48.1602C249.478 48.1483 249.443 48.134 249.411 48.1197C249.386 48.1102 249.362 48.0994 249.337 48.0875C249.317 48.078 249.298 48.0696 249.278 48.0589C249.261 48.0518 249.242 48.0422 249.225 48.0315C249.19 48.0136 249.156 47.9934 249.123 47.9719C249.053 47.9278 248.981 47.8885 248.912 47.8587C248.89 47.848 248.866 47.8385 248.845 47.8301C248.835 47.8265 248.827 47.823 248.817 47.8194C248.784 47.8051 248.749 47.7944 248.716 47.786C248.583 47.7467 248.451 47.7276 248.32 47.7276C248.319 47.7276 248.319 47.7276 248.316 47.7276H248.297C248.293 47.7276 248.288 47.7276 248.283 47.7288H248.264C248.247 47.7288 248.232 47.73 248.215 47.7324C248.205 47.7324 248.194 47.7324 248.183 47.7336C248.153 47.7372 248.126 47.7395 248.099 47.7443C248.095 47.7443 248.093 47.7455 248.089 47.7455C248.077 47.7467 248.063 47.7503 248.051 47.7526C248.028 47.7562 248.007 47.7598 247.986 47.7669C247.964 47.7717 247.943 47.7777 247.92 47.7836C247.894 47.7896 247.87 47.7979 247.844 47.8063C247.827 47.8122 247.811 47.8182 247.794 47.8241C247.769 47.8313 247.743 47.842 247.719 47.8539C247.718 47.8539 247.718 47.8539 247.718 47.8539C247.698 47.8611 247.68 47.8694 247.66 47.879C247.642 47.8885 247.623 47.8957 247.606 47.9052C247.585 47.9147 247.564 47.9266 247.543 47.9374L247.484 47.9695C247.462 47.9815 247.442 47.9946 247.422 48.0065C247.401 48.0184 247.384 48.0315 247.363 48.0434C247.343 48.0553 247.324 48.0685 247.304 48.0816C247.284 48.0935 247.265 48.1078 247.246 48.1233C247.207 48.1495 247.169 48.1781 247.133 48.2091C247.112 48.2234 247.094 48.2377 247.078 48.2532C247.06 48.2687 247.041 48.2842 247.023 48.3008C246.986 48.3318 246.951 48.364 246.916 48.3962C246.88 48.4272 246.846 48.4605 246.811 48.4963C246.795 48.513 246.778 48.5297 246.761 48.5487C246.745 48.5654 246.728 48.5821 246.713 48.6C246.692 48.6179 246.676 48.6369 246.659 48.6548H246.66C247.331 48.9325 247.993 49.1899 248.644 49.4259C250.728 50.1826 252.687 50.7284 254.457 51.0478C258.555 51.7867 261.623 51.3064 262.803 49.4139C264.369 46.8898 262.22 42.4553 257.652 37.7336Z" fill="#FFCF83"/>
<path d="M249.418 109.913C254.729 111.617 252.25 108.701 256.352 108.998C255.846 107.69 255.473 106.507 255.022 105.496C254.734 104.848 254.504 104.179 254.335 103.498C253.907 101.788 253.861 99.9928 254.216 98.2481C255.164 93.6194 256.203 90.2217 257.319 86.7418C256.146 83.6528 251.137 88.7165 251.137 88.7165C251.137 88.7165 246.5 93.5967 247.713 101.896C248.845 109.627 244.835 108.441 249.418 109.913Z" fill="#ED7D2B"/>
<path d="M253.262 62.4266C253.262 62.4266 244.687 67.9158 242.494 79.4888L239.9 78.6641C239.9 78.6641 240.992 70.3255 250.912 61.8403C250.912 61.8403 251.66 61.988 251.911 62.0512C252.247 62.1346 253.262 62.4266 253.262 62.4266Z" fill="#2B478B"/>
<path d="M222.974 79.782L225.689 79.9608C225.145 69.9263 230.172 63.0761 231.659 61.2802C230.727 61.3552 229.883 61.4458 229.126 61.5459C223.614 69.9751 222.974 79.782 222.974 79.782Z" fill="#2B478B"/>
<path d="M242.233 85.9088C242.401 85.1938 244.063 78.2471 244.063 78.2471C244.063 78.2471 244.446 76.0745 240.635 75.86C236.825 75.6455 223.307 74.9316 223.307 74.9316C223.307 74.9316 221.465 76.0459 221.438 78.3305C221.411 80.6151 219.571 93.6897 219.571 93.6897L217.678 122.444L258.901 140.237C258.901 140.237 261.728 125.704 258.564 115.575C256.718 109.668 254.338 103.499 254.338 103.499C254.338 103.499 239.667 96.8264 242.233 85.9088Z" fill="#2B478B"/>
<path d="M242.6 78.4794C242.79 77.8788 242.458 77.2376 241.859 77.0469C241.259 76.8563 240.619 77.1888 240.428 77.7894C240.238 78.3901 240.57 79.0312 241.17 79.2219C241.769 79.4114 242.409 79.0801 242.6 78.4794Z" fill="#ED7D2B"/>
<path d="M242.405 78.4175C242.595 77.8168 242.263 77.1757 241.665 76.985C241.065 76.7943 240.425 77.1268 240.234 77.7275C240.044 78.3281 240.376 78.9693 240.976 79.16C241.574 79.3494 242.214 79.0181 242.405 78.4175Z" fill="#F99746"/>
<path d="M242.025 78.0707C242.025 77.9789 241.95 77.905 241.86 77.905C241.768 77.905 241.694 77.9801 241.694 78.0707C241.694 78.1625 241.769 78.2364 241.86 78.2364C241.951 78.2364 242.025 78.1625 242.025 78.0707Z" fill="#2B478B"/>
<path d="M240.945 78.0731C240.945 77.9813 240.87 77.9074 240.779 77.9074C240.688 77.9074 240.614 77.9813 240.614 78.0731C240.614 78.1648 240.688 78.2387 240.779 78.2387C240.871 78.2387 240.945 78.1636 240.945 78.0731Z" fill="#2B478B"/>
<path d="M225.839 77.0303C226.029 76.4296 225.697 75.7885 225.098 75.5978C224.498 75.4071 223.858 75.7396 223.667 76.3402C223.477 76.9409 223.809 77.5821 224.409 77.7727C225.007 77.9622 225.648 77.6309 225.839 77.0303Z" fill="#ED7D2B"/>
<path d="M225.644 76.9683C225.834 76.3677 225.502 75.7265 224.902 75.5358C224.303 75.3452 223.663 75.6777 223.472 76.2783C223.282 76.8789 223.614 77.5201 224.214 77.7108C224.812 77.9003 225.453 77.569 225.644 76.9683Z" fill="#F99746"/>
<path d="M225.264 76.6215C225.264 76.5298 225.189 76.4559 225.099 76.4559C225.007 76.4559 224.933 76.5309 224.933 76.6215C224.933 76.7133 225.008 76.7872 225.099 76.7872C225.19 76.7872 225.264 76.7133 225.264 76.6215Z" fill="#2B478B"/>
<path d="M224.183 76.6238C224.183 76.5321 224.108 76.4582 224.017 76.4582C223.926 76.4582 223.852 76.5333 223.852 76.6238C223.852 76.7156 223.927 76.7895 224.017 76.7895C224.109 76.7895 224.183 76.7144 224.183 76.6238Z" fill="#2B478B"/>
<path d="M255.06 44.4026C255.06 44.4026 255.154 46.4382 253.935 46.8374C252.716 47.2354 255.192 51.6294 254.998 54.598C254.804 57.5655 253.493 58.7572 253.493 58.7572C253.493 58.7572 254.122 57.1245 253.77 56.1151C253.77 56.1151 253.826 58.215 252.296 59.2745C250.766 60.3339 251.176 61.2492 251.176 61.2492C251.176 61.2492 247.717 60.2112 247.62 57.612C247.62 57.612 247.472 58.787 247.592 59.2733C247.592 59.2733 244.604 57.0268 244.463 54.4383C244.32 51.8499 246.814 49.6654 247.95 49.6261C249.086 49.5868 251.62 47.3522 251.552 46.5085C251.482 45.6623 255.06 44.4026 255.06 44.4026Z" fill="#2C3A64"/>
<path d="M236.757 47.5738C236.757 47.5738 234.712 48.8156 233.256 48.6714C231.814 48.5284 231.028 46.7861 231.028 46.7861C231.028 46.7861 233.825 46.3726 236.757 47.5738Z" fill="#FFF2E9"/>
<path d="M249.731 121.597H222.179C221.026 121.597 219.712 120.66 219.243 119.505L212.307 102.403C211.838 101.248 212.394 100.311 213.546 100.311H241.098C242.252 100.311 243.567 101.248 244.035 102.403L250.971 119.505C251.44 120.66 250.884 121.597 249.731 121.597Z" fill="#A4C9FF"/>
<path d="M248.087 121.597H220.535C219.382 121.597 218.066 120.66 217.599 119.505L210.662 102.403C210.194 101.248 210.749 100.311 211.902 100.311H239.454C240.607 100.311 241.923 101.248 242.39 102.403L249.326 119.505C249.795 120.66 249.24 121.597 248.087 121.597Z" fill="#71A4FF"/>
<path d="M213.414 101.622C213.939 101.622 214.542 102.052 214.755 102.578C214.968 103.103 214.714 103.534 214.189 103.534C213.664 103.534 213.061 103.103 212.848 102.578C212.635 102.052 212.89 101.622 213.414 101.622Z" fill="#2B478B"/>
<path d="M216.442 102.02C216.748 102.02 217.1 102.27 217.225 102.578C217.349 102.884 217.2 103.136 216.894 103.136C216.589 103.136 216.236 102.884 216.111 102.578C215.988 102.27 216.136 102.02 216.442 102.02Z" fill="#2B478B"/>
<path d="M227.221 110.412C226.762 109.279 227.306 108.359 228.438 108.359C229.57 108.359 230.861 109.278 231.32 110.412C231.779 111.546 231.235 112.465 230.103 112.465C228.971 112.465 227.68 111.546 227.221 110.412Z" fill="#A4C9FF"/>
<path d="M253.011 113.997C253.011 113.997 249.223 111.833 248.309 110.833C247.72 110.187 247.685 111.018 247.723 111.251C247.799 111.718 247.868 112.646 248.947 113.529C250.498 114.799 253.011 113.997 253.011 113.997Z" fill="#FFB27D"/>
<path d="M253.011 113.997C253.011 113.997 246.177 111.941 244.603 112.12C243.029 112.299 239.435 113.42 239.146 113.713C238.857 114.005 240.094 114.315 241.035 114.039C242.242 113.686 244.142 114.083 244.142 114.083C244.142 114.083 240.311 114.915 239.352 115.338C239.257 115.38 239.239 115.511 239.321 115.576C239.55 115.758 240.141 115.873 240.988 115.755C242.205 115.586 244.339 115.615 244.339 115.615L239.985 116.564C239.93 116.576 239.889 116.624 239.892 116.68C239.899 116.887 240.246 117.109 241.265 117.155C242.049 117.191 244.704 116.798 244.704 116.798L242.339 118.048C242.339 118.048 242.913 118.459 244.12 118.06C244.948 117.786 247.42 117.166 247.99 117.286C248.561 117.407 251.408 118.414 252.753 118.242C254.066 118.074 254.636 117.825 254.636 117.825L253.011 113.997Z" fill="#FFB27D"/>
<path d="M178.03 79.583C178.03 79.583 174.602 75.9136 173.342 75.4763C172.082 75.0389 167.585 74.2786 167.585 74.2786C167.585 74.2786 167.603 75.3559 169.616 76.1007C171.629 76.8456 172.05 80.341 173.241 81.3301C174.43 82.3193 177.577 83.1761 177.577 83.1761L178.03 79.583Z" fill="#FFB27D"/>
<path d="M176.598 82.8794C176.598 82.8794 173.257 82.7328 172.172 82.05C171.087 81.3671 169.319 80.4745 169.661 79.931C170.002 79.3876 173.686 79.7976 173.686 79.7976L176.598 82.8794Z" fill="#FFB27D"/>
<path d="M173.071 76.1162C172.896 76.0376 168.441 73.0546 168.441 73.0546C168.441 73.0546 168.067 74.468 168.722 74.7374C169.378 75.0055 173.071 76.1162 173.071 76.1162Z" fill="#FFB27D"/>
<path d="M272.005 104.945C268.009 108.987 262.372 113.597 254.637 117.824C254.637 117.824 253.761 117.632 252.422 116.674C250.335 115.18 252.647 114.086 253.105 113.791C255.373 112.319 258.411 108.64 261.077 104.945H272.005Z" fill="#FFB27D"/>
<path d="M52.566 181.647H19.1845C19.1797 181.635 19.1749 181.622 19.1702 181.61C19.1285 181.5 19.0738 181.354 19.0036 181.165L18.9763 181.11C18.9763 181.11 18.9763 181.11 18.9763 181.083C18.9763 181.083 18.9489 181.053 18.9489 181.026C18.8371 180.802 18.7526 180.548 18.6407 180.24C18.5836 180.099 18.5289 179.931 18.4444 179.763C18.4444 179.735 18.4444 179.735 18.4444 179.705C18.4171 179.678 18.4171 179.678 18.4171 179.678C18.0316 178.677 17.5557 177.372 17.0049 175.796C16.9561 175.653 16.9049 175.509 16.8526 175.364C16.4397 174.173 15.9865 172.84 15.5034 171.371C15.2809 170.681 15.0525 169.962 14.8181 169.213C18.1173 168.293 22.4301 167.659 26.2693 168.908C28.7523 169.716 30.4334 170.911 31.735 172.098C34.3773 174.507 35.4695 176.888 38.5462 175.962C39.31 175.732 40.2225 175.595 41.2112 175.552C46.1617 175.329 53.0098 177.423 52.566 181.647Z" fill="#82B378"/>
<path d="M347 181.476V181.61C347 181.827 346.824 182.003 346.607 182.003H0.392612C0.176081 182.003 0 181.827 0 181.61V181.476C0 181.259 0.176081 181.082 0.392612 181.082H346.607C346.824 181.082 347 181.26 347 181.476Z" fill="#2E3552"/>
</svg>
