<svg width="185" height="215" viewBox="0 0 185 215" fill="none" xmlns="http://www.w3.org/2000/svg">
<g clip-path="url(#clip0_202_834)">
<path d="M170.148 123.259C168.278 120.699 164.91 119.764 161.83 118.844C155.436 116.935 148.723 113.951 145.716 108.105C142.603 102.051 144.429 94.5996 147.846 88.7001C151.262 82.8054 156.134 77.8168 159.633 71.9655C163.132 66.1142 165.155 58.7542 162.288 52.5848C159.469 46.5262 152.848 43.268 146.892 40.0435C140.94 36.819 134.661 32.3944 133.649 25.8104C133.061 21.9931 134.401 18.1806 135.114 14.3825C135.827 10.5845 135.731 6.18873 132.931 3.47032C131.249 1.83157 128.864 1.09895 126.536 0.645877C121.129 -0.400035 115.472 -0.18796 110.166 1.258C110.166 1.258 84.2306 5.80796 63.0609 16.8647C48.1752 24.644 34.8314 35.349 24.0466 48.0349C13.257 60.7208 5.58998 76.3661 4.61173 92.8452C4.4527 95.5009 4.49608 98.282 5.71045 100.663C7.88863 104.924 13.1509 106.693 17.9844 107.261C22.8178 107.83 27.897 107.657 32.2967 109.695C33.4147 110.216 34.5279 110.929 35.0483 112.033C35.5736 113.146 35.4097 114.443 35.135 115.643C33.5544 122.526 28.8993 128.266 25.5308 134.503C19.5264 145.628 17.6181 158.82 20.23 171.139C21.1697 175.569 22.7359 179.993 25.6947 183.468C31.6027 190.404 41.9346 192.212 51.0569 190.872C60.1792 189.532 68.6606 185.608 77.46 182.895C98.9044 176.287 122.898 176.668 142.116 165.254C147.552 162.025 152.414 157.947 157.055 153.691C164.23 147.117 171.372 139.15 171.7 129.539C171.782 127.341 171.449 125.042 170.148 123.259Z" fill="#E4F7BF"/>
<path d="M80.8959 189.835C83.8644 189.749 87.5509 188.385 90.5194 188.457C91.1218 165.288 93.0445 149.117 93.0397 131.872C89.811 123.427 76.9877 124.666 77.3203 129.288C78.872 150.857 80.3755 177.477 80.8959 189.835Z" fill="#1B3F6F"/>
<path d="M78.9105 179.015C80.4863 185.04 81.2525 191.272 81.1851 197.499C77.7588 200.309 73.9036 200.897 70.4484 204.522C69.9569 205.037 68.2992 208.459 72.0146 208.864C75.7397 209.269 79.4454 208.233 82.7271 206.421C83.3006 206.107 83.8837 205.77 84.5343 205.693C85.1848 205.616 85.9173 205.866 86.2064 206.454C88.4232 205.929 89.6761 205.645 91.9217 205.259C91.9217 203.08 91.9217 201.818 91.5073 199.34C90.9435 195.966 91.4447 181.724 91.7531 179.039C91.8157 178.494 86.8522 178.104 85.9703 178.191C85.1222 178.273 79.1226 178.191 78.9105 179.015Z" fill="#819925"/>
<path d="M82.0429 198.323C83.5897 198.916 84.7222 199.822 85.8209 201.046C85.9799 201.22 86.2932 200.989 86.1534 200.791C85.1463 199.369 83.7921 198.487 82.1537 197.938C81.9031 197.856 81.8067 198.237 82.0429 198.323Z" fill="#6D7F1F"/>
<path d="M82.0959 197.407C83.8837 197.383 85.6378 197.335 87.3196 198.039C87.5847 198.15 87.7485 197.726 87.5124 197.586C85.8402 196.593 83.956 196.8 82.0959 196.935C81.7923 196.954 81.7875 197.407 82.0959 197.407Z" fill="#6D7F1F"/>
<path d="M80.7851 181.261C82.4477 181.454 84.1873 181.299 85.8595 181.309C87.363 181.319 88.9292 181.487 90.4182 181.275C90.7604 181.227 90.7411 180.673 90.4182 180.605C88.8569 180.287 87.1413 180.456 85.5559 180.49C83.9656 180.523 82.2838 180.456 80.7225 180.793C80.443 180.856 80.5394 181.232 80.7851 181.261Z" fill="#6D7F1F"/>
<path d="M70.5785 206.676C71.7881 209.091 77.2287 207.312 79.0792 206.705C81.2188 206.001 83.4596 204.276 85.7968 204.666C87.6377 204.97 89.0159 204.671 90.8278 203.905C91.1218 203.779 90.9001 203.36 90.6206 203.418C89.3725 203.678 88.2304 204.208 86.9437 204.122C86.4233 204.088 85.8595 203.856 85.339 203.856C84.0572 203.861 82.8139 204.44 81.6477 204.926C79.7346 205.727 72.429 208.98 70.964 206.454C70.8195 206.194 70.4484 206.416 70.5785 206.676Z" fill="#6D7F1F"/>
<path d="M87.7196 183.43C88.0425 183.42 88.3702 183.411 88.693 183.406C88.9822 183.396 89.2617 183.415 89.5219 183.28C89.7147 183.179 89.6375 182.929 89.4689 182.861C89.2038 182.76 88.9099 182.818 88.6304 182.842C88.3268 182.866 88.0232 182.89 87.7244 182.914C87.3919 182.938 87.3823 183.439 87.7196 183.43Z" fill="#6D7F1F"/>
<path d="M88.4424 185.025C88.7412 185.035 89.0737 185.098 89.3291 184.91C89.4351 184.832 89.4351 184.693 89.3291 184.616C89.0689 184.432 88.7412 184.495 88.4424 184.5C88.1051 184.514 88.1051 185.016 88.4424 185.025Z" fill="#6D7F1F"/>
<path d="M88.9243 187.223C89.2087 187.199 89.5122 187.305 89.7869 187.218C89.9556 187.165 89.9893 186.982 89.8833 186.852C89.6616 186.587 89.2424 186.606 88.9243 186.64C88.5581 186.683 88.5485 187.257 88.9243 187.223Z" fill="#6D7F1F"/>
<path d="M106.379 189.835C103.41 189.749 99.7236 188.385 96.7552 188.457C96.1528 165.288 94.23 149.117 94.2348 131.872C97.4635 123.427 110.287 124.666 109.954 129.288C108.403 150.857 106.899 177.477 106.379 189.835Z" fill="#1B3F6F"/>
<path d="M108.364 179.015C106.788 185.04 106.022 191.272 106.089 197.499C109.516 200.309 113.371 200.897 116.826 204.522C117.318 205.037 118.975 208.459 115.26 208.864C111.535 209.269 107.829 208.233 104.547 206.421C103.974 206.107 103.391 205.77 102.74 205.693C102.09 205.616 101.357 205.866 101.068 206.454C98.8514 205.929 97.5985 205.645 95.3528 205.259C95.3528 203.08 95.3528 201.818 95.7672 199.34C96.3311 195.966 95.8299 181.724 95.5215 179.039C95.4588 178.494 100.422 178.104 101.304 178.191C102.152 178.273 108.147 178.191 108.364 179.015Z" fill="#819925"/>
<path d="M105.126 197.938C103.487 198.482 102.133 199.369 101.126 200.791C100.986 200.984 101.299 201.225 101.458 201.046C102.557 199.822 103.685 198.916 105.237 198.323C105.468 198.237 105.371 197.856 105.126 197.938Z" fill="#6D7F1F"/>
<path d="M105.179 196.93C103.319 196.795 101.434 196.593 99.7622 197.581C99.5309 197.721 99.6851 198.145 99.9549 198.034C101.637 197.33 103.391 197.379 105.179 197.403C105.487 197.407 105.482 196.954 105.179 196.93Z" fill="#6D7F1F"/>
<path d="M106.552 180.793C104.986 180.456 103.309 180.523 101.719 180.49C100.133 180.456 98.4129 180.287 96.8564 180.605C96.5383 180.673 96.5142 181.227 96.8564 181.275C98.3406 181.487 99.9164 181.314 101.415 181.309C103.092 181.299 104.827 181.459 106.489 181.261C106.73 181.232 106.836 180.856 106.552 180.793Z" fill="#6D7F1F"/>
<path d="M116.306 206.45C114.841 208.975 107.54 205.727 105.622 204.922C104.552 204.473 103.319 203.842 102.133 203.861C101.757 203.866 101.473 204.025 101.131 204.069C99.4779 204.271 98.2249 203.741 96.654 203.413C96.3793 203.355 96.1528 203.779 96.4467 203.9C98.2442 204.661 99.6465 204.96 101.478 204.661C103.81 204.281 106.056 206.006 108.195 206.7C110.06 207.308 115.486 209.096 116.696 206.671C116.826 206.416 116.455 206.194 116.306 206.45Z" fill="#6D7F1F"/>
<path d="M99.555 182.909C99.2514 182.885 98.9478 182.861 98.649 182.837C98.3695 182.813 98.0755 182.755 97.8105 182.856C97.6418 182.924 97.5647 183.174 97.7575 183.276C98.0177 183.411 98.2972 183.396 98.5864 183.401C98.9092 183.411 99.2369 183.42 99.5598 183.425C99.8923 183.439 99.8827 182.938 99.555 182.909Z" fill="#6D7F1F"/>
<path d="M98.8321 184.505C98.5334 184.495 98.2009 184.432 97.9454 184.62C97.8394 184.697 97.8394 184.837 97.9454 184.914C98.2057 185.098 98.5334 185.035 98.8321 185.03C99.1695 185.016 99.1695 184.514 98.8321 184.505Z" fill="#6D7F1F"/>
<path d="M98.3502 186.645C98.037 186.611 97.6129 186.592 97.3912 186.857C97.2852 186.982 97.319 187.17 97.4876 187.223C97.7623 187.31 98.0611 187.199 98.3502 187.228C98.7261 187.257 98.7165 186.683 98.3502 186.645Z" fill="#6D7F1F"/>
<path d="M53.77 86.7529C53.4857 88.1603 53.2688 89.6352 53.6351 91.0233C54.0013 92.4114 55.0904 93.7031 56.512 93.8911C57.1963 93.9827 57.8854 93.8188 58.5359 93.5826C63.1284 91.9342 65.7548 87.2252 67.9426 82.8632C69.9858 78.7904 73.9277 72.7126 75.1373 68.3217C75.7686 66.0371 74.0675 65.1165 72.1833 63.6753C71.258 62.9716 70.0244 62.8077 68.8678 62.9186C63.7934 63.3958 61.7887 66.4709 60.4009 70.6738C57.9673 78.0482 54.8253 81.5185 53.77 86.7529Z" fill="#EA8744"/>
<path d="M53.6351 90.9847C54.2085 92.8259 55.1097 93.6067 56.512 93.8525C58.9215 94.2767 62.1213 93.8766 63.6874 91.2498C64.9404 89.1483 65.5716 87.6686 66.8342 85.572C67.9522 83.7212 68.7281 80.8341 68.9642 78.6844C69.1521 76.983 64.1693 75.7828 63.5573 76.4817C62.2996 77.9132 62.7622 80.3617 59.8082 81.586C57.7938 82.4198 55.0085 82.4246 54.1796 84.7912C53.7122 86.1215 53.2303 89.6785 53.6351 90.9847Z" fill="#FB9848"/>
<path d="M65.6825 57.93C63.0947 61.2558 60.5165 67.2758 58.8395 71.1413C63.432 73.1946 68.7666 75.4021 73.7976 75.5322C75.1228 73.3729 75.2722 70.5388 75.1421 68.3265C74.9879 65.8009 76.0914 61.4968 74.8481 59.2893C71.9857 54.2332 68.6317 54.1368 65.6825 57.93Z" fill="#A2D2EA"/>
<path d="M73.547 74.7466C73.5085 70.9871 73.094 66.6347 71.2773 63.2753C71.1375 63.0198 70.7617 63.1982 70.8243 63.4681C71.7206 67.2999 72.935 70.7605 73.2241 74.7466C73.2386 74.9538 73.5518 74.9586 73.547 74.7466Z" fill="#8BBACC"/>
<path d="M72.776 74.1007C71.6387 71.6474 70.4484 68.8904 68.757 66.7697C68.5883 66.5624 68.3184 66.8275 68.4148 67.0348C69.528 69.4929 71.0363 71.9944 72.4772 74.279C72.5977 74.467 72.8675 74.2983 72.776 74.1007Z" fill="#8BBACC"/>
<path d="M81.72 50.2086C82.6934 52.5848 83.7632 54.1898 86.2498 54.8357C88.7364 55.4815 91.3579 55.2936 93.9023 54.9514C94.9962 54.8068 97.4394 54.5947 98.2346 53.8332C99.4827 52.6378 101.001 51.8184 101.497 50.1604C100.577 50.146 98.4225 49.2977 97.4973 48.5072C96.9093 47.1914 96.4034 42.6944 96.4034 40.7086C96.4034 40.5207 85.0595 39.0554 84.992 41.4943C84.9294 43.6632 84.9439 45.5478 84.6788 48.0011C84.5294 49.3314 83.903 49.9869 81.72 50.2086Z" fill="#EA8744"/>
<path d="M68.0197 55.7756C76.3324 72.2451 74.506 100.326 73.9952 107.719C81.5224 108.071 86.3895 107.237 93.8638 106.288C98.9863 105.637 105.796 106.49 110.957 106.264C109.718 95.2407 109.256 86.8155 109.005 75.537C108.851 68.5386 113.101 61.6317 113.144 54.6333C113.144 54.2814 99.7573 49.4615 98.7213 49.2784C98.7213 49.2784 96.8563 53.5873 90.7748 53.8765C86.7558 54.0693 83.1367 49.7845 83.1367 49.7845C79.2527 51.0666 71.6724 53.9633 68.0197 55.7756Z" fill="#A2D2EA"/>
<path d="M83.1753 52.7005C84.9631 54.4742 87.4401 55.7225 89.9459 56.0889C91.7868 56.3588 94.6926 55.925 96.2347 54.8839C96.4467 54.7393 96.3214 54.3296 96.0468 54.4356C91.729 56.1419 86.9534 55.6695 83.4596 52.4161C83.2717 52.2474 82.9922 52.5221 83.1753 52.7005Z" fill="#8BBACC"/>
<path d="M128.869 86.7529C129.153 88.1603 129.37 89.6352 129.004 91.0233C128.637 92.4114 127.548 93.7032 126.127 93.8911C125.442 93.9827 124.753 93.8188 124.103 93.5827C119.51 91.9343 116.884 87.2253 114.696 82.8633C112.653 78.7905 108.711 72.7126 107.501 68.3217C106.87 66.0371 108.571 65.1165 110.455 63.6754C111.381 62.9717 112.614 62.8078 113.771 62.9186C118.845 63.3958 120.85 66.4709 122.238 70.6738C124.667 78.0482 127.813 81.5185 128.869 86.7529Z" fill="#EA8744"/>
<path d="M129.004 91.0233C128.276 92.5319 127.876 93.6068 126.127 93.8911C123.712 94.2864 120.517 93.9152 118.951 91.2884C117.698 89.1869 117.067 87.7072 115.804 85.6106C114.686 83.7598 113.602 80.8293 113.366 78.6796C113.178 76.9782 118.469 75.8166 119.081 76.5155C120.339 77.947 119.877 80.3955 122.831 81.6197C124.845 82.4536 127.63 82.4584 128.459 84.825C128.927 86.1601 129.596 89.7943 129.004 91.0233Z" fill="#FB9848"/>
<path d="M118.281 60.0701C120.869 63.3958 122.358 66.9962 124.03 70.8618C119.438 72.915 113.602 75.4021 108.571 75.5322C107.246 73.3729 106.812 68.8133 106.793 66.5142C106.73 59.0049 111.029 53.5825 113.135 54.6284C114.961 55.5298 117 58.4217 118.281 60.0701Z" fill="#A2D2EA"/>
<path d="M109.203 74.7514C109.429 71.5992 109.53 68.394 109.684 65.2322C109.699 64.943 109.227 64.8707 109.174 65.1647C108.6 68.2157 108.374 71.6715 108.725 74.7562C108.764 75.0502 109.183 75.0599 109.203 74.7514Z" fill="#8BBACC"/>
<path d="M109.66 74.6743C109.998 72.2258 110.827 70.0713 111.887 67.8493C111.998 67.6132 111.675 67.4204 111.535 67.6421C110.224 69.7291 109.593 72.1969 109.371 74.6309C109.357 74.7996 109.641 74.8381 109.66 74.6743Z" fill="#8BBACC"/>
<path d="M79.7394 74.0766C78.925 77.089 76.5155 79.899 73.4025 80.1738C75.0891 95.2696 72.7422 106.558 71.552 126.526C70.9737 136.21 69.1762 153.884 68.2992 161.88C85.7438 166.796 117.144 162.242 117.13 161.88C115.756 133.737 111.646 112.477 109.501 80.2316C106.711 79.0218 104.716 74.8382 103.69 71.9752C103.222 70.669 104.615 51.4618 103.882 50.652C103.463 50.1893 101.169 49.2495 100.186 49.7122C99.9164 56.0214 100.114 58.9904 99.5646 64.4465C94.7601 64.5477 88.4472 64.5236 83.6668 65.0008C83.1946 59.6507 82.5729 57.0962 81.72 50.2086C81.72 50.2086 77.6383 50.5267 77.9275 51.7413C78.684 54.8791 80.549 71.0642 79.7394 74.0766Z" fill="#819925"/>
<path d="M82.7512 72.139C87.5413 72.7897 92.5915 72.2161 97.4009 72.0378C98.1044 72.0137 99.4297 71.7052 100.095 71.9559C100.952 72.2788 100.061 71.4401 100.413 72.4812C100.697 73.3295 100.461 74.7417 100.48 75.6431C100.519 77.3107 100.562 78.9736 100.562 80.6413C100.562 81.8993 100.977 84.3333 100.456 85.466C100.128 86.1841 100.803 85.6106 100.037 85.9528C99.767 86.0733 99.2851 86.0299 98.9959 86.054C97.9984 86.1311 97.0009 86.1697 95.9986 86.2034C93.5312 86.2902 91.0639 86.3143 88.5966 86.2612C87.5557 86.2371 86.51 86.213 85.4739 86.1311C85.1462 86.1022 84.5102 86.1504 84.221 85.9962C83.4982 85.6057 84.1054 86.3143 83.6765 85.2876C83.3343 84.4634 83.5704 82.8777 83.5464 81.986C83.5126 80.8534 83.4934 79.7255 83.4693 78.5928C83.4211 76.3757 83.3632 74.1585 83.2235 71.9462C83.1898 71.4064 82.3464 71.4016 82.3802 71.9462C82.65 76.2552 82.597 80.5738 82.8283 84.8828C82.9054 86.3384 82.891 86.5986 84.2788 86.8348C88.3219 87.5144 92.7602 87.1529 96.837 86.9746C97.7912 86.9312 99.9694 87.1963 100.813 86.6179C101.916 85.8612 101.362 82.4825 101.377 81.2245C101.386 79.8219 101.367 78.4241 101.343 77.0215C101.324 76.0624 101.295 75.1081 101.27 74.1489C101.256 73.5753 101.468 71.8932 101.189 71.4787C100.774 70.8666 99.5887 71.1702 98.9574 71.1943C93.5891 71.3871 88.1822 71.9028 82.8091 71.739C82.5777 71.7245 82.5151 72.1053 82.7512 72.139Z" fill="#99B22F"/>
<path d="M80.5634 65.8395C80.9345 65.8925 81.3056 65.8829 81.6814 65.8684C82.0429 65.8539 82.3947 65.8636 82.6982 65.6515C82.838 65.5551 82.8717 65.3189 82.6982 65.2274C82.3657 65.0538 82.0477 65.0924 81.6814 65.1261C81.3104 65.1599 80.9249 65.184 80.5634 65.2852C80.3128 65.3575 80.2743 65.7961 80.5634 65.8395Z" fill="#99B22F"/>
<path d="M100.89 65.0442C101.261 65.0731 101.632 65.0972 102.003 65.1261C102.485 65.1598 102.485 64.3405 102.003 64.379C101.632 64.408 101.261 64.4321 100.89 64.461C100.514 64.4803 100.514 65.0152 100.89 65.0442Z" fill="#99B22F"/>
<path d="M83.5223 111.291C88.852 115.903 94.3167 120.367 100.051 124.473C100.254 124.618 100.519 124.28 100.321 124.126C94.7697 119.817 89.2376 115.489 83.8837 110.939C83.6331 110.727 83.2765 111.079 83.5223 111.291Z" fill="#6D7F1F"/>
<path d="M82.9295 118.569C88.1533 127.245 94.3794 135.487 101.666 142.538C101.873 142.741 102.186 142.432 101.984 142.22C94.9769 134.831 88.6063 127.057 83.1705 118.429C83.0741 118.275 82.838 118.415 82.9295 118.569Z" fill="#6D7F1F"/>
<path d="M81.5899 131.905C86.6305 140.162 92.341 148.076 98.755 155.325C98.9478 155.542 99.2465 155.229 99.0682 155.012C92.9192 147.546 87.1606 139.849 81.9079 131.722C81.7826 131.52 81.4646 131.698 81.5899 131.905Z" fill="#6D7F1F"/>
<path d="M87.7099 107.329C91.3338 110.235 95.7431 111.903 100.413 111.754C100.74 111.744 100.736 111.267 100.413 111.247C95.8251 111.011 91.7193 109.681 88.0424 106.9C87.7919 106.722 87.469 107.136 87.7099 107.329Z" fill="#6D7F1F"/>
<path d="M89.0303 82.815C88.4954 82.7524 87.975 83.0126 87.5461 83.3404C86.457 84.1791 85.7968 85.4419 84.9053 86.4829C83.556 88.059 81.6959 89.105 80.1586 90.4979C79.3201 91.2546 78.5587 92.1511 78.2358 93.2308C77.913 94.3104 78.125 95.607 78.978 96.3444C79.6671 96.9372 80.6598 97.077 81.5417 96.8842C82.4283 96.6914 83.2186 96.2046 83.9367 95.6552C86.2305 93.8911 87.8979 91.4571 89.5267 89.0616C90.5483 87.5578 92.3361 83.2151 89.0303 82.815Z" fill="#547C32"/>
<path d="M88.5966 85.7937C88.5243 86.3625 88.2641 86.8493 88.0713 87.3795C87.9701 87.6638 88.346 87.8856 88.5581 87.6879C89.0641 87.2156 89.2472 86.4926 89.3098 85.8227C89.3532 85.3599 88.6544 85.3407 88.5966 85.7937Z" fill="white"/>
<path d="M86.9726 88.4302C86.8329 88.5507 86.6931 88.676 86.5534 88.7965C86.3751 88.9507 86.2498 89.0712 86.2883 89.3267C86.3028 89.4327 86.404 89.5388 86.5052 89.5629C86.7558 89.6207 86.8859 89.5098 87.0545 89.3411C87.1895 89.211 87.3196 89.0809 87.4545 88.9556C87.7822 88.6374 87.3196 88.1265 86.9726 88.4302Z" fill="white"/>
<path d="M84.7318 90.8063C85.0739 91.1775 85.6474 90.6473 85.3052 90.2762C84.9679 89.9099 84.3896 90.4352 84.7318 90.8063Z" fill="white"/>
<path d="M86.9485 90.8642C87.0256 92.7873 87.2232 94.7345 87.922 96.5275C88.6207 98.3205 89.864 99.9641 91.594 100.808C93.324 101.651 95.5648 101.555 97.025 100.301C98.6683 98.8893 98.914 96.1275 97.5406 94.4453C97.0635 93.8621 96.4371 93.4139 95.9166 92.8692C94.9817 91.8908 94.4083 90.6328 93.9264 89.37C93.3096 87.7554 92.8084 86.0925 92.4325 84.4055C92.2301 83.4994 92.0566 82.5644 91.6085 81.7498C90.3941 79.5375 87.5654 79.8941 87.2329 82.3764C86.8618 85.1285 86.8377 88.0976 86.9485 90.8642Z" fill="#893385"/>
<path d="M87.1654 82.8198C87.7099 82.7572 88.2593 82.4872 88.5099 82.0004C88.693 82.4872 88.8183 82.9933 88.8809 83.5091C89.3195 83.6488 89.8158 83.4319 90.1098 83.0753C90.4037 82.7234 90.5338 82.2559 90.6013 81.8028C91.276 82.7379 92.871 82.7764 93.5939 81.8799C93.1457 81.8028 92.8132 81.4317 92.5819 81.0413C92.3554 80.6509 92.1916 80.2171 91.8976 79.8749C90.9772 78.8 89.5315 79.1664 88.7412 80.1448C86.722 78.3904 86.3365 81.6486 85.6089 82.6463C86.0956 82.8054 86.6498 82.8777 87.1654 82.8198Z" fill="#425831"/>
<path d="M89.3002 80.6027C89.652 79.3929 89.1026 77.571 87.8545 77.0938C87.6617 77.0215 87.4834 77.277 87.5895 77.4409C87.8882 77.8987 88.2689 78.2892 88.4858 78.8001C88.7267 79.364 88.7267 79.9183 88.6978 80.5208C88.6785 80.8726 89.2038 80.9256 89.3002 80.6027Z" fill="#425831"/>
<path d="M88.5774 86.5263C88.24 87.5577 87.9653 89.0133 88.5002 90.0207C88.6255 90.2521 89.04 90.2183 89.093 89.9436C89.1845 89.4471 89.0978 88.97 89.0978 88.4639C89.0978 87.8807 89.1653 87.2927 89.2665 86.7143C89.3436 86.2708 88.7219 86.0829 88.5774 86.5263Z" fill="white"/>
<path d="M88.6641 92.2427C88.6834 92.3872 88.6882 92.527 88.746 92.662C88.7942 92.7777 88.852 92.8837 88.9099 92.9945C89.0544 93.2886 89.464 93.1199 89.4833 92.8403C89.5026 92.5897 89.5026 92.3824 89.4351 92.1414C89.3821 91.9535 89.1942 91.833 89.0062 91.8619C88.8279 91.8812 88.6352 92.045 88.6641 92.2427Z" fill="white"/>
<path d="M90.1483 95.9202C90.3507 96.0793 90.5724 96.2625 90.8374 96.1371C90.9097 96.1034 90.9483 96.0166 90.9483 95.9395C90.9579 95.6889 90.7073 95.5395 90.5194 95.4334C90.2302 95.2792 89.864 95.6985 90.1483 95.9202Z" fill="white"/>
<path d="M95.4444 90.1605C94.0613 91.2161 93.5698 93.2886 94.3312 94.8503C94.5288 95.2551 94.8083 95.6745 94.7408 96.1179C94.6974 96.383 94.5336 96.624 94.5288 96.8939C94.5191 97.4096 95.0685 97.7374 95.5359 97.9543C97.2033 98.7062 98.8899 99.4677 100.683 99.8292C102.191 100.133 103.738 100.142 105.275 100.152C106.244 100.157 107.222 100.162 108.152 99.8967C108.957 99.6653 109.689 99.2315 110.455 98.8941C111.477 98.4459 112.571 98.1567 113.554 97.6217C114.537 97.0867 115.433 96.2432 115.655 95.1443C115.371 94.0984 115.347 92.985 115.588 91.9246C115.689 91.4812 115.824 90.9896 115.592 90.604C115.332 90.1702 114.739 90.0931 114.33 89.7942C113.477 89.1676 113.578 87.7169 112.691 87.1337C112.214 86.8204 111.573 86.8541 111.092 86.5456C110.769 86.3384 110.557 85.9962 110.277 85.7311C109.68 85.1623 108.822 84.984 108.012 84.8298C106.523 84.5454 104.991 84.261 103.502 84.5309C102.716 84.6707 101.608 84.0248 100.654 84.1984C99.5453 84.4008 98.7791 84.9406 97.9358 85.6395C96.5961 86.7625 94.5047 88.0012 95.4444 90.1605Z" fill="#DFD79D"/>
<path d="M100.162 88.276C99.6368 88.5507 99.4537 89.1773 99.6802 89.7219C99.8055 90.0208 100.046 90.228 100.336 90.3726C100.736 90.5702 101.068 90.4546 101.463 90.5461C101.772 90.6184 101.714 90.6232 101.863 90.9365C101.94 91.0956 101.998 91.2595 102.104 91.4041C102.311 91.6981 102.62 91.9439 102.981 92.0065C103.559 92.1078 104.181 91.7993 104.191 91.1775C104.196 90.9703 103.935 90.8691 103.791 91.0088C103.208 91.5776 102.697 91.1775 102.446 90.5413C102.35 90.2907 102.302 90.069 102.046 89.9388C101.815 89.8183 101.603 89.8762 101.357 89.8906C101.107 89.9051 100.793 89.9003 100.567 89.7701C100.201 89.5677 99.9453 89.0086 100.422 88.7049C100.692 88.5362 100.451 88.1266 100.162 88.276Z" fill="#9FA156"/>
<path d="M96.5913 92.1801C96.3744 92.8452 96.8226 93.3272 97.478 93.4381C98.0466 93.5345 98.0177 93.4766 98.4514 93.7803C98.7261 93.9683 98.9188 94.1466 99.2658 94.2044C99.8344 94.3008 100.201 94.1851 100.745 94.4647C101.083 94.6382 101.328 94.8888 101.733 94.9033C102.326 94.9274 102.846 94.5563 102.764 93.9345C102.75 93.814 102.557 93.708 102.495 93.8622C102.017 94.9756 101.14 94.0309 100.48 93.8092C99.7622 93.5682 98.8947 94.0695 98.461 93.0959C98.4369 93.0428 98.3598 92.9995 98.302 93.0043C97.7045 93.12 97.2226 92.8549 96.8611 92.2138C96.8708 92.0548 96.6347 92.0355 96.5913 92.1801Z" fill="#9FA156"/>
<path d="M107.472 94.643C107.516 95.2792 108.137 95.6504 108.75 95.5202C109.578 95.3467 109.795 94.4502 109.684 93.7224C109.588 93.8188 109.487 93.92 109.39 94.0164C110.075 94.2863 110.942 94.3635 111.477 93.7561C111.843 93.3416 111.94 92.7054 111.559 92.2861C111.424 92.1415 111.159 92.2909 111.222 92.4837C111.612 93.6598 110.393 93.8959 109.521 93.5489C109.376 93.4911 109.207 93.6357 109.217 93.7803C109.236 94.1514 109.198 94.5129 108.918 94.7828C108.586 95.1057 108.06 95.1105 107.877 94.5803C107.805 94.3827 107.458 94.402 107.472 94.643Z" fill="#9FA156"/>
<path d="M106.34 92.2042C106.721 92.397 107.169 92.5946 107.583 92.3777C107.728 92.3006 107.858 92.1752 107.93 92.0258C108.003 91.8716 107.897 91.5872 107.964 91.4764C108.036 91.3607 108.354 91.2546 108.475 91.1486C108.634 91.004 108.769 90.8257 108.87 90.6377C109.068 90.2714 109.178 89.8231 108.966 89.4472C108.909 89.3412 108.735 89.3653 108.706 89.4809C108.624 89.7942 108.644 90.122 108.494 90.416C108.321 90.763 108.046 90.8932 107.747 91.1052C107.603 91.2064 107.574 91.2884 107.506 91.4426C107.386 91.7318 107.752 91.3703 107.309 91.8427C107.203 92.0885 107.034 92.1415 106.807 92.0065C106.697 91.968 106.586 91.9246 106.48 91.8764C106.292 91.7993 106.157 92.1126 106.34 92.2042Z" fill="#9FA156"/>
<path d="M104.798 87.8422C105.092 88.1988 105.617 88.3145 106.027 88.088C106.398 87.8855 106.697 87.3216 106.432 86.9264C106.326 86.7625 106.109 86.8396 106.089 87.018C106.061 87.2831 106.065 87.553 105.81 87.712C105.559 87.8663 105.251 87.7699 105.068 87.5674C104.904 87.3891 104.649 87.659 104.798 87.8422Z" fill="#9FA156"/>
<path d="M98.5285 95.8142C98.1574 96.301 98.5478 97.0819 99.1791 97.0481C99.3381 97.0385 99.4537 96.9421 99.6031 96.9083C100.225 96.7541 100.634 97.0578 101.136 97.3421C101.545 97.5735 101.989 97.7277 102.388 97.4289C102.49 97.3518 102.48 97.1349 102.311 97.1542C101.444 97.2554 101.03 96.5999 100.254 96.4456C100.061 96.4071 99.9067 96.4312 99.7188 96.4649C99.5405 96.4938 99.4007 96.5758 99.208 96.6047C98.9622 96.7348 98.8176 96.6673 98.7695 96.3926C98.6104 96.248 98.5815 96.089 98.6875 95.9106C98.7261 95.795 98.596 95.7227 98.5285 95.8142Z" fill="#9FA156"/>
<path d="M104.306 95.3275C104.186 95.6889 104.278 96.0794 104.509 96.3782C104.702 96.6288 105.203 96.9517 105.511 96.73C105.646 96.6336 105.656 96.4505 105.511 96.3541C105.405 96.2818 105.285 96.2914 105.169 96.248C105.068 96.2095 104.981 96.1468 104.904 96.0697C104.73 95.901 104.624 95.6745 104.673 95.4287C104.716 95.1877 104.384 95.0913 104.306 95.3275Z" fill="#9FA156"/>
<path d="M112.258 95.5395C112.87 95.6986 113.631 95.8335 114.152 95.366C114.532 95.0238 114.686 94.3972 114.262 94.0261C114.099 93.8815 113.887 94.0598 113.973 94.2478C114.108 94.5514 113.882 94.9274 113.602 95.0575C113.236 95.231 112.769 95.125 112.388 95.0575C112.084 95.0142 111.949 95.4576 112.258 95.5395Z" fill="#9FA156"/>
<path d="M110.716 90.6811C111.467 90.8739 112.335 89.9244 111.732 89.2737C111.617 89.1436 111.434 89.2834 111.463 89.4328C111.53 89.7846 111.251 90.3341 110.836 90.2521C110.557 90.1943 110.436 90.6088 110.716 90.6811Z" fill="#9FA156"/>
<path d="M96.6395 87.9337C96.5672 88.2326 96.519 88.5314 96.466 88.8302C96.4419 88.9556 96.4997 89.052 96.6202 89.1002C96.9816 89.2399 97.531 89.4665 97.9213 89.3315C98.0562 89.2833 98.0996 89.0905 97.9647 89.0134C97.7864 88.9122 97.5695 88.8977 97.3719 88.8592C97.1551 88.8158 96.9479 88.7531 96.7407 88.676C96.7937 88.7483 96.8467 88.8158 96.8997 88.8881C96.8901 88.5796 96.89 88.2711 96.866 87.9627C96.8515 87.8422 96.6732 87.8036 96.6395 87.9337Z" fill="#9FA156"/>
<path d="M100.986 86.7625C100.639 87.0469 100.755 87.5578 101.083 87.8181C101.598 88.2278 102.278 87.8856 102.658 87.4711C102.581 87.4614 102.504 87.4518 102.427 87.4421C102.764 87.9579 103.55 88.5604 104.181 88.2085C104.287 88.1507 104.249 88.0109 104.152 87.9723C103.902 87.8759 103.637 87.8952 103.386 87.8085C103.087 87.7024 102.856 87.5144 102.663 87.2638C102.634 87.2253 102.562 87.2108 102.519 87.2253C102.379 87.2831 102.244 87.3409 102.104 87.3988C101.801 87.5241 100.856 87.6012 101.227 86.9457C101.309 86.7866 101.111 86.6565 100.986 86.7625Z" fill="#9FA156"/>
<path d="M105.738 90.3051C105.945 90.604 106.306 90.7678 106.668 90.6714C107.02 90.5799 107.328 90.1991 107.183 89.828C107.145 89.7268 107 89.6882 106.938 89.7942C106.846 89.9533 106.735 90.1557 106.547 90.228C106.359 90.2955 106.176 90.1991 106.061 90.0545C105.916 89.8762 105.603 90.1172 105.738 90.3051Z" fill="#9FA156"/>
<path d="M96.6539 90.7437C96.7262 91.0522 96.9912 91.2836 97.2756 91.4041C97.5406 91.5149 97.9599 91.5824 98.143 91.298C98.2008 91.2113 98.143 91.0956 98.0514 91.0667C97.8587 91.004 97.6466 91.0908 97.4442 91.0329C97.2129 90.9703 97.0587 90.816 96.919 90.6281C96.8274 90.5027 96.6154 90.575 96.6539 90.7437Z" fill="#9FA156"/>
<path d="M95.2853 95.125C95.2516 95.7034 95.9696 96.3444 96.519 95.9781C96.6587 95.8865 96.625 95.6118 96.4274 95.6359C96.0805 95.6696 95.6468 95.554 95.6371 95.1298C95.6371 94.8985 95.2998 94.8985 95.2853 95.125Z" fill="#9FA156"/>
<path d="M106.832 97.5253C106.87 97.9881 107.106 98.4604 107.574 98.6291C108.08 98.8123 108.152 98.4556 108.258 98.0796C108.475 97.3036 110.031 97.9013 110.113 96.8891C110.123 96.7542 109.935 96.6867 109.848 96.7783C109.448 97.2169 108.88 97.1928 108.364 97.4097C108.181 97.4868 108.012 97.5735 107.901 97.7422C107.853 97.8145 107.819 98.07 107.776 98.1037C107.554 98.2965 107.275 97.6073 107.241 97.4723C107.188 97.2458 106.812 97.2892 106.832 97.5253Z" fill="#9FA156"/>
<path d="M107.906 87.4855C108.297 87.9868 109.395 88.0446 109.54 87.3024C109.569 87.1578 109.419 87.0084 109.275 87.0999C108.952 87.3072 108.523 87.5193 108.195 87.1915C108.007 86.9987 107.747 87.2831 107.906 87.4855Z" fill="#9FA156"/>
<path d="M103.685 97.2313C103.584 97.6072 103.805 97.9591 104.133 98.1326C104.451 98.3061 104.943 98.335 105.092 97.9398C105.13 97.8434 105.034 97.7326 104.938 97.7374C104.74 97.7422 104.552 97.8145 104.364 97.7374C104.176 97.6603 104.022 97.4819 104.003 97.2747C103.988 97.1012 103.738 97.0433 103.685 97.2313Z" fill="#9FA156"/>
<path d="M104.35 93.2887C104.422 93.4911 104.576 93.5827 104.759 93.6791C104.947 93.7803 105.121 93.8381 105.338 93.7948C105.487 93.7658 105.53 93.5875 105.468 93.4718C105.376 93.2935 105.222 93.2019 105.044 93.1248C104.865 93.0477 104.697 92.9609 104.499 93.0284C104.393 93.0621 104.311 93.173 104.35 93.2887Z" fill="#9FA156"/>
<path d="M101.164 85.7407C101.285 85.7263 101.401 85.7215 101.516 85.7359C101.656 85.7552 101.801 85.8179 101.945 85.8034C102.258 85.7697 102.403 85.4467 102.196 85.2009C101.94 84.8973 101.41 84.9358 101.063 85.0129C100.885 85.0563 100.774 85.2443 100.798 85.4178C100.827 85.5817 100.981 85.7648 101.164 85.7407Z" fill="white"/>
<path d="M103.67 85.948C103.829 85.9528 103.988 85.9576 104.147 85.9624C104.61 85.9769 104.615 85.225 104.147 85.2395C103.988 85.2443 103.829 85.2491 103.67 85.2539C103.232 85.2732 103.227 85.9335 103.67 85.948Z" fill="white"/>
<path d="M105.94 86.0492C106.229 86.054 106.528 86.0974 106.716 85.8275C106.754 85.7696 106.754 85.678 106.716 85.6202C106.533 85.3503 106.229 85.3888 105.94 85.3985C105.521 85.4033 105.521 86.0443 105.94 86.0492Z" fill="white"/>
<path d="M110.484 87.8181C110.879 87.7747 111.246 87.9675 111.573 88.1699C111.718 88.2567 111.925 88.1121 111.867 87.9434C111.66 87.3168 111.005 87.1288 110.402 87.2349C110.075 87.2879 110.147 87.8566 110.484 87.8181Z" fill="white"/>
<path d="M112.238 89.5821C112.349 89.7219 112.45 89.8279 112.595 89.9292C112.826 90.0882 113.082 89.8231 113.034 89.5918C112.995 89.4183 112.923 89.2737 112.841 89.1194C112.735 88.917 112.451 88.8784 112.277 89.0134C112.084 89.1628 112.094 89.4038 112.238 89.5821Z" fill="white"/>
<path d="M113.52 92.1415C113.911 92.4259 114.315 92.021 114.031 91.6306C113.891 91.4378 113.626 91.3751 113.443 91.5535C113.265 91.7318 113.328 92.0017 113.52 92.1415Z" fill="white"/>
<path d="M80.467 79.1326C80.7224 78.5542 80.9489 77.7831 80.4767 77.3589C80.1827 77.4264 79.8839 77.4891 79.59 77.5565C79.4888 74.226 78.178 70.9437 75.9565 68.4566C75.7637 68.5964 75.571 68.741 75.3782 68.8808C74.4048 67.6662 73.3446 66.519 72.2073 65.4538C71.8266 65.0972 71.3929 64.7309 70.8677 64.7068C70.3472 64.6827 69.793 65.208 69.9954 65.69C69.0413 64.8706 67.9329 64.2344 66.7523 63.8103C66.4439 63.6994 66.0391 63.6319 65.8463 63.8922C65.6969 64.0946 65.7644 64.379 65.8415 64.6152C66.1547 65.6177 66.4728 66.6202 66.786 67.6228C65.9764 67.9409 64.7379 67.7047 64.497 68.5434C64.2512 69.411 65.6054 69.9845 65.6487 70.8858C65.668 71.3341 65.35 71.7293 65.2777 72.1727C65.1331 73.0355 65.933 73.7729 66.7378 74.1103C67.5426 74.4477 68.4582 74.5971 69.1184 75.1755C69.3015 75.3394 69.4702 75.5466 69.4943 75.7925C69.5425 76.2744 69.0509 76.6359 68.9497 77.1083C68.8148 77.7156 69.3449 78.2506 69.8219 78.6506C71.0363 79.6628 72.2459 80.675 73.4603 81.6872C73.2916 81.7546 73.1808 81.9426 73.2049 82.1258C73.2241 82.2752 73.3205 82.4005 73.4169 82.521C74.0482 83.3115 74.6746 84.1067 75.3059 84.8972C76.0529 85.8322 76.795 86.7721 77.5419 87.7072C78.1057 86.3865 78.0527 84.9791 78.4816 83.6585C78.9635 82.1113 79.8117 80.6123 80.467 79.1326Z" fill="#C6C93B"/>
<path d="M67.8558 66.6154C70.034 69.3001 71.976 72.1679 73.5904 75.2285C75.1276 78.1349 76.0384 81.2341 77.3492 84.2272C77.4311 84.4152 77.701 84.2899 77.6672 84.1067C77.0745 80.8774 75.4023 77.5854 73.8554 74.7176C72.2411 71.7293 70.3231 68.9434 68.1353 66.3503C67.9763 66.1575 67.7016 66.4226 67.8558 66.6154Z" fill="#847D00"/>
<path d="M72.2459 67.3095C71.8796 67.589 71.6869 67.9457 71.7254 68.4181C71.7881 69.1507 72.6796 69.4495 72.6989 70.158C72.7037 70.3942 72.5447 70.6689 72.5447 70.9244C72.5398 71.1991 72.6073 71.4739 72.6892 71.7293C72.8675 72.274 73.1904 72.7849 73.5711 73.209C73.6916 73.3488 73.9229 73.1801 73.8361 73.021C73.6386 72.6644 73.3928 72.3318 73.2145 71.9655C72.8772 71.2811 72.9495 70.8665 73.0169 70.1339C73.094 69.2953 71.6483 68.365 72.535 67.6035C72.7326 67.43 72.4531 67.1504 72.2459 67.3095Z" fill="#847D00"/>
<path d="M75.1565 70.1436C74.7807 70.2882 74.5494 70.6015 74.5397 71.0208C74.5301 71.6522 75.0553 71.8691 75.33 72.327C75.6722 72.9005 75.3011 73.9657 75.3734 74.6309C75.4409 75.243 75.6047 75.8166 75.9565 76.3275C76.0577 76.4721 76.342 76.4094 76.2745 76.207C75.9083 75.0309 75.8167 74.1537 75.9806 72.9246C76.0191 72.6547 76.0432 72.4957 75.9276 72.2306C75.7637 71.8595 74.5975 70.9822 75.3638 70.5484C75.6288 70.3942 75.4216 70.0424 75.1565 70.1436Z" fill="#847D00"/>
<path d="M77.1034 75.2623C77.1275 75.9756 77.1853 76.6841 77.2624 77.3927C77.3395 78.1349 77.3299 79.0121 77.5901 79.7062C77.6383 79.8411 77.8841 79.9038 77.913 79.7158C78.0286 78.9977 77.86 78.2024 77.7973 77.4746C77.7299 76.7179 77.6479 75.966 77.5226 75.2189C77.4841 74.9827 77.0937 75.0213 77.1034 75.2623Z" fill="#847D00"/>
<path d="M66.998 70.0038C67.186 70.4328 67.3836 70.8907 67.7498 71.1991C68.2172 71.5895 68.9063 71.5221 69.3015 72.0378C69.7256 72.5873 69.6533 73.4789 70.4581 73.6476C70.6074 73.6765 70.7761 73.4838 70.6315 73.3633C70.0484 72.8668 70.0484 72.1005 69.5424 71.5703C69.3931 71.4112 69.2196 71.31 69.0172 71.2281C68.6172 71.0594 68.4582 71.0642 68.0727 70.7509C67.6582 70.4087 67.5763 70.2737 67.3643 69.811C67.2534 69.5604 66.8872 69.758 66.998 70.0038Z" fill="#847D00"/>
<path d="M70.5882 74.708C70.8195 75.3153 71.2773 75.5659 71.7833 75.9274C72.5254 76.4576 72.9736 77.1468 73.6289 77.7445C73.7157 77.8264 73.9036 77.759 73.8554 77.624C73.6578 77.0312 73.1952 76.5733 72.7278 76.1684C72.111 75.6334 71.1664 75.3635 70.8147 74.5827C70.752 74.4284 70.5303 74.5538 70.5882 74.708Z" fill="#847D00"/>
<path d="M71.658 78.4048C71.9953 79.0314 72.3085 79.7929 73.0025 80.0291C73.0458 80.0243 73.0892 80.0195 73.1277 80.005C73.5615 79.8893 73.9566 80.0629 74.3132 80.5256C74.4578 80.7232 74.5108 80.9979 74.6072 81.2196C74.7855 81.6341 74.9204 81.8799 75.3107 82.1017C75.3975 82.1547 75.4987 82.0342 75.4264 81.9571C74.8337 81.3546 74.7228 80.1785 73.9373 79.764C73.6675 79.6243 73.3832 79.6483 73.1085 79.5134C72.6266 79.2772 72.3182 78.5976 71.9712 78.1686C71.8314 78.0048 71.5519 78.212 71.658 78.4048Z" fill="#847D00"/>
<path d="M76.0625 70.5581C76.0577 70.7268 76.0384 70.881 76.024 71.0449C75.9999 71.2859 76.1155 71.5028 76.3757 71.5221C76.5059 71.5317 76.6311 71.4546 76.7034 71.3437C76.8914 71.0545 76.8432 70.5966 76.5733 70.3653C76.3854 70.2062 76.0721 70.2834 76.0625 70.5581Z" fill="white"/>
<path d="M76.6456 72.3511C76.6842 72.5005 76.7227 72.6547 76.7661 72.8041C76.8239 72.9921 77.0022 73.127 77.2046 73.0789C77.3877 73.0355 77.5371 72.8282 77.4793 72.6403C77.4359 72.4908 77.3829 72.3414 77.3299 72.1968C77.2673 72.0185 77.1034 71.8884 76.9058 71.9317C76.7275 71.9703 76.5974 72.1679 76.6456 72.3511Z" fill="white"/>
<path d="M77.6865 74.4863C77.966 74.5875 78.2069 74.361 78.1202 74.0766C78.0479 73.8308 77.7491 73.7151 77.5467 73.9031C77.3444 74.0959 77.4456 74.3995 77.6865 74.4863Z" fill="white"/>
<path d="M68.8244 66.0852C68.8822 66.2443 68.9208 66.4178 69.0509 66.5287C69.1569 66.6202 69.3111 66.6636 69.4316 66.5769C69.7496 66.3503 69.4075 65.9792 69.2485 65.7816C69.1665 65.6804 69.0027 65.6804 68.9015 65.7527C68.7907 65.8346 68.7762 65.9599 68.8244 66.0852Z" fill="white"/>
<path d="M70.2557 67.7915C70.2701 67.8059 70.2846 67.8204 70.2942 67.8349C70.6267 68.1964 71.1954 67.6613 70.8532 67.3095C70.8387 67.295 70.8243 67.2806 70.8098 67.2661C70.4677 66.9143 69.9183 67.4252 70.2557 67.7915Z" fill="white"/>
<path d="M75.6818 68.3265C75.1614 68.4663 74.7758 68.9001 74.5012 69.3676C73.8024 70.5485 73.6578 71.9655 73.2193 73.2669C72.5543 75.2334 71.2194 76.8962 70.3038 78.7567C69.8075 79.7689 69.4316 80.8871 69.5376 82.0101C69.6436 83.1331 70.3183 84.261 71.3881 84.6225C72.2459 84.9165 73.2193 84.6755 73.9711 84.1694C74.7228 83.6633 75.277 82.9163 75.7396 82.1354C77.2142 79.6436 77.8552 76.7613 78.472 73.9368C78.8575 72.1631 78.9009 67.4637 75.6818 68.3265Z" fill="#547C32"/>
<path d="M76.3854 71.2474C76.5299 71.8016 76.4673 72.3511 76.4866 72.915C76.4962 73.2139 76.9299 73.2813 77.0504 73.0211C77.3443 72.3945 77.2431 71.657 77.0552 71.0112C76.9299 70.5678 76.2697 70.8087 76.3854 71.2474Z" fill="white"/>
<path d="M75.8601 74.2983C75.7734 74.4622 75.6914 74.6309 75.6047 74.7947C75.4987 75.0068 75.4264 75.1611 75.5565 75.3876C75.6095 75.4792 75.7396 75.5418 75.8457 75.5274C76.1011 75.4888 76.1782 75.3346 76.2745 75.1177C76.3516 74.949 76.4288 74.7803 76.501 74.6068C76.689 74.1874 76.0673 73.8886 75.8601 74.2983Z" fill="white"/>
<path d="M74.665 77.3397C75.118 77.5566 75.4553 76.8529 75.0023 76.636C74.5493 76.4191 74.212 77.1228 74.665 77.3397Z" fill="white"/>
<path d="M105.005 71.1317C104.938 69.1989 105.863 67.2613 107.405 66.0949C107.583 66.8275 107.757 67.5553 107.935 68.2879C108.668 65.9937 110.186 63.9549 112.176 62.5957C112.118 63.5982 112.06 64.6007 112.002 65.6033C113.062 64.4369 114.296 63.4343 115.655 62.6391C115.631 64.3405 115.192 66.0371 114.393 67.536C115.139 67.0155 116.017 66.6781 116.918 66.5672C116.686 67.7578 116.262 68.9097 115.665 69.9653C116.46 69.7821 117.284 69.7435 118.093 69.8544C117.4 71.8836 115.901 73.6235 113.993 74.602C115.332 74.3995 116.677 74.1923 118.016 73.9898C116.754 75.8937 115.115 77.5469 113.217 78.8194C114.171 78.6169 115.164 78.5832 116.132 78.723C114.45 80.3376 112.581 81.7547 110.566 82.9259C111.342 82.6897 112.176 82.656 112.966 82.815C111.159 84.4779 108.99 86.2612 106.562 85.8949C103.959 85.4997 102.408 82.8536 101.256 80.487C99.9356 77.7783 98.6249 74.655 99.7284 71.8546C100.225 72.5487 101.584 75.3105 102.384 75.5274C102.996 75.6913 103.044 75.2237 102.827 74.6743C101.844 72.1438 102.08 70.1195 103.531 68.0132C104.133 68.6976 105 70.1725 105.005 71.1317Z" fill="#B9C175"/>
<path d="M105.159 73.2331C105.458 74.3513 105.67 75.4888 105.858 76.6359C105.897 76.8673 106.215 76.8336 106.22 76.6022C106.234 75.3876 106.027 74.2067 105.665 73.05C105.559 72.7126 105.073 72.9054 105.159 73.2331Z" fill="#A9AD55"/>
<path d="M107.309 70.1436C107.077 72.0474 107.01 74.0766 107.54 75.9371C107.612 76.2022 108.012 76.0913 107.993 75.8358C107.872 73.9464 107.67 72.1294 107.839 70.2303C107.872 69.8929 107.352 69.8014 107.309 70.1436Z" fill="#A9AD55"/>
<path d="M110.629 66.3504C109.853 68.1048 109.564 69.9315 109.921 71.8257C109.969 72.0812 110.349 72.0571 110.33 71.7872C110.19 70.0134 110.393 68.1964 111.043 66.5383C111.149 66.2684 110.749 66.0853 110.629 66.3504Z" fill="#A9AD55"/>
<path d="M112.687 66.1045C111.954 67.9264 111.27 69.7676 110.716 71.6474C110.653 71.8643 111.005 71.9655 111.092 71.7582C111.848 69.9701 112.489 68.124 113.072 66.2732C113.149 66.0274 112.793 65.8491 112.687 66.1045Z" fill="#A9AD55"/>
<path d="M113.843 68.2253C113.038 71.2811 111.265 73.8694 109.564 76.4865C109.448 76.6649 109.694 76.877 109.824 76.6986C111.747 74.12 113.491 71.4594 114.272 68.2976C114.34 68.0228 113.911 67.9554 113.843 68.2253Z" fill="#A9AD55"/>
<path d="M113.915 72.38C112.884 74.4574 111.757 76.4769 110.701 78.5398C110.6 78.7374 110.908 78.9302 111.034 78.7471C112.34 76.8095 113.381 74.7032 114.306 72.5583C114.417 72.3029 114.041 72.1342 113.915 72.38Z" fill="#A9AD55"/>
<path d="M101.714 77.4554C102.268 78.5591 102.678 79.7448 103.28 80.8196C103.4 81.0317 103.685 80.8341 103.632 80.6316C103.328 79.4508 102.668 78.3229 102.09 77.2529C101.974 77.0457 101.608 77.2433 101.714 77.4554Z" fill="#A9AD55"/>
<path d="M103.988 76.5588C104.48 78.2265 105.073 79.8845 106.041 81.3353C106.128 81.4655 106.34 81.3546 106.282 81.2052C105.641 79.605 104.914 78.0578 104.403 76.4046C104.326 76.1299 103.911 76.2841 103.988 76.5588Z" fill="#A9AD55"/>
<path d="M106.981 84.261C108.056 83.6344 109.241 82.7861 109.921 81.7161C110.041 81.5281 109.815 81.345 109.651 81.4992C108.711 82.4005 107.892 83.2826 106.759 83.9573C106.552 84.0778 106.774 84.3815 106.981 84.261Z" fill="#A9AD55"/>
<path d="M107.631 80.9449C108.263 80.1063 108.889 79.2773 109.448 78.3856C109.574 78.1832 109.318 77.9614 109.154 78.1494C108.46 78.9399 107.848 79.7737 107.227 80.622C107.029 80.8871 107.429 81.2149 107.631 80.9449Z" fill="#A9AD55"/>
<path d="M106.557 77.5469C106.687 78.3085 106.788 79.0796 107.044 79.8074C107.135 80.0677 107.506 79.9617 107.497 79.7062C107.482 78.9543 107.304 78.2265 107.164 77.4891C107.092 77.1083 106.489 77.1565 106.557 77.5469Z" fill="#A9AD55"/>
<path d="M103.372 69.9411C103.656 71.2618 103.728 72.5873 103.964 73.9079C103.998 74.0862 104.287 74.1296 104.306 73.9224C104.432 72.5969 104.08 71.1317 103.656 69.8785C103.603 69.7243 103.338 69.7773 103.372 69.9411Z" fill="#A9AD55"/>
<path d="M106.398 68.6494C105.921 69.6857 105.656 70.7509 105.738 71.898C105.752 72.0908 106.056 72.1053 106.08 71.9125C106.2 70.8666 106.398 69.811 106.803 68.8374C106.914 68.5675 106.518 68.3891 106.398 68.6494Z" fill="#A9AD55"/>
<path d="M112.426 78.2169C113.376 77.7493 113.968 77.0456 114.494 76.1636C114.576 76.0238 114.359 75.9033 114.258 76.019C113.675 76.7034 112.918 77.2625 112.21 77.812C112.012 77.9614 112.181 78.3374 112.426 78.2169Z" fill="#A9AD55"/>
<path d="M111.202 81.3305C111.771 80.9498 112.388 80.6027 112.879 80.1256C112.971 80.0388 112.846 79.8653 112.735 79.9231C112.123 80.2364 111.593 80.7039 111.053 81.1233C110.918 81.2197 111.063 81.4221 111.202 81.3305Z" fill="#A9AD55"/>
<path d="M114.446 70.2786C114.349 70.4713 114.277 70.6641 114.209 70.8714C114.152 71.0546 114.364 71.3196 114.547 71.1509C114.725 70.9871 114.884 70.8328 115.033 70.6449C115.342 70.2496 114.677 69.8158 114.446 70.2786Z" fill="white"/>
<path d="M114.72 71.7583C114.643 71.9607 114.566 72.139 114.605 72.3607C114.643 72.6017 114.932 72.7849 115.149 72.6114C115.327 72.4668 115.4 72.3077 115.482 72.1005C115.564 71.8932 115.482 71.6474 115.274 71.551C115.072 71.4642 114.797 71.5462 114.72 71.7583Z" fill="white"/>
<path d="M114.648 68.876C114.937 69.2808 115.568 68.8326 115.274 68.4277C114.99 68.0228 114.359 68.4711 114.648 68.876Z" fill="white"/>
<path d="M108.581 70.428C108.812 70.7509 109.313 70.3942 109.082 70.0713C108.851 69.7484 108.354 70.105 108.581 70.428Z" fill="white"/>
<path d="M108.658 72.0571C108.644 72.0908 108.639 72.1294 108.639 72.1679C108.586 72.7174 109.352 72.8427 109.482 72.3077C109.496 72.2692 109.501 72.2354 109.496 72.1969C109.521 71.6474 108.812 71.5317 108.658 72.0571Z" fill="white"/>
<path d="M109.068 74.0091C109.015 74.2598 109.01 74.6357 109.337 74.6887C109.665 74.7417 109.786 74.3851 109.815 74.1296C109.868 73.6525 109.174 73.5368 109.068 74.0091Z" fill="white"/>
<path d="M100.292 78.2313C100.697 80.1111 101.227 81.9956 102.22 83.644C103.213 85.2924 104.721 86.6998 106.571 87.2348C108.422 87.7698 110.61 87.2927 111.834 85.8082C113.212 84.1357 112.981 81.3691 111.342 79.952C110.773 79.4556 110.08 79.123 109.472 78.6747C108.383 77.8746 107.603 76.7275 106.913 75.5659C106.027 74.0814 105.251 72.5294 104.591 70.9292C104.234 70.0713 103.906 69.1796 103.323 68.4518C101.748 66.4805 99.0249 67.3191 99.1212 69.8206C99.2273 72.5969 99.7091 75.5177 100.292 78.2313Z" fill="#893385"/>
<path d="M99.1309 70.2689C99.6562 70.1146 100.148 69.7532 100.312 69.2326C100.577 69.6809 100.784 70.158 100.933 70.6545C101.391 70.7171 101.839 70.4183 102.07 70.0183C102.302 69.6182 102.345 69.141 102.335 68.6783C103.164 69.4832 104.74 69.2519 105.299 68.2397C104.846 68.2397 104.451 67.9312 104.162 67.5842C103.868 67.2372 103.637 66.8371 103.285 66.5528C102.196 65.6514 100.832 66.2588 100.225 67.3577C97.9358 65.9744 98.1141 69.2519 97.5695 70.3605C98.0707 70.4328 98.6345 70.4135 99.1309 70.2689Z" fill="#425831"/>
<path d="M100.851 67.7144C100.991 66.466 100.133 64.7598 98.8273 64.5043C98.6249 64.4658 98.49 64.7453 98.6249 64.8899C98.996 65.29 99.4441 65.6129 99.7429 66.0756C100.075 66.5913 100.172 67.136 100.244 67.7336C100.287 68.0855 100.813 68.0518 100.851 67.7144Z" fill="#425831"/>
<path d="M101.155 73.6765C101.001 74.7514 100.977 76.2359 101.675 77.1324C101.839 77.3396 102.244 77.2336 102.244 76.954C102.249 76.448 102.085 75.9901 101.998 75.4984C101.897 74.9201 101.863 74.332 101.863 73.7488C101.863 73.2909 101.222 73.2138 101.155 73.6765Z" fill="white"/>
<path d="M102.215 79.2917C102.258 79.4315 102.287 79.5664 102.369 79.6917C102.437 79.7978 102.514 79.8942 102.586 79.9954C102.779 80.2605 103.15 80.0243 103.121 79.7448C103.097 79.4941 103.063 79.2917 102.952 79.0603C102.87 78.8868 102.663 78.7953 102.48 78.8579C102.321 78.9109 102.157 79.1037 102.215 79.2917Z" fill="white"/>
<path d="M104.311 82.6656C104.538 82.7861 104.788 82.9307 105.029 82.762C105.097 82.7186 105.116 82.6222 105.106 82.5499C105.073 82.3041 104.803 82.1981 104.596 82.1258C104.282 82.0149 103.998 82.4921 104.311 82.6656Z" fill="white"/>
<path d="M76.9058 77.3589C75.5228 78.4145 75.0312 80.487 75.7926 82.0487C75.9902 82.4535 76.2697 82.8729 76.2023 83.3163C76.1589 83.5814 75.995 83.8224 75.9902 84.0923C75.9806 84.608 76.5299 84.9358 76.9974 85.1527C78.6647 85.9046 80.3514 86.6661 82.144 87.0276C83.6524 87.3312 85.1993 87.3409 86.7365 87.3505C87.7051 87.3553 88.6834 87.3602 89.6134 87.0951C90.4182 86.8637 91.1507 86.4299 91.9169 86.0925C92.9385 85.6443 94.0324 85.3551 95.0155 84.8201C95.9986 84.2851 96.8949 83.4416 97.1166 82.3427C96.8322 81.2968 96.8081 80.1834 97.0491 79.123C97.1503 78.6796 97.2852 78.1879 97.0539 77.8024C96.7937 77.3686 96.201 77.2915 95.7913 76.9926C94.9384 76.366 95.0396 74.9153 94.1529 74.3321C93.6758 74.0188 93.0349 74.0525 92.553 73.744C92.2301 73.5368 92.0181 73.1946 91.7386 72.9295C91.141 72.3607 90.2833 72.1824 89.4737 72.0282C87.9846 71.7438 86.4522 71.4594 84.9631 71.7293C84.1776 71.8691 83.0693 71.2232 82.1151 71.3968C81.0068 71.5992 80.2405 72.139 79.3972 72.8379C78.0576 73.9609 75.9709 75.1996 76.9058 77.3589Z" fill="#DFD79D"/>
<path d="M81.6284 75.4744C81.1032 75.7491 80.92 76.3757 81.1465 76.9203C81.2718 77.2192 81.5128 77.4264 81.8019 77.571C82.2019 77.7686 82.5344 77.653 82.9295 77.7445C83.2379 77.8168 83.1801 77.8216 83.3295 78.1349C83.4066 78.294 83.4644 78.4579 83.5705 78.6025C83.7777 78.8965 84.0861 79.1423 84.4475 79.205C85.0258 79.3062 85.6474 78.9977 85.6571 78.3759C85.6619 78.1687 85.4017 78.0675 85.2571 78.2072C84.674 78.776 84.1632 78.3759 83.9126 77.7397C83.8162 77.4891 83.768 77.2674 83.5126 77.1372C83.2813 77.0167 83.0693 77.0746 82.8235 77.089C82.5729 77.1035 82.2597 77.0987 82.0332 76.9685C81.667 76.7661 81.4116 76.207 81.8886 75.9033C82.1537 75.7346 81.9127 75.325 81.6284 75.4744Z" fill="#9FA156"/>
<path d="M78.0527 79.3784C77.8359 80.0436 78.284 80.5256 78.9394 80.6364C79.5081 80.7328 79.4791 80.675 79.9129 80.9786C80.1875 81.1666 80.3803 81.345 80.7273 81.4028C81.2959 81.4992 81.6621 81.3835 82.2067 81.6631C82.544 81.8366 82.7898 82.0872 83.1946 82.1017C83.7873 82.1258 84.3078 81.7546 84.2258 81.1329C84.2114 81.0124 84.0186 80.9063 83.956 81.0606C83.4789 82.174 82.6018 81.2293 81.9416 81.0076C81.2236 80.7666 80.3562 81.2678 79.9225 80.2942C79.8984 80.2364 79.8213 80.1978 79.7635 80.2026C79.1659 80.3183 78.684 80.0532 78.3226 79.4122C78.3371 79.2531 78.1009 79.2338 78.0527 79.3784Z" fill="#9FA156"/>
<path d="M88.9388 81.8414C88.9821 82.4776 89.6038 82.8488 90.2158 82.7186C91.0446 82.5451 91.2615 81.6486 91.1507 80.9208C91.0543 81.0172 90.9531 81.1184 90.8567 81.2148C91.541 81.4848 92.4084 81.5619 92.9433 80.9546C93.3095 80.5401 93.4059 79.9038 93.0252 79.4845C92.8903 79.3399 92.6253 79.4893 92.6879 79.6821C93.0782 80.8582 91.859 81.0943 90.9868 80.7473C90.8422 80.6895 90.6736 80.8341 90.6832 80.9787C90.7025 81.3498 90.6639 81.7113 90.3844 81.9812C90.0519 82.3041 89.5267 82.3089 89.3435 81.7788C89.2713 81.5811 88.9195 81.6004 88.9388 81.8414Z" fill="#9FA156"/>
<path d="M87.8015 79.4026C88.1822 79.5953 88.6304 79.793 89.0448 79.5761C89.1894 79.499 89.3195 79.3736 89.3918 79.2242C89.4641 79.07 89.358 78.7856 89.4255 78.6747C89.4978 78.5591 89.8158 78.453 89.9363 78.347C90.0953 78.2024 90.2303 78.0241 90.3315 77.8361C90.529 77.4698 90.6399 77.0215 90.4278 76.6456C90.37 76.5396 90.1965 76.5636 90.1676 76.6793C90.0857 76.9926 90.105 77.3204 89.9556 77.6144C89.7773 77.9614 89.5074 78.0916 89.2086 78.3036C89.0641 78.4048 89.0352 78.4868 88.9677 78.641C88.8472 78.9302 89.2135 78.5687 88.7701 79.0411C88.6641 79.2869 88.4954 79.3399 88.269 79.2049C88.1581 79.1664 88.0473 79.123 87.9413 79.0748C87.7533 78.9977 87.6232 79.311 87.8015 79.4026Z" fill="#9FA156"/>
<path d="M86.2643 75.0406C86.5582 75.3972 87.0835 75.5129 87.4931 75.2864C87.8642 75.0839 88.1629 74.52 87.8979 74.1248C87.7919 73.9609 87.575 74.038 87.5557 74.2164C87.5268 74.4815 87.5317 74.7514 87.2762 74.9104C87.0257 75.0647 86.7173 74.9683 86.5341 74.7658C86.3655 74.5875 86.1101 74.8574 86.2643 75.0406Z" fill="#9FA156"/>
<path d="M79.99 83.0126C79.6189 83.4994 80.0092 84.2802 80.6405 84.2465C80.7995 84.2369 80.9152 84.1405 81.0646 84.1067C81.6862 83.9525 82.0958 84.2562 82.597 84.5357C83.0066 84.7671 83.45 84.9213 83.8499 84.6225C83.9511 84.5453 83.9415 84.3285 83.7728 84.3477C82.9054 84.4489 82.491 83.7934 81.7151 83.6392C81.5224 83.6007 81.3682 83.6248 81.1802 83.6585C81.0019 83.6874 80.8622 83.7693 80.6694 83.7983C80.4237 83.9284 80.2791 83.8609 80.2309 83.5862C80.0719 83.4416 80.043 83.2825 80.149 83.1042C80.1924 82.9933 80.0622 82.921 79.99 83.0126Z" fill="#9FA156"/>
<path d="M85.7679 82.5258C85.6474 82.8873 85.739 83.2777 85.9703 83.5765C86.1631 83.8272 86.6642 84.1501 86.9726 83.9284C87.1076 83.832 87.1172 83.6488 86.9726 83.5525C86.8666 83.4802 86.7462 83.4898 86.6305 83.4464C86.5293 83.4079 86.4426 83.3452 86.3655 83.2681C86.192 83.0994 86.086 82.8728 86.1342 82.627C86.1823 82.386 85.845 82.2896 85.7679 82.5258Z" fill="#9FA156"/>
<path d="M93.724 82.7379C94.336 82.897 95.0974 83.032 95.6178 82.5644C95.9985 82.2222 96.1527 81.5956 95.7287 81.2245C95.5648 81.0799 95.3576 81.2582 95.4395 81.4462C95.5745 81.7499 95.348 82.1258 95.0685 82.256C94.7022 82.4295 94.2348 82.3234 93.8541 82.256C93.5457 82.2126 93.4108 82.656 93.724 82.7379Z" fill="#9FA156"/>
<path d="M92.1819 77.8795C92.9337 78.0723 93.8011 77.1228 93.1987 76.4721C93.0831 76.3419 92.9 76.4817 92.9289 76.6311C92.9963 76.983 92.7168 77.5325 92.3024 77.4505C92.0181 77.3927 91.8976 77.8072 92.1819 77.8795Z" fill="#9FA156"/>
<path d="M78.1057 75.1321C78.0335 75.431 77.9853 75.7298 77.9323 76.0286C77.9082 76.154 77.966 76.2504 78.0865 76.2985C78.4479 76.4383 78.9973 76.6649 79.3876 76.5299C79.5225 76.4817 79.5659 76.2889 79.431 76.2118C79.2527 76.1106 79.0358 76.0961 78.8382 76.0576C78.6214 76.0142 78.4142 75.9515 78.2069 75.8744C78.2599 75.9467 78.313 76.0142 78.366 76.0865C78.3563 75.778 78.3563 75.4695 78.3322 75.1611C78.3178 75.0406 78.1347 75.002 78.1057 75.1321Z" fill="#9FA156"/>
<path d="M82.4476 73.9609C82.1007 74.2453 82.2163 74.7562 82.544 75.0165C83.0596 75.4261 83.7391 75.0839 84.1198 74.6694C84.0427 74.6598 83.9656 74.6502 83.8885 74.6405C84.2258 75.1562 85.0113 75.7587 85.6426 75.4069C85.7486 75.349 85.7101 75.2093 85.6137 75.1707C85.3631 75.0743 85.0981 75.0936 84.8475 75.0068C84.5487 74.9008 84.3174 74.7128 84.1246 74.4622C84.0957 74.4236 84.0234 74.4092 83.9801 74.4236C83.8403 74.4815 83.7054 74.5393 83.5656 74.5971C83.262 74.7225 82.3175 74.7996 82.6886 74.1441C82.7753 73.985 82.5777 73.8549 82.4476 73.9609Z" fill="#9FA156"/>
<path d="M87.1991 77.5035C87.4063 77.8024 87.7678 77.9662 88.1292 77.8747C88.481 77.7831 88.7894 77.4023 88.6448 77.0312C88.6063 76.93 88.4617 76.8914 88.399 76.9974C88.3075 77.1565 88.1966 77.3589 88.0087 77.4312C87.8208 77.4987 87.6376 77.4023 87.522 77.2577C87.3774 77.0745 87.069 77.3155 87.1991 77.5035Z" fill="#9FA156"/>
<path d="M78.1202 77.9421C78.1925 78.2506 78.4575 78.482 78.7419 78.6025C79.0069 78.7133 79.4261 78.7808 79.6093 78.4964C79.6671 78.4097 79.6093 78.294 79.5177 78.2651C79.3249 78.2024 79.1129 78.2892 78.9105 78.2313C78.6792 78.1687 78.525 78.0144 78.3853 77.8265C78.2889 77.7011 78.0768 77.7734 78.1202 77.9421Z" fill="#9FA156"/>
<path d="M76.7516 82.3234C76.7179 82.9018 77.4359 83.5429 77.9853 83.1765C78.125 83.085 78.0913 82.8102 77.8937 82.8343C77.5467 82.8681 77.113 82.7524 77.1034 82.3282C77.0986 82.0969 76.7661 82.0969 76.7516 82.3234Z" fill="#9FA156"/>
<path d="M88.2979 84.7237C88.3364 85.1864 88.5725 85.6588 89.04 85.8275C89.546 86.0106 89.6183 85.6539 89.7243 85.278C89.9411 84.502 91.4977 85.0997 91.5796 84.0875C91.5892 83.9525 91.4013 83.885 91.3145 83.9766C90.9146 84.4152 90.3459 84.3911 89.8303 84.608C89.6472 84.6851 89.4785 84.7719 89.3677 84.9406C89.3195 85.0129 89.2858 85.2684 89.2424 85.3021C89.0207 85.4949 88.7412 84.8056 88.7075 84.6707C88.6497 84.4442 88.2738 84.4875 88.2979 84.7237Z" fill="#9FA156"/>
<path d="M89.3677 74.6839C89.758 75.1852 90.8567 75.243 91.0013 74.5007C91.0302 74.3561 90.8808 74.2067 90.7362 74.2983C90.4134 74.5056 89.9845 74.7176 89.6568 74.3899C89.4689 74.1971 89.2086 74.4815 89.3677 74.6839Z" fill="#9FA156"/>
<path d="M85.1511 84.4297C85.0499 84.8056 85.2715 85.1575 85.5992 85.331C85.9173 85.5045 86.4088 85.5334 86.5582 85.1382C86.5968 85.0418 86.5004 84.9309 86.404 84.9357C86.2064 84.9406 86.0185 85.0129 85.8305 84.9357C85.6426 84.8586 85.4884 84.6803 85.4691 84.473C85.4547 84.2995 85.1993 84.2417 85.1511 84.4297Z" fill="#9FA156"/>
<path d="M85.8113 80.487C85.8836 80.6895 86.0378 80.7811 86.2209 80.8775C86.4088 80.9787 86.5823 81.0365 86.7992 80.9931C86.9486 80.9642 86.9919 80.7859 86.9293 80.6702C86.8377 80.4919 86.6835 80.4003 86.5052 80.3232C86.3269 80.246 86.1583 80.1593 85.9607 80.2268C85.8595 80.2605 85.7727 80.3714 85.8113 80.487Z" fill="#9FA156"/>
<path d="M82.6307 72.9391C82.7512 72.9247 82.8669 72.9198 82.9825 72.9343C83.1223 72.9536 83.2668 73.0162 83.4114 73.0018C83.7246 72.968 83.8692 72.6451 83.662 72.3993C83.4066 72.0957 82.8765 72.1342 82.5295 72.2113C82.3512 72.2547 82.2404 72.4427 82.2645 72.6162C82.2886 72.7801 82.4428 72.9632 82.6307 72.9391Z" fill="white"/>
<path d="M85.1366 73.1464C85.2956 73.1512 85.4547 73.156 85.6137 73.1608C86.0763 73.1753 86.0811 72.4234 85.6137 72.4379C85.4547 72.4427 85.2956 72.4475 85.1366 72.4523C84.6933 72.4716 84.6933 73.1319 85.1366 73.1464Z" fill="white"/>
<path d="M87.4063 73.2476C87.6955 73.2524 87.9943 73.2958 88.1822 73.0259C88.2207 72.968 88.2207 72.8765 88.1822 72.8186C87.9991 72.5487 87.6955 72.5873 87.4063 72.5969C86.9823 72.6017 86.9823 73.2428 87.4063 73.2476Z" fill="white"/>
<path d="M91.9458 75.0165C92.341 74.9731 92.7072 75.1659 93.0349 75.3683C93.1794 75.4551 93.3867 75.3105 93.3288 75.1418C93.1216 74.5152 92.4662 74.3272 91.8639 74.4333C91.541 74.4863 91.6085 75.0551 91.9458 75.0165Z" fill="white"/>
<path d="M93.6999 76.7806C93.8108 76.9203 93.912 77.0264 94.0565 77.1276C94.2878 77.2866 94.5432 77.0216 94.495 76.7902C94.4565 76.6167 94.3842 76.4721 94.3023 76.3178C94.1963 76.1154 93.912 76.0769 93.7385 76.2118C93.5457 76.3612 93.5602 76.6022 93.6999 76.7806Z" fill="white"/>
<path d="M94.9817 79.3399C95.3721 79.6243 95.7769 79.2194 95.4926 78.829C95.3528 78.6362 95.0878 78.5735 94.9046 78.7519C94.7263 78.9302 94.789 79.2001 94.9817 79.3399Z" fill="white"/>
<path d="M97.4325 82.5917C100.588 81.0838 102.016 77.4957 100.622 74.5774C99.2279 71.6592 95.5398 70.5158 92.3843 72.0237C89.2288 73.5316 87.8009 77.1198 89.1949 80.038C90.589 82.9563 94.2771 84.0996 97.4325 82.5917Z" fill="#E04436"/>
<path d="M90.1291 72.0908C89.6086 72.3415 89.0978 72.7415 88.9725 73.3103C88.9195 73.5609 88.9436 73.8212 88.9291 74.0814C88.8858 74.896 88.4039 75.672 87.6955 76.0769C88.5677 76.5155 89.6568 76.4046 90.4953 75.9082C91.3338 75.4117 91.9362 74.5682 92.2687 73.6525C91.9747 74.308 92.2832 75.1129 92.8181 75.5949C93.353 76.072 94.071 76.2938 94.7746 76.4528C94.9721 75.8407 95.1745 75.2189 95.1986 74.5779C95.2227 73.9368 95.0492 73.2572 94.5866 72.809C95.0782 73.5705 96.1431 73.8453 97.0009 73.5513C97.8587 73.2621 98.5044 72.5005 98.8273 71.6522C98.331 71.9752 97.6515 71.7775 97.1696 71.4353C96.6877 71.0931 96.2974 70.6208 95.7769 70.3364C95.2468 70.0472 94.5866 69.9797 94.0276 70.2111C93.4686 70.4424 93.0349 70.9774 92.9771 71.5799C92.0518 71.1028 90.9724 71.686 90.1291 72.0908Z" fill="#425831"/>
<path d="M93.5602 72.5391C93.618 71.7197 93.377 70.9244 92.8518 70.2882C92.4229 69.7725 91.6133 69.1025 90.8953 69.3146C90.7122 69.3724 90.6592 69.5797 90.8134 69.705C91.276 70.0858 91.8543 70.1822 92.2783 70.6545C92.7409 71.1654 92.9867 71.8065 92.9722 72.4957C92.9674 72.862 93.5361 72.915 93.5602 72.5391Z" fill="#425831"/>
<path d="M97.6948 73.9224C97.7912 74.12 97.8876 74.3032 98.0081 74.4863C98.1382 74.6839 98.2635 74.7803 98.49 74.8285C98.6249 74.8575 98.7309 74.7225 98.755 74.6068C98.8225 74.2068 98.4562 73.8597 98.2008 73.5898C97.9695 73.3392 97.5406 73.6043 97.6948 73.9224Z" fill="white"/>
<path d="M98.7647 76.5878C98.8466 76.7565 98.9237 76.9252 99.0056 77.089C99.1068 77.2915 99.2177 77.412 99.4441 77.4602C99.5309 77.4794 99.661 77.4168 99.6995 77.3397C99.8056 77.1324 99.7815 76.9734 99.6899 76.7661C99.6128 76.5974 99.5309 76.4287 99.449 76.2648C99.2369 75.8214 98.5574 76.1443 98.7647 76.5878Z" fill="white"/>
<path d="M73.5422 97.1349C77.0393 97.1349 79.8743 94.513 79.8743 91.2788C79.8743 88.0445 77.0393 85.4226 73.5422 85.4226C70.0451 85.4226 67.2101 88.0445 67.2101 91.2788C67.2101 94.513 70.0451 97.1349 73.5422 97.1349Z" fill="#E04436"/>
<path d="M71.4749 84.5164C70.8966 84.5164 70.2653 84.661 69.9087 85.1141C69.7497 85.3165 69.6629 85.5623 69.5376 85.7889C69.1473 86.5022 68.3811 86.9987 67.5667 87.0565C68.1642 87.8277 69.1955 88.1988 70.1689 88.1121C71.1424 88.0253 72.0483 87.524 72.7422 86.8396C72.1929 87.3071 72.1254 88.1651 72.4049 88.8302C72.6844 89.4954 73.2338 90.0014 73.7976 90.4497C74.2409 89.9822 74.6891 89.5098 74.9879 88.9411C75.2867 88.3723 75.4216 87.6831 75.1999 87.0806C75.3156 87.9819 76.1589 88.6856 77.06 88.7917C77.9612 88.9025 78.872 88.4928 79.5274 87.8662C78.9394 87.9434 78.4142 87.471 78.125 86.9553C77.8359 86.4396 77.6913 85.8419 77.3444 85.3647C76.9926 84.8731 76.4239 84.5309 75.8216 84.4971C75.2192 84.4634 74.5927 84.7622 74.2843 85.2828C73.6338 84.4538 72.4097 84.5164 71.4749 84.5164Z" fill="#425831"/>
<path d="M74.3807 86.401C74.7855 85.6829 74.9108 84.8683 74.7132 84.0634C74.5494 83.4127 74.106 82.4584 73.3687 82.3427C73.1808 82.3138 73.0458 82.4776 73.1278 82.656C73.3783 83.2006 73.8602 83.5332 74.0434 84.1453C74.2409 84.8056 74.1879 85.4901 73.8747 86.1022C73.7012 86.4396 74.1928 86.7336 74.3807 86.401Z" fill="#425831"/>
<path d="M77.513 89.4327C77.513 89.6544 77.5227 89.8616 77.5516 90.0785C77.5853 90.3099 77.6528 90.4545 77.8407 90.5943C77.9516 90.681 78.1058 90.6039 78.1732 90.5075C78.4094 90.1749 78.2262 89.7026 78.1154 89.3507C78.0094 89.023 77.513 89.076 77.513 89.4327Z" fill="white"/>
<path d="M77.3299 92.2957C77.3299 92.4837 77.3251 92.6668 77.3299 92.8548C77.3347 93.0813 77.3781 93.2356 77.566 93.3753C77.6383 93.4284 77.7781 93.4284 77.8504 93.3753C78.0383 93.2356 78.0817 93.0813 78.0865 92.8548C78.0913 92.6668 78.0865 92.4837 78.0865 92.2957C78.0865 91.8089 77.3299 91.8089 77.3299 92.2957Z" fill="white"/>
<path d="M70.0147 75.5322H65.6825V103.319H70.0147V75.5322Z" fill="#C98C3A"/>
<path d="M117.13 75.5322H112.797V103.319H117.13V75.5322Z" fill="#C98C3A"/>
<path d="M116.407 92.1655H66.7667V104.885H116.407V92.1655Z" fill="#F2B464"/>
<path d="M116.571 80.2267H66.9306V90.9943H116.571V80.2267Z" fill="#F2B464"/>
<path d="M71.0604 83.7212C77.9516 83.8127 85.0306 84.2658 91.9025 83.7597C92.1772 83.7404 92.1772 83.35 91.9025 83.3308C85.0306 82.8199 77.9516 83.2777 71.0604 83.3693C70.8291 83.3693 70.8291 83.7163 71.0604 83.7212Z" fill="#D69A58"/>
<path d="M73.5904 86.0058C78.9105 86.1119 84.2307 86.1649 89.5556 86.1938C94.8469 86.2227 100.239 86.5167 105.521 86.1601C105.786 86.1408 105.786 85.7648 105.521 85.7455C100.244 85.3889 94.8469 85.6829 89.5556 85.7118C84.2355 85.7407 78.9154 85.7938 73.5904 85.8998C73.5181 85.9046 73.5181 86.0058 73.5904 86.0058Z" fill="#D69A58"/>
<path d="M96.36 83.6151C100.418 83.6681 104.605 83.9573 108.648 83.5814C108.851 83.5621 108.851 83.2825 108.648 83.2633C104.605 82.8873 100.418 83.1765 96.36 83.2295C96.1094 83.2343 96.1094 83.6151 96.36 83.6151Z" fill="#D69A58"/>
<path d="M70.4581 88.3675C77.8841 88.4928 85.3198 88.4254 92.7458 88.4254C100.157 88.4254 107.632 88.7194 115.033 88.3627C115.188 88.3531 115.188 88.1313 115.033 88.1217C107.632 87.765 100.157 88.059 92.7458 88.059C85.3198 88.059 77.8841 87.9916 70.4581 88.1169C70.2942 88.1217 70.2942 88.3675 70.4581 88.3675Z" fill="#D69A58"/>
<path d="M108.769 85.8274C110.624 86.0202 112.701 86.1214 114.552 85.8853C114.768 85.8563 114.768 85.572 114.552 85.5479C112.701 85.3117 110.624 85.4129 108.769 85.6057C108.619 85.6153 108.619 85.813 108.769 85.8274Z" fill="#D69A58"/>
<path d="M111.058 82.6512C111.839 82.6753 112.624 82.7476 113.4 82.6463C113.583 82.6222 113.583 82.2993 113.4 82.2752C112.624 82.1692 111.839 82.2415 111.058 82.2704C110.807 82.2752 110.807 82.6463 111.058 82.6512Z" fill="#D69A58"/>
<path d="M68.651 85.0467C69.4124 85.0563 70.2268 85.1479 70.9833 85.0177C71.1327 84.9936 71.1327 84.743 70.9833 84.7189C70.2316 84.5936 69.4172 84.6804 68.651 84.69C68.4197 84.6948 68.4197 85.0418 68.651 85.0467Z" fill="#D69A58"/>
<path d="M69.1328 82.4584C70.0533 82.3668 71.0652 82.415 71.9616 82.1885C72.1688 82.1354 72.1688 81.8173 71.9616 81.7691C71.0652 81.5474 70.0533 81.5908 69.1328 81.4992C68.516 81.4414 68.516 82.5162 69.1328 82.4584Z" fill="#D69A58"/>
<path d="M68.7714 94.8213C75.3108 95.0816 81.8646 94.99 88.4087 94.9949C94.948 94.9997 101.511 95.1539 108.046 94.9467C108.297 94.937 108.297 94.5611 108.046 94.5563C101.511 94.349 94.948 94.5032 88.4087 94.5081C81.8646 94.5129 75.3108 94.4213 68.7714 94.6816C68.6751 94.6816 68.6751 94.8165 68.7714 94.8213Z" fill="#D69A58"/>
<path d="M70.94 97.3277C80.2502 97.371 89.5846 97.5831 98.89 97.318C99.0875 97.3132 99.0875 97.0144 98.89 97.0095C89.5846 96.7444 80.2502 96.9565 70.94 96.9999C70.7231 96.9951 70.7231 97.3277 70.94 97.3277Z" fill="#D69A58"/>
<path d="M79.1322 99.8099C90.317 99.8292 101.569 100.215 112.744 99.7328C112.952 99.7231 112.952 99.4195 112.744 99.4099C101.569 98.9279 90.317 99.3135 79.1322 99.3327C78.8238 99.3327 78.8238 99.8051 79.1322 99.8099Z" fill="#D69A58"/>
<path d="M102.022 96.8312C104.981 96.836 107.988 96.9854 110.937 96.7926C111.236 96.7734 111.236 96.3444 110.937 96.3251C107.988 96.1323 104.981 96.2866 102.022 96.2866C101.67 96.2866 101.67 96.8312 102.022 96.8312Z" fill="#D69A58"/>
<path d="M70.5786 102.041C77.5275 102.066 84.4716 102.075 91.4206 102.085C94.8951 102.09 98.3695 102.09 101.844 102.094C105.28 102.094 108.851 102.369 112.267 101.993C112.431 101.974 112.431 101.757 112.267 101.738C108.851 101.357 105.285 101.632 101.844 101.637C98.3695 101.637 94.8951 101.641 91.4206 101.646C84.4716 101.656 77.5275 101.666 70.5786 101.69C70.3424 101.68 70.3424 102.041 70.5786 102.041Z" fill="#D69A58"/>
<path d="M117.13 84.2273C117.13 84.2273 117.072 75.6334 116.701 75.5322C116.257 76.4191 114.797 76.6119 113.809 76.5781C113.356 76.5637 112.841 76.5155 112.557 76.1588C112.099 75.5804 112.634 74.7177 113.279 74.361C113.925 74.0043 114.715 73.8404 115.178 73.2717C115.39 73.0114 115.511 72.6837 115.747 72.4427C117.554 70.5485 120.122 74.9153 120.508 76.3178C120.884 77.6819 120.551 79.2001 119.881 80.4051C119.664 80.7859 119.544 83.6923 117.13 84.2273Z" fill="#FB9848"/>
<path d="M120.493 77.5421C120.243 78.9592 119.867 78.9206 119.621 80.0051C119.53 80.4196 119.525 80.8148 119.51 81.2438C119.496 81.6535 119.578 82.1065 119.375 82.4969C119.12 82.9837 118.595 83.2392 118.161 83.5284C118.041 83.6055 118.079 83.8128 118.238 83.8079C119.708 83.7742 120.064 82.4246 120.069 81.2389C120.074 79.687 121.023 78.4772 120.623 76.8914C120.551 76.6167 120.493 77.5421 120.493 77.5421Z" fill="#EA8744"/>
<path d="M118.286 79.7881C118.016 79.8701 117.771 79.9665 117.53 80.1159C117.361 80.2219 117.414 80.5449 117.641 80.5208C117.92 80.4918 118.175 80.4292 118.436 80.3328C118.773 80.2075 118.643 79.6821 118.286 79.7881Z" fill="#EA8744"/>
<path d="M65.6588 84.1212C65.6588 84.1212 65.5961 76.0238 66.184 75.6431C66.6274 76.5299 67.8369 76.6167 68.8248 76.5781C69.2778 76.5637 69.7934 76.5155 70.0778 76.1588C70.5356 75.5804 70.0007 74.7177 69.3549 74.361C68.7092 74.0043 67.9189 73.8404 67.4562 73.2717C67.2442 73.0114 67.1237 72.6837 66.8876 72.4427C65.0805 70.5485 62.512 74.9153 62.1265 76.3178C61.7506 77.6819 62.0831 79.2001 62.7529 80.4051C62.9746 80.7859 63.2445 83.5862 65.6588 84.1212Z" fill="#FB9848"/>
<path d="M62.049 76.7468C61.8562 77.412 61.8369 78.1012 61.9574 78.7904C62.1261 79.7544 62.7959 80.2653 62.9453 81.2486C63.0609 82.0246 63.0224 82.5066 63.6199 83.0994C64.1163 83.591 64.7813 83.914 65.4704 83.9525C65.6391 83.9622 65.7017 83.7115 65.5572 83.6344C64.6126 83.1428 63.6778 82.8343 63.4272 81.6342C63.326 81.1474 63.5284 80.675 63.3067 80.1978C63.0609 79.6773 62.4104 79.0266 62.2465 78.4C62.0779 77.7927 62.102 76.5588 62.049 76.7468Z" fill="#EA8744"/>
<path d="M63.6874 80.4581C64.1789 80.8341 64.8343 81.2631 65.4752 81.2486C65.6005 81.2438 65.6439 81.0847 65.5379 81.0172C65.268 80.8485 64.9692 80.7666 64.6849 80.6317C64.3958 80.4967 64.1307 80.3328 63.8705 80.1448C63.6778 80.0099 63.5043 80.3184 63.6874 80.4581Z" fill="#EA8744"/>
<path d="M83.7295 20.8845C83.8548 20.605 84.8812 19.7615 85.2523 19.6892C88.0666 19.1204 91.9506 19.0578 94.789 19.506C95.3673 19.5976 95.9504 19.7133 96.4564 20.0073C97.3286 20.5086 100.562 28.8903 100.124 29.2904C99.82 29.5651 99.3574 29.5362 98.9526 29.488C92.9385 28.8084 87.2281 30.6351 81.3104 29.7772C81.3778 27.6516 82.8091 22.9571 83.7295 20.8845Z" fill="#EA9F32"/>
<path d="M73.9807 34.5151C71.3881 33.6475 70.94 31.0737 71.2291 29.7483C71.6146 27.9938 73.4265 26.3406 74.6265 25.7044C81.6091 21.9835 92.553 26.331 101.001 25.1935C103.169 24.9043 105.752 24.35 107.704 25.3429C110.995 27.0202 110.619 31.0062 107.367 33.0113C105.053 34.438 101.468 34.732 98.7502 34.5971C94.2252 34.3705 89.6472 33.4885 85.1125 34.0717C81.1224 34.5874 78.178 35.9177 73.9807 34.5151Z" fill="#D1942A"/>
<path d="M99.6176 36.472C99.2225 38.5108 98.7213 40.6219 98.3599 41.822C97.6949 44.0343 96.7022 46.4443 94.3409 47.4998C92.0711 48.5216 89.146 47.8854 87.204 46.4491C85.2571 45.0128 84.1343 42.9306 83.3343 40.8388C82.9392 39.8073 82.4766 38.3035 82.0959 36.7708C81.4405 34.1247 81.0502 31.4015 81.72 30.905C82.0959 30.6255 82.5199 30.3748 82.9874 30.1531C87.0835 28.1721 94.1577 28.2637 97.9792 29.7531C98.9333 30.1242 99.6851 30.5821 100.133 31.1171C100.442 31.4834 100.109 33.9174 99.6176 36.472Z" fill="#FB9848"/>
<path d="M83.1801 33.9608C83.156 34.5585 83.1127 36.8768 82.0959 36.7708C81.4405 34.1247 81.0502 31.4015 81.72 30.905C82.0959 30.6255 82.5199 30.3748 82.9874 30.1531C83.2717 31.387 83.2283 32.6884 83.1801 33.9608Z" fill="#7A501C"/>
<path d="M99.6176 36.472C99.3863 36.4431 99.1357 36.3226 98.8803 36.0671C98.6442 35.8261 98.1141 31.4931 97.9792 29.7531C98.9333 30.1242 99.6851 30.5821 100.133 31.1171C100.442 31.4834 100.109 33.9174 99.6176 36.472Z" fill="#7A501C"/>
<path d="M82.9006 35.2911C82.9006 35.2911 81.72 32.457 79.7105 33.7391C78.5636 34.785 79.7201 37.2962 80.6984 38.718C81.0839 39.2771 82.3416 40.9448 83.0259 39.3639C83.3536 38.1686 83.6861 36.2502 82.9006 35.2911Z" fill="#FB9848"/>
<path d="M98.5093 35.5899C98.5093 35.5899 99.9453 32.457 101.96 33.7439C103.107 34.7898 101.95 37.301 100.972 38.7228C100.586 39.2819 99.3285 40.9496 98.6442 39.3687C98.3117 38.1686 97.7189 36.5491 98.5093 35.5899Z" fill="#FB9848"/>
<path d="M85.5173 33.7969C85.792 33.1896 86.1775 32.6595 86.8763 32.5052C87.6184 32.3414 88.0232 32.7607 88.6448 33.0258C88.9773 33.1655 89.3436 32.8715 89.1556 32.5149C88.746 31.7437 87.5558 31.5654 86.7751 31.7581C85.9125 31.9702 85.1655 32.698 84.9921 33.5752C84.9391 33.8692 85.3776 34.1102 85.5173 33.7969Z" fill="#7A501C"/>
<path d="M92.5867 33.1174C93.1361 32.5582 93.5698 31.9895 94.4372 32.004C95.348 32.0232 95.6034 32.7077 96.1961 33.2138C96.3889 33.3776 96.6684 33.2668 96.6829 33.0113C96.7455 31.975 95.3335 31.2376 94.4372 31.2424C93.4879 31.2472 92.3265 31.9606 92.2735 32.9824C92.2639 33.1511 92.4807 33.2282 92.5867 33.1174Z" fill="#7A501C"/>
<path d="M88.0762 35.2574C88.0666 35.2381 88.0521 35.2188 88.0425 35.1995C87.6762 34.5971 86.804 34.5971 86.4377 35.1995C86.4281 35.2188 86.4137 35.2381 86.404 35.2574C86.0185 35.8888 86.5148 36.7178 87.2425 36.7178C87.9605 36.7226 88.4617 35.8936 88.0762 35.2574Z" fill="#7A501C"/>
<path d="M93.5409 36.3419C93.5602 36.3563 93.5794 36.366 93.5987 36.3804C94.1866 36.7756 94.9817 36.2503 94.9817 35.5851C94.9817 34.92 94.1914 34.3946 93.5987 34.7898C93.5794 34.8043 93.5602 34.8139 93.5409 34.8284C92.9819 35.214 92.9819 35.9659 93.5409 36.3419Z" fill="#7A501C"/>
<path d="M90.2399 34.9007C89.9604 35.7683 90.2929 36.7323 90.8519 37.4167C91.2037 37.8456 92.0325 38.1541 91.647 38.8578C91.4398 39.2386 90.77 39.4748 90.4808 39.87C90.317 40.0965 90.5917 40.4436 90.8519 40.352C91.5555 40.1013 93.059 39.2193 92.8469 38.2794C92.7409 37.7974 92.3217 37.5372 91.9699 37.2383C91.194 36.578 91.0447 35.8502 90.8567 34.9007C90.7941 34.573 90.3314 34.6212 90.2399 34.9007Z" fill="#D37637"/>
<path d="M92.712 41.4943C91.5507 41.4943 88.7798 41.1183 88.4135 41.046C88.4135 42.9402 89.3869 45.2441 89.8062 45.4273C91.5844 46.1936 92.741 42.6366 92.712 41.4943Z" fill="white"/>
<path d="M81.72 35.2622C81.5031 34.8862 81.079 34.8236 80.708 35.0308C80.1827 35.3248 80.1827 35.9418 80.3706 36.4479C80.6068 37.0889 81.4838 38.9012 82.3994 38.5011C82.5633 38.4288 82.5103 38.2216 82.3994 38.1348C82.2356 38.0095 82.038 37.9517 81.8838 37.8071C81.6814 37.6191 81.532 37.3781 81.3875 37.1419C81.2814 36.9636 81.1754 36.7804 81.079 36.5973C80.9971 36.4431 80.8863 36.2695 80.8525 36.096C80.7321 35.7972 80.7803 35.6044 80.9971 35.5225C81.1031 35.4309 81.214 35.4453 81.3344 35.5562C81.5176 35.7731 81.8597 35.4984 81.72 35.2622Z" fill="#D37637"/>
<path d="M99.8778 35.4164C100.239 35.214 100.446 35.2911 100.514 35.6526C100.548 35.7924 100.562 35.937 100.557 36.0767C100.552 36.3418 100.485 36.5925 100.374 36.8383C100.152 37.3444 99.7525 37.5564 99.4104 37.9517C99.2658 38.1155 99.4056 38.3421 99.6176 38.3035C100.644 38.1155 101.213 36.5973 101.03 35.6767C100.952 35.2863 100.721 34.8573 100.292 34.7898C99.9115 34.7272 99.5694 34.9344 99.473 35.3056C99.4056 35.5706 99.7911 35.6719 99.8778 35.4164Z" fill="#D37637"/>
<path d="M85.4787 21.5979C86.2257 21.5111 86.9726 21.4581 87.7244 21.4581C88.3942 21.4581 89.0496 21.5304 89.705 21.3713C89.8544 21.3328 89.9122 21.0821 89.7532 21.0147C88.4858 20.47 86.8088 20.7399 85.4787 20.9086C85.045 20.9568 85.0354 21.6461 85.4787 21.5979Z" fill="#C9862D"/>
<path d="M85.6378 22.9378C86.0089 22.9426 86.3799 22.9474 86.751 22.9522C87.0642 22.9571 87.3967 23.0101 87.6666 22.8269C87.7967 22.7402 87.7967 22.5667 87.6666 22.4799C87.3967 22.2967 87.0642 22.3498 86.751 22.3546C86.3799 22.3594 86.0089 22.3642 85.6378 22.369C85.2716 22.3739 85.2716 22.933 85.6378 22.9378Z" fill="#C9862D"/>
<path d="M74.4819 28.5047C73.3157 28.8228 72.7181 30.0278 72.9302 31.1894C73.1856 32.6016 74.6554 33.6813 76.0239 33.8307C76.289 33.8596 76.3854 33.4499 76.1589 33.3342C75.277 32.8715 74.3084 32.5679 73.7928 31.6328C73.2868 30.7219 73.5807 29.3819 74.6265 29.0156C74.9397 28.8999 74.8144 28.4131 74.4819 28.5047Z" fill="#C9862D"/>
<path d="M75.9661 29.6856C75.1517 30.3315 75.3927 32.3173 76.6456 32.1823C76.8865 32.1582 76.9733 31.8738 76.7661 31.734C76.4914 31.5412 76.2312 31.334 76.1348 31.0062C76.0336 30.6689 76.0818 30.3122 76.3372 30.0567C76.5878 29.8157 76.2215 29.4832 75.9661 29.6856Z" fill="#C9862D"/>
<path d="M77.8022 29.8784C77.4745 30.4134 77.5612 31.2954 78.178 31.5943C78.3274 31.6666 78.4864 31.6521 78.6117 31.5364C78.8575 31.3099 78.6069 31.0496 78.4768 30.8472C78.3563 30.6592 78.2937 30.4375 78.3997 30.2254C78.5925 29.8302 78.0335 29.4928 77.8022 29.8784Z" fill="#C9862D"/>
<path d="M38.0018 110.47C36.055 109.043 33.7322 107.269 33.8142 104.854C33.9009 102.377 39.3126 103.245 40.4402 103.596C36.4308 101.818 30.9565 100.223 27.2555 97.8656C24.4894 96.1064 21.7041 94.0579 20.3066 91.0889C19.9452 90.3225 19.7187 89.3248 20.2873 88.6934C20.8656 88.0572 21.8872 88.1969 22.7257 88.3946C24.5473 88.8187 26.364 89.2477 28.1856 89.6718C23.039 87.0064 18.5429 83.0927 15.1889 78.3644C13.9938 76.6726 12.9625 74.7447 13.001 72.677C13.1793 63.8903 27.8627 79.2079 31.0143 83.2036C29.7132 80.8707 27.5495 76.7353 28.4169 74.2049C28.5518 73.8048 28.7639 73.4048 29.1253 73.1927C29.4578 72.9951 29.8626 72.9854 30.2481 73.0288C32.6962 73.3228 34.3635 75.5833 35.6695 77.6752C38.0597 81.5021 40.2764 85.44 42.3148 89.4646C42.4208 86.9968 42.2811 82.2926 44.1219 82.336C45.2544 82.3408 45.8857 83.6084 46.2567 84.6784C47.9626 89.5899 49.0276 95.0749 50.7335 99.9912C50.8154 98.9308 51.5528 97.2583 52.078 96.3329C52.6033 95.4075 53.6827 94.7038 54.714 94.9689C55.8272 95.2581 56.4006 96.4775 56.7283 97.5812C57.6102 100.565 57.7933 103.702 58.2174 106.782C59.2101 114.041 61.5617 121.117 65.1133 127.522C64.3567 126.105 60.0679 124.688 58.6414 123.753C56.844 122.572 55.0802 121.425 53.2105 120.35C47.9578 117.333 42.8786 114.046 38.0018 110.47Z" fill="#D7EAA9"/>
</g>
<defs>
<clipPath id="clip0_202_834">
<rect width="185" height="215" fill="white"/>
</clipPath>
</defs>
</svg>
