<svg width="50" height="42" viewBox="0 0 50 42" fill="none" xmlns="http://www.w3.org/2000/svg">
<path d="M30.6344 10.0735C29.2803 11.4424 27.9936 12.9172 27.1599 14.6524C26.3262 16.3875 25.9696 18.4167 26.5383 20.2579C27.1021 22.0991 28.702 23.6704 30.6151 23.8824C32.7692 24.1186 34.957 22.4124 35.2461 20.2627C35.3473 19.5156 35.2461 18.7541 35.2895 17.9974C35.3666 16.6478 35.8967 15.3657 36.4894 14.1559C37.246 12.5991 38.1182 11.1001 39.0965 9.67347C39.6218 8.90711 40.1856 8.14074 40.4747 7.25871C41.2602 4.85841 39.0724 3.04133 37.0292 4.49211C34.7642 6.09712 32.5861 8.10218 30.6344 10.0735Z" fill="#772A77"/>
<path d="M36.6629 4.74272C37.0773 5.09939 37.6508 5.31147 38.1761 5.16687C37.9448 5.62958 37.6604 6.06819 37.3279 6.46342C37.5255 6.87793 38.0219 7.09 38.4797 7.0659C38.9375 7.0418 39.3663 6.81527 39.7422 6.555C39.5206 7.68767 40.5807 8.88299 41.7276 8.79623C41.4771 8.42028 41.5252 7.91902 41.6505 7.48523C41.7806 7.05144 41.9879 6.63693 42.0361 6.18868C42.1903 4.78128 40.9373 3.97636 39.6892 4.06312C39.5928 1.39292 36.952 3.33051 35.7232 3.47992C35.9449 3.94745 36.2678 4.40533 36.6629 4.74272Z" fill="#354726"/>
<path d="M39.7422 4.78612C40.865 4.21738 41.824 2.569 41.318 1.33511C41.2409 1.14232 40.9325 1.18569 40.8843 1.37849C40.7494 1.90867 40.7301 2.45813 40.5036 2.96421C40.253 3.52814 39.8482 3.90409 39.3904 4.2945C39.1206 4.52103 39.4386 4.94035 39.7422 4.78612Z" fill="#354726"/>
<path d="M34.9184 8.30467C33.9354 8.76255 32.6824 9.55782 32.3162 10.6326C32.2295 10.8833 32.5379 11.1628 32.774 11.0134C33.2029 10.7387 33.492 10.3531 33.8583 10.0109C34.2872 9.61085 34.7642 9.259 35.251 8.94089C35.6268 8.69026 35.3377 8.10705 34.9184 8.30467Z" fill="white"/>
<path d="M30.7982 12.2666C30.7067 12.3774 30.6055 12.4786 30.5477 12.6136C30.4995 12.7244 30.4561 12.8449 30.4127 12.9606C30.2971 13.2643 30.697 13.4522 30.9139 13.2739C31.1067 13.1149 31.2609 12.9751 31.391 12.7582C31.4922 12.5943 31.4536 12.3726 31.3042 12.2521C31.1741 12.1412 30.9235 12.1123 30.7982 12.2666Z" fill="white"/>
<path d="M29.1261 15.867C29.1501 16.1224 29.1646 16.4116 29.4393 16.5177C29.5116 16.5466 29.6031 16.5128 29.661 16.4646C29.8489 16.3008 29.7863 16.0164 29.7332 15.8043C29.6513 15.4862 29.0923 15.5055 29.1261 15.867Z" fill="white"/>
<path d="M38.7977 22.1425C39.429 22.1955 40.229 22.1521 40.4795 21.5689C40.3205 21.3087 40.1615 21.0532 40.0025 20.7929C43.1155 19.6024 45.7852 17.2889 47.4092 14.3777C47.2116 14.2427 47.0141 14.1078 46.8165 13.968C47.6453 12.6474 48.3826 11.2689 49.0139 9.84701C49.226 9.36984 49.4284 8.83967 49.2838 8.3384C49.1344 7.83713 48.4597 7.48528 48.0694 7.83713C48.5272 6.6659 48.773 5.41273 48.7826 4.15474C48.7874 3.82699 48.72 3.42212 48.4067 3.32572C48.1658 3.24861 47.92 3.40767 47.7224 3.55708C46.8791 4.18367 46.0358 4.81025 45.1925 5.43683C44.6287 4.77651 44.4407 3.52817 43.5733 3.57637C42.6722 3.62939 42.5758 5.09463 41.7373 5.43202C41.318 5.60071 40.841 5.4272 40.3976 5.50431C39.535 5.64891 39.1013 6.64662 39.0435 7.51902C38.9857 8.39141 39.1447 9.3072 38.817 10.1169C38.7254 10.3435 38.5809 10.57 38.3592 10.6712C37.9207 10.8737 37.4147 10.5266 36.9376 10.5845C36.3208 10.6568 35.9883 11.3315 35.7666 11.9147C35.2076 13.3944 34.6486 14.8693 34.0896 16.349C33.9691 16.2141 33.7571 16.1707 33.5932 16.2478C33.4583 16.3153 33.3716 16.4502 33.2896 16.5756C32.7499 17.4287 32.2054 18.2866 31.6657 19.1397C31.0247 20.1519 30.3838 21.1592 29.7429 22.1714C31.1741 22.2678 32.4897 21.7617 33.8727 21.7328C35.4919 21.7039 37.1882 22.0124 38.7977 22.1425Z" fill="#C6C93B"/>
<path d="M46.4888 6.12605C44.6672 9.06135 42.5902 11.8376 40.2338 14.368C37.9881 16.7731 35.3666 18.6481 32.9668 20.8652C32.8174 21.005 33.0198 21.2219 33.1836 21.1303C36.0413 19.5156 38.6001 16.8503 40.8024 14.45C43.0962 11.9436 45.0961 9.2204 46.8309 6.29956C46.961 6.08748 46.6189 5.9188 46.4888 6.12605Z" fill="#847D00"/>
<path d="M47.2743 10.5025C46.8888 10.247 46.4888 10.1844 46.0551 10.3772C45.3804 10.676 45.3949 11.6159 44.7299 11.8665C44.513 11.9484 44.1998 11.8906 43.954 11.9677C43.6938 12.0545 43.4528 12.2039 43.2408 12.3726C42.7878 12.7196 42.4071 13.192 42.1325 13.6884C42.0409 13.8475 42.2722 14.0113 42.3975 13.8764C42.6722 13.5727 42.9035 13.2353 43.1926 12.9413C43.7275 12.3967 44.142 12.3292 44.8552 12.1557C45.6696 11.9533 46.0744 10.2808 47.0863 10.8688C47.3177 10.9989 47.4911 10.6423 47.2743 10.5025Z" fill="#847D00"/>
<path d="M45.5491 14.1801C45.2889 13.8716 44.9178 13.7559 44.5178 13.8861C43.9203 14.0837 43.8865 14.6524 43.5444 15.0621C43.1155 15.573 41.9879 15.5682 41.3807 15.8574C40.8217 16.1225 40.335 16.4647 39.9687 16.966C39.8627 17.1106 40.0169 17.3564 40.1856 17.2311C41.1783 16.4984 41.9782 16.1225 43.1926 15.8815C43.4576 15.8285 43.6215 15.7996 43.8287 15.6019C44.1275 15.3224 44.5708 13.9391 45.2358 14.5127C45.4623 14.7103 45.7322 14.397 45.5491 14.1801Z" fill="#847D00"/>
<path d="M41.3518 17.6938C40.6867 17.9493 40.0362 18.2384 39.3904 18.5421C38.7158 18.8602 37.8821 19.1349 37.3087 19.6073C37.1978 19.6989 37.2171 19.9495 37.405 19.9158C38.1231 19.7904 38.8218 19.3711 39.482 19.0723C40.1711 18.7638 40.8554 18.436 41.5252 18.0746C41.7421 17.9685 41.5783 17.607 41.3518 17.6938Z" fill="#847D00"/>
<path d="M43.0095 6.42493C42.6674 6.74304 42.3011 7.08042 42.1276 7.52867C41.9108 8.09741 42.1999 8.72882 41.8433 9.26864C41.4626 9.84703 40.5952 10.0736 40.7012 10.8929C40.7205 11.0424 40.9566 11.1387 41.0241 10.9652C41.3036 10.2519 42.0264 10.0013 42.3638 9.35057C42.465 9.15778 42.5035 8.96017 42.5131 8.74328C42.5372 8.30949 42.4842 8.16008 42.6577 7.69255C42.8457 7.18647 42.9469 7.06596 43.3131 6.71411C43.5107 6.52131 43.2023 6.24177 43.0095 6.42493Z" fill="#847D00"/>
<path d="M39.7422 11.3604C39.2459 11.7798 39.1591 12.2907 38.9808 12.8931C38.7206 13.7703 38.2194 14.4162 37.8725 15.2308C37.8243 15.3416 37.9496 15.4959 38.0652 15.4043C38.5616 15.0235 38.8411 14.4355 39.0676 13.8619C39.3712 13.1004 39.3182 12.122 39.935 11.5339C40.0555 11.4231 39.8675 11.2544 39.7422 11.3604Z" fill="#847D00"/>
<path d="M36.5954 13.5824C36.1136 14.103 35.4967 14.6524 35.5015 15.3851C35.5208 15.4236 35.5401 15.4622 35.5642 15.4959C35.8148 15.867 35.781 16.3008 35.463 16.7876C35.3281 16.9901 35.0775 17.1298 34.904 17.2937C34.5715 17.5974 34.3835 17.8046 34.3016 18.2481C34.2823 18.3493 34.4269 18.4071 34.4751 18.3107C34.851 17.554 35.9256 17.0624 36.0557 16.1852C36.0991 15.8815 35.9834 15.626 36.022 15.3224C36.0895 14.7922 36.6244 14.2765 36.9183 13.8041C37.034 13.6162 36.7448 13.4234 36.5954 13.5824Z" fill="#847D00"/>
<path d="M45.4527 15.173C45.2937 15.2212 45.1443 15.2597 44.9805 15.2935C44.7443 15.3465 44.5805 15.5345 44.648 15.7803C44.6817 15.9104 44.7973 16.002 44.9226 16.0309C45.26 16.1128 45.6744 15.9152 45.8045 15.5875C45.8912 15.3609 45.7178 15.091 45.4527 15.173Z" fill="white"/>
<path d="M43.9492 16.3104C43.8191 16.3972 43.689 16.4791 43.5637 16.5707C43.4046 16.6864 43.3372 16.9033 43.448 17.0768C43.5492 17.2358 43.7902 17.3082 43.954 17.1925C44.0793 17.1009 44.1998 17.0045 44.3251 16.9081C44.4745 16.7924 44.5419 16.5948 44.4359 16.4213C44.3347 16.2671 44.1082 16.2044 43.9492 16.3104Z" fill="white"/>
<path d="M42.277 17.9926C42.2722 18.2914 42.5661 18.4408 42.8023 18.2673C43.0095 18.1179 43.0191 17.7949 42.7782 17.6696C42.5372 17.5443 42.2818 17.7371 42.277 17.9926Z" fill="white"/>
<path d="M47.308 6.86835C47.1779 6.9792 47.0285 7.06596 46.961 7.22983C46.908 7.35515 46.9225 7.51903 47.043 7.60578C47.361 7.83232 47.5972 7.38407 47.7369 7.172C47.8092 7.06114 47.7514 6.9069 47.655 6.8346C47.5345 6.75267 47.4092 6.78159 47.308 6.86835Z" fill="white"/>
<path d="M46.1659 8.777C46.1563 8.79628 46.1466 8.81074 46.137 8.83002C45.9057 9.2638 46.5948 9.6253 46.8165 9.18187C46.8261 9.16259 46.8357 9.14812 46.8454 9.12884C47.0622 8.69024 46.3972 8.34322 46.1659 8.777Z" fill="white"/>
<path d="M4.49152 13.486C3.11812 12.1268 2.4531 10.0832 2.77597 8.17932C3.40726 8.58901 4.03854 8.9987 4.66983 9.40839C3.62411 7.23945 3.32534 4.71383 3.84096 2.36173C4.48671 3.12809 5.13245 3.89445 5.78301 4.66563C5.74927 3.08953 5.96131 1.51344 6.39983 0C7.55157 1.25317 8.3997 2.78588 8.84787 4.42464C9.03099 3.53296 9.43578 2.68466 10.0189 1.98578C10.6694 3.0076 11.1513 4.14027 11.4405 5.31631C11.8935 4.64153 12.4669 4.04387 13.1271 3.5667C14.0186 5.51875 14.1198 7.81301 13.4114 9.83735C14.2451 8.76734 15.0788 7.69733 15.9125 6.62732C16.3076 8.8782 16.2498 11.2062 15.7438 13.433C16.298 12.6281 16.9967 11.9244 17.7967 11.3604C17.6858 13.6884 17.2955 16.002 16.6401 18.2384C17.0401 17.5347 17.6232 16.937 18.3075 16.5081C18.1388 18.9565 17.787 21.7424 15.7727 23.145C13.6138 24.6488 10.6694 23.7909 8.20213 22.8655C5.38303 21.8051 2.28444 20.4411 1.16162 17.6407C2.00012 17.8046 4.88186 18.8746 5.61434 18.4794C6.17334 18.1757 5.8842 17.8094 5.3493 17.554C2.89645 16.3924 1.67725 14.7584 1.2821 12.228C2.18806 12.3196 3.82651 12.7968 4.49152 13.486Z" fill="#B9C175"/>
<path d="M6.04806 14.9079C7.03595 15.5152 7.97083 16.1948 8.89125 16.8985C9.07919 17.0431 9.28641 16.7973 9.12738 16.6286C8.30334 15.7321 7.34437 15.0235 6.28419 14.4259C5.98542 14.2572 5.75892 14.7295 6.04806 14.9079Z" fill="#A9AD55"/>
<path d="M5.48905 11.187C6.62632 12.7293 7.97563 14.2476 9.63817 15.2404C9.8743 15.3802 10.0863 15.0284 9.8984 14.8549C8.51054 13.568 7.11786 12.3823 5.93721 10.8881C5.72036 10.6182 5.28183 10.9074 5.48905 11.187Z" fill="#A9AD55"/>
<path d="M5.29147 6.15013C5.9324 7.95758 6.98293 9.48066 8.53463 10.6133C8.74667 10.7676 9.00689 10.4832 8.8045 10.3048C7.4841 9.11434 6.38538 7.65393 5.71554 6.00071C5.61434 5.7308 5.19509 5.8754 5.29147 6.15013Z" fill="#A9AD55"/>
<path d="M6.61669 4.55477C7.33472 6.38151 8.10575 8.18895 8.99244 9.93857C9.09364 10.141 9.42133 9.9675 9.34423 9.76506C8.66475 7.94315 7.85998 6.16461 7.01185 4.41981C6.90101 4.17882 6.51549 4.29932 6.61669 4.55477Z" fill="#A9AD55"/>
<path d="M8.91534 5.30185C10.4285 8.0781 10.92 11.1725 11.4838 14.2427C11.5224 14.45 11.8453 14.4355 11.8212 14.2186C11.4501 11.023 10.8863 7.89013 9.28158 5.05605C9.13702 4.81506 8.78041 5.06086 8.91534 5.30185Z" fill="#A9AD55"/>
<path d="M11.826 8.27093C12.5055 10.4881 13.0693 12.7293 13.7247 14.9513C13.7873 15.1633 14.1439 15.0959 14.1102 14.8693C13.7247 12.5654 13.0355 10.3194 12.2356 8.12634C12.1344 7.87089 11.7441 8.00584 11.826 8.27093Z" fill="#A9AD55"/>
<path d="M6.44803 20.3447C7.6094 20.764 8.72258 21.3424 9.8984 21.7135C10.1297 21.7858 10.202 21.4485 10.0285 21.3328C8.99726 20.6821 7.73951 20.3158 6.58778 19.9398C6.35647 19.8675 6.22154 20.2628 6.44803 20.3447Z" fill="#A9AD55"/>
<path d="M7.4841 18.1275C8.98761 18.9999 10.5538 19.8 12.2597 20.1856C12.4139 20.2193 12.491 19.9928 12.3464 19.9253C10.7803 19.2023 9.19001 18.5757 7.68167 17.7275C7.43109 17.5877 7.23833 17.9829 7.4841 18.1275Z" fill="#A9AD55"/>
<path d="M14.9487 21.6653C15.3005 20.47 15.5751 19.0385 15.3342 17.7949C15.2908 17.578 15.0017 17.5973 14.9921 17.819C14.9294 19.1204 14.939 20.3205 14.5824 21.5882C14.515 21.8292 14.8812 21.8966 14.9487 21.6653Z" fill="#A9AD55"/>
<path d="M13.1464 18.8119C13.0259 17.766 12.9151 16.7346 12.7079 15.7031C12.6597 15.4718 12.3224 15.4814 12.332 15.7321C12.3705 16.7828 12.5007 17.8094 12.6259 18.8505C12.6645 19.1831 13.1801 19.1445 13.1464 18.8119Z" fill="#A9AD55"/>
<path d="M10.0237 17.0816C10.6405 17.5443 11.2429 18.0359 11.932 18.3878C12.1778 18.5131 12.3753 18.1853 12.1922 18.0022C11.6621 17.4672 11.0357 17.0575 10.4285 16.6237C10.1152 16.3924 9.70563 16.8454 10.0237 17.0816Z" fill="#A9AD55"/>
<path d="M2.48684 13.7463C3.60002 14.5078 4.56381 15.4236 5.64326 16.2188C5.78783 16.3297 6.02878 16.1562 5.89867 15.9923C5.07944 14.9416 3.81687 14.1174 2.65069 13.5004C2.50612 13.4281 2.34709 13.6499 2.48684 13.7463Z" fill="#A9AD55"/>
<path d="M3.79761 10.7242C4.16385 11.8039 4.70357 12.763 5.55171 13.5342C5.69628 13.6643 5.92759 13.4667 5.80711 13.3077C5.17583 12.4642 4.59273 11.5629 4.21686 10.5748C4.11566 10.3097 3.70605 10.4543 3.79761 10.7242Z" fill="#A9AD55"/>
<path d="M14.7511 13.5342C15.1222 12.5413 15.0643 11.6255 14.8427 10.623C14.8089 10.464 14.5632 10.5266 14.5728 10.6808C14.621 11.5773 14.4571 12.5076 14.3174 13.3896C14.2788 13.6354 14.6547 13.7897 14.7511 13.5342Z" fill="#A9AD55"/>
<path d="M15.9992 16.6382C16.1534 15.973 16.3606 15.2934 16.3895 14.609C16.3944 14.4837 16.1871 14.4403 16.1438 14.5608C15.9125 15.2067 15.8546 15.9104 15.7438 16.59C15.7197 16.7539 15.9607 16.8021 15.9992 16.6382Z" fill="#A9AD55"/>
<path d="M10.7658 6.38151C10.8285 6.58877 10.9056 6.77674 11.0019 6.97435C11.0887 7.14787 11.4212 7.19607 11.4405 6.94061C11.4597 6.69961 11.4646 6.4779 11.4453 6.2369C11.3971 5.74045 10.6164 5.88506 10.7658 6.38151Z" fill="white"/>
<path d="M11.9802 7.26835C12.0669 7.47078 12.1344 7.65393 12.3079 7.78889C12.5006 7.9383 12.838 7.87083 12.8717 7.5961C12.9006 7.36956 12.8428 7.20086 12.7609 6.99361C12.6789 6.78635 12.4476 6.66104 12.2308 6.73816C12.0332 6.80563 11.8886 7.06109 11.9802 7.26835Z" fill="white"/>
<path d="M9.94659 5.22474C10.4333 5.32113 10.5827 4.55962 10.096 4.46804C9.60926 4.36683 9.45987 5.12834 9.94659 5.22474Z" fill="white"/>
<path d="M6.60704 10.517C6.99738 10.5941 7.11303 9.98682 6.7227 9.91452C6.33236 9.8374 6.21671 10.4399 6.60704 10.517Z" fill="white"/>
<path d="M7.78288 11.6496C7.79733 11.6834 7.81661 11.7171 7.84552 11.746C8.18285 12.1798 8.82859 11.746 8.55391 11.2689C8.53945 11.2351 8.51536 11.2014 8.48645 11.1773C8.12502 10.7628 7.53229 11.1628 7.78288 11.6496Z" fill="white"/>
<path d="M9.42133 12.7871C9.55144 13.004 9.81166 13.2836 10.0863 13.0956C10.361 12.9125 10.202 12.5654 10.0478 12.363C9.75384 11.9774 9.17074 12.3678 9.42133 12.7871Z" fill="white"/>
<path d="M11.7489 27.7962C12.2452 27.401 12.8042 26.8274 12.5874 26.2298C12.2934 26.1478 12.0043 26.0707 11.7103 25.9888C13.1801 22.9956 13.556 19.4819 12.756 16.243C12.5199 16.2767 12.2838 16.3105 12.0476 16.349C11.7537 14.8211 11.3537 13.3077 10.8477 11.8376C10.6791 11.346 10.467 10.8158 10.014 10.5507C9.56588 10.2856 8.82857 10.4881 8.7852 11.0086C8.32258 9.83737 7.64311 8.75773 6.79497 7.8275C6.5733 7.5865 6.25043 7.33587 5.95647 7.47564C5.72998 7.58168 5.6577 7.86605 5.61433 8.11187C5.42157 9.14332 5.23363 10.1796 5.04087 11.211C4.17828 11.1146 3.19039 10.3242 2.58802 10.9556C1.96637 11.6063 2.89161 12.7486 2.51091 13.5631C2.31816 13.968 1.85554 14.1704 1.58085 14.5271C1.05077 15.2212 1.41219 16.2478 1.96637 16.9226C2.52055 17.5974 3.25785 18.1613 3.57109 18.9758C3.65783 19.2072 3.70602 19.4675 3.61446 19.694C3.43134 20.1423 2.82897 20.2338 2.51573 20.6002C2.11576 21.0773 2.33261 21.7955 2.56874 22.369C3.16629 23.8295 3.76385 25.2947 4.3614 26.7551C4.18309 26.7358 3.99516 26.8515 3.93251 27.0202C3.8795 27.16 3.90841 27.3191 3.93251 27.4685C4.12045 28.4614 4.30357 29.4591 4.49151 30.452C4.71318 31.628 4.93003 32.8041 5.15171 33.9801C6.26489 33.074 6.88171 31.8064 7.87442 30.8424C9.02615 29.7242 10.4815 28.7939 11.7489 27.7962Z" fill="#C6C93B"/>
<path d="M6.45765 10.8303C7.12749 14.2235 7.50337 17.6649 7.49855 21.1255C7.49855 24.4175 6.85762 27.5793 6.61186 30.8376C6.5974 31.04 6.89618 31.0593 6.94918 30.881C7.93707 27.748 7.9949 24.056 7.9708 20.8026C7.94189 17.4046 7.54674 14.05 6.82871 10.7291C6.7757 10.4833 6.40946 10.5893 6.45765 10.8303Z" fill="#847D00"/>
<path d="M10.014 13.4956C9.56106 13.5727 9.22373 13.7945 9.03579 14.2331C8.74666 14.9078 9.39722 15.5923 9.07916 16.2285C8.97315 16.4358 8.70329 16.6093 8.58281 16.831C8.4527 17.072 8.38042 17.3467 8.33223 17.6118C8.23585 18.1757 8.28404 18.7782 8.41897 19.3325C8.46234 19.5108 8.74184 19.4723 8.74184 19.2891C8.73702 18.8794 8.67437 18.4746 8.68401 18.0649C8.70329 17.2985 8.96351 16.9708 9.36348 16.3538C9.82128 15.6501 8.97797 14.1511 10.1201 13.8909C10.3851 13.833 10.2694 13.4522 10.014 13.4956Z" fill="#847D00"/>
<path d="M11.2573 17.366C10.8574 17.3178 10.5056 17.4865 10.3032 17.8528C9.99959 18.4023 10.361 18.8409 10.3899 19.3759C10.4285 20.0411 9.59961 20.8074 9.34902 21.434C9.12253 22.0076 8.99724 22.5908 9.07434 23.2077C9.09362 23.3812 9.37312 23.4632 9.41167 23.2511C9.63816 22.0365 9.96585 21.2219 10.6887 20.2146C10.8477 19.9929 10.9441 19.8627 10.9634 19.5783C10.9923 19.1735 10.3706 17.8528 11.2525 17.8239C11.5561 17.8095 11.5417 17.3998 11.2573 17.366Z" fill="#847D00"/>
<path d="M10.5827 22.798C10.2743 23.4391 9.98995 24.0946 9.72491 24.7549C9.44541 25.4489 9.02616 26.2153 8.92978 26.9527C8.9105 27.0925 9.09844 27.266 9.2141 27.1118C9.65262 26.5334 9.87911 25.7478 10.1634 25.0778C10.4574 24.3789 10.7369 23.6752 10.9778 22.9571C11.0549 22.7305 10.6887 22.5811 10.5827 22.798Z" fill="#847D00"/>
<path d="M4.11081 13.4234C4.07708 13.8909 4.03853 14.3874 4.21683 14.8308C4.44332 15.3947 5.08906 15.655 5.19508 16.296C5.31073 16.9805 4.83366 17.7372 5.46494 18.2626C5.5806 18.359 5.82154 18.2674 5.74926 18.0939C5.46494 17.3805 5.82636 16.7057 5.62879 15.9972C5.57096 15.7851 5.46494 15.6165 5.32519 15.4478C5.04569 15.1104 4.90594 15.0429 4.71318 14.5802C4.50597 14.0837 4.49633 13.9247 4.52524 13.4186C4.54934 13.1535 4.13009 13.1583 4.11081 13.4234Z" fill="#847D00"/>
<path d="M5.08905 19.265C5.01195 19.9109 5.29627 20.3447 5.57577 20.9038C5.98538 21.7232 6.05767 22.5377 6.35644 23.3716C6.39499 23.4824 6.59257 23.5114 6.61667 23.3716C6.71787 22.7546 6.52511 22.1329 6.29862 21.5593C5.99984 20.7978 5.29627 20.1133 5.34928 19.265C5.35892 19.0915 5.10833 19.1012 5.08905 19.265Z" fill="#847D00"/>
<path d="M4.29875 23.0293C4.30357 23.7427 4.22647 24.5621 4.72764 25.0971C4.76619 25.1164 4.80956 25.126 4.85293 25.1356C5.28664 25.2368 5.5565 25.5742 5.6577 26.1526C5.69625 26.3936 5.60951 26.6635 5.59023 26.9045C5.55168 27.3528 5.5565 27.6323 5.79745 28.0131C5.85045 28.0999 5.99502 28.042 5.96611 27.9408C5.72516 27.1311 6.17814 26.0418 5.67697 25.3092C5.50349 25.0585 5.24327 24.9477 5.06496 24.7018C4.75173 24.2681 4.7951 23.5258 4.68909 22.9811C4.64572 22.7546 4.29875 22.8125 4.29875 23.0293Z" fill="#847D00"/>
<path d="M11.8645 18.1565C11.7826 18.3011 11.6959 18.4313 11.6043 18.5662C11.4694 18.7638 11.4742 19.0145 11.691 19.1494C11.8019 19.2169 11.9513 19.2072 12.0621 19.1446C12.3609 18.9759 12.5344 18.5469 12.4042 18.2192C12.3127 17.9975 12.0043 17.9203 11.8645 18.1565Z" fill="white"/>
<path d="M11.5417 20.017C11.5079 20.1664 11.4694 20.3206 11.4405 20.47C11.4019 20.6628 11.4983 20.8653 11.7007 20.9183C11.8838 20.9665 12.1103 20.8508 12.1488 20.658C12.1778 20.5038 12.2019 20.3495 12.226 20.1953C12.2549 20.0073 12.1729 19.8145 11.9754 19.7615C11.7922 19.7181 11.585 19.829 11.5417 20.017Z" fill="white"/>
<path d="M11.4646 22.3884C11.6621 22.6101 11.9802 22.5185 12.038 22.2293C12.0862 21.9787 11.879 21.7377 11.6139 21.81C11.3441 21.8823 11.2911 22.1956 11.4646 22.3884Z" fill="white"/>
<path d="M7.56119 10.8158C7.54191 10.9845 7.4889 11.1532 7.55637 11.3171C7.60456 11.4472 7.72503 11.5581 7.8696 11.534C8.25512 11.481 8.12501 10.9942 8.08164 10.7435C8.05754 10.6134 7.90815 10.5363 7.7925 10.5555C7.64793 10.5748 7.57565 10.6857 7.56119 10.8158Z" fill="white"/>
<path d="M8.02381 12.9896C8.02863 13.0089 8.03344 13.0281 8.03826 13.0474C8.16356 13.5246 8.91531 13.3173 8.77556 12.845C8.77074 12.8257 8.76593 12.8064 8.76111 12.7871C8.62618 12.3148 7.89851 12.5172 8.02381 12.9896Z" fill="white"/>
<path d="M28.6634 8.03472C29.9935 10.6182 28.8032 13.8812 26.0082 15.3224C23.2132 16.7635 19.8688 15.8333 18.5388 13.245C17.2088 10.6615 18.399 7.39849 21.194 5.95735C23.989 4.52103 27.3334 5.45126 28.6634 8.03472Z" fill="#C62F28"/>
<path d="M19.1701 6.08753C18.7075 6.32852 18.2593 6.69966 18.1629 7.21056C18.1195 7.43709 18.1485 7.67325 18.1436 7.90461C18.1244 8.63722 17.7148 9.34575 17.0883 9.73134C17.8834 10.1025 18.8617 9.97233 19.6038 9.5048C20.3459 9.03728 20.8615 8.26611 21.1362 7.43227C20.8905 8.02993 21.1892 8.74809 21.6856 9.1626C22.1819 9.5771 22.8325 9.75544 23.4638 9.88557C23.6276 9.33129 23.7915 8.76737 23.7915 8.18899C23.7963 7.61061 23.618 7.00812 23.1987 6.61289C23.6614 7.28767 24.6251 7.49974 25.3914 7.21537C26.1576 6.931 26.7166 6.23213 26.9816 5.46095C26.5431 5.7646 25.9311 5.60554 25.4877 5.30671C25.0444 5.0127 24.683 4.59819 24.2059 4.35238C23.7192 4.10656 23.1264 4.06319 22.6301 4.28491C22.1337 4.50662 21.7579 5.00306 21.7241 5.54288C20.8712 5.15247 19.917 5.70194 19.1701 6.08753Z" fill="#425831"/>
<path d="M22.2639 6.39601C22.2928 5.65857 22.0566 4.95005 21.5651 4.39094C21.1651 3.93787 20.4182 3.35948 19.7821 3.57156C19.6182 3.62458 19.5797 3.81256 19.7194 3.92341C20.1435 4.25598 20.664 4.32346 21.0639 4.73797C21.4928 5.1814 21.7338 5.75496 21.7338 6.3719C21.7386 6.70929 22.2542 6.73822 22.2639 6.39601Z" fill="#425831"/>
<path d="M26.0178 7.53347C26.1094 7.7118 26.2009 7.87086 26.3166 8.03474C26.4371 8.20826 26.5527 8.29019 26.7599 8.32875C26.8852 8.35285 26.9768 8.22753 26.9913 8.12149C27.0443 7.76 26.7021 7.45635 26.466 7.22018C26.2491 7.00328 25.8733 7.24909 26.0178 7.53347Z" fill="white"/>
<path d="M27.0491 9.90005C27.1262 10.0495 27.1985 10.1989 27.2804 10.3435C27.3768 10.5218 27.478 10.6278 27.6852 10.6616C27.7623 10.676 27.8779 10.6182 27.9117 10.5459C28.0032 10.3579 27.9743 10.2133 27.8876 10.0302C27.8153 9.88077 27.7334 9.73136 27.6563 9.58676C27.4539 9.20117 26.8515 9.50964 27.0491 9.90005Z" fill="white"/>
<path d="M14.2644 8.31907C14.0234 8.80105 14.0861 9.37944 14.2499 9.89035C14.6643 11.1965 15.6233 12.2521 16.298 13.4474C17.3196 15.2548 17.6666 17.3563 18.4472 19.2794C18.8713 20.3253 19.4544 21.3472 20.3604 22.0219C21.2663 22.6919 22.5578 22.9377 23.5409 22.3883C24.3312 21.9448 24.8034 21.058 24.9239 20.1615C25.0444 19.265 24.8613 18.3492 24.5866 17.4864C23.7144 14.7247 21.994 12.3292 20.3025 9.98193C19.2375 8.51187 15.7679 5.34521 14.2644 8.31907Z" fill="#547C32"/>
<path d="M16.91 9.74577C17.4208 10.006 17.787 10.4206 18.2207 10.782C18.4521 10.9748 18.7894 10.6953 18.6737 10.4302C18.4039 9.79397 17.787 9.37464 17.1799 9.08544C16.7654 8.88301 16.5052 9.53851 16.91 9.74577Z" fill="white"/>
<path d="M18.8327 12.175C18.9002 12.3485 18.9677 12.522 19.0351 12.6955C19.1219 12.9172 19.1893 13.0763 19.4399 13.1244C19.546 13.1437 19.6809 13.0907 19.7387 12.9991C19.8833 12.7822 19.8158 12.6232 19.7194 12.4063C19.6423 12.2376 19.57 12.0689 19.4929 11.8954C19.305 11.4809 18.6689 11.7412 18.8327 12.175Z" fill="white"/>
<path d="M20.3025 15.091C20.7652 14.8982 20.4664 14.1752 20.0038 14.368C19.5411 14.5608 19.8399 15.2838 20.3025 15.091Z" fill="white"/>
<path d="M11.4886 22.1521C11.3537 24.0704 11.3393 26.0273 11.8356 27.8877C12.332 29.7482 13.3873 31.5171 15.0161 32.5437C16.6449 33.5704 18.8809 33.7198 20.4664 32.6353C22.2542 31.4111 22.7988 28.6926 21.6181 26.8707C21.2085 26.2345 20.635 25.7236 20.1772 25.1259C19.3532 24.0511 18.9243 22.7353 18.5822 21.4291C18.1436 19.7566 17.8256 18.0504 17.6376 16.3297C17.5364 15.4043 17.4642 14.4596 17.1076 13.6016C16.1389 11.2736 13.2909 11.317 12.6934 13.7462C12.0284 16.4405 11.6814 19.3855 11.4886 22.1521Z" fill="#893385"/>
<path d="M12.5826 14.18C13.1271 14.18 13.7054 13.9679 14.009 13.51C14.1391 14.0113 14.2066 14.5318 14.2114 15.0476C14.6306 15.2355 15.1463 15.0717 15.4788 14.7536C15.8113 14.4354 15.9896 13.9872 16.1052 13.5438C16.6739 14.5463 18.2545 14.7632 19.0737 13.9486C18.64 13.8233 18.346 13.4185 18.1629 13.0039C17.9798 12.5894 17.8641 12.1412 17.6087 11.7701C16.8088 10.6037 15.3342 10.8061 14.4427 11.6929C12.6259 9.73126 11.8886 12.922 11.0598 13.8378C11.5176 14.045 12.0669 14.18 12.5826 14.18Z" fill="#425831"/>
<path d="M14.9487 12.2039C15.4306 11.0423 15.0836 9.16737 13.8981 8.56007C13.715 8.46367 13.5078 8.69984 13.5945 8.87335C13.8403 9.36498 14.1776 9.79395 14.3367 10.3241C14.515 10.9122 14.4523 11.4616 14.3559 12.0593C14.3029 12.4063 14.8186 12.5172 14.9487 12.2039Z" fill="#425831"/>
<path d="M13.5801 18.0166C13.1319 19.0095 12.6982 20.4218 13.1223 21.4822C13.2187 21.728 13.6379 21.7376 13.7198 21.4677C13.8644 20.9809 13.8307 20.4989 13.8885 19.9976C13.9511 19.4144 14.0861 18.8409 14.2451 18.2769C14.3704 17.8431 13.7728 17.5925 13.5801 18.0166Z" fill="white"/>
<path d="M13.0404 23.7041C13.0404 23.8487 13.0356 23.9885 13.0741 24.1283C13.1078 24.2488 13.156 24.3644 13.1994 24.4801C13.3102 24.7886 13.7343 24.6633 13.7825 24.3885C13.8259 24.1427 13.85 23.9355 13.8114 23.6848C13.7825 23.4969 13.609 23.3523 13.4162 23.3619C13.2476 23.3667 13.0404 23.5113 13.0404 23.7041Z" fill="white"/>
<path d="M14.1198 27.531C14.3029 27.7094 14.5053 27.9166 14.78 27.825C14.8571 27.8009 14.9005 27.7142 14.9149 27.6419C14.9535 27.3961 14.7174 27.2178 14.5439 27.0924C14.2692 26.8948 13.8596 27.2756 14.1198 27.531Z" fill="white"/>
<path d="M21.3145 15.4814C19.9315 16.5369 19.4399 18.6095 20.2013 20.1711C20.3989 20.576 20.6784 20.9953 20.6109 21.4387C20.5676 21.7038 20.4037 21.9448 20.3989 22.2147C20.3893 22.7305 20.9386 23.0582 21.4061 23.2751C23.0734 24.027 24.7601 24.7885 26.5527 25.15C28.0611 25.4537 29.6079 25.4633 31.1452 25.473C32.1138 25.4778 33.0921 25.4826 34.0221 25.2175C34.8269 24.9862 35.5594 24.5524 36.3256 24.215C37.3472 23.7667 38.4411 23.4775 39.4242 22.9425C40.4072 22.4075 41.3036 21.5641 41.5252 20.4651C41.2409 19.4192 41.2168 18.3058 41.4578 17.2455C41.559 16.802 41.6939 16.3104 41.4626 15.9248C41.2024 15.491 40.6096 15.4139 40.2 15.1151C39.3471 14.4885 39.4483 13.0377 38.5616 12.4545C38.0845 12.1412 37.4436 12.175 36.9617 11.8665C36.6388 11.6592 36.4268 11.317 36.1473 11.0519C35.5497 10.4832 34.692 10.3049 33.8824 10.1506C32.3933 9.86625 30.8609 9.58188 29.3718 9.85179C28.5863 9.99157 27.478 9.34571 26.5238 9.51922C25.4155 9.72166 24.6492 10.2615 23.8059 10.9604C22.4662 12.0834 20.3748 13.3269 21.3145 15.4814Z" fill="#DFD79D"/>
<path d="M26.0323 13.6016C25.507 13.8764 25.3239 14.503 25.5504 15.0476C25.6757 15.3464 25.9166 15.5537 26.2058 15.6983C26.6057 15.8959 26.9382 15.7802 27.3334 15.8718C27.6418 15.9441 27.584 15.9489 27.7334 16.2622C27.8105 16.4213 27.8683 16.5851 27.9743 16.7297C28.1815 17.0238 28.4899 17.2696 28.8514 17.3322C29.4296 17.4334 30.0513 17.125 30.0609 16.5032C30.0657 16.296 29.8055 16.1947 29.661 16.3345C29.0779 16.9033 28.567 16.5032 28.3165 15.867C28.2201 15.6164 28.1719 15.3946 27.9165 15.2645C27.6852 15.144 27.4731 15.2018 27.2274 15.2163C26.9768 15.2308 26.6636 15.2259 26.4371 15.0958C26.0708 14.8934 25.8154 14.3343 26.2925 14.0306C26.5624 13.8619 26.3214 13.4474 26.0323 13.6016Z" fill="#9FA156"/>
<path d="M22.4614 17.5009C22.2446 18.1661 22.6927 18.6481 23.3481 18.7589C23.9168 18.8553 23.8878 18.7975 24.3215 19.1011C24.5962 19.2891 24.789 19.4675 25.136 19.5253C25.7046 19.6217 26.0708 19.506 26.6154 19.7856C26.9527 19.9591 27.1985 20.2097 27.6033 20.2242C28.196 20.2483 28.7164 19.8771 28.6345 19.2554C28.6201 19.1349 28.4273 19.0289 28.3647 19.1831C27.8876 20.2965 27.0105 19.3518 26.3503 19.1301C25.6323 18.8891 24.7649 19.3903 24.3312 18.4167C24.3071 18.3589 24.23 18.3203 24.1722 18.3252C23.5746 18.4408 23.0927 18.1757 22.7313 17.5347C22.7457 17.3756 22.5096 17.3612 22.4614 17.5009Z" fill="#9FA156"/>
<path d="M33.3475 19.9687C33.3908 20.6049 34.0125 20.976 34.6245 20.8459C35.4534 20.6724 35.6702 19.7759 35.5594 19.0481C35.463 19.1445 35.3618 19.2457 35.2654 19.3421C35.9497 19.612 36.8171 19.6891 37.352 19.0818C37.7183 18.6673 37.8146 18.0311 37.4339 17.6118C37.299 17.4672 37.034 17.6166 37.0966 17.8094C37.487 18.9854 36.2678 19.2216 35.3955 18.8746C35.251 18.8167 35.0823 18.9613 35.0919 19.1059C35.1112 19.477 35.0727 19.8385 34.7932 20.1084C34.4606 20.4314 33.9354 20.4362 33.7523 19.906C33.6752 19.7084 33.3282 19.7228 33.3475 19.9687Z" fill="#9FA156"/>
<path d="M32.2102 17.525C32.5909 17.7178 33.0391 17.9154 33.4535 17.6985C33.5981 17.6214 33.7282 17.4961 33.8005 17.3467C33.8727 17.1925 33.7667 16.9081 33.8342 16.7972C33.9065 16.6815 34.2245 16.5755 34.345 16.4695C34.504 16.3249 34.639 16.1465 34.7402 15.9586C34.9377 15.5923 35.0486 15.144 34.8365 14.7681C34.7787 14.662 34.6052 14.6861 34.5763 14.8018C34.4944 15.1151 34.5137 15.4428 34.3643 15.7368C34.186 16.0839 33.9161 16.214 33.6173 16.4261C33.4728 16.5273 33.4439 16.6092 33.3764 16.7635C33.2559 17.0527 33.6222 16.6912 33.1788 17.1635C33.0728 17.4094 32.9041 17.4624 32.6776 17.3274C32.5668 17.2889 32.456 17.2455 32.3499 17.1973C32.162 17.1201 32.0271 17.4335 32.2102 17.525Z" fill="#9FA156"/>
<path d="M30.6729 13.1679C30.9669 13.5245 31.4922 13.6402 31.9018 13.4137C32.2728 13.2112 32.5716 12.6473 32.3066 12.2521C32.2006 12.0882 31.9837 12.1653 31.9644 12.3437C31.9355 12.6088 31.9403 12.8787 31.6849 13.0377C31.4343 13.192 31.1259 13.0955 30.9428 12.8931C30.7741 12.71 30.5187 12.9799 30.6729 13.1679Z" fill="#9FA156"/>
<path d="M24.3986 21.1351C24.0276 21.6219 24.4179 22.4027 25.0492 22.369C25.2082 22.3594 25.3239 22.263 25.4733 22.2292C26.0949 22.075 26.5045 22.3786 27.0057 22.6582C27.4153 22.8895 27.8587 23.0438 28.2586 22.7449C28.3598 22.6678 28.3502 22.4509 28.1815 22.4702C27.3141 22.5714 26.8997 21.9159 26.1238 21.7617C25.9311 21.7231 25.7769 21.7472 25.5889 21.781C25.4106 21.8099 25.2709 21.8918 25.0781 21.9208C24.8323 22.0509 24.6878 21.9834 24.6396 21.7087C24.4806 21.5641 24.4516 21.405 24.5577 21.2267C24.5962 21.1207 24.4661 21.0435 24.3986 21.1351Z" fill="#9FA156"/>
<path d="M30.1766 20.6483C30.0561 21.0098 30.1477 21.4002 30.379 21.6991C30.5717 21.9497 31.0729 22.2726 31.3813 22.0509C31.5163 21.9545 31.5259 21.7714 31.3813 21.675C31.2753 21.6027 31.1548 21.6123 31.0392 21.5689C30.938 21.5304 30.8512 21.4677 30.7741 21.3906C30.6007 21.2219 30.4946 20.9954 30.5428 20.7496C30.591 20.5134 30.2537 20.417 30.1766 20.6483Z" fill="#9FA156"/>
<path d="M38.1327 20.8652C38.7447 21.0242 39.5061 21.1592 40.0266 20.6917C40.4073 20.3495 40.5615 19.7229 40.1374 19.3518C39.9735 19.2072 39.7663 19.3855 39.8483 19.5735C39.9832 19.8771 39.7567 20.2531 39.4772 20.3832C39.111 20.5567 38.6435 20.4507 38.2628 20.3832C37.9544 20.335 37.8195 20.7833 38.1327 20.8652Z" fill="#9FA156"/>
<path d="M36.5858 16.0019C37.3376 16.1947 38.205 15.2452 37.6026 14.5945C37.4869 14.4644 37.3038 14.6042 37.3327 14.7536C37.4002 15.1054 37.1207 15.6549 36.7063 15.573C36.4268 15.5151 36.3063 15.9296 36.5858 16.0019Z" fill="#9FA156"/>
<path d="M22.5144 13.2546C22.4421 13.5534 22.394 13.8523 22.3409 14.1511C22.3169 14.2764 22.3747 14.3728 22.4952 14.421C22.8566 14.5608 23.4059 14.7873 23.7963 14.6524C23.9312 14.6042 23.9746 14.4114 23.8396 14.3343C23.6613 14.2331 23.4445 14.2186 23.2469 14.18C23.0301 14.1367 22.8228 14.074 22.6156 13.9969C22.6686 14.0692 22.7216 14.1366 22.7747 14.2089C22.765 13.9005 22.765 13.592 22.7409 13.2835C22.7216 13.163 22.5433 13.1245 22.5144 13.2546Z" fill="#9FA156"/>
<path d="M26.8563 12.0834C26.5094 12.3678 26.625 12.8787 26.9527 13.139C27.4683 13.5486 28.1478 13.2064 28.5285 12.7919C28.4514 12.7823 28.3743 12.7726 28.2972 12.763C28.6345 13.2787 29.42 13.8812 30.0513 13.5294C30.1573 13.4715 30.1188 13.3317 30.0224 13.2932C29.7718 13.1968 29.5067 13.2161 29.2562 13.1293C28.9574 13.0233 28.7261 12.8353 28.5333 12.5847C28.5044 12.5461 28.4321 12.5316 28.3888 12.5461C28.249 12.6039 28.1141 12.6618 27.9743 12.7196C27.6707 12.8449 26.7262 12.9221 27.0973 12.2666C27.184 12.1075 26.9864 11.9774 26.8563 12.0834Z" fill="#9FA156"/>
<path d="M31.6078 15.626C31.815 15.9249 32.1764 16.0888 32.5379 15.9972C32.8897 15.9056 33.1981 15.5248 33.0535 15.1537C33.015 15.0525 32.8704 15.0139 32.8077 15.1199C32.7162 15.279 32.6053 15.4814 32.4174 15.5537C32.2295 15.6212 32.0463 15.5248 31.9307 15.3802C31.7861 15.2019 31.4777 15.4381 31.6078 15.626Z" fill="#9FA156"/>
<path d="M22.5241 16.0694C22.5964 16.3779 22.8614 16.6092 23.1457 16.7297C23.4108 16.8406 23.83 16.9081 24.0131 16.6237C24.071 16.5369 24.0131 16.4213 23.9216 16.3923C23.7288 16.3297 23.5168 16.4164 23.3144 16.3586C23.0831 16.2959 22.9289 16.1417 22.7891 15.9537C22.6976 15.8236 22.4855 15.9007 22.5241 16.0694Z" fill="#9FA156"/>
<path d="M21.1603 20.4459C21.1266 21.0243 21.8446 21.6653 22.394 21.299C22.5337 21.2074 22.5 20.9327 22.3024 20.9568C21.9554 20.9906 21.5217 20.8749 21.5121 20.4507C21.5073 20.2194 21.1699 20.2194 21.1603 20.4459Z" fill="#9FA156"/>
<path d="M32.7017 22.8461C32.7403 23.3088 32.9764 23.7812 33.4438 23.9499C33.9498 24.1331 34.0221 23.7764 34.1281 23.4004C34.345 22.6244 35.9015 23.2221 35.9834 22.2099C35.9931 22.075 35.8051 22.0075 35.7184 22.0991C35.3184 22.5377 34.7498 22.5136 34.2341 22.7305C34.051 22.8076 33.8824 22.8943 33.7715 23.063C33.7233 23.1353 33.6896 23.3908 33.6462 23.4245C33.4246 23.6173 33.1451 22.9281 33.1113 22.7931C33.0583 22.5666 32.6824 22.61 32.7017 22.8461Z" fill="#9FA156"/>
<path d="M33.7764 12.8112C34.1667 13.3125 35.2654 13.3703 35.41 12.6281C35.4389 12.4835 35.2895 12.334 35.1449 12.4256C34.8221 12.6329 34.3932 12.845 34.0655 12.5172C33.8776 12.3196 33.6173 12.604 33.7764 12.8112Z" fill="#9FA156"/>
<path d="M29.5598 22.557C29.4586 22.933 29.6802 23.2848 30.0079 23.4583C30.326 23.6318 30.8175 23.6608 30.9669 23.2655C31.0055 23.1691 30.9091 23.0583 30.8127 23.0631C30.6151 23.0679 30.4272 23.1402 30.2392 23.0631C30.0513 22.986 29.8971 22.8077 29.8778 22.6004C29.8585 22.4269 29.608 22.3691 29.5598 22.557Z" fill="#9FA156"/>
<path d="M30.2199 18.6095C30.2922 18.8119 30.4464 18.9035 30.6296 18.9999C30.8175 19.1011 30.991 19.1589 31.2078 19.1155C31.3572 19.0866 31.4006 18.9083 31.338 18.7926C31.2464 18.6143 31.0922 18.5227 30.9139 18.4456C30.7356 18.3685 30.5669 18.2817 30.3693 18.3492C30.2681 18.3829 30.1814 18.4986 30.2199 18.6095Z" fill="#9FA156"/>
<path d="M27.0346 11.0616C27.1551 11.0471 27.2707 11.0423 27.3864 11.0567C27.5262 11.076 27.6707 11.1387 27.8153 11.1242C28.1285 11.0905 28.2731 10.7676 28.0659 10.5218C27.8105 10.2181 27.2804 10.2567 26.9334 10.3338C26.7551 10.3772 26.6443 10.5651 26.6684 10.7386C26.6973 10.9073 26.8515 11.0857 27.0346 11.0616Z" fill="white"/>
<path d="M29.5453 11.2688C29.7043 11.2737 29.8634 11.2785 30.0224 11.2833C30.485 11.2978 30.4898 10.5459 30.0224 10.5603C29.8634 10.5651 29.7043 10.57 29.5453 10.5748C29.102 10.5989 29.102 11.2544 29.5453 11.2688Z" fill="white"/>
<path d="M31.815 11.3749C32.1042 11.3797 32.4029 11.4231 32.5909 11.1532C32.6294 11.0953 32.6294 11.0037 32.5909 10.9459C32.4078 10.676 32.1042 10.7145 31.815 10.7242C31.391 10.729 31.391 11.3652 31.815 11.3749Z" fill="white"/>
<path d="M36.3545 13.1389C36.7497 13.0955 37.1159 13.2883 37.4436 13.4908C37.5882 13.5775 37.7954 13.4329 37.7375 13.2642C37.5303 12.6377 36.875 12.4497 36.2726 12.5557C35.9449 12.6087 36.0172 13.1775 36.3545 13.1389Z" fill="white"/>
<path d="M38.1086 14.903C38.2194 15.0428 38.3206 15.1489 38.4652 15.2501C38.6965 15.4091 38.9519 15.144 38.9037 14.9127C38.8652 14.7392 38.7929 14.5946 38.711 14.4403C38.605 14.2379 38.3206 14.1993 38.1472 14.3343C37.9544 14.4837 37.964 14.7247 38.1086 14.903Z" fill="white"/>
<path d="M39.3904 17.4623C39.7808 17.7467 40.1856 17.3418 39.9013 16.9514C39.7615 16.7586 39.4965 16.696 39.3133 16.8743C39.135 17.0575 39.1977 17.3226 39.3904 17.4623Z" fill="white"/>
<path d="M36.204 20.775C37.0917 17.665 35.0851 14.3654 31.7223 13.4053C28.3594 12.4451 24.9137 14.188 24.0261 17.298C23.1385 20.4081 25.145 23.7077 28.5079 24.6678C31.8707 25.628 35.3164 23.8851 36.204 20.775Z" fill="#E04436"/>
<path d="M29.979 11.9726C29.42 11.8135 28.7743 11.7798 28.3068 12.1172C28.0996 12.2666 27.9454 12.4835 27.7671 12.6666C27.1937 13.245 26.3214 13.5101 25.5263 13.3462C25.8877 14.2524 26.7792 14.8934 27.7382 15.0766C28.6972 15.2597 29.7043 15.0284 30.5621 14.5608C29.9067 14.8597 29.6031 15.6646 29.6899 16.3827C29.7766 17.0961 30.167 17.7371 30.5862 18.3203C31.1404 17.9926 31.6994 17.66 32.1427 17.1973C32.5861 16.7298 32.9041 16.108 32.8559 15.467C32.7162 16.3635 33.3378 17.2744 34.1715 17.6263C35.0052 17.9781 35.9931 17.8383 36.7978 17.4142C36.2099 17.3274 35.8341 16.7298 35.7039 16.1514C35.569 15.573 35.5931 14.9609 35.3907 14.4066C35.1835 13.8379 34.7353 13.351 34.1619 13.1534C33.5884 12.9558 32.9089 13.0715 32.4656 13.486C32.0704 12.5076 30.8753 12.228 29.979 11.9726Z" fill="#425831"/>
<path d="M32.2536 14.5801C32.8415 14.0017 33.1884 13.2498 33.2125 12.4208C33.2366 11.7509 33.068 10.7098 32.3933 10.3965C32.2198 10.3145 32.0415 10.4398 32.0752 10.6326C32.1668 11.2255 32.5379 11.6786 32.5475 12.3148C32.5571 13.004 32.3162 13.6499 31.8488 14.1512C31.5934 14.4307 31.9837 14.8452 32.2536 14.5801Z" fill="#425831"/>
<path d="M34.4317 18.3541C34.3691 18.5662 34.3209 18.7686 34.292 18.9855C34.2582 19.2169 34.2871 19.3711 34.4269 19.5591C34.5088 19.6699 34.6775 19.641 34.769 19.5687C35.0871 19.3133 35.0389 18.8072 35.0293 18.4409C35.0244 18.1035 34.5329 18.0167 34.4317 18.3541Z" fill="white"/>
<path d="M33.4728 21.0629C33.4197 21.2412 33.3667 21.4195 33.3185 21.5979C33.2607 21.8196 33.2607 21.9786 33.4005 22.1666C33.4535 22.2389 33.5884 22.2775 33.6752 22.2437C33.892 22.1618 33.9787 22.022 34.0462 21.8051C34.0992 21.6268 34.1474 21.4485 34.2004 21.2701C34.3305 20.8026 33.6077 20.5905 33.4728 21.0629Z" fill="white"/>
<path d="M21.5024 21.6509C21.0109 21.5931 20.529 21.8341 20.1387 22.1329C19.1363 22.9041 18.5291 24.0657 17.7051 25.0248C16.4618 26.4756 14.7511 27.4396 13.3343 28.7216C12.5633 29.4205 11.8597 30.2447 11.5657 31.2376C11.2718 32.2353 11.4645 33.4258 12.25 34.1054C12.8813 34.6501 13.7969 34.7802 14.6113 34.6019C15.4257 34.4236 16.1582 33.9753 16.8184 33.4692C18.9339 31.8449 20.4664 29.6037 21.9651 27.3962C22.8999 26.0177 24.548 22.0172 21.5024 21.6509Z" fill="#547C32"/>
<path d="M21.1025 24.3934C21.0398 24.9188 20.794 25.3671 20.6206 25.8539C20.529 26.1141 20.876 26.3166 21.0687 26.1382C21.5362 25.6996 21.7048 25.0393 21.7627 24.4224C21.8012 23.9934 21.1555 23.9741 21.1025 24.3934Z" fill="white"/>
<path d="M19.6086 26.8178C19.4785 26.9287 19.3484 27.0443 19.2231 27.1552C19.0592 27.2998 18.9436 27.4058 18.9773 27.642C18.9918 27.7384 19.0833 27.8396 19.1797 27.8589C19.411 27.9119 19.5315 27.8059 19.6857 27.6565C19.811 27.536 19.9315 27.4203 20.0568 27.2998C20.3555 27.0106 19.9266 26.5431 19.6086 26.8178Z" fill="white"/>
<path d="M17.5461 29.0109C17.8593 29.3531 18.3894 28.8663 18.0762 28.5241C17.7629 28.1819 17.2328 28.6687 17.5461 29.0109Z" fill="white"/>
<path d="M19.5845 29.0639C19.652 30.8327 19.8399 32.6257 20.4808 34.2789C21.1217 35.9322 22.2687 37.4456 23.8637 38.2216C25.4588 38.9976 27.5213 38.9109 28.861 37.7541C30.3742 36.4527 30.6006 33.9078 29.3381 32.3606C28.8995 31.8208 28.3213 31.4111 27.8394 30.9099C26.9816 30.0085 26.4515 28.847 26.0082 27.6854C25.4395 26.196 24.9769 24.6681 24.6299 23.1113C24.442 22.2726 24.283 21.4147 23.8685 20.6676C22.7505 18.6336 20.1483 18.9614 19.8399 21.246C19.5074 23.7813 19.4881 26.5141 19.5845 29.0639Z" fill="#893385"/>
<path d="M19.7869 21.6557C20.2881 21.5979 20.794 21.3472 21.0254 20.899C21.194 21.3472 21.3097 21.8148 21.3675 22.2871C21.7723 22.4172 22.2253 22.2148 22.5 21.887C22.7698 21.5593 22.8903 21.1352 22.9529 20.7158C23.5746 21.5786 25.0444 21.6123 25.7094 20.7881C25.2998 20.7206 24.9914 20.3736 24.7793 20.0121C24.5673 19.6506 24.4179 19.2506 24.148 18.9373C23.2999 17.9492 21.9699 18.2866 21.2422 19.1831C19.3821 17.5685 19.0303 20.5664 18.3605 21.487C18.799 21.6412 19.3098 21.7087 19.7869 21.6557Z" fill="#425831"/>
<path d="M21.753 19.6121C22.0759 18.4987 21.5699 16.8214 20.423 16.3828C20.2447 16.3153 20.0808 16.5514 20.1772 16.7009C20.4519 17.125 20.8037 17.4865 21.0061 17.954C21.2278 18.4746 21.2278 18.9855 21.1988 19.5398C21.1796 19.8579 21.6663 19.9109 21.753 19.6121Z" fill="#425831"/>
<path d="M21.088 25.0681C20.7796 26.0176 20.5242 27.3624 21.0157 28.283C21.1314 28.4999 21.5121 28.4661 21.5603 28.2107C21.6422 27.7528 21.5651 27.3142 21.5651 26.8515C21.5651 26.3117 21.6277 25.7718 21.7193 25.2416C21.7916 24.832 21.2181 24.6584 21.088 25.0681Z" fill="white"/>
<path d="M21.1651 30.3315C21.1796 30.4616 21.1892 30.5918 21.2422 30.7171C21.2856 30.8231 21.3434 30.9244 21.3916 31.0256C21.5265 31.2955 21.9024 31.1413 21.9169 30.881C21.9313 30.6496 21.9361 30.4616 21.8735 30.2351C21.8253 30.0664 21.6518 29.9507 21.4783 29.9797C21.3193 29.9989 21.141 30.1483 21.1651 30.3315Z" fill="white"/>
<path d="M22.5337 33.7198C22.7216 33.8644 22.924 34.0331 23.1698 33.9223C23.2373 33.8933 23.271 33.8114 23.271 33.7439C23.2806 33.5126 23.0493 33.3776 22.8758 33.2812C22.606 33.127 22.2735 33.5126 22.5337 33.7198Z" fill="white"/>
<path d="M27.4105 28.4132C26.1335 29.3868 25.6853 31.2906 26.3889 32.7318C26.572 33.1077 26.8322 33.4885 26.7648 33.903C26.7262 34.1488 26.572 34.3705 26.5672 34.6163C26.5575 35.0935 27.0635 35.3923 27.4972 35.5899C29.0345 36.284 30.5862 36.9829 32.2391 37.3155C33.627 37.595 35.0534 37.6047 36.4701 37.6143C37.3617 37.6191 38.2628 37.6239 39.1206 37.3781C39.8627 37.1612 40.5374 36.766 41.2409 36.4575C42.1806 36.043 43.1878 35.7779 44.0937 35.2863C44.9997 34.7947 45.8238 34.0139 46.0262 33.0065C45.7659 32.0425 45.7418 31.0159 45.9635 30.0423C46.0551 29.6374 46.1852 29.1843 45.9683 28.8277C45.7274 28.4276 45.1828 28.3601 44.807 28.0806C44.0215 27.507 44.113 26.1671 43.2986 25.6321C42.8601 25.3429 42.2674 25.3767 41.8288 25.0875C41.5301 24.8947 41.3373 24.5814 41.0819 24.3356C40.5325 23.8102 39.7422 23.6463 38.9953 23.5065C37.6219 23.2463 36.2147 22.9812 34.8413 23.2318C34.1185 23.3619 33.0969 22.7643 32.215 22.9282C31.1934 23.1161 30.4898 23.6126 29.714 24.2536C28.4707 25.2851 26.5431 26.4274 27.4105 28.4132Z" fill="#DFD79D"/>
<path d="M31.7572 26.678C31.2753 26.9335 31.1018 27.5119 31.3139 28.0131C31.4295 28.2879 31.6512 28.4807 31.9162 28.6108C32.2825 28.7939 32.5909 28.6879 32.9523 28.7698C33.2366 28.8373 33.1836 28.8421 33.3186 29.1265C33.3908 29.2759 33.4438 29.4253 33.5402 29.5603C33.733 29.8302 34.0173 30.0567 34.3498 30.1194C34.8799 30.2158 35.4534 29.9314 35.463 29.353C35.463 29.1602 35.2269 29.0735 35.0919 29.1988C34.5522 29.7193 34.0848 29.353 33.8535 28.7698C33.7667 28.5385 33.7185 28.3361 33.4872 28.2156C33.2752 28.1047 33.0776 28.1577 32.8511 28.1674C32.6198 28.177 32.3355 28.177 32.1235 28.0565C31.7861 27.8685 31.55 27.3576 31.9933 27.0781C32.2439 26.919 32.0223 26.5383 31.7572 26.678Z" fill="#9FA156"/>
<path d="M28.4659 30.2736C28.2683 30.8858 28.6779 31.334 29.2803 31.4304C29.8055 31.5172 29.7766 31.469 30.1766 31.7485C30.4272 31.922 30.6103 32.0859 30.9283 32.1389C31.4536 32.2257 31.7861 32.1245 32.2921 32.3799C32.6053 32.539 32.8318 32.7703 33.1981 32.7848C33.7474 32.8041 34.2245 32.4667 34.1474 31.8931C34.1329 31.7823 33.9595 31.6859 33.8968 31.8256C33.4583 32.8474 32.6487 31.9799 32.0415 31.7774C31.3765 31.5557 30.5814 32.0184 30.1814 31.1219C30.1573 31.0689 30.0898 31.0352 30.0368 31.04C29.4875 31.146 29.0441 30.9002 28.7116 30.3122C28.7261 30.158 28.5092 30.1435 28.4659 30.2736Z" fill="#9FA156"/>
<path d="M38.4893 32.5438C38.5278 33.127 39.1013 33.4692 39.6651 33.3535C40.4265 33.1945 40.6289 32.3655 40.5277 31.7003C40.4362 31.7919 40.3446 31.8835 40.253 31.975C40.8843 32.2257 41.6794 32.298 42.1758 31.734C42.5131 31.3533 42.6047 30.7701 42.2481 30.3797C42.1228 30.2447 41.8818 30.3845 41.9397 30.558C42.2963 31.6425 41.1735 31.8594 40.3735 31.5412C40.2434 31.4882 40.0844 31.6232 40.094 31.7533C40.1085 32.0955 40.0795 32.4281 39.8193 32.6739C39.5109 32.9728 39.0338 32.9776 38.8604 32.4859C38.7929 32.3028 38.47 32.3173 38.4893 32.5438Z" fill="#9FA156"/>
<path d="M37.4436 30.2929C37.7954 30.4664 38.205 30.6544 38.5905 30.452C38.7254 30.3797 38.8459 30.2688 38.9085 30.129C38.976 29.9844 38.8748 29.7242 38.9375 29.623C39.0001 29.5169 39.2989 29.4205 39.4097 29.3193C39.5543 29.1844 39.6796 29.0205 39.776 28.847C39.9591 28.5096 40.0603 28.0999 39.8627 27.7529C39.8097 27.6565 39.6507 27.6757 39.6218 27.7866C39.5495 28.0758 39.5639 28.3746 39.4242 28.6493C39.2603 28.9675 39.0097 29.088 38.7399 29.2856C38.6098 29.382 38.5809 29.4543 38.5182 29.594C38.4074 29.8591 38.7447 29.5314 38.3399 29.9603C38.2387 30.1869 38.0845 30.2351 37.8773 30.1146C37.7761 30.0808 37.6749 30.0375 37.5737 29.9941C37.3954 29.9218 37.2749 30.211 37.4436 30.2929Z" fill="#9FA156"/>
<path d="M36.022 26.278C36.2918 26.6057 36.7786 26.7118 37.1544 26.5045C37.4966 26.3165 37.7713 25.796 37.5303 25.4345C37.4339 25.2851 37.2315 25.3574 37.2123 25.5213C37.1834 25.7623 37.193 26.0129 36.952 26.1623C36.7207 26.3021 36.4412 26.2153 36.2678 26.0273C36.1184 25.8635 35.8822 26.1093 36.022 26.278Z" fill="#9FA156"/>
<path d="M30.2489 33.6187C29.9067 34.0669 30.2681 34.7851 30.8464 34.7513C30.9958 34.7417 31.1018 34.6549 31.2368 34.6212C31.8102 34.4814 32.1861 34.761 32.6487 35.0164C33.0246 35.2285 33.4342 35.3731 33.8053 35.0983C33.8968 35.026 33.8872 34.8284 33.7378 34.8429C32.9427 34.9345 32.5571 34.332 31.8439 34.1922C31.6656 34.1585 31.5259 34.1778 31.3524 34.2115C31.1886 34.2404 31.0633 34.3127 30.8802 34.3416C30.6537 34.4621 30.5187 34.3995 30.4754 34.1488C30.3308 34.0139 30.3067 33.8693 30.3983 33.7054C30.432 33.6042 30.3115 33.5319 30.2489 33.6187Z" fill="#9FA156"/>
<path d="M35.569 33.1704C35.4582 33.5029 35.5401 33.8644 35.7521 34.1392C35.9304 34.3705 36.3931 34.6694 36.6774 34.4669C36.8027 34.3753 36.8075 34.2066 36.6774 34.1199C36.581 34.0524 36.4702 34.062 36.3641 34.0235C36.2678 33.9897 36.1907 33.9271 36.1184 33.8596C35.9593 33.7054 35.863 33.4933 35.9063 33.2668C35.9497 33.0451 35.6413 32.9583 35.569 33.1704Z" fill="#9FA156"/>
<path d="M42.8938 33.368C43.4576 33.5126 44.1564 33.6379 44.6335 33.2089C44.9853 32.8908 45.125 32.3173 44.7395 31.975C44.5901 31.8401 44.3973 32.0088 44.4744 32.1823C44.5997 32.4619 44.3925 32.8089 44.1323 32.9294C43.795 33.0884 43.3613 32.992 43.0143 32.9294C42.73 32.8812 42.6047 33.2957 42.8938 33.368Z" fill="#9FA156"/>
<path d="M41.4722 28.8952C42.1662 29.0735 42.9613 28.2011 42.4119 27.5986C42.3059 27.4829 42.1373 27.6082 42.1613 27.7432C42.224 28.0661 41.9686 28.5722 41.5831 28.4999C41.3228 28.4421 41.212 28.8277 41.4722 28.8952Z" fill="#9FA156"/>
<path d="M28.514 26.3599C28.4514 26.6346 28.4032 26.9094 28.355 27.1841C28.3357 27.2998 28.3839 27.3914 28.4948 27.4299C28.8273 27.56 29.3333 27.7673 29.6899 27.642C29.8152 27.5986 29.8537 27.4203 29.7284 27.348C29.5646 27.2564 29.367 27.2419 29.1839 27.2034C28.9863 27.1648 28.7935 27.107 28.6008 27.0347C28.649 27.0973 28.6972 27.1648 28.7502 27.2275C28.7454 26.9431 28.7405 26.6587 28.7164 26.3744C28.7068 26.278 28.5381 26.2394 28.514 26.3599Z" fill="#9FA156"/>
<path d="M32.509 25.2851C32.1909 25.5453 32.2969 26.0177 32.5957 26.2587C33.068 26.6346 33.6944 26.3213 34.0462 25.9406C33.9739 25.9309 33.9065 25.9213 33.8342 25.9116C34.1426 26.384 34.8654 26.9431 35.4485 26.6202C35.5449 26.5671 35.5112 26.437 35.4196 26.4033C35.1883 26.3165 34.9474 26.3358 34.7112 26.249C34.4365 26.1478 34.2245 25.9743 34.0462 25.7478C34.0221 25.714 33.9546 25.6948 33.9161 25.714C33.7908 25.767 33.6607 25.8201 33.5354 25.8731C33.2559 25.9888 32.3837 26.0611 32.7306 25.4538C32.8126 25.3092 32.6294 25.1887 32.509 25.2851Z" fill="#9FA156"/>
<path d="M36.8894 28.5482C37.0822 28.8229 37.4099 28.9771 37.7424 28.8855C38.0652 28.7988 38.3495 28.4518 38.2146 28.1096C38.1761 28.0132 38.046 27.9794 37.9881 28.0806C37.9014 28.2301 37.8002 28.4132 37.6267 28.4807C37.4532 28.5433 37.2846 28.4518 37.1785 28.3216C37.0533 28.1529 36.7641 28.3746 36.8894 28.5482Z" fill="#9FA156"/>
<path d="M28.5237 28.953C28.5911 29.2374 28.8321 29.4494 29.0971 29.5603C29.3429 29.6615 29.7284 29.7242 29.8971 29.4639C29.9501 29.382 29.8971 29.2807 29.8103 29.2518C29.632 29.194 29.4393 29.2711 29.2513 29.2229C29.0393 29.1651 28.8947 29.0253 28.7694 28.8518C28.6827 28.7313 28.4851 28.7987 28.5237 28.953Z" fill="#9FA156"/>
<path d="M27.2659 32.9872C27.237 33.5174 27.8972 34.1103 28.4032 33.7729C28.5285 33.6861 28.4996 33.4355 28.3165 33.4548C27.9984 33.4885 27.5984 33.3776 27.5888 32.9872C27.584 32.7752 27.2756 32.7752 27.2659 32.9872Z" fill="#9FA156"/>
<path d="M37.8966 35.1947C37.9351 35.6189 38.1471 36.0575 38.5809 36.2117C39.0483 36.3804 39.1109 36.0527 39.2121 35.7056C39.4145 34.9923 40.8458 35.5418 40.9181 34.6067C40.9277 34.4862 40.7542 34.4187 40.6771 34.5055C40.3061 34.9103 39.7856 34.8863 39.3133 35.0839C39.1447 35.1562 38.9905 35.2333 38.8844 35.3875C38.8363 35.455 38.8073 35.6864 38.7688 35.7201C38.5616 35.8984 38.3062 35.2622 38.2773 35.1369C38.2242 34.9393 37.8773 34.9778 37.8966 35.1947Z" fill="#9FA156"/>
<path d="M38.8845 25.9502C39.2459 26.4129 40.2579 26.466 40.388 25.7816C40.4121 25.6514 40.2771 25.5117 40.147 25.5936C39.8483 25.7864 39.4531 25.9792 39.1543 25.6803C38.976 25.502 38.7399 25.7623 38.8845 25.9502Z" fill="#9FA156"/>
<path d="M35.0004 34.9248C34.9088 35.267 35.1112 35.5947 35.4148 35.7538C35.7088 35.9128 36.1569 35.9418 36.3015 35.5755C36.3352 35.4887 36.2485 35.3875 36.1617 35.3875C35.9786 35.3923 35.8051 35.455 35.6317 35.3875C35.4582 35.3152 35.3184 35.1513 35.2992 34.9585C35.2799 34.8043 35.0486 34.7513 35.0004 34.9248Z" fill="#9FA156"/>
<path d="M35.6124 31.2954C35.675 31.4834 35.8196 31.5653 35.9883 31.6521C36.1617 31.7437 36.3208 31.7967 36.5183 31.7581C36.6533 31.734 36.6966 31.5653 36.6388 31.4593C36.5521 31.2954 36.4123 31.2087 36.2485 31.1412C36.0846 31.0689 35.9256 30.9918 35.7473 31.0544C35.6509 31.0882 35.5738 31.1894 35.6124 31.2954Z" fill="#9FA156"/>
<path d="M32.6776 24.3452C32.7885 24.3308 32.8945 24.326 33.0053 24.3452C33.1354 24.3645 33.2704 24.4224 33.4005 24.4079C33.6896 24.379 33.8197 24.0753 33.6318 23.8536C33.3957 23.5741 32.9089 23.6078 32.5909 23.6801C32.427 23.7187 32.321 23.8922 32.3451 24.0512C32.3644 24.2006 32.509 24.3645 32.6776 24.3452Z" fill="white"/>
<path d="M34.9859 24.5332C35.1305 24.538 35.2799 24.5428 35.4244 24.5476C35.8533 24.5621 35.8533 23.8681 35.4244 23.8825C35.2799 23.8874 35.1305 23.8922 34.9859 23.897C34.5763 23.9163 34.5763 24.5235 34.9859 24.5332Z" fill="white"/>
<path d="M37.0773 24.6296C37.3472 24.6344 37.6219 24.6729 37.7905 24.4223C37.8243 24.3693 37.8243 24.2825 37.7905 24.2295C37.6219 23.9789 37.3424 24.0174 37.0773 24.0223C36.687 24.0367 36.687 24.6199 37.0773 24.6296Z" fill="white"/>
<path d="M41.2554 26.2587C41.6216 26.2153 41.9541 26.3985 42.2577 26.5816C42.3927 26.6636 42.5806 26.5286 42.5324 26.3744C42.3445 25.796 41.7373 25.6225 41.1831 25.7189C40.8843 25.7671 40.947 26.2924 41.2554 26.2587Z" fill="white"/>
<path d="M42.8746 27.883C42.9758 28.0083 43.0673 28.1095 43.2022 28.2011C43.4143 28.3505 43.6504 28.1047 43.607 27.8926C43.5733 27.7336 43.5058 27.5986 43.4287 27.4588C43.3275 27.2709 43.0721 27.2371 42.9131 27.3624C42.73 27.4926 42.7444 27.7143 42.8746 27.883Z" fill="white"/>
<path d="M44.0552 30.2351C44.4166 30.4954 44.7877 30.1242 44.5274 29.7628C44.3973 29.5844 44.1516 29.5266 43.9877 29.6953C43.8191 29.864 43.8769 30.1098 44.0552 30.2351Z" fill="white"/>
<path d="M7.24313 34.838C10.4635 34.838 13.0741 32.4233 13.0741 29.4446C13.0741 26.4659 10.4635 24.0511 7.24313 24.0511C4.02279 24.0511 1.41219 26.4659 1.41219 29.4446C1.41219 32.4233 4.02279 34.838 7.24313 34.838Z" fill="#E04436"/>
<path d="M5.33965 23.2173C4.80474 23.2173 4.22647 23.3475 3.89878 23.7716C3.75421 23.9596 3.67229 24.1861 3.55663 24.3934C3.19521 25.0537 2.49164 25.5068 1.73988 25.5598C2.28925 26.2683 3.23858 26.6105 4.13491 26.5334C5.03124 26.4563 5.86492 25.9936 6.50102 25.3622C5.99503 25.7911 5.93238 26.5816 6.18779 27.1937C6.44319 27.8059 6.954 28.2734 7.46963 28.6831C7.87924 28.2541 8.28885 27.8155 8.56354 27.295C8.83822 26.7696 8.96351 26.1382 8.76111 25.5839C8.86713 26.4129 9.64298 27.0636 10.4718 27.16C11.3007 27.2612 12.1392 26.8853 12.7416 26.3069C12.2019 26.3792 11.7151 25.9454 11.4501 25.4682C11.1851 24.991 11.0501 24.4464 10.7321 24.003C10.4044 23.5499 9.88393 23.2318 9.32975 23.2029C8.77557 23.1691 8.19729 23.4487 7.91298 23.9259C7.32506 23.1595 6.19742 23.2173 5.33965 23.2173Z" fill="#425831"/>
<path d="M8.01417 24.9525C8.38523 24.2922 8.5057 23.5403 8.31776 22.798C8.16837 22.2003 7.75876 21.3183 7.07929 21.2123C6.9058 21.1833 6.78051 21.3376 6.85761 21.5015C7.08892 22.0027 7.53227 22.3112 7.70093 22.8703C7.88405 23.4776 7.83105 24.109 7.54673 24.6729C7.3877 24.9862 7.84068 25.2561 8.01417 24.9525Z" fill="#425831"/>
<path d="M10.8959 27.7432C10.8959 27.9456 10.9055 28.1384 10.9296 28.336C10.9586 28.5481 11.026 28.6782 11.1947 28.8132C11.2959 28.8903 11.4404 28.8228 11.5031 28.7313C11.7199 28.4276 11.5513 27.989 11.4501 27.6661C11.3585 27.3673 10.8959 27.4155 10.8959 27.7432Z" fill="white"/>
<path d="M10.7272 30.3796C10.7272 30.5483 10.7224 30.7218 10.7272 30.8954C10.7321 31.1026 10.7754 31.2472 10.9441 31.3773C11.0116 31.4255 11.1417 31.4255 11.2043 31.3773C11.373 31.2472 11.4164 31.1074 11.4212 30.8954C11.426 30.7267 11.4212 30.5531 11.4212 30.3796C11.426 29.9314 10.7272 29.9314 10.7272 30.3796Z" fill="white"/>
<path d="M43.3892 40.5334H47.3793V14.9448H43.3892V40.5334Z" fill="#C98C3A"/>
<path d="M-3.8147e-06 40.5334H3.9901L3.9901 14.9448H-3.8147e-06L-3.8147e-06 40.5334Z" fill="#C98C3A"/>
<path d="M0.664696 41.9744L46.3774 41.9744V30.2621L0.664696 30.2621V41.9744Z" fill="#F2B464"/>
<path d="M0.510372 29.1822L46.2231 29.1822V19.2677L0.510372 19.2677V29.1822Z" fill="#F2B464"/>
<path d="M42.4264 22.4847C36.0798 22.5714 29.5646 22.986 23.2325 22.5184C22.9771 22.4992 22.9771 22.1425 23.2325 22.1232C29.5598 21.6557 36.0798 22.075 42.4264 22.1569C42.6336 22.1618 42.6336 22.4799 42.4264 22.4847Z" fill="#D69A58"/>
<path d="M40.094 24.591C35.1931 24.6874 30.2971 24.7356 25.3962 24.7645C20.5242 24.7886 15.5558 25.0633 10.6983 24.7356C10.4526 24.7211 10.4526 24.3693 10.6983 24.3548C15.5607 24.027 20.5242 24.297 25.3962 24.3259C30.2971 24.35 35.1979 24.403 40.094 24.4994C40.1567 24.4946 40.1567 24.5862 40.094 24.591Z" fill="#D69A58"/>
<path d="M19.1267 22.3883C15.392 22.4365 11.532 22.7016 7.81178 22.3594C7.62384 22.3401 7.62384 22.0847 7.81178 22.0702C11.532 21.7232 15.392 21.9883 19.1267 22.0413C19.358 22.0365 19.358 22.3835 19.1267 22.3883Z" fill="#D69A58"/>
<path d="M42.9806 26.7647C36.1425 26.8804 29.2947 26.8178 22.4566 26.8178C15.633 26.8178 8.74666 27.0877 1.93265 26.7599C1.78808 26.7551 1.78808 26.543 1.93265 26.5382C8.74666 26.2104 15.633 26.4804 22.4566 26.4804C29.2947 26.4804 36.1425 26.4177 42.9806 26.5334C43.13 26.5382 43.13 26.7599 42.9806 26.7647Z" fill="#D69A58"/>
<path d="M7.70095 24.4223C5.99504 24.6006 4.08191 24.6922 2.37599 24.4753C2.1736 24.4512 2.1736 24.1909 2.37599 24.162C4.08191 23.9451 5.99504 24.0367 7.70095 24.215C7.83588 24.2295 7.83588 24.4078 7.70095 24.4223Z" fill="#D69A58"/>
<path d="M5.59506 21.5015C4.87703 21.5256 4.15419 21.593 3.44098 21.4966C3.27232 21.4725 3.27232 21.1785 3.44098 21.1544C4.15419 21.058 4.87703 21.1255 5.59506 21.1496C5.82155 21.1544 5.82155 21.4918 5.59506 21.5015Z" fill="#D69A58"/>
<path d="M44.6431 23.7042C43.9396 23.7138 43.1926 23.7958 42.4987 23.6801C42.3638 23.656 42.3638 23.4294 42.4987 23.4054C43.1926 23.2897 43.9444 23.3716 44.6431 23.3813C44.8552 23.3813 44.8552 23.7042 44.6431 23.7042Z" fill="#D69A58"/>
<path d="M44.1998 21.3183C43.3516 21.2364 42.4216 21.2797 41.5927 21.0725C41.4 21.0243 41.4 20.7303 41.5927 20.6869C42.4216 20.4797 43.3468 20.523 44.1998 20.4411C44.7684 20.3833 44.7684 21.3761 44.1998 21.3183Z" fill="#D69A58"/>
<path d="M44.5323 32.7076C38.5134 32.9486 32.4752 32.8619 26.4515 32.8667C20.4326 32.8715 14.3848 33.0161 8.37078 32.8233C8.13947 32.8137 8.13947 32.4715 8.37078 32.4618C14.3897 32.269 20.4326 32.4136 26.4515 32.4184C32.4752 32.4233 38.5134 32.3365 44.5323 32.5775C44.619 32.5775 44.619 32.7028 44.5323 32.7076Z" fill="#D69A58"/>
<path d="M42.5372 35.0116C33.9643 35.0501 25.3721 35.2477 16.7991 35.0019C16.616 34.9971 16.616 34.7224 16.7991 34.7176C25.3673 34.4718 33.9643 34.6694 42.5372 34.7079C42.7348 34.7079 42.7348 35.0116 42.5372 35.0116Z" fill="#D69A58"/>
<path d="M34.9907 37.2962C24.6926 37.3155 14.327 37.6673 4.03852 37.2287C3.84576 37.2191 3.84576 36.9395 4.03852 36.9299C14.327 36.4865 24.6926 36.8431 34.9907 36.8624C35.275 36.8624 35.275 37.2962 34.9907 37.2962Z" fill="#D69A58"/>
<path d="M13.9174 34.5537C11.1947 34.5585 8.42378 34.6983 5.70589 34.5199C5.43121 34.5007 5.43121 34.1103 5.70589 34.091C8.42378 33.9127 11.1899 34.0524 13.9174 34.0572C14.2355 34.0572 14.2355 34.5537 13.9174 34.5537Z" fill="#D69A58"/>
<path d="M42.8697 39.3542C36.4702 39.3783 30.0754 39.388 23.6758 39.3928C20.476 39.3976 17.2762 39.3976 14.0812 39.3976C10.92 39.3976 7.62865 39.6531 4.48669 39.3012C4.3373 39.282 4.3373 39.0843 4.48669 39.0651C7.62865 38.7132 10.92 38.9687 14.0812 38.9687C17.281 38.9687 20.4808 38.9735 23.6758 38.9735C30.0754 38.9831 36.4702 38.9879 42.8697 39.012C43.0818 39.0217 43.0818 39.3542 42.8697 39.3542Z" fill="#D69A58"/>
</svg>
