<svg width="49" height="115" viewBox="0 0 49 115" fill="none" xmlns="http://www.w3.org/2000/svg">
<path d="M4.57219 44.5838C9.85859 33.956 19.6315 26.1141 25.1106 15.5826C27.6647 10.676 29.2067 5.31632 30.7392 0C31.2741 6.95025 35.9726 19.9205 29.4718 35.079C23.6697 48.6132 18.9375 53.6885 17.4147 68.3361C16.8943 73.344 18.5472 83.8658 21.1687 88.1651C23.93 73.1897 33.3125 64.7791 37.1436 50.0399C39.9964 39.0602 39.0808 27.4974 38.1459 16.1899C44.613 23.7234 46.5743 34.0476 47.8224 43.8994C48.6512 50.4255 49.2681 57.048 48.391 63.5693C46.849 75.055 40.7963 85.3985 34.3727 95.043C30.3681 101.053 25.9587 107.777 27.1924 114.896C26.9563 113.522 20.3639 109.469 19.1014 108.254C16.422 105.666 13.9595 102.846 11.7524 99.8484C7.94065 94.6719 4.36016 88.6519 2.34583 82.5065C-1.37923 71.1317 -0.690114 55.1731 4.57219 44.5838Z" fill="#D7EAA9"/>
</svg>
