<svg width="55" height="92" viewBox="0 0 55 92" fill="none" xmlns="http://www.w3.org/2000/svg">
<path d="M35.4579 59.0145C30.7209 53.8813 25.8682 48.8542 20.8179 44.0295C24.4707 42.6028 28.2873 41.5955 32.1714 41.0412C28.8319 39.8652 18.6349 40.2941 18.047 40.1254C17.329 39.9182 11.7824 34.5922 8.2356 30.6833C12.0763 29.8061 15.9122 28.9337 19.7529 28.0565C15.3628 26.9575 11.7824 27.3239 6.76582 27.1262C2.51549 18.7445 0.183114 9.39393 -6.61217e-06 0C3.89854 2.83408 9.76803 5.77903 14.1967 7.68288C13.0738 9.25415 12.4281 8.69505 10.9824 9.98195C13.5365 10.3145 16.2158 9.68794 18.7747 9.98195C18.7747 9.98195 27.1982 14.6524 31.3136 16.9322C29.3234 19.0048 27.3283 21.0773 25.3381 23.1498C27.9885 22.0316 34.2628 19.3855 34.7785 19.3807C35.5158 19.3759 46.1319 30.7074 46.0259 31.4834C45.9295 32.1967 41.7756 38.3614 40.913 41.1954C43.1972 39.8652 46.4452 37.4938 48.7294 36.1635C50.8882 40.5689 52.0978 46.0539 53.264 50.8207C54.3627 55.3225 54.5362 59.9929 54.6229 64.6248C54.7145 69.3917 54.7145 74.1633 54.6326 78.9302C54.5603 83.1379 54.3772 87.5192 52.3725 91.2161C50.6328 84.955 48.0017 78.9399 44.5947 73.4018C41.5443 68.447 39.4866 63.3813 35.4579 59.0145Z" fill="#C6DD8C"/>
</svg>
