<svg width="55" height="46" viewBox="0 0 55 46" fill="none" xmlns="http://www.w3.org/2000/svg">
<path d="M23.3437 22.9834C22.8088 22.9208 22.2883 23.181 21.8594 23.5088C20.7704 24.3474 20.1101 25.6102 19.2186 26.6513C17.8693 28.2274 16.0092 29.2734 14.472 30.6663C13.6335 31.423 12.8721 32.3195 12.5492 33.3992C12.2263 34.4788 12.4384 35.7754 13.2913 36.5128C13.9804 37.1056 14.9731 37.2454 15.855 37.0526C16.7417 36.8598 17.532 36.373 18.25 35.8236C20.5439 34.0595 22.2112 31.6255 23.84 29.23C24.8616 27.7262 26.6543 23.3835 23.3437 22.9834Z" fill="#547C32"/>
<path d="M22.9148 25.9573C22.8425 26.5261 22.5823 27.0129 22.3895 27.5431C22.2883 27.8274 22.6642 28.0491 22.8762 27.8515C23.3822 27.3792 23.5654 26.6562 23.628 25.9862C23.6714 25.5284 22.9678 25.5043 22.9148 25.9573Z" fill="white"/>
<path d="M21.286 28.5937C21.1462 28.7142 21.0065 28.8396 20.8667 28.9601C20.6884 29.1143 20.5631 29.2348 20.6017 29.4902C20.6161 29.5963 20.7173 29.7023 20.8185 29.7264C21.0691 29.7842 21.1992 29.6734 21.3679 29.5047C21.5028 29.3746 21.6329 29.2444 21.7679 29.1191C22.1004 28.801 21.6329 28.2949 21.286 28.5937Z" fill="white"/>
<path d="M19.05 30.9748C19.3921 31.3459 19.9656 30.8157 19.6234 30.4446C19.2813 30.0735 18.7079 30.6037 19.05 30.9748Z" fill="white"/>
<path d="M21.2667 31.0326C21.3438 32.9557 21.5414 34.9029 22.2402 36.6959C22.9389 38.4889 24.1822 40.1325 25.9122 40.976C27.6422 41.8194 29.883 41.723 31.3432 40.4699C32.9864 39.0577 33.2322 36.2959 31.8588 34.6137C31.3817 34.0305 30.7553 33.5823 30.2348 33.0376C29.2999 32.0592 28.7265 30.8012 28.2446 29.5384C27.6277 27.9238 27.1266 26.2609 26.7507 24.5739C26.5483 23.6678 26.3748 22.7327 25.9267 21.9182C24.7123 19.7059 21.8835 20.0625 21.551 22.5448C21.1752 25.2969 21.1559 28.2611 21.2667 31.0326Z" fill="#893385"/>
<path d="M21.4788 22.9882C22.0233 22.9255 22.5727 22.6556 22.8233 22.1688C23.0064 22.6556 23.1317 23.1617 23.1943 23.6775C23.6328 23.8172 24.1292 23.6003 24.4232 23.2437C24.7171 22.8918 24.8472 22.4243 24.9147 21.9712C25.5893 22.9063 27.1844 22.9448 27.9073 22.0483C27.4591 21.9712 27.1266 21.6001 26.8953 21.2097C26.6688 20.8193 26.5049 20.3855 26.211 20.0433C25.2906 18.9684 23.8449 19.3347 23.0546 20.3132C21.0354 18.5587 20.6499 21.817 19.9222 22.8147C20.409 22.9689 20.9679 23.046 21.4788 22.9882Z" fill="#425831"/>
<path d="M23.6184 20.7663C23.9702 19.5565 23.4208 17.7346 22.1727 17.2574C21.9799 17.1851 21.8016 17.4406 21.9077 17.6044C22.2064 18.0623 22.5871 18.4527 22.804 18.9636C23.0449 19.5276 23.0449 20.0818 23.016 20.6843C22.9967 21.0362 23.522 21.094 23.6184 20.7663Z" fill="#425831"/>
<path d="M22.8955 26.6947C22.5582 27.7261 22.2835 29.1817 22.8184 30.1891C22.9437 30.4205 23.3581 30.3867 23.4111 30.112C23.5027 29.6155 23.416 29.1384 23.416 28.6323C23.416 28.0491 23.4834 27.461 23.5846 26.8827C23.6569 26.4344 23.0401 26.2512 22.8955 26.6947Z" fill="white"/>
<path d="M22.9775 32.4063C22.9967 32.5509 23.0015 32.6907 23.0594 32.8256C23.1076 32.9413 23.1654 33.0473 23.2232 33.1582C23.3678 33.4522 23.7774 33.2835 23.7967 33.0039C23.816 32.7533 23.816 32.5461 23.7485 32.3051C23.6955 32.1171 23.5075 31.9966 23.3196 32.0255C23.1461 32.0496 22.9534 32.2135 22.9775 32.4063Z" fill="white"/>
<path d="M24.4665 36.0887C24.6689 36.2478 24.8906 36.4309 25.1556 36.3056C25.2279 36.2718 25.2665 36.1851 25.2665 36.108C25.2761 35.8573 25.0255 35.7079 24.8376 35.6019C24.5484 35.4428 24.1822 35.867 24.4665 36.0887Z" fill="white"/>
<path d="M29.7577 30.3289C28.3747 31.3845 27.8831 33.457 28.6445 35.0187C28.8421 35.4236 29.1216 35.8429 29.0541 36.2863C29.0108 36.5514 28.8469 36.7924 28.8421 37.0623C28.8325 37.578 29.3818 37.9058 29.8493 38.1227C31.5166 38.8746 33.2033 39.6361 34.9959 39.9976C36.5043 40.3013 38.0511 40.3109 39.5884 40.3205C40.557 40.3254 41.5353 40.3302 42.4653 40.0651C43.2701 39.8337 44.0026 39.3999 44.7688 39.0626C45.7904 38.6143 46.8843 38.3251 47.8674 37.7901C48.8504 37.2551 49.7468 36.4116 49.9684 35.3127C49.6841 34.2668 49.66 33.1534 49.901 32.093C50.0022 31.6496 50.1371 31.158 49.9058 30.7724C49.6456 30.3386 49.0528 30.2615 48.6432 29.9626C47.7903 29.336 47.8915 27.8853 47.0048 27.3021C46.5277 26.9888 45.8868 27.0225 45.4049 26.714C45.082 26.5068 44.87 26.1646 44.5905 25.8995C43.9929 25.3307 43.1351 25.1524 42.3256 24.9982C40.8365 24.7138 39.3041 24.4294 37.815 24.6993C37.0343 24.8391 35.9212 24.1932 34.967 24.3668C33.8586 24.5692 33.0924 25.109 32.2491 25.8079C30.9094 26.9261 28.8228 28.1696 29.7577 30.3289Z" fill="#DFD79D"/>
<path d="M34.4803 28.4444C33.955 28.7191 33.7719 29.3457 33.9984 29.8903C34.1237 30.1892 34.3647 30.3964 34.6538 30.541C35.0538 30.7386 35.3863 30.6229 35.7814 30.7145C36.0899 30.7868 36.032 30.7917 36.1814 31.1049C36.2585 31.264 36.3163 31.4279 36.4224 31.5725C36.6296 31.8665 36.938 32.1123 37.2994 32.1749C37.8777 32.2762 38.4993 31.9677 38.509 31.3459C38.5138 31.1387 38.2536 31.0375 38.109 31.1772C37.5259 31.746 37.0151 31.3459 36.7645 30.7097C36.6681 30.4591 36.6199 30.2374 36.3645 30.1072C36.1332 29.9867 35.9212 30.0446 35.6754 30.059C35.4248 30.0735 35.1116 30.0687 34.8851 29.9385C34.5189 29.7361 34.2635 29.177 34.7405 28.8733C35.0104 28.7046 34.7695 28.295 34.4803 28.4444Z" fill="#9FA156"/>
<path d="M30.9095 32.3437C30.6926 33.0088 31.1408 33.4908 31.7961 33.6017C32.3648 33.6981 32.3359 33.6402 32.7696 33.9439C33.0443 34.1318 33.237 34.3102 33.584 34.368C34.1526 34.4644 34.5189 34.3487 35.0634 34.6283C35.4007 34.8018 35.6465 35.0524 36.0513 35.0669C36.644 35.091 37.1645 34.7199 37.0826 34.0981C37.0681 33.9776 36.8753 33.8716 36.8127 34.0258C36.3356 35.1392 35.4586 34.1945 34.7984 33.9728C34.0803 33.7318 33.2129 34.2331 32.7792 33.2594C32.7551 33.2016 32.678 33.1631 32.6202 33.1679C32.0226 33.2836 31.5407 33.0185 31.1793 32.3774C31.189 32.2232 30.9528 32.2039 30.9095 32.3437Z" fill="#9FA156"/>
<path d="M41.7907 34.8114C41.834 35.4477 42.4557 35.8188 43.0677 35.6887C43.8966 35.5151 44.1134 34.6187 44.0026 33.8909C43.9062 33.9873 43.805 34.0885 43.7086 34.1849C44.3929 34.4548 45.2603 34.5319 45.7952 33.9246C46.1615 33.5101 46.2579 32.8739 45.8772 32.4545C45.7422 32.3099 45.4772 32.4594 45.5398 32.6522C45.9302 33.8282 44.711 34.0644 43.8387 33.7173C43.6942 33.6595 43.5255 33.8041 43.5351 33.9487C43.5544 34.3198 43.5159 34.6813 43.2364 34.9512C42.9038 35.2742 42.3786 35.279 42.1955 34.7488C42.1232 34.5512 41.7762 34.5656 41.7907 34.8114Z" fill="#9FA156"/>
<path d="M40.6534 32.3677C41.0341 32.5605 41.4822 32.7581 41.8967 32.5412C42.0412 32.4641 42.1713 32.3388 42.2436 32.1894C42.3159 32.0352 42.2099 31.7508 42.2774 31.6399C42.3496 31.5242 42.6677 31.4182 42.7882 31.3122C42.9472 31.1676 43.0821 30.9892 43.1833 30.8013C43.3809 30.435 43.4917 29.9867 43.2797 29.6108C43.2219 29.5047 43.0484 29.5288 43.0195 29.6445C42.9375 29.9578 42.9568 30.2855 42.8074 30.5795C42.6291 30.9266 42.3593 31.0567 42.0605 31.2688C41.9159 31.37 41.887 31.4519 41.8196 31.6062C41.6991 31.8954 42.0653 31.5339 41.622 32.0062C41.516 32.252 41.3473 32.3051 41.1208 32.1701C41.01 32.1315 40.8991 32.0882 40.7931 32.04C40.6052 31.9628 40.4751 32.281 40.6534 32.3677Z" fill="#9FA156"/>
<path d="M39.1161 28.0106C39.4101 28.3672 39.9354 28.4829 40.345 28.2564C40.716 28.0539 41.0148 27.49 40.7498 27.0948C40.6438 26.9309 40.4269 27.008 40.4076 27.1864C40.3787 27.4515 40.3835 27.7214 40.1281 27.8804C39.8775 28.0347 39.5691 27.9383 39.386 27.7358C39.2173 27.5575 38.9619 27.8226 39.1161 28.0106Z" fill="#9FA156"/>
<path d="M32.8419 35.9778C32.4708 36.4646 32.8611 37.2455 33.4924 37.2117C33.6515 37.2021 33.7671 37.1057 33.9165 37.0719C34.5381 36.9177 34.9478 37.2214 35.4489 37.5009C35.8585 37.7323 36.3019 37.8865 36.7018 37.5877C36.803 37.5105 36.7934 37.2937 36.6248 37.3129C35.7573 37.4141 35.3429 36.7586 34.567 36.6044C34.3743 36.5658 34.2201 36.59 34.0321 36.6237C33.8538 36.6526 33.7141 36.7346 33.5213 36.7635C33.2756 36.8936 33.131 36.8261 33.0828 36.5514C32.9238 36.4068 32.8949 36.2477 33.0009 36.0694C33.0443 35.9634 32.9141 35.8863 32.8419 35.9778Z" fill="#9FA156"/>
<path d="M38.6198 35.4959C38.4993 35.8573 38.5909 36.2477 38.8222 36.5466C39.0149 36.7972 39.5161 37.1201 39.8245 36.8984C39.9594 36.802 39.9691 36.6189 39.8245 36.5225C39.7185 36.4502 39.598 36.4598 39.4824 36.4164C39.3812 36.3779 39.2944 36.3152 39.2173 36.2381C39.0438 36.0694 38.9378 35.8429 38.986 35.5971C39.0342 35.3561 38.7017 35.2597 38.6198 35.4959Z" fill="#9FA156"/>
<path d="M46.5759 35.7079C47.1879 35.867 47.9493 36.0019 48.4697 35.5344C48.8504 35.1922 49.0046 34.5656 48.5806 34.1945C48.4167 34.0499 48.2095 34.2282 48.2914 34.4162C48.4264 34.7198 48.1999 35.0958 47.9204 35.2259C47.5541 35.3994 47.0867 35.2934 46.706 35.2259C46.4024 35.1777 46.2627 35.626 46.5759 35.7079Z" fill="#9FA156"/>
<path d="M45.0338 30.8494C45.7856 31.0422 46.653 30.0927 46.0506 29.4421C45.935 29.3119 45.7519 29.4517 45.7808 29.6011C45.8482 29.9529 45.5687 30.5024 45.1543 30.4205C44.87 30.3578 44.7495 30.7723 45.0338 30.8494Z" fill="#9FA156"/>
<path d="M30.9576 28.0973C30.8853 28.3961 30.8371 28.695 30.7841 28.9938C30.76 29.1191 30.8179 29.2155 30.9383 29.2637C31.2998 29.4035 31.8491 29.63 32.2395 29.4951C32.3744 29.4469 32.4178 29.2541 32.2828 29.177C32.1045 29.0758 31.8877 29.0613 31.6901 29.0227C31.4732 28.9794 31.266 28.9167 31.0588 28.8396C31.1118 28.9119 31.1648 28.9794 31.2178 29.0517C31.2082 28.7432 31.2082 28.4347 31.1841 28.1262C31.1697 28.0106 30.9865 27.9672 30.9576 28.0973Z" fill="#9FA156"/>
<path d="M35.2995 26.9261C34.9525 27.2105 35.0682 27.7214 35.3959 27.9817C35.9115 28.3913 36.591 28.0491 36.9717 27.6346C36.8946 27.625 36.8175 27.6153 36.7404 27.6057C37.0777 28.1214 37.8632 28.7239 38.4945 28.3721C38.6005 28.3142 38.5619 28.1745 38.4655 28.1359C38.215 28.0395 37.9499 28.0588 37.6993 27.972C37.4006 27.866 37.1692 27.678 36.9765 27.4274C36.9476 27.3888 36.8753 27.3743 36.8319 27.3888C36.6922 27.4466 36.5572 27.5045 36.4175 27.5623C36.1139 27.6876 35.1694 27.7648 35.5404 27.1093C35.6272 26.955 35.4296 26.8249 35.2995 26.9261Z" fill="#9FA156"/>
<path d="M40.0558 30.4735C40.263 30.7724 40.6245 30.9363 40.9859 30.8447C41.3377 30.7531 41.6461 30.3723 41.5015 30.0012C41.463 29.9 41.3184 29.8614 41.2557 29.9675C41.1642 30.1265 41.0534 30.3289 40.8654 30.4012C40.6775 30.4687 40.4943 30.3723 40.3787 30.2277C40.2293 30.0446 39.9209 30.2807 40.0558 30.4735Z" fill="#9FA156"/>
<path d="M30.9721 30.9121C31.0444 31.2206 31.3094 31.452 31.5937 31.5724C31.8588 31.6833 32.278 31.7508 32.4612 31.4712C32.519 31.3845 32.4612 31.2688 32.3696 31.2399C32.1768 31.1772 31.9648 31.264 31.7624 31.2062C31.5311 31.1435 31.3769 30.9893 31.2371 30.8013C31.1456 30.6712 30.9287 30.7435 30.9721 30.9121Z" fill="#9FA156"/>
<path d="M29.6035 35.2934C29.5698 35.8718 30.2878 36.5129 30.8372 36.1465C30.9769 36.055 30.9432 35.7802 30.7456 35.8043C30.3986 35.8381 29.9649 35.7224 29.9553 35.2982C29.9505 35.0621 29.618 35.0669 29.6035 35.2934Z" fill="#9FA156"/>
<path d="M41.1497 37.6889C41.1883 38.1516 41.4244 38.6239 41.8919 38.7926C42.3979 38.9758 42.4701 38.6191 42.5762 38.2432C42.793 37.4672 44.3495 38.0648 44.4315 37.0526C44.4411 36.9177 44.2532 36.8502 44.1664 36.9418C43.7665 37.3804 43.1978 37.3563 42.6822 37.5732C42.4991 37.6503 42.3304 37.7371 42.2196 37.9058C42.1714 37.9781 42.1376 38.2335 42.0943 38.2673C41.8726 38.4601 41.5931 37.7708 41.5594 37.6358C41.5015 37.4141 41.1305 37.4527 41.1497 37.6889Z" fill="#9FA156"/>
<path d="M42.2244 27.6539C42.6147 28.1552 43.7135 28.213 43.858 27.4708C43.887 27.3262 43.7376 27.1767 43.593 27.2683C43.2701 27.4756 42.8412 27.6877 42.5135 27.3599C42.3208 27.1671 42.0606 27.4467 42.2244 27.6539Z" fill="#9FA156"/>
<path d="M38.003 37.3997C37.9018 37.7756 38.1234 38.1275 38.4511 38.301C38.7692 38.4745 39.2607 38.5034 39.4101 38.1082C39.4487 38.0118 39.3523 37.9009 39.2559 37.9058C39.0583 37.9106 38.8704 37.9829 38.6824 37.9058C38.4945 37.8287 38.3403 37.6503 38.321 37.4431C38.3066 37.2695 38.056 37.2117 38.003 37.3997Z" fill="#9FA156"/>
<path d="M38.668 33.457C38.7403 33.6594 38.8945 33.751 39.0776 33.8474C39.2655 33.9486 39.439 34.0065 39.6559 33.9631C39.8052 33.9342 39.8486 33.7558 39.786 33.6402C39.6944 33.4618 39.5402 33.3702 39.3619 33.2931C39.1836 33.216 39.0149 33.1293 38.8174 33.1967C38.7113 33.2305 38.6246 33.3413 38.668 33.457Z" fill="#9FA156"/>
<path d="M35.4826 25.9091C35.6031 25.8947 35.7188 25.8899 35.8344 25.9043C35.9742 25.9236 36.1188 25.9863 36.2633 25.9718C36.5766 25.9381 36.7211 25.6151 36.5139 25.3693C36.2585 25.0657 35.7284 25.1042 35.3814 25.1813C35.2031 25.2247 35.0923 25.4127 35.1164 25.5862C35.1405 25.7501 35.2947 25.9332 35.4826 25.9091Z" fill="white"/>
<path d="M37.9885 26.1164C38.1475 26.1212 38.3066 26.126 38.4656 26.1308C38.9282 26.1453 38.933 25.3934 38.4656 25.4079C38.3066 25.4127 38.1475 25.4175 37.9885 25.4223C37.5452 25.4416 37.5452 26.0971 37.9885 26.1164Z" fill="white"/>
<path d="M40.2583 26.2176C40.5474 26.2224 40.8462 26.2658 41.0341 25.9959C41.0726 25.938 41.0726 25.8464 41.0341 25.7886C40.851 25.5187 40.5474 25.5572 40.2583 25.5669C39.839 25.5717 39.8342 26.2079 40.2583 26.2176Z" fill="white"/>
<path d="M44.7977 27.9817C45.1929 27.9383 45.5591 28.1311 45.8868 28.3335C46.0314 28.4203 46.2386 28.2757 46.1808 28.107C45.9735 27.4804 45.3182 27.2925 44.7158 27.3985C44.3929 27.4563 44.4652 28.0202 44.7977 27.9817Z" fill="white"/>
<path d="M46.5518 29.7457C46.6626 29.8855 46.7639 29.9915 46.9084 30.0927C47.1397 30.2518 47.3952 29.9867 47.347 29.7553C47.3084 29.5818 47.2361 29.4372 47.1542 29.283C47.0482 29.0806 46.7639 29.042 46.5904 29.177C46.3976 29.3264 46.4121 29.5674 46.5518 29.7457Z" fill="white"/>
<path d="M47.8336 32.3051C48.224 32.5894 48.6288 32.1846 48.3445 31.7942C48.2047 31.6014 47.9397 31.5387 47.7565 31.717C47.5782 31.9002 47.6409 32.1653 47.8336 32.3051Z" fill="white"/>
<path d="M7.86038 37.2985C11.3575 37.2985 14.1925 34.6766 14.1925 31.4423C14.1925 28.2081 11.3575 25.5862 7.86038 25.5862C4.36325 25.5862 1.52826 28.2081 1.52826 31.4423C1.52826 34.6766 4.36325 37.2985 7.86038 37.2985Z" fill="#E04436"/>
<path d="M5.79302 24.6848C5.21474 24.6848 4.58346 24.8294 4.22686 25.2825C4.06783 25.4849 3.98109 25.7307 3.8558 25.9573C3.46546 26.6706 2.69923 27.1671 1.88483 27.2249C2.48238 27.9961 3.51365 28.3672 4.48226 28.2804C5.45569 28.1937 6.36166 27.6924 7.05559 27.008C6.50623 27.4755 6.43876 28.3335 6.71826 28.9986C6.99776 29.6637 7.54713 30.1698 8.11095 30.6181C8.55429 30.1506 9.00246 29.6782 9.30123 29.1095C9.60001 28.5407 9.73494 27.8515 9.51327 27.249C9.62892 28.1503 10.4722 28.854 11.3734 28.9601C12.2745 29.0709 13.1853 28.6612 13.8407 28.0346C13.2528 28.1117 12.7275 27.6394 12.4384 27.1237C12.1493 26.608 12.0047 26.0103 11.6577 25.5331C11.3059 25.0415 10.7373 24.6993 10.1349 24.6655C9.53255 24.6318 8.90608 24.9306 8.59767 25.4512C7.95193 24.6222 6.7279 24.6848 5.79302 24.6848Z" fill="#425831"/>
<path d="M8.69888 26.5646C9.10367 25.8464 9.22897 25.0319 9.03139 24.227C8.86754 23.5763 8.42419 22.6219 7.68688 22.5063C7.49894 22.4773 7.36401 22.6412 7.44593 22.8196C7.69652 23.3642 8.17842 23.6968 8.36154 24.3089C8.55912 24.9692 8.50612 25.6536 8.19289 26.2658C8.0194 26.6032 8.51094 26.8972 8.69888 26.5646Z" fill="#425831"/>
<path d="M11.8264 29.5963C11.8264 29.8181 11.836 30.0253 11.8649 30.2422C11.8987 30.4736 11.9661 30.6182 12.1541 30.7579C12.2649 30.8447 12.4191 30.7676 12.4866 30.6712C12.7227 30.3386 12.5396 29.8662 12.4287 29.5144C12.3275 29.1915 11.8312 29.2445 11.8264 29.5963Z" fill="white"/>
<path d="M11.6481 32.4641C11.6481 32.6521 11.6433 32.8352 11.6481 33.0232C11.6529 33.2497 11.6963 33.404 11.8842 33.5438C11.9565 33.5968 12.0962 33.5968 12.1685 33.5438C12.3565 33.404 12.3998 33.2497 12.4047 33.0232C12.4095 32.8352 12.4047 32.6521 12.4047 32.4641C12.4047 31.9773 11.6481 31.9773 11.6481 32.4641Z" fill="white"/>
<path d="M26.476 0.166162C25.97 0.344497 25.6134 0.807198 25.3773 1.28918C24.7701 2.51825 24.7364 3.94493 24.3942 5.27521C23.8786 7.2851 22.6738 9.04435 21.9028 10.9723C21.4836 12.023 21.1944 13.1605 21.3824 14.2739C21.5703 15.3873 22.3317 16.4573 23.4256 16.7417C24.3027 16.9682 25.2568 16.6549 25.9652 16.0958C26.6736 15.5367 27.17 14.7463 27.5747 13.9317C28.8566 11.3386 29.2759 8.41295 29.6807 5.54995C29.9312 3.75214 29.6228 -0.937589 26.476 0.166162Z" fill="#354726"/>
<path d="M27.4013 3.02436C27.5892 3.56901 27.5651 4.11847 27.6326 4.68239C27.6663 4.98122 28.1048 5.01496 28.206 4.74505C28.4518 4.09437 28.2976 3.37139 28.0566 2.74C27.888 2.30621 27.2519 2.5954 27.4013 3.02436Z" fill="white"/>
<path d="M27.1025 6.10905C27.0302 6.28256 26.9579 6.45126 26.8856 6.62478C26.794 6.84167 26.7314 7.00554 26.8808 7.21761C26.9434 7.30437 27.0784 7.3574 27.1796 7.3333C27.4302 7.27546 27.4976 7.11641 27.5747 6.89469C27.6374 6.72118 27.7 6.54284 27.7627 6.36933C27.9265 5.93554 27.2808 5.6849 27.1025 6.10905Z" fill="white"/>
<path d="M26.1435 9.23233C26.6109 9.41549 26.8953 8.68768 26.4278 8.50453C25.9604 8.32138 25.6761 9.04918 26.1435 9.23233Z" fill="white"/>
<path d="M28.6301 17.1514C28.8855 16.573 29.112 15.8018 28.6397 15.3777C28.3458 15.4452 28.047 15.5078 27.753 15.5753C27.6518 12.2448 26.3411 8.96244 24.1195 6.47539C23.9268 6.61516 23.734 6.75976 23.5412 6.89954C22.5678 5.68493 21.5077 4.5378 20.3704 3.47261C19.9897 3.11593 19.556 2.74963 19.0307 2.72553C18.5103 2.70143 17.9561 3.22679 18.1585 3.70877C17.2043 2.8894 16.096 2.25318 14.9153 1.82903C14.6069 1.71817 14.2021 1.6507 14.0093 1.91097C13.86 2.11341 13.9274 2.39778 14.0045 2.63395C14.3178 3.63649 14.6358 4.63901 14.9491 5.64155C14.1395 5.95966 12.901 5.7283 12.66 6.56214C12.4143 7.42972 13.7684 8.00327 13.8118 8.90459C13.831 9.35284 13.513 9.74807 13.4407 10.1915C13.2961 11.0543 14.0961 11.7917 14.9009 12.1291C15.7056 12.4665 16.6212 12.6159 17.2814 13.1943C17.4645 13.3582 17.6332 13.5654 17.6573 13.8112C17.7055 14.2932 17.214 14.6547 17.1128 15.127C16.9778 15.7343 17.5079 16.2694 17.985 16.6694C19.1994 17.6816 20.4089 18.6937 21.6233 19.7059C21.4546 19.7734 21.3438 19.9614 21.3679 20.1445C21.3872 20.2939 21.4836 20.4193 21.5799 20.5398C22.2112 21.3302 22.8377 22.1255 23.469 22.9159C24.2159 23.851 24.958 24.7909 25.705 25.7259C26.2688 24.4053 26.2158 22.9979 26.6447 21.6772C27.1266 20.1301 27.9747 18.6311 28.6301 17.1514Z" fill="#C6C93B"/>
<path d="M16.0189 4.6342C18.1971 7.31886 20.1391 10.1867 21.7534 13.2473C23.2907 16.1537 24.2015 19.2529 25.5122 22.246C25.5942 22.434 25.864 22.3087 25.8303 22.1255C25.2376 18.8962 23.5654 15.6042 22.0185 12.7364C20.4041 9.74808 18.4862 6.9622 16.2984 4.36911C16.1393 4.17632 15.8647 4.4414 16.0189 4.6342Z" fill="#847D00"/>
<path d="M20.4089 5.32829C20.0427 5.60784 19.8499 5.9645 19.8885 6.43685C19.9511 7.16947 20.8426 7.46831 20.8619 8.17683C20.8667 8.413 20.7077 8.68773 20.7077 8.94319C20.7029 9.21792 20.7704 9.49264 20.8523 9.7481C21.0306 10.2927 21.3535 10.8037 21.7342 11.2278C21.8594 11.3676 22.0859 11.1989 21.9992 11.0398C21.8016 10.6832 21.5559 10.3506 21.3776 9.98428C21.0402 9.29986 21.1125 8.88534 21.18 8.15272C21.2571 7.31407 19.8114 6.38383 20.6981 5.62229C20.8957 5.4536 20.6161 5.16923 20.4089 5.32829Z" fill="#847D00"/>
<path d="M23.3196 8.16234C22.9437 8.30694 22.7124 8.62022 22.7028 9.03955C22.6931 9.67095 23.2184 9.88785 23.4931 10.3457C23.8352 10.9193 23.4642 11.9845 23.5365 12.6496C23.6039 13.2618 23.7678 13.8353 24.1195 14.3462C24.2207 14.4908 24.5051 14.4282 24.4376 14.2257C24.0714 13.0497 23.9798 12.1725 24.1436 10.9434C24.1822 10.6735 24.2063 10.5144 24.0906 10.2493C23.9268 9.87821 22.7606 9.001 23.5268 8.56721C23.7918 8.41779 23.5846 8.06112 23.3196 8.16234Z" fill="#847D00"/>
<path d="M25.2616 13.281C25.2857 13.9944 25.3436 14.7029 25.4207 15.4114C25.4978 16.1537 25.4881 17.0309 25.7484 17.725C25.7966 17.8599 26.0423 17.9226 26.0712 17.7346C26.1869 17.0165 26.0182 16.2212 25.9556 15.4934C25.8881 14.7366 25.8062 13.9847 25.6809 13.2377C25.6472 13.0015 25.2568 13.04 25.2616 13.281Z" fill="#847D00"/>
<path d="M15.1611 8.02261C15.349 8.45158 15.5466 8.90947 15.9128 9.21794C16.3803 9.60835 17.0694 9.54087 17.4645 10.0566C17.8886 10.6061 17.8163 11.4977 18.6211 11.6664C18.7705 11.6954 18.9391 11.5026 18.7946 11.3821C18.2115 10.8856 18.2115 10.1193 17.7055 9.58907C17.5561 9.43001 17.3826 9.3288 17.1802 9.24686C16.7754 9.07817 16.6212 9.08298 16.2357 8.76968C15.8213 8.42747 15.7394 8.29252 15.5273 7.82981C15.4165 7.57918 15.0503 7.77679 15.1611 8.02261Z" fill="#847D00"/>
<path d="M18.7512 12.7268C18.9825 13.3341 19.4403 13.5847 19.9463 13.9462C20.6884 14.4764 21.1366 15.1656 21.792 15.7633C21.8787 15.8452 22.0666 15.7777 22.0184 15.6428C21.8209 15.0499 21.3583 14.592 20.8908 14.1872C20.274 13.6522 19.3295 13.3823 18.9777 12.6014C18.9102 12.4472 18.6934 12.5773 18.7512 12.7268Z" fill="#847D00"/>
<path d="M19.821 16.4284C20.1583 17.055 20.4716 17.8166 21.1655 18.0527C21.2089 18.0479 21.2523 18.0431 21.2908 18.0286C21.7245 17.913 22.1197 18.0865 22.4763 18.5492C22.6208 18.7468 22.6739 19.0215 22.7702 19.2432C22.9485 19.6578 23.0835 19.9036 23.4738 20.1253C23.5605 20.1783 23.6617 20.0578 23.5895 19.9807C22.9967 19.3782 22.8859 18.2022 22.1004 17.7876C21.8305 17.6479 21.5462 17.672 21.2715 17.537C20.7896 17.3008 20.4812 16.6212 20.1343 16.1923C19.9945 16.0236 19.715 16.2356 19.821 16.4284Z" fill="#847D00"/>
<path d="M24.2256 8.57685C24.2208 8.74555 24.2015 8.89979 24.187 9.06366C24.1629 9.30466 24.2786 9.52155 24.5388 9.54083C24.6689 9.55047 24.7942 9.47335 24.8665 9.3625C25.0544 9.0733 25.0062 8.61541 24.7364 8.38406C24.5484 8.22982 24.2352 8.30212 24.2256 8.57685Z" fill="white"/>
<path d="M24.8086 10.3747C24.8472 10.5241 24.8857 10.6783 24.9291 10.8277C24.9869 11.0157 25.1652 11.1507 25.3676 11.1025C25.5508 11.0591 25.7002 10.8518 25.6423 10.6639C25.599 10.5144 25.546 10.365 25.4929 10.2204C25.4303 10.0421 25.2664 9.91198 25.0689 9.95536C24.8906 9.99391 24.7604 10.1867 24.8086 10.3747Z" fill="white"/>
<path d="M25.8496 12.5051C26.129 12.6063 26.37 12.3798 26.2833 12.0954C26.211 11.8496 25.9122 11.7339 25.7098 11.9219C25.5074 12.1147 25.6086 12.4183 25.8496 12.5051Z" fill="white"/>
<path d="M16.9875 4.10885C17.0453 4.26791 17.0839 4.44141 17.214 4.55227C17.32 4.64384 17.4742 4.68722 17.5947 4.60047C17.9127 4.37394 17.5706 4.00281 17.4115 3.8052C17.3296 3.70398 17.1658 3.70399 17.0646 3.77628C16.9538 3.8534 16.9393 3.98354 16.9875 4.10885Z" fill="white"/>
<path d="M18.4187 5.81025C18.4332 5.82471 18.4476 5.83917 18.4573 5.85363C18.7898 6.21513 19.3584 5.68011 19.0163 5.32826C19.0018 5.3138 18.9874 5.29934 18.9729 5.28488C18.6308 4.93302 18.0814 5.44876 18.4187 5.81025Z" fill="white"/>
<path d="M39.4872 7.9406C38.9668 8.08038 38.5812 8.51417 38.3066 8.9817C37.6078 10.1626 37.4632 11.5796 37.0247 12.881C36.3597 14.8475 35.0249 16.5103 34.1092 18.3708C33.6129 19.383 33.237 20.5012 33.343 21.6242C33.449 22.7473 34.1237 23.8751 35.1935 24.2366C36.0513 24.5306 37.0247 24.2896 37.7765 23.7835C38.5282 23.2774 39.0824 22.5304 39.545 21.7495C41.0196 19.2577 41.6606 16.3754 42.2774 13.5509C42.6629 11.7772 42.7063 7.07785 39.4872 7.9406Z" fill="#547C32"/>
<path d="M40.1908 10.8615C40.3353 11.4158 40.2727 11.9652 40.292 12.5291C40.3016 12.828 40.7353 12.8954 40.8558 12.6352C41.1498 12.0086 41.0486 11.2712 40.8606 10.6253C40.7353 10.1819 40.0751 10.4229 40.1908 10.8615Z" fill="white"/>
<path d="M39.6655 13.9172C39.5788 14.0811 39.4968 14.2498 39.4101 14.4137C39.3041 14.6258 39.2318 14.78 39.3619 15.0065C39.4149 15.0981 39.545 15.1608 39.651 15.1463C39.9064 15.1077 39.9835 14.9535 40.0799 14.7366C40.157 14.5679 40.2341 14.3992 40.3064 14.2257C40.4943 13.8064 39.8727 13.5075 39.6655 13.9172Z" fill="white"/>
<path d="M38.4704 16.9586C38.9234 17.1755 39.2607 16.4717 38.8077 16.2548C38.3547 16.0331 38.0174 16.7417 38.4704 16.9586Z" fill="white"/>
<path d="M1.54753 9.53118C1.42706 10.0565 1.62463 10.6012 1.90413 11.0639C2.61734 12.2399 3.79798 13.0352 4.73286 14.0378C6.14963 15.556 6.98331 17.5129 8.19769 19.1998C8.85789 20.1156 9.66266 20.9736 10.7036 21.4122C11.7444 21.8508 13.0552 21.7833 13.8792 21.0169C14.5394 20.4 14.79 19.4264 14.6985 18.5251C14.6069 17.6237 14.2069 16.7803 13.7395 16.0043C12.2408 13.5269 10.0048 11.6037 7.80253 9.72397C6.42913 8.5431 2.30893 6.28741 1.54753 9.53118Z" fill="#547C32"/>
<path d="M4.45815 10.2879C5.01715 10.4228 5.47012 10.7361 5.97611 10.9868C6.24597 11.1169 6.50619 10.7699 6.33753 10.5385C5.9231 9.98423 5.22435 9.72395 4.56898 9.58417C4.11118 9.48778 4.01481 10.1867 4.45815 10.2879Z" fill="white"/>
<path d="M6.89658 12.1966C7.00259 12.3508 7.1086 12.5002 7.21462 12.6545C7.34955 12.8472 7.45076 12.987 7.71099 12.9774C7.81701 12.9726 7.93265 12.8858 7.9712 12.7846C8.05794 12.5388 7.95675 12.399 7.81218 12.211C7.69653 12.0616 7.58569 11.917 7.47004 11.7676C7.19054 11.4109 6.63635 11.8206 6.89658 12.1966Z" fill="white"/>
<path d="M9.01209 14.6836C9.41689 14.3848 8.95427 13.7534 8.54948 14.0522C8.14468 14.3511 8.6073 14.9825 9.01209 14.6836Z" fill="white"/>
<path d="M27.8735 10.8373C27.806 8.90455 28.7313 6.96697 30.2733 5.80056C30.4516 6.53319 30.6251 7.26098 30.8034 7.9936C31.5359 5.69934 33.0539 3.66054 35.0441 2.30133C34.9863 3.30386 34.9285 4.30639 34.8706 5.30893C35.9308 4.14252 37.1645 3.13999 38.5234 2.34471C38.4993 4.04612 38.0608 5.74272 37.2608 7.2417C38.0078 6.72116 38.8848 6.38376 39.786 6.2729C39.5547 7.46341 39.1306 8.61537 38.5331 9.67092C39.3282 9.48777 40.1522 9.4492 40.9618 9.56006C40.2679 11.5892 38.7692 13.3292 36.8609 14.3076C38.2006 14.1052 39.545 13.8979 40.8847 13.6955C39.6221 15.5994 37.9837 17.2526 36.085 18.525C37.0392 18.3226 38.0319 18.2889 39.0005 18.4286C37.3187 20.0433 35.4489 21.4603 33.4346 22.6316C34.2104 22.3954 35.0441 22.3616 35.8344 22.5207C34.0273 24.1836 31.8588 25.9669 29.43 25.6006C26.8278 25.2054 25.2761 22.5593 24.1244 20.1927C22.804 17.4839 21.4884 14.3607 22.5967 11.5603C23.0931 12.2544 24.452 15.0162 25.252 15.233C25.864 15.3969 25.9122 14.9294 25.6953 14.3799C24.7123 11.8495 24.9484 9.82515 26.3989 7.71887C27.0013 8.40329 27.8687 9.87817 27.8735 10.8373Z" fill="#B9C175"/>
<path d="M28.0325 12.9388C28.3313 14.057 28.5434 15.1945 28.7313 16.3416C28.7699 16.573 29.0879 16.5392 29.0927 16.3079C29.1072 15.0933 28.9 13.9124 28.5385 12.7556C28.4325 12.4182 27.941 12.611 28.0325 12.9388Z" fill="#A9AD55"/>
<path d="M30.177 9.85406C29.9457 11.7579 29.8782 13.7871 30.4083 15.6476C30.4806 15.9126 30.8805 15.8018 30.8612 15.5463C30.7408 13.6569 30.5384 11.8399 30.707 9.94083C30.7408 9.59862 30.2203 9.50703 30.177 9.85406Z" fill="#A9AD55"/>
<path d="M33.4972 6.05604C32.7214 7.81047 32.4322 9.6372 32.7888 11.5314C32.837 11.7869 33.2177 11.7628 33.1985 11.4929C33.0587 9.71914 33.2611 7.90204 33.9117 6.24401C34.0177 5.9741 33.6177 5.79095 33.4972 6.05604Z" fill="#A9AD55"/>
<path d="M35.5549 5.81021C34.8225 7.63212 34.1381 9.47332 33.584 11.3531C33.5213 11.57 33.8731 11.6712 33.9598 11.4639C34.7164 9.67576 35.3573 7.82974 35.9404 5.97891C36.0175 5.73309 35.6609 5.55476 35.5549 5.81021Z" fill="#A9AD55"/>
<path d="M36.7115 7.93095C35.9067 10.9867 34.1333 13.575 32.4322 16.1922C32.3166 16.3705 32.5624 16.5826 32.6925 16.4043C34.6152 13.8257 36.3597 11.1651 37.1404 8.00324C37.2078 7.72851 36.7838 7.66103 36.7115 7.93095Z" fill="#A9AD55"/>
<path d="M36.7886 12.0857C35.7573 14.1631 34.6297 16.1826 33.5743 18.2455C33.4731 18.4431 33.7815 18.6359 33.9068 18.4527C35.2128 16.5152 36.2537 14.4089 37.1789 12.264C37.2849 12.0086 36.909 11.8399 36.7886 12.0857Z" fill="#A9AD55"/>
<path d="M24.5822 17.161C25.1364 18.2648 25.546 19.4505 26.1483 20.5253C26.2688 20.7374 26.5531 20.5398 26.5001 20.3373C26.1965 19.1565 25.5363 18.0286 24.9581 16.9586C24.8424 16.7562 24.4762 16.949 24.5822 17.161Z" fill="#A9AD55"/>
<path d="M26.8615 16.2645C27.353 17.9322 27.9458 19.5902 28.9144 21.041C29.0011 21.1712 29.2131 21.0603 29.1553 20.9109C28.5144 19.3107 27.7867 17.7635 27.2759 16.1103C27.194 15.8355 26.7796 15.9898 26.8615 16.2645Z" fill="#A9AD55"/>
<path d="M29.8541 23.9667C30.9287 23.3401 32.1142 22.4918 32.7937 21.4218C32.9141 21.2338 32.6877 21.0507 32.5238 21.2049C31.5841 22.1062 30.7649 22.9882 29.6324 23.663C29.4252 23.7835 29.642 24.092 29.8541 23.9667Z" fill="#A9AD55"/>
<path d="M30.5047 20.6506C31.136 19.8119 31.7624 18.9829 32.3214 18.0912C32.4467 17.8888 32.1913 17.6671 32.0275 17.855C31.3335 18.6455 30.7215 19.4793 30.0999 20.3276C29.8975 20.5927 30.3023 20.9205 30.5047 20.6506Z" fill="#A9AD55"/>
<path d="M29.4252 17.2526C29.5553 18.0141 29.6565 18.7853 29.9119 19.5131C30.0035 19.7734 30.3745 19.6673 30.3649 19.4119C30.3504 18.66 30.1721 17.9322 30.0324 17.1947C29.9649 16.814 29.3577 16.8622 29.4252 17.2526Z" fill="#A9AD55"/>
<path d="M26.2399 9.64687C26.5242 10.9675 26.5965 12.293 26.8326 13.6136C26.8663 13.7919 27.1555 13.8353 27.1747 13.628C27.3 12.3026 26.9483 10.8374 26.5242 9.58421C26.476 9.42997 26.2061 9.48299 26.2399 9.64687Z" fill="#A9AD55"/>
<path d="M29.271 8.35511C28.7939 9.39139 28.5289 10.4566 28.6108 11.6037C28.6253 11.7965 28.9289 11.811 28.9529 11.6182C29.0734 10.5723 29.271 9.51669 29.6758 8.54308C29.7866 8.27316 29.3867 8.09484 29.271 8.35511Z" fill="#A9AD55"/>
<path d="M35.2947 17.9226C36.244 17.4551 36.8368 16.7513 37.3621 15.8693C37.444 15.7295 37.2271 15.6091 37.1259 15.7247C36.5428 16.4091 35.7862 16.9682 35.0778 17.5177C34.8851 17.6671 35.0489 18.0431 35.2947 17.9226Z" fill="#A9AD55"/>
<path d="M34.0707 21.0362C34.6394 20.6554 35.2562 20.3084 35.7477 19.8312C35.8393 19.7444 35.714 19.5709 35.6031 19.6288C34.9911 19.942 34.4611 20.4096 33.9213 20.8289C33.7864 20.9253 33.931 21.1277 34.0707 21.0362Z" fill="#A9AD55"/>
<path d="M37.3139 9.98421C37.2175 10.177 37.1452 10.3698 37.0778 10.577C37.0199 10.7602 37.232 11.0253 37.4151 10.8566C37.5934 10.6927 37.7524 10.5385 37.9018 10.3505C38.2102 9.95528 37.5452 9.52151 37.3139 9.98421Z" fill="white"/>
<path d="M37.5886 11.4639C37.5115 11.6663 37.4343 11.8447 37.4729 12.0664C37.5115 12.3074 37.8006 12.4905 38.0175 12.317C38.1958 12.1724 38.268 12.0133 38.35 11.8061C38.4319 11.5988 38.35 11.353 38.1428 11.2566C37.9452 11.1699 37.6657 11.2518 37.5886 11.4639Z" fill="white"/>
<path d="M37.5163 8.58161C37.8054 8.98648 38.4367 8.53824 38.1427 8.13337C37.8584 7.7285 37.2271 8.17674 37.5163 8.58161Z" fill="white"/>
<path d="M31.454 10.1336C31.6853 10.4566 32.1865 10.0999 31.9552 9.77698C31.7239 9.45406 31.2227 9.81072 31.454 10.1336Z" fill="white"/>
<path d="M31.5263 11.7676C31.5118 11.8013 31.507 11.8399 31.507 11.8784C31.454 12.4278 32.2202 12.5532 32.3503 12.0182C32.3648 11.9796 32.3696 11.9459 32.3648 11.9073C32.3889 11.3579 31.6853 11.2374 31.5263 11.7676Z" fill="white"/>
<path d="M31.9359 13.7196C31.8829 13.9703 31.8781 14.3462 32.2058 14.3992C32.5335 14.4522 32.6539 14.0956 32.6828 13.8401C32.7359 13.3581 32.0419 13.2425 31.9359 13.7196Z" fill="white"/>
<path d="M42.5521 14.486C41.1497 15.8066 39.8149 17.2381 38.9186 18.9395C38.0222 20.6457 37.603 22.6605 38.1042 24.5209C38.6053 26.3814 40.1474 28.0057 42.0509 28.2852C44.1953 28.5985 46.4361 26.9646 46.8024 24.8294C46.9277 24.0823 46.8554 23.3208 46.9229 22.5689C47.0433 21.2241 47.6216 19.9613 48.2529 18.7708C49.0625 17.2429 49.9877 15.7729 51.0142 14.3799C51.5635 13.628 52.1563 12.8858 52.4743 12.0134C53.3417 9.64198 51.2166 7.74777 49.1299 9.12626C46.8168 10.6493 44.5712 12.5821 42.5521 14.486Z" fill="#893385"/>
<path d="M48.7589 9.36245C49.1637 9.72876 49.7275 9.96494 50.2576 9.8348C50.0118 10.2927 49.713 10.7168 49.3661 11.1024C49.5492 11.5266 50.0359 11.7531 50.4985 11.7435C50.9611 11.7338 51.39 11.5266 51.7804 11.2759C51.5201 12.399 52.5369 13.628 53.6887 13.5847C53.4526 13.1991 53.5152 12.6978 53.6598 12.2737C53.8043 11.8447 54.026 11.435 54.0887 10.9916C54.2911 9.59381 53.067 8.74069 51.8141 8.78889C51.8093 6.11386 49.101 7.9647 47.8722 8.07073C48.0698 8.54308 48.3782 9.01542 48.7589 9.36245Z" fill="#425831"/>
<path d="M51.8382 9.51666C52.9803 8.98648 53.9923 7.37665 53.5345 6.12349C53.4622 5.9307 53.1537 5.96444 53.1007 6.15241C52.9514 6.67777 52.908 7.22724 52.667 7.72368C52.3972 8.27796 51.9827 8.63944 51.5057 9.01057C51.2262 9.22264 51.5298 9.65644 51.8382 9.51666Z" fill="#425831"/>
<path d="M46.8939 12.8617C45.8916 13.2858 44.6146 14.0329 44.2098 15.0981C44.1134 15.3439 44.417 15.6379 44.658 15.4933C45.0917 15.233 45.3953 14.8571 45.776 14.5293C46.2193 14.1437 46.706 13.8112 47.2024 13.5075C47.5879 13.2714 47.3228 12.6785 46.8939 12.8617Z" fill="white"/>
<path d="M42.6436 16.679C42.5472 16.7851 42.446 16.8863 42.3834 17.0164C42.3304 17.1273 42.287 17.2429 42.2388 17.3586C42.1135 17.6623 42.5087 17.8551 42.7304 17.6864C42.9328 17.5321 43.087 17.402 43.2267 17.1899C43.3327 17.0309 43.3038 16.8092 43.1544 16.6839C43.0195 16.5682 42.7737 16.5344 42.6436 16.679Z" fill="white"/>
<path d="M40.8413 20.2216C40.8558 20.4771 40.8654 20.7663 41.1305 20.8867C41.2028 20.9205 41.2943 20.8916 41.3522 20.8434C41.5497 20.6891 41.4919 20.3999 41.4485 20.1879C41.3811 19.8553 40.8269 19.8601 40.8413 20.2216Z" fill="white"/>
<path d="M3.62932 17.2622C2.24627 18.3178 1.75473 20.3903 2.51612 21.9519C2.7137 22.3568 2.9932 22.7761 2.92574 23.2196C2.88237 23.4847 2.71852 23.7257 2.7137 23.9956C2.70406 24.5113 3.25342 24.839 3.72086 25.0559C5.38822 25.8078 7.07487 26.5694 8.86752 26.9309C10.3759 27.2345 11.9227 27.2442 13.46 27.2538C14.4286 27.2586 15.4069 27.2634 16.3369 26.9983C17.1417 26.767 17.8742 26.3332 18.6404 25.9958C19.662 25.5476 20.7559 25.2584 21.739 24.7234C22.722 24.1884 23.6184 23.3449 23.84 22.246C23.5557 21.2001 23.5316 20.0867 23.7726 19.0263C23.8738 18.5829 24.0087 18.0912 23.7774 17.7056C23.5172 17.2719 22.9244 17.1947 22.5148 16.8959C21.6619 16.2693 21.7631 14.8186 20.8764 14.2354C20.3993 13.9221 19.7584 13.9558 19.2765 13.6473C18.9536 13.4401 18.7416 13.0979 18.4621 12.8328C17.8645 12.264 17.0067 12.0857 16.1972 11.9314C14.7081 11.6471 13.1757 11.3627 11.6866 11.6326C10.9011 11.7724 9.79277 11.1265 8.83861 11.3C7.73025 11.5025 6.96403 12.0423 6.12071 12.7412C4.78104 13.8642 2.68962 15.1029 3.62932 17.2622Z" fill="#DFD79D"/>
<path d="M8.3519 15.3777C7.82663 15.6524 7.64351 16.279 7.87 16.8236C7.99529 17.1225 8.23624 17.3297 8.52537 17.4743C8.92535 17.6719 9.25787 17.5563 9.65303 17.6478C9.96144 17.7201 9.90361 17.725 10.053 18.0382C10.1301 18.1973 10.1879 18.3612 10.2939 18.5058C10.5012 18.7998 10.8096 19.0456 11.171 19.1083C11.7493 19.2095 12.3709 18.901 12.3805 18.2792C12.3854 18.072 12.1252 17.9708 11.9806 18.1105C11.3975 18.6793 10.8867 18.2792 10.6361 17.643C10.5397 17.3924 10.4915 17.1707 10.2361 17.0405C10.0048 16.92 9.79278 16.9779 9.54701 16.9923C9.29642 17.0068 8.98318 17.002 8.75669 16.8718C8.39045 16.6694 8.13505 16.1103 8.61213 15.8066C8.87717 15.6428 8.63622 15.2283 8.3519 15.3777Z" fill="#9FA156"/>
<path d="M4.77622 19.2818C4.55936 19.9469 5.00754 20.4289 5.66292 20.5398C6.23156 20.6362 6.20264 20.5783 6.63635 20.882C6.91103 21.0699 7.10379 21.2483 7.45076 21.3061C8.0194 21.4025 8.38564 21.2868 8.93019 21.5664C9.26751 21.7399 9.51328 21.9905 9.91807 22.005C10.5108 22.0291 11.0312 21.658 10.9493 21.0362C10.9349 20.9157 10.7421 20.8097 10.6795 20.9639C10.2024 22.0773 9.32533 21.1326 8.66513 20.9109C7.94711 20.6699 7.07969 21.1712 6.64598 20.1975C6.62189 20.1445 6.54479 20.1012 6.48696 20.106C5.88941 20.2216 5.4075 19.9565 5.04608 19.3155C5.06053 19.1565 4.8244 19.1372 4.77622 19.2818Z" fill="#9FA156"/>
<path d="M15.6622 21.7447C15.7056 22.3809 16.3273 22.752 16.9393 22.6219C17.7681 22.4484 17.985 21.5519 17.8741 20.8241C17.7778 20.9205 17.6766 21.0217 17.5802 21.1181C18.2645 21.388 19.1319 21.4651 19.6668 20.8578C20.033 20.4433 20.1294 19.8071 19.7487 19.3878C19.6138 19.2432 19.3487 19.3926 19.4114 19.5854C19.8017 20.7614 18.5825 20.9976 17.7103 20.6506C17.5657 20.5927 17.3971 20.7373 17.4067 20.8819C17.426 21.253 17.3874 21.6145 17.1079 21.8845C16.7754 22.2074 16.2502 22.2122 16.067 21.682C15.9899 21.4892 15.643 21.5037 15.6622 21.7447Z" fill="#9FA156"/>
<path d="M14.525 19.3058C14.9057 19.4986 15.3538 19.6962 15.7682 19.4793C15.9128 19.4022 16.0429 19.2769 16.1152 19.1275C16.1875 18.9733 16.0815 18.6889 16.149 18.578C16.2212 18.4624 16.5393 18.3563 16.6598 18.2503C16.8188 18.1057 16.9537 17.9274 17.0549 17.7394C17.2525 17.3731 17.3633 16.9248 17.1513 16.5489C17.0935 16.4428 16.92 16.4669 16.8911 16.5826C16.8092 16.8959 16.8284 17.2237 16.679 17.5177C16.5056 17.8647 16.2309 17.9948 15.9321 18.2069C15.7875 18.3081 15.7586 18.3901 15.6912 18.5443C15.5707 18.8335 15.9369 18.472 15.4936 18.9444C15.3876 19.1902 15.2189 19.2432 14.9924 19.1082C14.8816 19.0697 14.7707 19.0263 14.6647 18.9781C14.4768 18.901 14.3467 19.2143 14.525 19.3058Z" fill="#9FA156"/>
<path d="M12.9877 14.9439C13.2817 15.3005 13.807 15.4162 14.2166 15.1897C14.5876 14.9872 14.8864 14.4233 14.6214 14.0281C14.5153 13.8642 14.2985 13.9413 14.2792 14.1197C14.2503 14.3848 14.2551 14.6547 13.9997 14.8137C13.7491 14.968 13.4407 14.8716 13.2576 14.6691C13.0889 14.4908 12.8335 14.7607 12.9877 14.9439Z" fill="#9FA156"/>
<path d="M6.71344 22.9159C6.34238 23.4027 6.73272 24.1835 7.364 24.1498C7.52303 24.1401 7.63867 24.0438 7.78805 24.01C8.4097 23.8558 8.81932 24.1594 9.32049 24.4438C9.7301 24.6752 10.1734 24.8294 10.5734 24.5306C10.6746 24.4534 10.665 24.2365 10.4963 24.2558C9.6289 24.357 9.21446 23.7015 8.43861 23.5473C8.24586 23.5087 8.09166 23.5329 7.90372 23.5666C7.72542 23.5955 7.58567 23.6775 7.39291 23.7064C7.14715 23.8365 7.00258 23.769 6.95439 23.4943C6.79536 23.3497 6.76644 23.1906 6.87246 23.0123C6.91101 22.8966 6.78091 22.8243 6.71344 22.9159Z" fill="#9FA156"/>
<path d="M12.4914 22.4291C12.3709 22.7906 12.4625 23.181 12.6938 23.4799C12.8865 23.7305 13.3877 24.0534 13.6961 23.8317C13.831 23.7353 13.8407 23.5521 13.6961 23.4557C13.5901 23.3835 13.4696 23.3931 13.354 23.3497C13.2528 23.3112 13.166 23.2485 13.0889 23.1714C12.9154 23.0027 12.8094 22.7762 12.8576 22.5303C12.9058 22.2894 12.5685 22.1978 12.4914 22.4291Z" fill="#9FA156"/>
<path d="M20.4475 22.6412C21.0595 22.8003 21.8209 22.9352 22.3413 22.4677C22.722 22.1255 22.8762 21.4989 22.4522 21.1278C22.2883 20.9832 22.0811 21.1615 22.163 21.3495C22.298 21.6531 22.0715 22.0291 21.792 22.1592C21.4257 22.3327 20.9583 22.2267 20.5776 22.1592C20.2692 22.1158 20.1342 22.5641 20.4475 22.6412Z" fill="#9FA156"/>
<path d="M18.9006 17.7828C19.6523 17.9756 20.5197 17.0261 19.9174 16.3754C19.8017 16.2453 19.6186 16.385 19.6475 16.5345C19.715 16.8863 19.4355 17.4358 19.021 17.3538C18.7415 17.296 18.6211 17.7105 18.9006 17.7828Z" fill="#9FA156"/>
<path d="M4.8292 15.0354C4.75691 15.3343 4.70872 15.6331 4.65571 15.9319C4.63161 16.0572 4.68944 16.1536 4.80992 16.2018C5.17134 16.3416 5.72071 16.5681 6.11104 16.4332C6.24597 16.385 6.28934 16.1922 6.15441 16.1151C5.97611 16.0139 5.75925 15.9994 5.56167 15.9608C5.34482 15.9175 5.13761 15.8548 4.93039 15.7777C4.9834 15.85 5.03642 15.9175 5.08943 15.9898C5.07979 15.6813 5.07978 15.3728 5.05569 15.0643C5.04123 14.9439 4.85811 14.9053 4.8292 15.0354Z" fill="#9FA156"/>
<path d="M9.17108 13.8642C8.82412 14.1486 8.93977 14.6595 9.26745 14.9198C9.78308 15.3295 10.4626 14.9873 10.8433 14.5727C10.7662 14.5631 10.689 14.5535 10.6119 14.5438C10.9493 15.0596 11.7348 15.662 12.366 15.3102C12.472 15.2523 12.4335 15.1126 12.3371 15.074C12.0865 14.9776 11.8215 14.9969 11.5709 14.9101C11.2721 14.8041 11.0408 14.6161 10.8481 14.3655C10.8192 14.3269 10.7469 14.3125 10.7035 14.3269C10.5638 14.3848 10.4288 14.4426 10.2891 14.5005C9.98547 14.6258 9.04097 14.7029 9.41203 14.0474C9.49877 13.8883 9.3012 13.7582 9.17108 13.8642Z" fill="#9FA156"/>
<path d="M13.9226 17.4068C14.1298 17.7056 14.4912 17.8695 14.8527 17.7779C15.2044 17.6864 15.5129 17.3056 15.3683 16.9345C15.3297 16.8333 15.1852 16.7947 15.1225 16.9008C15.031 17.0598 14.9201 17.2622 14.7322 17.3345C14.5442 17.402 14.3611 17.3056 14.2455 17.161C14.1009 16.9827 13.7925 17.2188 13.9226 17.4068Z" fill="#9FA156"/>
<path d="M4.83886 17.8454C4.91115 18.1539 5.1762 18.3853 5.46052 18.5058C5.72556 18.6166 6.14481 18.6841 6.32793 18.3997C6.38576 18.313 6.32793 18.1973 6.23637 18.1684C6.04361 18.1057 5.83158 18.1925 5.62919 18.1346C5.39787 18.072 5.24367 17.9177 5.10392 17.7298C5.01235 17.6045 4.80031 17.6816 4.83886 17.8454Z" fill="#9FA156"/>
<path d="M3.47508 22.2267C3.44135 22.8051 4.15937 23.4461 4.70874 23.0798C4.84849 22.9882 4.81475 22.7135 4.61717 22.7376C4.27021 22.7713 3.8365 22.6556 3.82686 22.2315C3.82204 22.0001 3.48472 22.0001 3.47508 22.2267Z" fill="#9FA156"/>
<path d="M15.0213 24.627C15.0599 25.0897 15.296 25.562 15.7634 25.7307C16.2694 25.9139 16.3417 25.5572 16.4477 25.1813C16.6646 24.4053 18.2211 25.0029 18.303 23.9907C18.3127 23.8558 18.1247 23.7883 18.038 23.8799C17.638 24.3185 17.0694 24.2944 16.5537 24.5113C16.3706 24.5884 16.202 24.6752 16.0911 24.8439C16.0429 24.9162 16.0092 25.1716 15.9658 25.2054C15.7442 25.3981 15.4647 24.7089 15.4309 24.574C15.3731 24.3474 14.9972 24.3908 15.0213 24.627Z" fill="#9FA156"/>
<path d="M16.0912 14.5872C16.4815 15.0885 17.5802 15.1463 17.7248 14.404C17.7537 14.2594 17.6043 14.11 17.4597 14.2016C17.1369 14.4089 16.708 14.6209 16.3803 14.2932C16.1924 14.1004 15.9321 14.3848 16.0912 14.5872Z" fill="#9FA156"/>
<path d="M11.8746 24.333C11.7734 24.709 11.995 25.0608 12.3227 25.2343C12.6408 25.4078 13.1323 25.4368 13.2817 25.0415C13.3202 24.9451 13.2239 24.8343 13.1275 24.8391C12.9299 24.8439 12.742 24.9162 12.554 24.8391C12.3661 24.762 12.2119 24.5837 12.1926 24.3764C12.1781 24.2029 11.9227 24.1451 11.8746 24.333Z" fill="#9FA156"/>
<path d="M12.5347 20.3904C12.607 20.5928 12.7612 20.6843 12.9443 20.7807C13.1323 20.882 13.3058 20.9398 13.5226 20.8964C13.672 20.8675 13.7154 20.6892 13.6527 20.5735C13.5612 20.3952 13.407 20.3036 13.2287 20.2265C13.0504 20.1494 12.8817 20.0626 12.6841 20.1301C12.5829 20.1638 12.4962 20.2747 12.5347 20.3904Z" fill="#9FA156"/>
<path d="M9.34938 12.8424C9.46986 12.828 9.58551 12.8231 9.70116 12.8376C9.84091 12.8569 9.98549 12.9195 10.1301 12.9051C10.4433 12.8713 10.5879 12.5484 10.3806 12.3026C10.1252 11.999 9.59514 12.0375 9.24817 12.1146C9.06987 12.158 8.95904 12.346 8.98314 12.5195C9.01205 12.6834 9.16626 12.8665 9.34938 12.8424Z" fill="white"/>
<path d="M11.8601 13.0497C12.0191 13.0545 12.1781 13.0593 12.3372 13.0641C12.7998 13.0786 12.8046 12.3267 12.3372 12.3411C12.1781 12.346 12.0191 12.3508 11.8601 12.3556C11.4168 12.3797 11.4168 13.0352 11.8601 13.0497Z" fill="white"/>
<path d="M14.1298 13.1557C14.419 13.1605 14.7177 13.2039 14.9057 12.934C14.9442 12.8761 14.9442 12.7846 14.9057 12.7267C14.7226 12.4568 14.419 12.4954 14.1298 12.505C13.7057 12.505 13.7057 13.1461 14.1298 13.1557Z" fill="white"/>
<path d="M18.6693 14.9198C19.0644 14.8764 19.4307 15.0692 19.7584 15.2716C19.903 15.3584 20.1102 15.2138 20.0523 15.0451C19.8451 14.4185 19.1897 14.2306 18.5874 14.3366C18.2645 14.3896 18.332 14.9584 18.6693 14.9198Z" fill="white"/>
<path d="M20.4234 16.6838C20.5342 16.8236 20.6354 16.9296 20.78 17.0308C21.0113 17.1899 21.2667 16.9248 21.2185 16.6934C21.18 16.5199 21.1077 16.3753 21.0258 16.2211C20.9198 16.0187 20.6354 15.9801 20.4619 16.1151C20.2692 16.2645 20.2836 16.5055 20.4234 16.6838Z" fill="white"/>
<path d="M21.7052 19.2432C22.0956 19.5276 22.5004 19.1227 22.216 18.7323C22.0763 18.5395 21.8113 18.4768 21.6281 18.6551C21.4498 18.8335 21.5125 19.1034 21.7052 19.2432Z" fill="white"/>
<path d="M17.4855 25.1142C20.4934 23.33 21.5946 19.6285 19.9451 16.8467C18.2956 14.065 14.5201 13.2563 11.5122 15.0405C8.50429 16.8247 7.40309 20.5262 9.05257 23.308C10.7021 26.0898 14.4776 26.8985 17.4855 25.1142Z" fill="#E04436"/>
<path d="M9.26753 15.3295C8.77118 15.6235 8.29892 16.0717 8.22664 16.6453C8.1929 16.9007 8.2411 17.1562 8.25074 17.4165C8.27965 18.231 7.87003 19.0456 7.2002 19.5131C8.10616 19.8698 9.18079 19.6674 9.97592 19.0938C10.7662 18.525 11.2915 17.6334 11.5421 16.6887C11.3108 17.3683 11.6866 18.1443 12.2649 18.5732C12.8432 19.0022 13.5757 19.1564 14.2889 19.2528C14.4335 18.6263 14.578 17.99 14.5443 17.349C14.5106 16.7079 14.2744 16.0476 13.7781 15.6428C14.3371 16.3609 15.4213 16.5344 16.2502 16.1681C17.0791 15.8018 17.6573 14.9873 17.8983 14.1149C17.4357 14.4812 16.7417 14.3414 16.2309 14.0425C15.7201 13.7437 15.2912 13.3099 14.7467 13.0689C14.1925 12.8279 13.5275 12.8183 12.9926 13.0979C12.4577 13.3774 12.0722 13.951 12.0673 14.5583C11.0939 14.1727 10.0723 14.8523 9.26753 15.3295Z" fill="#425831"/>
<path d="M12.7275 15.4644C12.7082 14.6402 12.4046 13.8739 11.8215 13.2859C11.3493 12.8087 10.4819 12.2158 9.78795 12.4906C9.60965 12.5629 9.58073 12.7749 9.73976 12.8858C10.2361 13.228 10.8144 13.2666 11.2866 13.7004C11.7926 14.1679 12.0962 14.7848 12.1396 15.4693C12.1637 15.8452 12.7323 15.8452 12.7275 15.4644Z" fill="#425831"/>
<path d="M16.9682 16.4766C17.079 16.6646 17.1947 16.8381 17.3296 17.0116C17.4742 17.1948 17.6091 17.2815 17.8404 17.3104C17.9802 17.3249 18.0717 17.1803 18.0814 17.0646C18.1151 16.6598 17.7151 16.3465 17.4404 16.1007C17.1899 15.8741 16.7851 16.173 16.9682 16.4766Z" fill="white"/>
<path d="M18.2693 19.0359C18.3657 19.195 18.4573 19.3589 18.5536 19.5179C18.6741 19.7107 18.7898 19.8216 19.0211 19.8457C19.1078 19.8553 19.2331 19.783 19.2668 19.7011C19.3536 19.4842 19.315 19.3299 19.2042 19.1323C19.1126 18.9684 19.0163 18.8142 18.9199 18.6552C18.6741 18.231 18.0235 18.6166 18.2693 19.0359Z" fill="white"/>
<path d="M47.1136 43.4841H51.4459V15.6975H47.1136V43.4841Z" fill="#C98C3A"/>
<path d="M-3.05176e-05 43.4841H4.33221L4.33221 15.6975H-3.05176e-05L-3.05176e-05 43.4841Z" fill="#C98C3A"/>
<path d="M0.722519 45.0499L50.3627 45.0499V32.3302L0.722519 32.3302V45.0499Z" fill="#F2B464"/>
<path d="M0.556198 31.1628L50.1964 31.1628V20.3952L0.556198 20.3952V31.1628Z" fill="#F2B464"/>
<path d="M46.0699 23.8896C39.1788 23.9811 32.0997 24.4342 25.2279 23.9281C24.9532 23.9088 24.9532 23.5184 25.2279 23.4991C32.0997 22.9883 39.1788 23.4461 46.0699 23.5377C46.2964 23.5377 46.2964 23.8847 46.0699 23.8896Z" fill="#D69A58"/>
<path d="M43.5399 26.1742C38.2198 26.2802 32.8997 26.3332 27.5747 26.3621C22.2835 26.391 16.8911 26.685 11.6095 26.3284C11.3445 26.3091 11.3445 25.9332 11.6095 25.9139C16.8863 25.5572 22.2835 25.8512 27.5747 25.8801C32.8949 25.9091 38.215 25.9621 43.5399 26.0681C43.6074 26.0681 43.6074 26.1742 43.5399 26.1742Z" fill="#D69A58"/>
<path d="M20.7703 23.7835C16.7128 23.8365 12.5251 24.1257 8.482 23.7498C8.2796 23.7305 8.2796 23.4509 8.482 23.4317C12.5251 23.0557 16.7128 23.3449 20.7703 23.3979C21.0161 23.4027 21.0161 23.7787 20.7703 23.7835Z" fill="#D69A58"/>
<path d="M46.6723 28.5359C39.2462 28.6612 31.8106 28.5938 24.3846 28.5938C16.973 28.5938 9.49878 28.8878 2.09686 28.5311C1.94265 28.5215 1.94265 28.2998 2.09686 28.2901C9.49878 27.9383 16.973 28.2275 24.3846 28.2275C31.8106 28.2275 39.2462 28.16 46.6723 28.2853C46.8313 28.2901 46.8313 28.5311 46.6723 28.5359Z" fill="#D69A58"/>
<path d="M8.36153 25.991C6.50623 26.1838 4.42926 26.285 2.57878 26.0488C2.36192 26.0199 2.36192 25.7355 2.57878 25.7114C4.42926 25.4753 6.50623 25.5765 8.36153 25.7693C8.5061 25.7837 8.5061 25.9765 8.36153 25.991Z" fill="#D69A58"/>
<path d="M6.0725 22.8195C5.29183 22.8436 4.50636 22.9159 3.73051 22.8147C3.54739 22.7906 3.54739 22.4677 3.73051 22.4436C4.50636 22.3376 5.29183 22.4099 6.0725 22.4388C6.31826 22.4436 6.31826 22.8099 6.0725 22.8195Z" fill="#D69A58"/>
<path d="M48.4794 25.215C47.718 25.2247 46.9036 25.3162 46.147 25.1861C45.9976 25.162 45.9976 24.9114 46.147 24.8873C46.8988 24.762 47.7132 24.8488 48.4794 24.8584C48.7059 24.8632 48.7059 25.2102 48.4794 25.215Z" fill="#D69A58"/>
<path d="M47.9975 22.6219C47.0771 22.5304 46.0651 22.5786 45.1687 22.352C44.9615 22.299 44.9615 21.9809 45.1687 21.9327C46.0651 21.711 47.0771 21.7543 47.9975 21.6628C48.6095 21.6049 48.6095 22.6846 47.9975 22.6219Z" fill="#D69A58"/>
<path d="M48.3589 34.9897C41.8196 35.25 35.2658 35.1584 28.7216 35.1632C22.1823 35.168 15.6189 35.3223 9.08436 35.115C8.83378 35.1054 8.83378 34.7294 9.08436 34.7246C15.6189 34.5173 22.1823 34.6716 28.7216 34.6764C35.2658 34.6812 41.8196 34.5896 48.3589 34.8499C48.4505 34.8499 48.4505 34.9849 48.3589 34.9897Z" fill="#D69A58"/>
<path d="M46.1904 37.4912C36.8802 37.5346 27.5458 37.7467 18.2404 37.4816C18.0428 37.4768 18.0428 37.1779 18.2404 37.1731C27.5458 36.908 36.8802 37.1201 46.1904 37.1635C46.4024 37.1635 46.4024 37.4912 46.1904 37.4912Z" fill="#D69A58"/>
<path d="M37.9981 39.9735C26.8133 39.9928 15.561 40.3783 4.38588 39.8964C4.17866 39.8867 4.17866 39.5831 4.38588 39.5734C15.561 39.0914 26.8133 39.477 37.9981 39.4963C38.3017 39.5011 38.3017 39.9735 37.9981 39.9735Z" fill="#D69A58"/>
<path d="M15.108 36.9948C12.1492 36.9996 9.14215 37.149 6.19295 36.9562C5.89418 36.9369 5.89418 36.508 6.19295 36.4887C9.14215 36.2959 12.1492 36.4501 15.108 36.4501C15.455 36.455 15.455 36.9948 15.108 36.9948Z" fill="#D69A58"/>
<path d="M46.5518 42.2051C39.6029 42.2292 32.6587 42.2388 25.7098 42.2484C22.2353 42.2532 18.7609 42.2532 15.2864 42.2581C11.8505 42.2581 8.27964 42.5328 4.863 42.1568C4.69915 42.1376 4.69915 41.9207 4.863 41.9014C8.27964 41.5206 11.8457 41.7953 15.2864 41.8002C18.7609 41.8002 22.2353 41.805 25.7098 41.8098C32.6587 41.8195 39.6029 41.8291 46.5518 41.8532C46.7831 41.8484 46.7831 42.2051 46.5518 42.2051Z" fill="#D69A58"/>
</svg>
