<svg width="78" height="118" viewBox="0 0 78 118" fill="none" xmlns="http://www.w3.org/2000/svg">
<path d="M30.7305 64.9285C24.1864 64.9285 19.1313 66.0515 12.0908 64.2585C14.6256 71.1558 18.7699 75.1225 25.208 78.67C31.516 82.1499 39.8046 80.9112 44.3007 75.272C44.1706 75.431 38.5324 64.9285 30.7305 64.9285Z" fill="#C6DD8C"/>
<path d="M12.6305 34.9055C7.74407 34.0186 3.2769 33.6716 0 28.5433C1.21438 34.4524 2.74199 40.887 7.52722 44.5549C12.2257 48.1553 19.5023 47.8131 23.8394 43.7885C23.7238 43.8946 19.0831 36.0767 12.6305 34.9055Z" fill="#C6DD8C"/>
<path d="M17.2856 7.02256C14.1244 4.92591 11.0692 2.65575 8.36574 0C7.86939 4.57888 7.47905 9.61083 10.1054 13.3993C12.6787 17.1106 18.0519 19.6458 22.1432 17.7323C22.0323 17.7853 23.1937 10.9411 17.2856 7.02256Z" fill="#C6DD8C"/>
<path d="M26.4802 89.905C19.6373 90.3678 12.7462 90.175 5.96109 89.1821C10.1295 96.3974 14.9292 104.157 22.8034 106.881C30.5282 109.546 39.9155 105.926 43.843 98.7592C43.7418 98.9568 37.3952 89.1724 26.4802 89.905Z" fill="#C6DD8C"/>
<path d="M41.9539 43.3788C43.2598 38.1878 45.1392 33.1414 47.5487 28.3601C41.178 29.6663 34.2484 31.3147 30.2968 36.4768C26.4176 41.5376 27.2079 48.7482 31.5401 53.4234C31.9594 52.7872 37.1205 50.3435 37.8192 49.9146C40.3829 48.3337 41.2407 46.2177 41.9539 43.3788Z" fill="#C6DD8C"/>
<path d="M32.557 26.2153C36.1085 21.8629 37.3952 19.9302 42.3057 18.3107C37.4916 16.6575 32.1618 15.0091 27.4392 16.9178C22.8082 18.7879 19.9361 24.2295 21.0011 29.1072C20.9722 28.9771 28.4367 31.2617 32.557 26.2153Z" fill="#C6DD8C"/>
<path d="M61.6972 88.6133C66.4776 84.9117 71.6724 81.7354 77.1468 79.1712C70.5737 75.8889 63.2633 72.515 56.1506 74.3417C49.1727 76.1347 44.0212 83.3645 44.614 90.5509C44.5995 90.3533 52.5363 91.433 53.4616 91.539C56.8397 91.9198 59.0805 90.6377 61.6972 88.6133Z" fill="#C6DD8C"/>
<path d="M28.5957 5.13321C19.3192 15.4477 17.1266 30.7267 23.1262 43.2825C26.6489 50.6473 33.3424 55.4237 37.9638 61.9788C43.2261 69.4399 43.6839 78.6555 43.1779 87.4759C42.6334 96.9614 40.4022 107.994 44.2863 117.051C44.6381 117.87 45.7705 117.243 45.6308 116.482C44.826 111.985 44.1128 107.647 44.1514 103.059C44.1899 98.7206 44.614 94.3972 44.9176 90.0738C45.4669 82.3042 45.5778 74.1345 42.6141 66.789C39.8095 59.8291 34.046 55.1201 29.2993 49.5483C24.3743 43.7645 21.6613 36.6359 21.3528 29.0446C21.0155 20.6966 23.6033 11.9967 28.9957 5.5429C29.2367 5.25853 28.8463 4.85366 28.5957 5.13321Z" fill="#C6DD8C"/>
</svg>
