<svg width="23" height="23" viewBox="0 0 23 23" fill="none" xmlns="http://www.w3.org/2000/svg">
    <path fill-rule="evenodd" clip-rule="evenodd" d="M15.4603 6.12375C17.6058 6.69875 18.993 8.6825 18.8995 10.8136C18.2706 10.3895 17.5159 10.1452 16.7073 10.1452C16.5312 10.1452 16.3552 10.1559 16.1862 10.1775C15.9994 8.80469 14.8242 7.74812 13.3975 7.74812C12.42 7.74812 11.5575 8.24766 11.0544 9.00234C10.7058 8.9125 10.3428 8.855 9.97266 8.83344C10.8459 6.70953 13.1819 5.51281 15.4603 6.12375Z" fill="#FFC106"/>
    <path d="M13.8108 3.565C13.8108 3.31703 14.012 3.11578 14.26 3.11578C14.508 3.11578 14.7092 3.31703 14.7092 3.565V4.28016C14.7092 4.52813 14.508 4.72938 14.26 4.72938C14.012 4.72938 13.8108 4.52813 13.8108 4.28016V3.565Z" fill="#FFC106"/>
    <path d="M17.3938 4.28377C17.5196 4.06814 17.7928 3.99627 18.0084 4.11846C18.2204 4.24424 18.2923 4.51736 18.1701 4.73299L17.8107 5.35471C17.6849 5.56674 17.4118 5.63861 17.1998 5.51643C16.9842 5.39064 16.9123 5.11752 17.0345 4.90549L17.3938 4.28377Z" fill="#FFC106"/>
    <path d="M20.1358 6.69872C20.3514 6.57653 20.6245 6.64841 20.7467 6.86403C20.8689 7.07606 20.797 7.34919 20.5814 7.47137L19.9597 7.83075C19.7477 7.95294 19.4745 7.88106 19.3524 7.66544C19.2266 7.45341 19.302 7.18028 19.5141 7.0545L20.1358 6.69872Z" fill="#FFC106"/>
    <path d="M21.3037 10.1559C21.5517 10.1559 21.7529 10.3572 21.7529 10.6052C21.7529 10.8531 21.5517 11.0544 21.3037 11.0544H20.585C20.337 11.0544 20.1357 10.8531 20.1357 10.6052C20.1357 10.3572 20.337 10.1559 20.585 10.1559H21.3037Z" fill="#FFC106"/>
    <path d="M7.93868 7.47137C7.72305 7.34919 7.65118 7.07606 7.77336 6.86403C7.89555 6.64841 8.16868 6.57653 8.3843 6.69872L9.00602 7.0545C9.21805 7.18028 9.29352 7.45341 9.17133 7.66544C9.04555 7.88106 8.77243 7.95294 8.56039 7.83075L7.93868 7.47137Z" fill="#FFC106"/>
    <path d="M10.35 4.72935C10.2278 4.51732 10.3033 4.24419 10.5153 4.11841C10.7309 3.99622 11.004 4.07169 11.1262 4.28372L11.4856 4.90544C11.6078 5.12107 11.5359 5.39419 11.3203 5.51638C11.1083 5.63857 10.8315 5.56669 10.7094 5.35107L10.35 4.72935Z" fill="#FFC106"/>
    <path fill-rule="evenodd" clip-rule="evenodd" d="M3.52907 19.78C3.4572 19.762 3.38892 19.744 3.31704 19.7225C3.38892 19.744 3.4572 19.762 3.52907 19.78ZM3.18048 19.6758C3.04751 19.6254 2.91454 19.5679 2.78876 19.4997C2.91454 19.5679 3.04751 19.6254 3.18048 19.6758ZM2.78876 19.4997C2.28923 19.2265 1.87595 18.8133 1.60282 18.3137C1.87595 18.8133 2.28923 19.2265 2.78876 19.4997ZM1.60282 18.3101C1.53454 18.1879 1.47704 18.055 1.42673 17.922C1.47704 18.055 1.53454 18.1879 1.60282 18.3101ZM1.38001 17.7819C1.35845 17.7136 1.34048 17.6453 1.32251 17.5734C1.34048 17.6453 1.35845 17.7136 1.38001 17.7819ZM4.14001 13.9581C4.17595 13.4226 4.29095 12.9051 4.46704 12.4236C4.29095 12.9051 4.17954 13.4226 4.1436 13.9581H4.14001ZM11.058 8.99154C11.5647 8.24044 12.4236 7.74451 13.3975 7.74451C14.8206 7.74451 15.9994 8.80107 16.1827 10.1739C16.3552 10.1523 16.5277 10.1415 16.7038 10.1415C18.878 10.1415 20.6389 11.9025 20.6389 14.0767C20.6389 14.7128 20.488 15.3094 20.222 15.8412C19.9274 15.6867 19.5895 15.5969 19.2302 15.5969C18.993 13.7461 17.4117 12.3158 15.4927 12.3158C15.2627 12.3158 15.0363 12.3373 14.817 12.3769C14.1881 10.7201 12.7902 9.44794 11.058 8.99154Z" fill="#0E6096"/>
    <path fill-rule="evenodd" clip-rule="evenodd" d="M4.19395 19.8555C2.56598 19.8555 1.24707 18.533 1.24707 16.9086C1.24707 15.2986 2.53723 13.9869 4.14363 13.9581C4.3341 11.0831 6.72754 8.81189 9.65285 8.81189C12.0139 8.81189 14.0264 10.2925 14.8171 12.3769C15.0363 12.3374 15.2627 12.3158 15.4927 12.3158C17.4082 12.3158 18.993 13.7461 19.2302 15.5969C20.4053 15.5969 21.3577 16.5492 21.3577 17.7244C21.3577 18.8852 20.4341 19.8267 19.2841 19.8519C14.2529 19.9238 9.2252 19.8555 4.19395 19.8555Z" fill="#1AB5ED"/>
</svg>
