<svg width="96" height="96" viewBox="0 0 96 96" fill="none" xmlns="http://www.w3.org/2000/svg">
    <path d="M20 84H18V86H20V84Z" fill="#219653"/>
    <path d="M8 82H6V84H8V82Z" fill="#219653"/>
    <path d="M32 79H30V81H32V79Z" fill="#219653"/>
    <path d="M65 79H63V81H65V79Z" fill="#219653"/>
    <path d="M80 81H78V83H80V81Z" fill="#219653"/>
    <path d="M88 85H86V87H88V85Z" fill="#219653"/>
    <path d="M94 91L75.261 89.028L72.554 90.833C72.519 90.856 72.484 90.877 72.447 90.895L70.447 91.895L69.552 90.106L71.496 89.134L73.112 88.057L69 86H62.414L58.707 89.707C58.52 89.895 58.265 90 58 90H56V88H57.586L60.659 84.927L57 82H50V73.975C67.209 73.445 81 59.338 81 42C63.662 42 49.555 55.791 49.025 73H47.974C47.445 55.791 33.338 42 16 42C16 59.338 29.791 73.445 47 73.975V82H39L35.501 84.799L37.554 86.168C37.699 86.265 37.816 86.397 37.894 86.553L38.618 88H42V90H38C37.621 90 37.275 89.786 37.105 89.447L36.224 87.684L33.697 86H27L21.909 88.182L24.6 90.2L23.4 91.8L19.71 89.032L1.99997 91L1.96997 94H94V91ZM77.293 44.293L78.707 45.707L53.707 70.707L52.293 69.293L77.293 44.293ZM44.309 70.723L21.309 48.723L22.692 47.278L45.692 69.278L44.309 70.723Z" fill="#219653"/>
    <path d="M33 11.899V19C33 19.315 33.148 19.611 33.4 19.8L41 25.5V48H43V25C43 24.685 42.852 24.389 42.6 24.2L35 18.5V11.899C37.282 11.436 39 9.419 39 7C39 4.239 36.761 2 34 2C31.239 2 29 4.239 29 7C29 9.419 30.718 11.436 33 11.899ZM34 6C34.552 6 35 6.448 35 7C35 7.552 34.552 8 34 8C33.448 8 33 7.552 33 7C33 6.448 33.448 6 34 6Z" fill="#219653"/>
    <path d="M56 24.535L61.555 20.832C61.833 20.646 62 20.334 62 20V11.899C64.282 11.436 66 9.419 66 7C66 4.239 63.761 2 61 2C58.239 2 56 4.239 56 7C56 9.419 57.718 11.436 60 11.899V19.465L54.445 23.168C54.167 23.354 54 23.666 54 24V48H56V24.535ZM61 6C61.552 6 62 6.448 62 7C62 7.552 61.552 8 61 8C60.448 8 60 7.552 60 7C60 6.448 60.448 6 61 6Z" fill="#219653"/>
    <path d="M70 24.899V29H62C61.448 29 61 29.448 61 30V42H63V31H71C71.552 31 72 30.552 72 30V24.899C74.282 24.436 76 22.419 76 20C76 17.239 73.761 15 71 15C68.239 15 66 17.239 66 20C66 22.419 67.718 24.436 70 24.899ZM71 19C71.552 19 72 19.448 72 20C72 20.552 71.552 21 71 21C70.448 21 70 20.552 70 20C70 19.448 70.448 19 71 19Z" fill="#219653"/>
    <path d="M24 23.899V30C24 30.552 24.448 31 25 31H33V41H35V30C35 29.448 34.552 29 34 29H26V23.899C28.282 23.436 30 21.419 30 19C30 16.239 27.761 14 25 14C22.239 14 20 16.239 20 19C20 21.419 21.718 23.436 24 23.899ZM25 18C25.552 18 26 18.448 26 19C26 19.552 25.552 20 25 20C24.448 20 24 19.552 24 19C24 18.448 24.448 18 25 18Z" fill="#219653"/>
    <path d="M47.5 20.899V51H49.5V20.899C51.782 20.436 53.5 18.419 53.5 16C53.5 13.239 51.261 11 48.5 11C45.739 11 43.5 13.239 43.5 16C43.5 18.419 45.218 20.436 47.5 20.899ZM48.5 15C49.052 15 49.5 15.448 49.5 16C49.5 16.552 49.052 17 48.5 17C47.948 17 47.5 16.552 47.5 16C47.5 15.448 47.948 15 48.5 15Z" fill="#219653"/>
</svg>
