<svg width="14" height="21" viewBox="0 0 14 21" fill="none" xmlns="http://www.w3.org/2000/svg">
    <path d="M13.3636 6.74453C13.3636 10.4694 6.68182 21 6.68182 21C6.68182 21 0 10.4694 0 6.74453C0 4.95577 0.703979 3.24027 1.95706 1.97543C3.21015 0.710581 4.90969 0 6.68182 0C8.45395 0 10.1535 0.710581 11.4066 1.97543C12.6597 3.24027 13.3636 4.95577 13.3636 6.74453Z" fill="#219653"/>
    <path d="M6.68183 10.5C8.79055 10.5 10.5 8.79054 10.5 6.68181C10.5 4.57309 8.79055 2.86363 6.68183 2.86363C4.57311 2.86363 2.86365 4.57309 2.86365 6.68181C2.86365 8.79054 4.57311 10.5 6.68183 10.5Z" fill="#F2F2F2"/>
</svg>
