<svg width="276" height="236" viewBox="0 0 276 236" fill="none" xmlns="http://www.w3.org/2000/svg">
<g clip-path="url(#clip0_202_710)">
<path opacity="0.1" d="M143.614 236.003C216.73 236.003 276.003 183.172 276.003 118.001C276.003 52.831 216.73 0 143.614 0C70.4971 0 11.2245 52.831 11.2245 118.001C11.2245 183.172 70.4971 236.003 143.614 236.003Z" fill="#6FCF97"/>
<path d="M221.64 83.7052C212.683 83.7052 204.093 87.2588 197.759 93.5843C191.425 99.9098 187.867 108.489 187.867 117.434C187.867 136.065 221.64 182.342 221.64 182.342C221.64 182.342 255.413 136.051 255.413 117.434C255.413 108.489 251.855 99.9098 245.521 93.5843C239.187 87.2588 230.597 83.7052 221.64 83.7052ZM221.64 134.798C218.203 134.796 214.843 133.776 211.986 131.867C209.129 129.958 206.903 127.246 205.589 124.074C204.275 120.901 203.932 117.411 204.604 114.045C205.275 110.678 206.932 107.585 209.363 105.158C211.794 102.732 214.891 101.079 218.263 100.41C221.634 99.7405 225.129 100.085 228.304 101.398C231.48 102.712 234.194 104.937 236.104 107.791C238.014 110.646 239.034 114.001 239.034 117.434C239.034 119.715 238.583 121.972 237.708 124.079C236.834 126.185 235.552 128.098 233.937 129.71C232.322 131.321 230.404 132.599 228.294 133.47C226.184 134.341 223.923 134.789 221.64 134.787V134.798Z" fill="#27AE60"/>
<path d="M22.3269 162.445C22.3269 162.445 16.3131 142.051 23.4621 127.04C26.4977 120.763 27.4129 113.672 26.0703 106.831C25.4086 103.589 24.4501 100.414 23.2067 97.3472" stroke="#535461" stroke-width="2" stroke-miterlimit="10"/>
<path d="M27.6426 87.8605C27.6426 90.3604 23.1017 97.608 23.1017 97.608C23.1017 97.608 18.5608 90.3604 18.5608 87.8605C18.5197 87.2411 18.6064 86.6198 18.8155 86.0352C19.0246 85.4505 19.3517 84.915 19.7764 84.4618C20.2012 84.0085 20.7146 83.6472 21.2849 83.4002C21.8552 83.1531 22.4702 83.0257 23.0918 83.0257C23.7134 83.0257 24.3284 83.1531 24.8986 83.4002C25.4689 83.6472 25.9823 84.0085 26.4071 84.4618C26.8318 84.915 27.1589 85.4505 27.368 86.0352C27.5771 86.6198 27.6638 87.2411 27.6227 87.8605H27.6426Z" fill="#219653"/>
<path d="M35.1322 101.704C33.7728 103.804 26.0249 107.426 26.0249 107.426C26.0249 107.426 26.164 98.8834 27.5262 96.786C27.8281 96.2425 28.2386 95.7668 28.7323 95.3883C29.226 95.0099 29.7923 94.7369 30.3961 94.5862C30.9999 94.4355 31.6282 94.4103 32.2421 94.5123C32.856 94.6143 33.4424 94.8412 33.9648 95.179C34.4872 95.5168 34.9345 95.9582 35.279 96.4758C35.6234 96.9935 35.8576 97.5763 35.9671 98.1882C36.0766 98.8 36.059 99.4278 35.9153 100.033C35.7717 100.637 35.5051 101.206 35.1322 101.704Z" fill="#219653"/>
<path d="M34.8058 125.371C32.5694 126.505 24.0496 125.719 24.0496 125.719C24.0496 125.719 28.4911 118.415 30.7247 117.29C31.26 116.975 31.8543 116.773 32.4709 116.696C33.0876 116.62 33.7134 116.67 34.3096 116.845C34.9058 117.02 35.4598 117.315 35.9372 117.712C36.4147 118.109 36.8054 118.6 37.0852 119.154C37.365 119.708 37.528 120.314 37.5641 120.933C37.6001 121.553 37.5085 122.173 37.2948 122.756C37.0812 123.339 36.75 123.872 36.3219 124.321C35.8937 124.771 35.3777 125.128 34.8058 125.371Z" fill="#219653"/>
<path d="M30.5203 143.208C28.5082 144.693 19.9798 145.365 19.9798 145.365C19.9798 145.365 23.1216 137.428 25.1309 135.932C25.6053 135.533 26.1567 135.235 26.7508 135.057C27.345 134.878 27.9694 134.824 28.5856 134.896C29.2017 134.968 29.7965 135.166 30.3333 135.476C30.8701 135.787 31.3374 136.204 31.7065 136.702C32.0755 137.2 32.3385 137.768 32.4792 138.372C32.6199 138.975 32.6352 139.601 32.5244 140.211C32.4135 140.82 32.1787 141.401 31.8345 141.916C31.4903 142.432 31.0441 142.871 30.5232 143.208H30.5203Z" fill="#219653"/>
<path d="M16.5089 107.911C18.3054 109.654 26.6663 111.457 26.6663 111.457C26.6663 111.457 24.6201 103.161 22.8236 101.42C21.9458 100.675 20.8172 100.291 19.6664 100.346C18.5157 100.401 17.4288 100.89 16.626 101.716C15.8232 102.541 15.3645 103.64 15.3427 104.79C15.321 105.941 15.7379 107.056 16.5089 107.911V107.911Z" fill="#219653"/>
<path d="M11.7665 128.843C14.0001 129.977 22.5199 129.192 22.5199 129.192C22.5199 129.192 18.0812 121.887 15.8448 120.762C14.7842 120.315 13.5932 120.287 12.5127 120.684C11.4323 121.081 10.5431 121.873 10.025 122.899C9.50685 123.926 9.39848 125.111 9.7218 126.214C10.0451 127.318 10.776 128.257 11.7665 128.843V128.843Z" fill="#219653"/>
<path d="M9.95018 149.823C11.9624 151.308 20.4907 151.98 20.4907 151.98C20.4907 151.98 17.349 144.044 15.3368 142.544C14.8618 142.148 14.3108 141.853 13.7176 141.678C13.1244 141.502 12.5014 141.449 11.887 141.522C11.2726 141.596 10.6797 141.794 10.1446 142.104C9.60961 142.415 9.14378 142.831 8.77574 143.328C8.40769 143.825 8.1452 144.391 8.00438 144.993C7.86355 145.595 7.84737 146.219 7.95682 146.827C8.06627 147.436 8.29905 148.015 8.64086 148.53C8.98267 149.045 9.42629 149.485 9.94451 149.823H9.95018Z" fill="#219653"/>
<path opacity="0.1" d="M146.361 200.241C190.874 200.241 226.959 194.431 226.959 187.263C226.959 180.095 190.874 174.284 146.361 174.284C101.848 174.284 65.7632 180.095 65.7632 187.263C65.7632 194.431 101.848 200.241 146.361 200.241Z" fill="#219653"/>
<path d="M69.3391 212.812C69.3391 212.812 77.2857 211.225 79.4085 209.107C81.5314 206.99 91.0672 203.288 92.1258 205.933C93.1844 208.577 106.435 217.576 97.4245 219.164C88.4137 220.751 76.2299 221.281 73.5849 220.224C70.9398 219.167 69.3391 212.812 69.3391 212.812Z" fill="#A8A8A8"/>
<path opacity="0.2" d="M97.4159 218.18C88.408 219.767 76.2214 220.297 73.5764 219.24C71.5585 218.432 70.1565 214.561 69.6031 212.758C69.4357 212.795 69.3363 212.812 69.3363 212.812C69.3363 212.812 70.9285 219.164 73.5764 220.224C76.2243 221.284 88.4137 220.751 97.4159 219.164C100.018 218.705 100.762 217.63 100.481 216.267C100.268 217.157 99.36 217.84 97.4159 218.18Z" fill="black"/>
<path d="M206.036 185.925C206.036 185.925 213.983 184.337 216.106 182.22C218.229 180.103 227.762 176.39 228.817 179.046C229.873 181.701 243.124 190.689 234.116 192.277C225.108 193.864 212.919 194.394 210.277 193.334C207.634 192.274 206.036 185.925 206.036 185.925Z" fill="#A8A8A8"/>
<path opacity="0.2" d="M234.122 191.293C225.114 192.88 212.924 193.41 210.282 192.35C208.264 191.545 206.877 187.674 206.309 185.871L206.045 185.925C206.045 185.925 207.634 192.277 210.285 193.334C212.936 194.391 225.122 193.864 234.125 192.277C236.724 191.817 237.468 190.74 237.19 189.38C236.963 190.278 236.057 190.953 234.122 191.293Z" fill="black"/>
<path d="M192.774 214.906C192.774 214.906 194.332 216.942 192.053 220.008C189.774 223.075 187.896 225.677 188.648 227.593C188.648 227.593 192.085 221.885 194.892 221.803C197.698 221.72 195.859 218.339 192.774 214.906Z" fill="#219653"/>
<path opacity="0.1" d="M192.774 214.906C192.91 215.103 193.017 215.318 193.092 215.544C195.822 218.747 197.275 221.737 194.653 221.811C192.207 221.882 189.275 226.247 188.571 227.349C188.595 227.435 188.624 227.519 188.656 227.602C188.656 227.602 192.093 221.893 194.9 221.811C197.707 221.729 195.859 218.339 192.774 214.906Z" fill="black"/>
<path d="M195.68 217.489C195.68 218.206 195.598 218.787 195.499 218.787C195.399 218.787 195.32 218.22 195.32 217.489C195.32 216.757 195.419 217.109 195.519 217.109C195.618 217.109 195.68 216.783 195.68 217.489Z" fill="#FFD037"/>
<path d="M196.674 218.356C196.044 218.699 195.496 218.906 195.448 218.818C195.399 218.73 195.873 218.384 196.503 218.041C197.134 217.698 196.884 217.948 196.932 218.041C196.98 218.135 197.315 218.013 196.674 218.356Z" fill="#FFD037"/>
<path d="M184.544 214.906C184.544 214.906 182.986 216.942 185.262 220.008C187.538 223.075 189.42 225.677 188.668 227.593C188.668 227.593 185.228 221.885 182.424 221.803C179.62 221.72 181.468 218.339 184.544 214.906Z" fill="#219653"/>
<path opacity="0.1" d="M184.544 214.906C184.407 215.102 184.3 215.317 184.226 215.544C181.496 218.747 180.04 221.737 182.665 221.811C185.109 221.882 188.057 226.247 188.744 227.349C188.721 227.435 188.694 227.519 188.662 227.602C188.662 227.602 185.222 221.893 182.418 221.811C179.614 221.729 181.467 218.339 184.544 214.906Z" fill="black"/>
<path d="M181.649 217.489C181.649 218.206 181.729 218.787 181.828 218.787C181.927 218.787 182.007 218.22 182.007 217.489C182.007 216.757 181.907 217.109 181.808 217.109C181.709 217.109 181.649 216.783 181.649 217.489Z" fill="#FFD037"/>
<path d="M180.653 218.356C181.283 218.699 181.834 218.906 181.882 218.818C181.93 218.73 181.456 218.384 180.826 218.041C180.196 217.698 180.443 217.948 180.398 218.041C180.352 218.135 180.023 218.013 180.653 218.356Z" fill="#FFD037"/>
<path d="M182.146 227.335C182.146 227.335 186.505 227.202 187.822 226.267C189.139 225.331 194.528 224.217 194.855 225.7C195.181 227.182 201.405 233.154 196.484 233.194C191.562 233.234 185.049 232.426 183.738 231.629C182.427 230.833 182.146 227.335 182.146 227.335Z" fill="#A8A8A8"/>
<path opacity="0.2" d="M196.566 232.687C191.645 232.723 185.131 231.918 183.82 231.122C182.821 230.515 182.424 228.336 182.291 227.33H182.146C182.146 227.33 182.43 230.841 183.732 231.638C185.035 232.434 191.557 233.242 196.478 233.202C197.897 233.188 198.388 232.684 198.362 231.938C198.167 232.395 197.624 232.678 196.566 232.687Z" fill="black"/>
<path d="M4.74804 163.698C3.30151 166.509 2.62591 169.652 2.78991 172.808C2.95391 175.965 3.95166 179.021 5.68176 181.668C6.24937 182.518 6.77157 183.127 7.18876 183.292C9.1754 184.077 13.1969 186.007 13.1969 186.007L22.8463 182.22C22.8463 182.22 24.4129 173.944 25.8943 166.838C26.9047 161.991 27.881 157.691 28.2811 156.937C29.2801 155.081 28.2811 134.869 28.2811 134.869C28.2811 134.869 18.6318 134.223 15.9782 141.652L14.8174 143.919L4.74804 163.698Z" fill="#A8A8A8"/>
<path opacity="0.1" d="M17.559 165.934C23.4252 172.648 25.9 166.841 25.9 166.841C26.9104 161.994 27.8866 157.694 28.2868 156.94C29.2858 155.084 28.2868 134.872 28.2868 134.872C28.2868 134.872 18.6375 134.225 15.9839 141.654L14.8231 143.922C14.0796 149.866 13.3445 161.11 17.559 165.934Z" fill="white"/>
<path d="M18.8475 184.649L52.904 180.721L58.9831 140.787L54.3855 130.419C52.445 126.001 49.7568 121.95 46.439 118.444C44.1259 116.012 41.3305 113.668 38.3903 112.491C37.9886 112.329 37.5784 112.189 37.1614 112.072C36.6821 111.927 36.1754 111.897 35.6823 111.984C35.1892 112.071 34.7236 112.273 34.3233 112.574C30.123 115.547 28.6217 128.188 28.1364 134.274C27.9367 136.774 27.5985 139.262 27.1232 141.725L18.8475 184.649Z" fill="#A8A8A8"/>
<path opacity="0.1" d="M41.5206 140.359L34.4255 157.791C38.1462 155.075 43.652 140.288 43.652 140.288L48.6015 157.147L44.668 139.378C45.2439 135.519 45.4113 131.609 45.1675 127.715C44.8582 123.256 40.6635 116.094 38.3874 112.491C37.9858 112.329 37.5755 112.189 37.1585 112.072C36.6793 111.927 36.1726 111.897 35.6794 111.984C35.1863 112.071 34.7207 112.273 34.3205 112.574C36.1085 116.159 40.5642 125.121 41.9407 127.789C43.6662 131.144 41.5206 140.359 41.5206 140.359Z" fill="white"/>
<path d="M47.3131 186.007H71.6323C71.6323 186.007 71.0647 162.147 67.4859 149.16C66.1548 144.341 64.6081 141.79 63.1891 140.54C62.5244 139.898 61.6649 139.494 60.7455 139.393C60.0484 139.332 59.3507 139.502 58.7589 139.874C55.3249 143.159 51.3204 160.446 51.3204 160.446L47.3131 186.007Z" fill="#A8A8A8"/>
<path opacity="0.1" d="M64.3839 170.676C65.1445 172.782 65.4454 175.211 64.3839 177.578L60.2659 179.61C60.2659 179.61 49.1975 174.922 50.5428 165.322C50.5428 165.322 50.906 163.338 54.7175 163.488C56.8611 163.593 58.925 164.332 60.6464 165.612C62.3678 166.892 63.6689 168.655 64.3839 170.676V170.676Z" fill="white"/>
<path opacity="0.1" d="M59.9736 145.433C59.8487 142.065 61.6764 140.912 63.1891 140.526C62.5244 139.884 61.6649 139.48 60.7455 139.378C59.6928 140.258 58.9474 141.449 58.617 142.78L54.7544 161.566C54.7544 161.566 60.1893 151.076 59.9736 145.433Z" fill="white"/>
<path d="M42.4515 160.288L51.607 172.79L53.1935 183.105L47.3159 186.004L37.5871 188.147L13.1969 186.004L16.3443 178.72L27.2169 163.479L42.4515 160.288Z" fill="#A8A8A8"/>
<path opacity="0.1" d="M38.9096 156.005C38.9096 156.005 45.1533 156.433 42.8091 167.147C40.4648 177.861 16.3443 178.72 16.3443 178.72C16.3443 178.72 21.4698 169.633 29.3539 163.15C30.2394 162.422 31.0936 161.66 31.9081 160.852C33.7302 159.035 37.1897 155.849 38.9096 156.005Z" fill="white"/>
<path opacity="0.1" d="M44.5261 164.077C44.5261 164.077 52.9892 171.764 52.1888 183.601Z" fill="black"/>
<path opacity="0.1" d="M58.7589 139.86C58.7589 139.86 49.8815 151.651 48.8853 169.791Z" fill="black"/>
<path opacity="0.1" d="M28.2897 134.863C28.2897 134.863 32.5978 154.35 21.8586 169.035Z" fill="black"/>
<path d="M64.6081 185.794C63.9894 185.228 63.4133 184.547 63.2345 183.725C63.0557 182.903 63.4076 181.917 64.1938 181.617C65.0736 181.282 66.0158 181.9 66.7281 182.507C67.4405 183.113 68.2607 183.824 69.1944 183.694C68.714 183.259 68.3546 182.707 68.1512 182.092C67.9477 181.477 67.9073 180.82 68.0336 180.185C68.0742 179.923 68.1861 179.677 68.3572 179.474C68.8453 178.952 69.7336 179.19 70.3183 179.587C72.18 180.894 72.6994 183.422 72.7107 185.695C72.8981 184.876 72.7391 184.02 72.7448 183.178C72.7505 182.336 72.9803 181.404 73.6899 180.953C74.133 180.715 74.6313 180.597 75.1344 180.613C75.9716 180.585 76.9025 180.667 77.473 181.279C78.1853 182.039 78.0009 183.314 77.3822 184.15C76.7635 184.987 75.8241 185.511 74.9585 186.086C74.2654 186.5 73.6739 187.064 73.2273 187.736C73.1763 187.826 73.1336 187.921 73.0996 188.019H67.852C66.6746 187.428 65.5833 186.68 64.6081 185.794V185.794Z" fill="#219653"/>
<path d="M32.1409 187.413C31.5222 186.846 30.9432 186.166 30.7673 185.344C30.5913 184.522 30.9404 183.538 31.7265 183.238C32.6063 182.9 33.5485 183.521 34.2609 184.128C34.9732 184.734 35.7934 185.446 36.7272 185.315C36.2468 184.88 35.8873 184.329 35.6839 183.714C35.4805 183.099 35.44 182.442 35.5664 181.806C35.6069 181.544 35.7189 181.298 35.8899 181.095C36.3781 180.571 37.2664 180.795 37.851 181.208C39.7128 182.515 40.2321 185.04 40.2435 187.314C40.4308 186.495 40.2719 185.641 40.2776 184.8C40.2832 183.958 40.5131 183.025 41.2226 182.575C41.6658 182.336 42.1641 182.219 42.6672 182.234C43.5016 182.203 44.4353 182.288 45.0057 182.898C45.7181 183.657 45.5336 184.933 44.9149 185.769C44.2962 186.605 43.3568 187.129 42.4912 187.708C41.7977 188.121 41.2061 188.685 40.76 189.357C40.7086 189.448 40.6659 189.542 40.6323 189.641H35.3791C34.2042 189.047 33.115 188.298 32.1409 187.413V187.413Z" fill="#219653"/>
<path d="M1.41617 182.983C0.800317 182.416 0.221357 181.736 0.0453982 180.914C-0.130561 180.092 0.218518 179.105 1.00466 178.805C1.88445 178.47 2.82668 179.088 3.53903 179.695C4.25138 180.301 5.07158 181.013 6.0053 180.882C5.5249 180.448 5.16544 179.897 4.962 179.282C4.75857 178.668 4.7181 178.011 4.84454 177.376C4.88985 177.116 5.00566 176.873 5.17942 176.673C5.66757 176.152 6.55304 176.376 7.14051 176.787C9.00227 178.096 9.52163 180.622 9.53299 182.895C9.7203 182.076 9.56137 181.22 9.56704 180.378C9.57272 179.536 9.8026 178.606 10.5121 178.153C10.9543 177.915 11.4518 177.799 11.9538 177.816C12.7911 177.784 13.7248 177.867 14.2952 178.479C15.0076 179.238 14.8231 180.514 14.2044 181.35C13.5857 182.186 12.6463 182.711 11.7807 183.289C11.0863 183.701 10.4945 184.265 10.0495 184.938C9.9981 185.029 9.95534 185.124 9.9218 185.222H4.6629C3.48449 184.625 2.39234 183.872 1.41617 182.983V182.983Z" fill="#219653"/>
<path opacity="0.1" d="M107.122 29.9255H105.34C105.66 29.9102 105.963 29.7723 106.184 29.5404C106.405 29.3084 106.529 29.0002 106.529 28.6798C106.529 28.3593 106.405 28.0511 106.184 27.8192C105.963 27.5872 105.66 27.4493 105.34 27.434H90.8884C90.7196 27.426 90.5509 27.4523 90.3926 27.5112C90.2342 27.5702 90.0895 27.6607 89.9672 27.7771C89.8449 27.8936 89.7475 28.0337 89.681 28.1888C89.6145 28.344 89.5802 28.511 89.5802 28.6798C89.5802 28.8485 89.6145 29.0156 89.681 29.1707C89.7475 29.3259 89.8449 29.4659 89.9672 29.5824C90.0895 29.6989 90.2342 29.7893 90.3926 29.8483C90.5509 29.9073 90.7196 29.9335 90.8884 29.9255H92.6707C92.5067 29.9255 92.3444 29.9577 92.1929 30.0204C92.0413 30.0831 91.9037 30.175 91.7877 30.2908C91.6718 30.4066 91.5798 30.5441 91.517 30.6954C91.4543 30.8467 91.422 31.0088 91.422 31.1726C91.422 31.3364 91.4543 31.4986 91.517 31.6499C91.5798 31.8012 91.6718 31.9387 91.7877 32.0545C91.9037 32.1703 92.0413 32.2621 92.1929 32.3248C92.3444 32.3875 92.5067 32.4197 92.6707 32.4197H90.1761C90.0073 32.4117 89.8386 32.438 89.6802 32.4969C89.5219 32.5559 89.3772 32.6464 89.2549 32.7628C89.1326 32.8793 89.0352 33.0194 88.9687 33.1745C88.9021 33.3297 88.8678 33.4967 88.8678 33.6655C88.8678 33.8342 88.9021 34.0013 88.9687 34.1564C89.0352 34.3116 89.1326 34.4516 89.2549 34.5681C89.3772 34.6846 89.5219 34.775 89.6802 34.834C89.8386 34.893 90.0073 34.9192 90.1761 34.9112H104.625C104.793 34.9192 104.962 34.893 105.12 34.834C105.279 34.775 105.423 34.6846 105.546 34.5681C105.668 34.4516 105.765 34.3116 105.832 34.1564C105.899 34.0013 105.933 33.8342 105.933 33.6655C105.933 33.4967 105.899 33.3297 105.832 33.1745C105.765 33.0194 105.668 32.8793 105.546 32.7628C105.423 32.6464 105.279 32.5559 105.12 32.4969C104.962 32.438 104.793 32.4117 104.625 32.4197H107.122C107.453 32.4197 107.771 32.2884 108.005 32.0545C108.239 31.8206 108.371 31.5034 108.371 31.1726C108.371 30.8419 108.239 30.5246 108.005 30.2908C107.771 30.0569 107.453 29.9255 107.122 29.9255V29.9255Z" fill="#219653"/>
<path opacity="0.1" d="M239.823 73.167H238.041C238.372 73.167 238.69 73.0356 238.924 72.8018C239.158 72.5679 239.29 72.2507 239.29 71.9199C239.29 71.5891 239.158 71.2719 238.924 71.038C238.69 70.8042 238.372 70.6728 238.041 70.6728H223.601C223.27 70.6728 222.952 70.8042 222.718 71.038C222.484 71.2719 222.352 71.5891 222.352 71.9199C222.352 72.2507 222.484 72.5679 222.718 72.8018C222.952 73.0356 223.27 73.167 223.601 73.167H225.383C225.215 73.159 225.046 73.1852 224.888 73.2442C224.729 73.3032 224.585 73.3936 224.462 73.5101C224.34 73.6266 224.243 73.7666 224.176 73.9218C224.11 74.0769 224.075 74.244 224.075 74.4127C224.075 74.5815 224.11 74.7485 224.176 74.9037C224.243 75.0588 224.34 75.1989 224.462 75.3154C224.585 75.4318 224.729 75.5223 224.888 75.5813C225.046 75.6402 225.215 75.6665 225.383 75.6585H222.889C222.72 75.6504 222.551 75.6767 222.393 75.7356C222.235 75.7946 222.09 75.8851 221.968 76.0015C221.845 76.118 221.748 76.2581 221.681 76.4132C221.615 76.5684 221.581 76.7354 221.581 76.9042C221.581 77.073 221.615 77.24 221.681 77.3951C221.748 77.5503 221.845 77.6903 221.968 77.8068C222.09 77.9233 222.235 78.0137 222.393 78.0727C222.551 78.1317 222.72 78.1579 222.889 78.1499H237.332C237.5 78.1579 237.669 78.1317 237.827 78.0727C237.986 78.0137 238.131 77.9233 238.253 77.8068C238.375 77.6903 238.473 77.5503 238.539 77.3951C238.606 77.24 238.64 77.073 238.64 76.9042C238.64 76.7354 238.606 76.5684 238.539 76.4132C238.473 76.2581 238.375 76.118 238.253 76.0015C238.131 75.8851 237.986 75.7946 237.827 75.7356C237.669 75.6767 237.5 75.6504 237.332 75.6585H239.829C240.15 75.6432 240.452 75.5053 240.673 75.2733C240.895 75.0414 241.018 74.7332 241.018 74.4127C241.018 74.0923 240.895 73.7841 240.673 73.5522C240.452 73.3202 240.15 73.1823 239.829 73.167H239.823Z" fill="#219653"/>
<path opacity="0.1" d="M80.1039 65.6899H78.3216C78.6527 65.6899 78.9704 65.5585 79.2046 65.3246C79.4387 65.0908 79.5703 64.7735 79.5703 64.4428C79.5703 64.112 79.4387 63.7948 79.2046 63.5609C78.9704 63.327 78.6527 63.1956 78.3216 63.1956H63.8787C63.5476 63.1956 63.2299 63.327 62.9957 63.5609C62.7616 63.7948 62.63 64.112 62.63 64.4428C62.63 64.7735 62.7616 65.0908 62.9957 65.3246C63.2299 65.5585 63.5476 65.6899 63.8787 65.6899H65.661C65.3405 65.7052 65.0382 65.8431 64.8168 66.075C64.5953 66.307 64.4718 66.6152 64.4718 66.9356C64.4718 67.2561 64.5953 67.5643 64.8168 67.7962C65.0382 68.0282 65.3405 68.1661 65.661 68.1813H63.1664C62.9976 68.1733 62.8289 68.1996 62.6706 68.2585C62.5122 68.3175 62.3675 68.408 62.2452 68.5244C62.1229 68.6409 62.0255 68.7809 61.959 68.9361C61.8924 69.0912 61.8581 69.2583 61.8581 69.4271C61.8581 69.5958 61.8924 69.7629 61.959 69.918C62.0255 70.0732 62.1229 70.2132 62.2452 70.3297C62.3675 70.4461 62.5122 70.5366 62.6706 70.5956C62.8289 70.6546 62.9976 70.6808 63.1664 70.6728H77.6064C77.9269 70.6575 78.2292 70.5196 78.4506 70.2876C78.6721 70.0557 78.7956 69.7475 78.7956 69.4271C78.7956 69.1066 78.6721 68.7984 78.4506 68.5665C78.2292 68.3345 77.9269 68.1966 77.6064 68.1813H80.1039C80.2727 68.1894 80.4413 68.1631 80.5997 68.1042C80.758 68.0452 80.9028 67.9547 81.0251 67.8383C81.1474 67.7218 81.2448 67.5817 81.3113 67.4266C81.3778 67.2714 81.4121 67.1044 81.4121 66.9356C81.4121 66.7668 81.3778 66.5998 81.3113 66.4447C81.2448 66.2895 81.1474 66.1495 81.0251 66.033C80.9028 65.9165 80.758 65.8261 80.5997 65.7671C80.4413 65.7081 80.2727 65.6819 80.1039 65.6899V65.6899Z" fill="#219653"/>
</g>
<defs>
<clipPath id="clip0_202_710">
<rect width="276" height="236" fill="white"/>
</clipPath>
</defs>
</svg>
