<svg width="133" height="209" viewBox="0 0 133 209" fill="none" xmlns="http://www.w3.org/2000/svg">
<path d="M112.096 97.4336C112.096 97.4336 117.643 91.887 117.643 90.426C117.643 88.9649 116.759 85.9904 113.846 85.4655C110.933 84.9406 97.7923 94.2229 97.7923 94.2229L112.096 97.4336Z" fill="#FFE5C5"/>
<path d="M95.1152 178.114C94.4153 194.902 93.6717 207.177 93.1205 207.457C91.3708 208.331 37.7066 208.078 37.0942 207.457C35.3445 205.707 33.8835 83.1383 34.1722 81.3886C34.2597 80.8812 39.3164 80.6187 46.5165 80.5137C64.3025 80.26 95.1677 80.9687 96.62 81.3886C98.0373 81.791 96.6725 140.993 95.1152 178.114Z" fill="url(#paint0_linear_202_754)"/>
<path d="M91.0821 205.051C89.4636 205.873 39.8151 205.637 39.2377 205.051C37.8554 203.642 36.6656 119.078 36.5081 93.6192C36.4906 89.3149 36.4994 86.7078 36.5344 86.4628C36.8056 84.8181 92.4207 85.9204 94.3191 86.4628C94.5816 86.5416 94.7391 88.8162 94.8178 92.7006C95.2902 117.039 92.4907 204.342 91.0821 205.051Z" fill="#82B378"/>
<path d="M60.9868 83.8557C60.9868 83.8557 61.6254 90.1635 65.886 90.1635C70.0853 90.1635 70.794 83.8557 70.794 83.8557H60.9868Z" fill="url(#paint1_linear_202_754)"/>
<path d="M67.1021 86.9703C67.1021 87.7139 66.5684 88.3263 65.921 88.3263C65.2649 88.3263 64.74 87.7226 64.74 86.9703C64.74 86.4541 64.9849 86.0079 65.3524 85.7804C65.5186 85.6755 65.7111 85.6142 65.9123 85.6142C66.1922 85.6142 66.4459 85.7192 66.6384 85.9029C66.9271 86.1566 67.1021 86.5416 67.1021 86.9703Z" fill="#696384"/>
<path d="M66.6471 86.9615C66.6471 87.3727 66.3497 87.7139 65.991 87.7139C65.6323 87.7139 65.3348 87.3814 65.3348 86.9615C65.3348 86.5503 65.6323 86.2091 65.991 86.2091C66.3497 86.2091 66.6471 86.5416 66.6471 86.9615Z" fill="url(#paint2_linear_202_754)"/>
<path d="M66.6471 85.9292C66.6471 86.3316 66.3497 86.6553 65.991 86.6553C65.6323 86.6553 65.3348 86.3316 65.3348 85.9292C65.3348 85.8767 65.3348 85.8329 65.3436 85.7804C65.5098 85.6755 65.7023 85.6142 65.9035 85.6142C66.1834 85.6142 66.4371 85.7192 66.6296 85.9029C66.6471 85.9117 66.6471 85.9204 66.6471 85.9292Z" fill="url(#paint3_linear_202_754)"/>
<path d="M43.8307 153.871L88.7812 154.833V188.306L45.7379 187.352L43.8307 153.871Z" fill="url(#paint4_linear_202_754)"/>
<path d="M67.8895 55.6064H67.4695L67.697 23.4639L67.8895 26.9108V55.6064Z" fill="url(#paint5_linear_202_754)"/>
<path d="M57.3998 63.4801L18.7046 52.7893L24.2512 54.3466L57.5136 63.104L57.3998 63.4801Z" fill="url(#paint6_linear_202_754)"/>
<path d="M75.7895 64.2763L75.632 63.9088L103.838 53.8216L104.441 53.6292L75.7895 64.2763Z" fill="url(#paint7_linear_202_754)"/>
<path d="M66.3497 118.815C59.4995 118.815 52.8506 117.442 46.5953 114.73C40.55 112.114 35.1258 108.369 30.4715 103.593C25.8173 98.8247 22.1603 93.2693 19.6057 87.084C16.9636 80.68 15.6251 73.8823 15.6251 66.8746C15.6251 59.867 16.9636 53.0693 19.6057 46.6653C22.1603 40.48 25.8173 34.9246 30.4715 30.1566C35.1346 25.3886 40.5587 21.6441 46.5953 19.0195C52.8506 16.3075 59.4995 14.9339 66.3497 14.9339C73.1999 14.9339 79.8489 16.3075 86.1041 19.0195C92.1495 21.6354 97.5736 25.3798 102.228 30.1566C106.882 34.9246 110.539 40.48 113.094 46.6653C115.736 53.0693 117.074 59.867 117.074 66.8746C117.074 73.8823 115.736 80.68 113.094 87.084C110.539 93.2693 106.882 98.8247 102.228 103.593C97.5649 108.361 92.1407 112.105 86.1041 114.73C79.8489 117.442 73.2086 118.815 66.3497 118.815ZM65.9473 15.0827C38.3541 15.0827 16.08 38.7652 16.08 67.0321C16.08 95.299 38.3541 118.982 65.9473 118.982C93.5405 118.982 116.689 95.299 116.689 67.0321C116.689 38.7652 93.5317 15.0827 65.9473 15.0827Z" fill="url(#paint8_linear_202_754)"/>
<path d="M66.8484 75.2383C73.5017 75.2383 78.8952 70.0758 78.8952 63.7076C78.8952 57.3394 73.5017 52.1769 66.8484 52.1769C60.1951 52.1769 54.8015 57.3394 54.8015 63.7076C54.8015 70.0758 60.1951 75.2383 66.8484 75.2383Z" fill="url(#paint9_radial_202_754)"/>
<path opacity="0.5" d="M77.128 59.2458C77.128 64.4338 72.7362 68.6418 67.3207 68.6418C61.9053 68.6418 57.5135 64.4338 57.5135 59.2458C57.5135 58.3272 57.6535 57.4348 57.9072 56.595C60.0156 54.1716 63.1914 52.6318 66.7433 52.6318C71.3276 52.6318 75.282 55.1952 77.128 58.9134C77.128 59.0183 77.128 59.1321 77.128 59.2458Z" fill="url(#paint10_linear_202_754)"/>
<path d="M69.9366 55.6851C69.9366 56.2275 69.3417 56.6737 68.6156 56.6737C67.8894 56.6737 67.2945 56.2363 67.2945 55.6851C67.2945 55.1427 67.8894 54.6965 68.6156 54.6965C69.3417 54.6965 69.9366 55.134 69.9366 55.6851Z" fill="white"/>
<path d="M74.4509 63.0864L72.3862 63.0252L71.2401 60.9255L72.2462 59.1146C71.4326 58.3272 70.4527 57.7235 69.3679 57.3561L67.9594 59.3245H65.4835L64.3462 57.3911C63.2351 57.7848 62.2378 58.4322 61.4241 59.2545L62.5527 61.293L61.4066 63.3926L59.2895 63.4539C59.2282 63.8563 59.1932 64.2675 59.1932 64.6962C59.1932 65.2823 59.2545 65.851 59.3857 66.4022L61.5991 66.4722L62.7452 68.5718L61.7216 70.4266C62.5265 71.1614 63.4888 71.7301 64.5562 72.0713L65.8597 70.2516H68.3356L69.3767 72.0276C70.444 71.6689 71.4063 71.074 72.2025 70.3128L71.2401 68.5718L72.3862 66.4722L74.4246 66.4109C74.5471 65.8598 74.6171 65.2823 74.6171 64.6962C74.6171 64.1363 74.5559 63.6026 74.4509 63.0864ZM66.962 67.5133C65.4135 67.5133 64.1537 66.2447 64.1537 64.6874C64.1537 63.1302 65.4135 61.8616 66.962 61.8616C68.5105 61.8616 69.7703 63.1302 69.7703 64.6874C69.7703 66.2447 68.5105 67.5133 66.962 67.5133Z" fill="url(#paint11_linear_202_754)"/>
<path d="M14.8464 67.2158C23.0459 67.2158 29.6929 60.8469 29.6929 52.9905C29.6929 45.1341 23.0459 38.7652 14.8464 38.7652C6.64698 38.7652 0 45.1341 0 52.9905C0 60.8469 6.64698 67.2158 14.8464 67.2158Z" fill="url(#paint12_radial_202_754)"/>
<path opacity="0.5" d="M27.5232 47.4964C27.5232 53.8916 22.1078 59.0796 15.4238 59.0796C8.73989 59.0796 3.32448 53.8916 3.32448 47.4964C3.32448 46.359 3.4907 45.2655 3.8144 44.2331C6.41275 41.2411 10.3321 39.3426 14.7065 39.3426C20.3581 39.3426 25.2311 42.5096 27.5057 47.0852C27.5232 47.2164 27.5232 47.3564 27.5232 47.4964Z" fill="url(#paint13_linear_202_754)"/>
<path d="M18.6521 43.1045C18.6521 43.7782 17.926 44.3206 17.0248 44.3206C16.1237 44.3206 15.3976 43.7782 15.3976 43.1045C15.3976 42.4309 16.1237 41.8885 17.0248 41.8885C17.926 41.8885 18.6521 42.4309 18.6521 43.1045Z" fill="white"/>
<path d="M19.4395 58.1959L23.0789 62.8677L18.3372 59.1408C17.506 59.7095 16.5349 60.1031 15.4851 60.2431L14.654 65.1424L13.4904 60.2256C12.6855 60.0944 11.9244 59.8232 11.242 59.4295L7.13015 63.5589L10.0959 58.6071C9.9822 58.5109 9.86847 58.3972 9.76348 58.2922C8.45119 59.1058 6.94642 60.0244 6.94642 60.0244L9.24732 57.6973C8.64366 56.9099 8.20623 55.9825 7.99626 54.9764L2.61584 54.2678C2.61584 54.2678 6.58773 53.8566 7.85628 53.7429C7.85628 53.6991 7.85628 53.6641 7.85628 53.6204C7.85628 52.6406 8.06625 51.7132 8.44244 50.8733L4.5493 46.9277L9.43104 49.3073C10.4546 48.0913 11.9069 47.2514 13.5516 46.9977C13.6829 45.4317 13.8753 43.3932 13.8753 43.3932L14.6627 46.9277C15.7476 46.9452 16.7624 47.2164 17.6635 47.6888L19.1858 46.1491C19.1508 46.2103 18.6696 47.0152 18.1184 47.9513C18.6609 48.2925 19.142 48.7037 19.562 49.1761L24.0238 47.5226L20.2269 50.0597C20.7955 50.9696 21.1542 52.0194 21.233 53.1392L26.6834 54.1628L21.1105 54.9327C20.883 56.1838 20.2881 57.3036 19.4395 58.1959Z" fill="url(#paint14_linear_202_754)"/>
<path d="M117.284 65.921C125.484 65.921 132.131 59.5521 132.131 51.6957C132.131 43.8393 125.484 37.4704 117.284 37.4704C109.085 37.4704 102.438 43.8393 102.438 51.6957C102.438 59.5521 109.085 65.921 117.284 65.921Z" fill="url(#paint15_radial_202_754)"/>
<path d="M118.15 44.2244C118.15 44.2244 107.941 60.0594 118.15 61.3367C129.148 60.0594 118.15 44.2244 118.15 44.2244Z" fill="url(#paint16_linear_202_754)"/>
<path opacity="0.5" d="M129.961 46.2016C129.961 52.5969 124.546 57.7848 117.87 57.7848C111.186 57.7848 105.771 52.5969 105.771 46.2016C105.771 45.0643 105.937 43.9707 106.261 42.9384C108.859 39.9463 112.779 38.0479 117.153 38.0479C122.805 38.0479 127.678 41.2149 129.952 45.7904C129.961 45.9304 129.961 46.0616 129.961 46.2016Z" fill="url(#paint17_linear_202_754)"/>
<path d="M121.099 41.8098C121.099 42.4834 120.373 43.0258 119.471 43.0258C118.57 43.0258 117.844 42.4834 117.844 41.8098C117.844 41.1361 118.57 40.5937 119.471 40.5937C120.364 40.5937 121.099 41.1361 121.099 41.8098Z" fill="white"/>
<path d="M67.6095 28.4506C75.809 28.4506 82.456 22.0817 82.456 14.2253C82.456 6.36888 75.809 0 67.6095 0C59.41 0 52.7631 6.36888 52.7631 14.2253C52.7631 22.0817 59.41 28.4506 67.6095 28.4506Z" fill="url(#paint18_radial_202_754)"/>
<path d="M58.9046 14.3478C58.9046 13.3592 58.8696 12.5543 58.8346 11.8194H60.1556L60.2256 13.1492H60.2606C60.8643 12.2044 61.8179 11.6445 63.1302 11.6445C65.0811 11.6445 66.5509 13.228 66.5509 15.5814C66.5509 18.3634 64.7837 19.737 62.8765 19.737C61.8091 19.737 60.873 19.2908 60.3919 18.5209H60.3569V22.729H58.9046V14.3478ZM60.3569 16.4125C60.3569 16.6224 60.3919 16.8149 60.4268 16.9899C60.6981 17.9697 61.5817 18.6346 62.6315 18.6346C64.1888 18.6346 65.0899 17.4186 65.0899 15.6426C65.0899 14.0941 64.2413 12.7643 62.684 12.7643C61.6779 12.7643 60.7505 13.4554 60.4618 14.5053C60.4094 14.6802 60.3656 14.8902 60.3656 15.0827V16.4125H60.3569Z" fill="url(#paint19_linear_202_754)"/>
<path d="M69.9103 8.78366V13.298H75.352V8.78366H76.8218V19.562H75.352V14.5053H69.9103V19.562H68.4581V8.78366H69.9103Z" fill="url(#paint20_linear_202_754)"/>
<path opacity="0.5" d="M80.2775 8.83614C80.2775 15.2314 74.8621 20.4193 68.1781 20.4193C61.4942 20.4193 56.0788 15.2314 56.0788 8.83614C56.0788 7.69881 56.245 6.60523 56.5687 5.57289C59.167 2.58086 63.0864 0.682404 67.4608 0.682404C73.1124 0.682404 77.9854 3.84941 80.26 8.42495C80.2775 8.56493 80.2775 8.69616 80.2775 8.83614Z" fill="url(#paint21_linear_202_754)"/>
<path d="M72.1325 4.86425C72.1325 5.5379 71.4064 6.08032 70.5053 6.08032C69.6042 6.08032 68.8781 5.5379 68.8781 4.86425C68.8781 4.19061 69.6042 3.64819 70.5053 3.64819C71.3977 3.64819 72.1325 4.19936 72.1325 4.86425Z" fill="white"/>
<path d="M51.302 169.19V174.693L81.4061 175.332L81.4411 170.572L51.302 169.19Z" fill="url(#paint22_linear_202_754)"/>
<path d="M94.8178 92.7006L36.5081 93.6192C36.4906 89.3149 36.4994 86.7078 36.5344 86.4628C36.8056 84.8181 92.4207 85.9204 94.3191 86.4628C94.5816 86.5416 94.7478 88.8162 94.8178 92.7006Z" fill="url(#paint23_linear_202_754)"/>
<path d="M55.9826 178.778V181.289H75.9995L75.9732 178.848L55.9826 178.778Z" fill="url(#paint24_linear_202_754)"/>
<path d="M47.6538 89.7961C47.6538 91.3796 45.7291 92.6656 43.3495 92.6656C40.9699 92.6656 39.0452 91.3796 39.0452 89.7961C39.0452 88.2125 40.9699 86.9265 43.3495 86.9265C45.7291 86.9265 47.6538 88.2125 47.6538 89.7961Z" fill="url(#paint25_linear_202_754)"/>
<path d="M66.5597 145.035C76.4744 145.035 84.5119 136.997 84.5119 127.083C84.5119 117.168 76.4744 109.131 66.5597 109.131C56.6449 109.131 48.6075 117.168 48.6075 127.083C48.6075 136.997 56.6449 145.035 66.5597 145.035Z" fill="white"/>
<path d="M66.8046 143.355C76.0574 143.355 83.5583 135.854 83.5583 126.602C83.5583 117.349 76.0574 109.848 66.8046 109.848C57.5518 109.848 50.051 117.349 50.051 126.602C50.051 135.854 57.5518 143.355 66.8046 143.355Z" fill="url(#paint26_linear_202_754)"/>
<g style="mix-blend-mode:color-burn" opacity="0.05">
<path d="M93.9954 178.324L76.2007 177.834L45.3967 82.2022C63.1827 81.9485 94.0479 82.6484 95.5002 83.0596C96.9087 83.4533 95.5527 141.754 93.9954 178.324Z" fill="url(#paint27_linear_202_754)"/>
</g>
<path d="M61.5467 126.068C61.5467 126.068 63.9876 126.479 65.8161 128.518C67.6445 130.556 66.2185 136.251 66.2185 136.251H68.4582C68.4582 136.251 67.2421 130.145 67.6533 128.719C68.0645 127.293 70.7066 125.665 70.7066 125.665L70.5053 125.053C70.5053 125.053 67.8545 128.308 67.2421 127.896C66.6297 127.485 67.0409 122.192 67.0409 122.192L66.4285 122.595C66.4285 122.595 66.8309 128.089 66.2185 128.089C65.6061 128.089 62.1504 125.036 62.1504 125.036L61.5467 126.068Z" fill="url(#paint28_linear_202_754)"/>
<path d="M69.8929 125.867C69.8929 125.867 70.3041 122.201 72.7449 122C75.1858 121.799 76.6118 123.837 77.2242 123.837C77.8366 123.837 78.2391 123.636 78.2391 123.636C78.2391 123.636 75.5882 131.772 69.8929 125.867Z" fill="url(#paint29_linear_202_754)"/>
<path d="M66.236 113.855C66.236 113.855 61.9579 116.908 63.3839 120.163C64.81 123.417 66.8396 123.426 66.8396 123.426C66.8396 123.426 69.2805 121.186 69.4905 119.76C69.7004 118.334 66.236 113.855 66.236 113.855Z" fill="url(#paint30_linear_202_754)"/>
<path d="M63.5851 126.47C63.5851 126.47 63.1827 122.805 60.7418 122.603C58.3009 122.402 56.8749 124.432 56.2625 124.432C55.6501 124.432 55.2477 124.231 55.2477 124.231C55.2477 124.231 57.881 132.376 63.5851 126.47Z" fill="url(#paint31_linear_202_754)"/>
<defs>
<linearGradient id="paint0_linear_202_754" x1="63.844" y1="244.741" x2="66.0792" y2="57.8722" gradientUnits="userSpaceOnUse">
<stop stop-color="#56337F"/>
<stop offset="0.9944" stop-color="#291650"/>
</linearGradient>
<linearGradient id="paint1_linear_202_754" x1="65.5644" y1="90.7984" x2="65.9062" y2="83.4224" gradientUnits="userSpaceOnUse">
<stop stop-color="#56337F"/>
<stop offset="0.9944" stop-color="#291650"/>
</linearGradient>
<linearGradient id="paint2_linear_202_754" x1="66.2788" y1="94.9604" x2="66.2332" y2="93.6848" gradientUnits="userSpaceOnUse">
<stop stop-color="#56337F"/>
<stop offset="0.9944" stop-color="#291650"/>
</linearGradient>
<linearGradient id="paint3_linear_202_754" x1="66.1992" y1="91.6715" x2="66.1676" y2="90.7889" gradientUnits="userSpaceOnUse">
<stop stop-color="#DEDCED"/>
<stop offset="1" stop-color="white"/>
</linearGradient>
<linearGradient id="paint4_linear_202_754" x1="64.5897" y1="209.526" x2="66.2989" y2="171.19" gradientUnits="userSpaceOnUse">
<stop stop-color="#DEDCED"/>
<stop offset="1" stop-color="white"/>
</linearGradient>
<linearGradient id="paint5_linear_202_754" x1="69.2" y1="125.987" x2="67.9324" y2="55.4293" gradientUnits="userSpaceOnUse">
<stop stop-color="#2E92B8"/>
<stop offset="0.9944" stop-color="#291650"/>
</linearGradient>
<linearGradient id="paint6_linear_202_754" x1="39.5272" y1="136.966" x2="38.052" y2="54.8529" gradientUnits="userSpaceOnUse">
<stop stop-color="#2E92B8"/>
<stop offset="0.9944" stop-color="#291650"/>
</linearGradient>
<linearGradient id="paint7_linear_202_754" x1="91.217" y1="124.619" x2="89.9663" y2="55.0009" gradientUnits="userSpaceOnUse">
<stop stop-color="#2E92B8"/>
<stop offset="0.9944" stop-color="#291650"/>
</linearGradient>
<linearGradient id="paint8_linear_202_754" x1="67.2833" y1="118.637" x2="66.1497" y2="55.5395" gradientUnits="userSpaceOnUse">
<stop stop-color="#2E92B8"/>
<stop offset="0.9944" stop-color="#291650"/>
</linearGradient>
<radialGradient id="paint9_radial_202_754" cx="0" cy="0" r="1" gradientUnits="userSpaceOnUse" gradientTransform="translate(66.8481 63.7034) scale(12.0441 11.5346)">
<stop stop-color="#56337F"/>
<stop offset="0.9944" stop-color="#291650"/>
</radialGradient>
<linearGradient id="paint10_linear_202_754" x1="63.0693" y1="68.7182" x2="69.2637" y2="55.0353" gradientUnits="userSpaceOnUse">
<stop offset="0.1411" stop-color="#44226F"/>
<stop offset="1" stop-color="#46588F"/>
</linearGradient>
<linearGradient id="paint11_linear_202_754" x1="65.2669" y1="72.8329" x2="69.0809" y2="53.9752" gradientUnits="userSpaceOnUse">
<stop stop-color="#DEDCED"/>
<stop offset="1" stop-color="white"/>
</linearGradient>
<radialGradient id="paint12_radial_202_754" cx="0" cy="0" r="1" gradientUnits="userSpaceOnUse" gradientTransform="translate(14.848 52.9903) scale(14.8498 14.2216)">
<stop stop-color="#56337F"/>
<stop offset="0.9944" stop-color="#291650"/>
</radialGradient>
<linearGradient id="paint13_linear_202_754" x1="10.1891" y1="59.1733" x2="17.8263" y2="42.3029" gradientUnits="userSpaceOnUse">
<stop offset="0.1411" stop-color="#44226F"/>
<stop offset="1" stop-color="#46588F"/>
</linearGradient>
<linearGradient id="paint14_linear_202_754" x1="12.7705" y1="61.7743" x2="15.8592" y2="49.4196" gradientUnits="userSpaceOnUse">
<stop stop-color="#DEDCED"/>
<stop offset="1" stop-color="white"/>
</linearGradient>
<radialGradient id="paint15_radial_202_754" cx="0" cy="0" r="1" gradientUnits="userSpaceOnUse" gradientTransform="translate(117.288 51.6984) scale(14.8498 14.2216)">
<stop stop-color="#56337F"/>
<stop offset="0.9944" stop-color="#291650"/>
</radialGradient>
<linearGradient id="paint16_linear_202_754" x1="113.596" y1="74.6687" x2="121.949" y2="41.8524" gradientUnits="userSpaceOnUse">
<stop stop-color="#DEDCED"/>
<stop offset="1" stop-color="white"/>
</linearGradient>
<linearGradient id="paint17_linear_202_754" x1="112.629" y1="57.8814" x2="120.266" y2="41.011" gradientUnits="userSpaceOnUse">
<stop offset="0.1411" stop-color="#44226F"/>
<stop offset="1" stop-color="#46588F"/>
</linearGradient>
<radialGradient id="paint18_radial_202_754" cx="0" cy="0" r="1" gradientUnits="userSpaceOnUse" gradientTransform="translate(67.6066 14.2219) scale(14.8498 14.2216)">
<stop stop-color="#56337F"/>
<stop offset="0.9944" stop-color="#291650"/>
</radialGradient>
<linearGradient id="paint19_linear_202_754" x1="62.2154" y1="28.5437" x2="62.8639" y2="8.54938" gradientUnits="userSpaceOnUse">
<stop stop-color="#DEDCED"/>
<stop offset="1" stop-color="white"/>
</linearGradient>
<linearGradient id="paint20_linear_202_754" x1="72.1621" y1="28.8597" x2="72.8109" y2="8.85522" gradientUnits="userSpaceOnUse">
<stop stop-color="#DEDCED"/>
<stop offset="1" stop-color="white"/>
</linearGradient>
<linearGradient id="paint21_linear_202_754" x1="62.9477" y1="20.5157" x2="70.585" y2="3.64522" gradientUnits="userSpaceOnUse">
<stop offset="0.1411" stop-color="#44226F"/>
<stop offset="1" stop-color="#46588F"/>
</linearGradient>
<linearGradient id="paint22_linear_202_754" x1="54.669" y1="227.83" x2="62.2625" y2="191.718" gradientUnits="userSpaceOnUse">
<stop offset="0.1411" stop-color="#443BBF"/>
<stop offset="1" stop-color="#7FD7DF"/>
</linearGradient>
<linearGradient id="paint23_linear_202_754" x1="87.8681" y1="44.8449" x2="57.5903" y2="105.889" gradientUnits="userSpaceOnUse">
<stop stop-color="#DEDCED"/>
<stop offset="1" stop-color="white"/>
</linearGradient>
<linearGradient id="paint24_linear_202_754" x1="58.8841" y1="213.818" x2="64.175" y2="188.657" gradientUnits="userSpaceOnUse">
<stop offset="0.1411" stop-color="#443BBF"/>
<stop offset="1" stop-color="#7FD7DF"/>
</linearGradient>
<linearGradient id="paint25_linear_202_754" x1="36.0691" y1="130.82" x2="39.7318" y2="110.187" gradientUnits="userSpaceOnUse">
<stop offset="0.1411" stop-color="#443BBF"/>
<stop offset="1" stop-color="#7FD7DF"/>
</linearGradient>
<linearGradient id="paint26_linear_202_754" x1="67.1887" y1="86.095" x2="66.615" y2="146.03" gradientUnits="userSpaceOnUse">
<stop offset="0.1411" stop-color="#443BBF"/>
<stop offset="1" stop-color="#7FD7DF"/>
</linearGradient>
<linearGradient id="paint27_linear_202_754" x1="102.649" y1="169.981" x2="67.7226" y2="87.6682" gradientUnits="userSpaceOnUse">
<stop offset="0.1411" stop-color="#44226F"/>
<stop offset="1" stop-color="#46588F"/>
</linearGradient>
<linearGradient id="paint28_linear_202_754" x1="61.4668" y1="143.739" x2="70.07" y2="113.149" gradientUnits="userSpaceOnUse">
<stop offset="0.1411" stop-color="#68EAA2"/>
<stop offset="1" stop-color="#E6FF8B"/>
</linearGradient>
<linearGradient id="paint29_linear_202_754" x1="68.1627" y1="145.622" x2="76.7657" y2="115.033" gradientUnits="userSpaceOnUse">
<stop offset="0.1411" stop-color="#68EAA2"/>
<stop offset="1" stop-color="#E6FF8B"/>
</linearGradient>
<linearGradient id="paint30_linear_202_754" x1="59.5049" y1="143.187" x2="68.108" y2="112.598" gradientUnits="userSpaceOnUse">
<stop offset="0.1411" stop-color="#68EAA2"/>
<stop offset="1" stop-color="#E6FF8B"/>
</linearGradient>
<linearGradient id="paint31_linear_202_754" x1="54.7699" y1="141.855" x2="63.3729" y2="111.266" gradientUnits="userSpaceOnUse">
<stop offset="0.1411" stop-color="#68EAA2"/>
<stop offset="1" stop-color="#E6FF8B"/>
</linearGradient>
</defs>
</svg>
