<svg width="32" height="32" viewBox="0 0 32 32" fill="none" xmlns="http://www.w3.org/2000/svg">
    <path d="M23 16.0003C23 17.8568 22.2625 19.6373 20.9497 20.95C19.637 22.2628 17.8565 23.0003 16 23.0003C14.1435 23.0003 12.363 22.2628 11.0503 20.95C9.7375 19.6373 9 17.8568 9 16.0003C9 14.1438 9.7375 12.3634 11.0503 11.0506C12.363 9.73784 14.1435 9.00031 16 9.00031C17.8565 9.00031 19.637 9.73784 20.9497 11.0506C22.2625 12.3634 23 14.1438 23 16.0003Z" fill="#FFD158"/>
    <path fill-rule="evenodd" clip-rule="evenodd" d="M15.9922 1.99945C15.9265 2.00048 15.8617 2.01439 15.8014 2.04047C15.7412 2.06654 15.6866 2.10421 15.6409 2.15137C15.5952 2.19852 15.5593 2.25425 15.5351 2.31531C15.5109 2.37636 15.499 2.44154 15.5 2.5072V5.49359C15.4991 5.55985 15.5113 5.62571 15.536 5.6872C15.5607 5.74868 15.5974 5.80456 15.6439 5.85175C15.6904 5.89893 15.7459 5.9364 15.807 5.96198C15.8681 5.98755 15.9337 6.00079 16 6.00079C16.0663 6.00079 16.1319 5.98755 16.193 5.96198C16.2541 5.9364 16.3096 5.89893 16.3561 5.85175C16.4026 5.80456 16.4393 5.74868 16.464 5.6872C16.4887 5.62571 16.5009 5.55985 16.5 5.49359V2.5072C16.501 2.44023 16.4886 2.37373 16.4635 2.31165C16.4383 2.24956 16.401 2.19318 16.3536 2.14581C16.3062 2.09845 16.2498 2.0611 16.1877 2.03595C16.1257 2.0108 16.0592 1.9984 15.9922 1.99945Z" fill="#FFD158"/>
    <path fill-rule="evenodd" clip-rule="evenodd" d="M15.9922 25.9994C15.9265 26.0004 15.8617 26.0143 15.8014 26.0404C15.7412 26.0665 15.6866 26.1042 15.6409 26.1514C15.5952 26.1985 15.5593 26.2541 15.5351 26.3152C15.5109 26.3762 15.499 26.4415 15.5 26.5072V29.4935C15.4991 29.5598 15.5113 29.6256 15.536 29.6871C15.5607 29.7486 15.5974 29.8045 15.6439 29.8517C15.6904 29.8989 15.7459 29.9363 15.807 29.9619C15.8681 29.9875 15.9337 30.0007 16 30.0007C16.0663 30.0007 16.1319 29.9875 16.193 29.9619C16.2541 29.9363 16.3096 29.8989 16.3561 29.8517C16.4026 29.8045 16.4393 29.7486 16.464 29.6871C16.4887 29.6256 16.5009 29.5598 16.5 29.4935V26.5072C16.501 26.4402 16.4886 26.3737 16.4635 26.3116C16.4383 26.2496 16.401 26.1931 16.3536 26.1458C16.3062 26.0984 16.2498 26.061 16.1877 26.0359C16.1257 26.0107 16.0592 25.9983 15.9922 25.9994Z" fill="#FFD158"/>
    <path fill-rule="evenodd" clip-rule="evenodd" d="M2.50779 15.4995C2.44154 15.4986 2.37576 15.5108 2.31427 15.5355C2.25279 15.5602 2.19683 15.5969 2.14964 15.6434C2.10246 15.6899 2.06499 15.7454 2.03941 15.8065C2.01384 15.8676 2.00067 15.9332 2.00067 15.9995C2.00067 16.0658 2.01384 16.1314 2.03941 16.1925C2.06499 16.2536 2.10246 16.3091 2.14964 16.3556C2.19683 16.4021 2.25279 16.4388 2.31427 16.4635C2.37576 16.4882 2.44154 16.5004 2.50779 16.4995H5.49217C5.55842 16.5004 5.62421 16.4882 5.68569 16.4635C5.74717 16.4388 5.80313 16.4021 5.85032 16.3556C5.8975 16.3091 5.93497 16.2536 5.96055 16.1925C5.98612 16.1314 5.99929 16.0658 5.99929 15.9995C5.99929 15.9332 5.98612 15.8676 5.96055 15.8065C5.93497 15.7454 5.8975 15.6899 5.85032 15.6434C5.80313 15.5969 5.74717 15.5602 5.68569 15.5355C5.62421 15.5108 5.55842 15.4986 5.49217 15.4995H2.50779Z" fill="#FFD158"/>
    <path fill-rule="evenodd" clip-rule="evenodd" d="M26.5078 15.4995C26.4415 15.4986 26.3758 15.5108 26.3143 15.5355C26.2528 15.5602 26.1968 15.5969 26.1496 15.6434C26.1025 15.6899 26.065 15.7454 26.0394 15.8065C26.0138 15.8676 26.0007 15.9332 26.0007 15.9995C26.0007 16.0658 26.0138 16.1314 26.0394 16.1925C26.065 16.2536 26.1025 16.3091 26.1496 16.3556C26.1968 16.4021 26.2528 16.4388 26.3143 16.4635C26.3758 16.4882 26.4415 16.5004 26.5078 16.4995H29.4922C29.5584 16.5004 29.6242 16.4882 29.6857 16.4635C29.7472 16.4388 29.8031 16.4021 29.8503 16.3556C29.8975 16.3091 29.935 16.2536 29.9605 16.1925C29.9861 16.1314 29.9993 16.0658 29.9993 15.9995C29.9993 15.9332 29.9861 15.8676 29.9605 15.8065C29.935 15.7454 29.8975 15.6899 29.8503 15.6434C29.8031 15.5969 29.7472 15.5602 29.6857 15.5355C29.6242 15.5108 29.5584 15.4986 29.4922 15.4995H26.5078Z" fill="#FFD158"/>
    <path fill-rule="evenodd" clip-rule="evenodd" d="M25.4844 6.00135C25.3546 6.00496 25.2313 6.05889 25.1406 6.15174L23.1523 8.14197C23.1043 8.18803 23.0659 8.24324 23.0394 8.30433C23.013 8.36541 22.999 8.43112 22.9983 8.49768C22.9975 8.56425 23.0101 8.63026 23.0353 8.6919C23.0604 8.75353 23.0976 8.8095 23.1447 8.85657C23.1918 8.90364 23.2478 8.94093 23.3094 8.96607C23.371 8.99121 23.4371 9.00377 23.5036 9.00306C23.5702 9.00234 23.636 8.98838 23.697 8.96192C23.7581 8.93546 23.8133 8.89707 23.8594 8.849L25.8476 6.85877C25.9195 6.78848 25.9686 6.6982 25.9883 6.59961C26.0081 6.50103 25.9977 6.39873 25.9585 6.30616C25.9192 6.21358 25.853 6.13494 25.7684 6.08057C25.6839 6.0262 25.5849 5.9986 25.4844 6.00135Z" fill="#FFD158"/>
    <path fill-rule="evenodd" clip-rule="evenodd" d="M6.49997 5.99945C6.40038 5.99947 6.30306 6.02922 6.22048 6.0849C6.13791 6.14058 6.07384 6.21963 6.03649 6.31195C5.99914 6.40428 5.99022 6.50566 6.01085 6.60309C6.03149 6.70052 6.08075 6.78957 6.15232 6.85883L8.1406 8.84906C8.18665 8.89713 8.24184 8.93552 8.30292 8.96198C8.364 8.98843 8.42975 9.0024 8.49632 9.00311C8.56288 9.00383 8.62892 8.99127 8.69056 8.96613C8.75219 8.94098 8.80819 8.9037 8.85526 8.85663C8.90233 8.80956 8.93953 8.75359 8.96468 8.69196C8.98983 8.63032 9.00241 8.56431 9.0017 8.49774C9.00099 8.43118 8.987 8.36547 8.96054 8.30438C8.93408 8.2433 8.8957 8.18808 8.84763 8.14203L6.85935 6.15179C6.81273 6.10359 6.75689 6.0653 6.69515 6.03912C6.63341 6.01294 6.56703 5.99946 6.49997 5.99945Z" fill="#FFD158"/>
    <path fill-rule="evenodd" clip-rule="evenodd" d="M23.5 22.9995C23.4004 22.9995 23.3031 23.0292 23.2205 23.0849C23.1379 23.1406 23.0738 23.2196 23.0365 23.312C22.9991 23.4043 22.9902 23.5057 23.0109 23.6031C23.0315 23.7005 23.0807 23.7896 23.1523 23.8588L25.1406 25.8491C25.1867 25.8971 25.2418 25.9355 25.3029 25.962C25.364 25.9884 25.4298 26.0024 25.4963 26.0031C25.5629 26.0038 25.6289 25.9913 25.6906 25.9661C25.7522 25.941 25.8082 25.9037 25.8553 25.8566C25.9023 25.8096 25.9395 25.7536 25.9647 25.692C25.9898 25.6303 26.0024 25.5643 26.0017 25.4977C26.001 25.4312 25.987 25.3655 25.9605 25.3044C25.9341 25.2433 25.8957 25.1881 25.8476 25.142L23.8593 23.1518C23.8127 23.1036 23.7569 23.0653 23.6951 23.0391C23.6334 23.0129 23.567 22.9995 23.5 22.9995Z" fill="#FFD158"/>
    <path fill-rule="evenodd" clip-rule="evenodd" d="M8.48436 23.0013C8.3546 23.005 8.23133 23.0589 8.14061 23.1517L6.15233 25.142C6.10426 25.188 6.06588 25.2432 6.03942 25.3043C6.01296 25.3654 5.99897 25.4311 5.99826 25.4977C5.99755 25.5642 6.01013 25.6303 6.03528 25.6919C6.06043 25.7535 6.09763 25.8095 6.1447 25.8566C6.19177 25.9036 6.24777 25.9409 6.3094 25.9661C6.37104 25.9912 6.43708 26.0038 6.50364 26.0031C6.57021 26.0023 6.63596 25.9884 6.69704 25.9619C6.75812 25.9355 6.81331 25.8971 6.85936 25.849L8.84764 23.8588C8.91953 23.7885 8.96856 23.6982 8.98833 23.5996C9.00811 23.501 8.9977 23.3987 8.95847 23.3062C8.91925 23.2136 8.85303 23.1349 8.76845 23.0806C8.68387 23.0262 8.58487 22.9986 8.48436 23.0013Z" fill="#FFD158"/>
</svg>
