<svg width="96" height="96" viewBox="0 0 96 96" fill="none" xmlns="http://www.w3.org/2000/svg">
    <path d="M48.05 81H47.95C47.435 73.737 41.394 68 34 68C34 75.394 39.737 81.435 47 81.95V94H49V81.95C56.263 81.435 62 75.395 62 68C54.606 68 48.565 73.737 48.05 81Z" fill="#219653"/>
    <path d="M17.05 86H16.95C16.435 78.737 10.394 73 3 73C3 80.394 8.737 86.435 16 86.95V94H18V86.95C25.263 86.435 31 80.395 31 73C23.606 73 17.565 78.737 17.05 86Z" fill="#219653"/>
    <path d="M80 94V86.95C87.263 86.435 93 80.395 93 73C85.606 73 79.565 78.737 79.05 86H78.95C78.435 78.737 72.394 73 65 73C65 80.394 70.737 86.435 78 86.95V94H80Z" fill="#219653"/>
    <path d="M78 40C80.209 40 82 38.209 82 36C82 34.138 80.722 32.587 79 32.141V16H77V32.141C75.278 32.587 74 34.138 74 36C74 38.209 75.791 40 78 40Z" fill="#219653"/>
    <path d="M57 16H65C66.104 16 67 16.896 67 18V48H94V2H57V16ZM74 29.079V8H82V29.079C84.389 30.463 86 33.041 86 36C86 40.418 82.418 44 78 44C73.582 44 70 40.418 70 36C70 33.041 71.611 30.463 74 29.079Z" fill="#219653"/>
    <path d="M29 18C29 16.896 29.896 16 31 16H39V2H2V48H29V18ZM11.224 38C9.047 38 7.72 35.606 8.874 33.76L11.224 30L13.574 33.76C14.728 35.606 13.401 38 11.224 38ZM21.776 33C19.599 33 18.272 30.606 19.426 28.76L21.776 25L24.126 28.76C25.279 30.606 23.952 33 21.776 33ZM25 20H11C8.791 20 7 18.209 7 16C7 13.791 8.791 12 11 12C11.353 12 11.689 12.06 12.015 12.146C12.013 12.096 12 12.05 12 12C12 9.239 14.239 7 17 7C19.761 7 22 9.239 22 12C22 12.047 21.987 12.091 21.986 12.137C23.057 12.41 23.945 13.112 24.474 14.053C24.645 14.023 24.82 14 25 14C26.657 14 28 15.343 28 17C28 18.657 26.657 20 25 20Z" fill="#219653"/>
    <path d="M31 60H65V18H31V60ZM39 56H37V54H39V56ZM49 56H47V54H49V56ZM59 56H57V54H59V56ZM55 28H61V49H55V28ZM45 37H51V49H45V37ZM35 32H41V49H35V32Z" fill="#219653"/>
</svg>
